<svg width="135" height="40" viewBox="0 0 135 40" fill="none" xmlns="http://www.w3.org/2000/svg">
<path d="M134.25 34.7234C134.25 36.7678 132.531 38.4238 130.406 38.4238H4.59932C2.47463 38.4238 0.75 36.7678 0.75 34.7234V5.21401C0.75 3.17058 2.47463 1.50879 4.59932 1.50879H130.405C132.531 1.50879 134.249 3.17058 134.249 5.21401L134.25 34.7234Z" fill="#2B2B2B"/>
<path d="M130 1.55354C132.315 1.55354 134.199 3.36018 134.199 5.58042V34.3524C134.199 36.5726 132.315 38.3793 130 38.3793H5C2.685 38.3793 0.80125 36.5726 0.80125 34.3524V5.58042C0.80125 3.36018 2.685 1.55354 5 1.55354H130ZM130 0.785095H5C2.25125 0.785095 0 2.94419 0 5.58042V34.3524C0 36.9886 2.25125 39.1477 5 39.1477H130C132.749 39.1477 135 36.9886 135 34.3524V5.58042C135 2.94419 132.749 0.785095 130 0.785095Z" fill="#A6A6A6"/>
<path d="M30.128 19.7591C30.099 16.668 32.767 15.1642 32.889 15.0942C31.378 12.9814 29.036 12.6927 28.213 12.6697C26.246 12.4711 24.338 13.7985 23.336 13.7985C22.314 13.7985 20.771 12.6888 19.108 12.7215C16.968 12.7531 14.966 13.9414 13.868 15.7866C11.602 19.549 13.292 25.0781 15.463 28.1192C16.549 29.6087 17.818 31.2717 19.479 31.2132C21.104 31.1489 21.711 30.2196 23.672 30.2196C25.615 30.2196 26.185 31.2132 27.879 31.1758C29.623 31.1489 30.721 29.6796 31.769 28.1768C33.024 26.4697 33.528 24.7884 33.548 24.7021C33.507 24.6887 30.161 23.4639 30.128 19.7591Z" fill="white"/>
<path d="M26.928 10.6691C27.802 9.6208 28.4 8.19467 28.234 6.74744C26.969 6.80114 25.387 7.58662 24.476 8.61186C23.67 9.5153 22.95 10.9961 23.136 12.3887C24.557 12.4903 26.016 11.701 26.928 10.6691Z" fill="white"/>
<path d="M49.05 10.3837C49.05 11.5126 48.697 12.3623 47.992 12.9329C47.339 13.4595 46.411 13.7232 45.209 13.7232C44.613 13.7232 44.103 13.6983 43.676 13.6484V7.48065C44.233 7.39434 44.833 7.35022 45.481 7.35022C46.626 7.35022 47.489 7.58903 48.071 8.06664C48.723 8.6066 49.05 9.37864 49.05 10.3837ZM47.945 10.4116C47.945 9.67979 47.743 9.11874 47.339 8.72744C46.935 8.3371 46.345 8.14145 45.568 8.14145C45.238 8.14145 44.957 8.16255 44.724 8.20666V12.8955C44.853 12.9147 45.089 12.9233 45.432 12.9233C46.234 12.9233 46.853 12.7095 47.289 12.2817C47.725 11.854 47.945 11.2306 47.945 10.4116Z" fill="white"/>
<path d="M54.9091 11.3695C54.9091 12.0648 54.7021 12.6345 54.2881 13.0814C53.8541 13.5408 53.2791 13.77 52.5611 13.77C51.8691 13.77 51.3181 13.5504 50.9071 13.1092C50.4971 12.669 50.2921 12.1137 50.2921 11.4443C50.2921 10.7442 50.5031 10.1697 50.9271 9.72375C51.3511 9.27778 51.9211 9.05432 52.6391 9.05432C53.3311 9.05432 53.8871 9.27395 54.3081 9.71416C54.7081 10.1419 54.9091 10.6943 54.9091 11.3695ZM53.8221 11.4021C53.8221 10.9849 53.7281 10.6272 53.5411 10.3289C53.3211 9.96831 53.0081 9.78801 52.6011 9.78801C52.1801 9.78801 51.8601 9.96831 51.6401 10.3289C51.4521 10.6272 51.3591 10.9907 51.3591 11.4203C51.3591 11.8375 51.4531 12.1953 51.6401 12.4935C51.8671 12.8541 52.1831 13.0344 52.5911 13.0344C52.9911 13.0344 53.3051 12.8513 53.5311 12.4839C53.7251 12.1799 53.8221 11.8193 53.8221 11.4021Z" fill="white"/>
<path d="M62.7651 9.14661L61.2901 13.6676H60.3301L59.7191 11.7044C59.5641 11.2144 59.4381 10.7271 59.3401 10.2438H59.3211C59.2301 10.7406 59.1041 11.2268 58.9421 11.7044L58.2931 13.6676H57.3221L55.9351 9.14661H57.0121L57.5451 11.2959C57.6741 11.8042 57.7801 12.2885 57.8651 12.7469H57.8841C57.9621 12.3691 58.0911 11.8876 58.2731 11.3055L58.9421 9.14757H59.7961L60.4371 11.2594C60.5921 11.7744 60.7181 12.2703 60.8151 12.7479H60.8441C60.9151 12.2827 61.0221 11.7869 61.1641 11.2594L61.7361 9.14757H62.7651V9.14661Z" fill="white"/>
<path d="M68.198 13.6675H67.15V11.078C67.15 10.2801 66.834 9.88111 66.2 9.88111C65.889 9.88111 65.638 9.99044 65.443 10.2101C65.25 10.4297 65.152 10.6886 65.152 10.985V13.6665H64.104V10.4383C64.104 10.0413 64.091 9.61065 64.066 9.14454H64.987L65.036 9.85138H65.065C65.187 9.63175 65.369 9.45049 65.608 9.30567C65.892 9.13687 66.21 9.05151 66.558 9.05151C66.998 9.05151 67.364 9.1877 67.655 9.46103C68.017 9.79575 68.198 10.2954 68.198 10.9591V13.6675Z" fill="white"/>
<path d="M71.088 13.6676H70.041V7.07214H71.088V13.6676Z" fill="white"/>
<path d="M77.2581 11.3695C77.2581 12.0648 77.0511 12.6345 76.6371 13.0814C76.2031 13.5408 75.6271 13.77 74.9101 13.77C74.2171 13.77 73.6661 13.5504 73.2561 13.1092C72.8461 12.669 72.6411 12.1137 72.6411 11.4443C72.6411 10.7442 72.8521 10.1697 73.2761 9.72375C73.7001 9.27778 74.2701 9.05432 74.9871 9.05432C75.6801 9.05432 76.2351 9.27395 76.6571 9.71416C77.0571 10.1419 77.2581 10.6943 77.2581 11.3695ZM76.1701 11.4021C76.1701 10.9849 76.0761 10.6272 75.8891 10.3289C75.6701 9.96831 75.3561 9.78801 74.9501 9.78801C74.5281 9.78801 74.2081 9.96831 73.9891 10.3289C73.8011 10.6272 73.7081 10.9907 73.7081 11.4203C73.7081 11.8375 73.8021 12.1953 73.9891 12.4935C74.2161 12.8541 74.5321 13.0344 74.9401 13.0344C75.3401 13.0344 75.6531 12.8513 75.8791 12.4839C76.0741 12.1799 76.1701 11.8193 76.1701 11.4021Z" fill="white"/>
<path d="M82.33 13.6674H81.389L81.311 13.1467H81.282C80.96 13.5619 80.501 13.77 79.905 13.77C79.46 13.77 79.1 13.6329 78.829 13.3605C78.583 13.1131 78.46 12.8052 78.46 12.4398C78.46 11.8874 78.7 11.4664 79.183 11.1748C79.665 10.8833 80.343 10.7404 81.216 10.7471V10.6627C81.216 10.0671 80.89 9.76978 80.237 9.76978C79.772 9.76978 79.362 9.88199 79.008 10.1045L78.795 9.44466C79.233 9.18475 79.774 9.05432 80.412 9.05432C81.644 9.05432 82.262 9.67771 82.262 10.9245V12.5894C82.262 13.0412 82.285 13.4008 82.33 13.6674ZM81.242 12.1137V11.4165C80.086 11.3973 79.508 11.7013 79.508 12.3276C79.508 12.5635 79.574 12.74 79.709 12.858C79.844 12.9759 80.016 13.0344 80.221 13.0344C80.451 13.0344 80.666 12.9644 80.862 12.8254C81.059 12.6853 81.18 12.5079 81.225 12.2902C81.236 12.2413 81.242 12.1818 81.242 12.1137Z" fill="white"/>
<path d="M88.285 13.6676H87.355L87.306 12.9416H87.277C86.98 13.494 86.474 13.7703 85.763 13.7703C85.195 13.7703 84.722 13.5564 84.347 13.1286C83.972 12.7009 83.785 12.1456 83.785 11.4637C83.785 10.7319 83.988 10.1392 84.396 9.68655C84.791 9.26457 85.275 9.05357 85.851 9.05357C86.484 9.05357 86.927 9.25785 87.179 9.66737H87.199V7.07214H88.248V12.4496C88.248 12.8898 88.26 13.2955 88.285 13.6676ZM87.199 11.761V11.0072C87.199 10.8768 87.189 10.7713 87.17 10.6907C87.111 10.449 86.984 10.2457 86.791 10.0817C86.596 9.91769 86.361 9.83521 86.09 9.83521C85.699 9.83521 85.393 9.98387 85.168 10.2821C84.945 10.5804 84.832 10.9612 84.832 11.4263C84.832 11.8732 84.939 12.2358 85.154 12.5148C85.381 12.8121 85.687 12.9608 86.07 12.9608C86.414 12.9608 86.689 12.8371 86.898 12.5887C87.1 12.3595 87.199 12.0833 87.199 11.761Z" fill="white"/>
<path d="M97.248 11.3695C97.248 12.0648 97.041 12.6345 96.627 13.0814C96.193 13.5408 95.619 13.77 94.9 13.77C94.209 13.77 93.658 13.5504 93.246 13.1092C92.836 12.669 92.631 12.1137 92.631 11.4443C92.631 10.7442 92.842 10.1697 93.266 9.72375C93.69 9.27778 94.26 9.05432 94.979 9.05432C95.67 9.05432 96.227 9.27395 96.647 9.71416C97.047 10.1419 97.248 10.6943 97.248 11.3695ZM96.162 11.4021C96.162 10.9849 96.068 10.6272 95.881 10.3289C95.66 9.96831 95.348 9.78801 94.94 9.78801C94.52 9.78801 94.2 9.96831 93.979 10.3289C93.791 10.6272 93.698 10.9907 93.698 11.4203C93.698 11.8375 93.792 12.1953 93.979 12.4935C94.206 12.8541 94.522 13.0344 94.93 13.0344C95.33 13.0344 95.645 12.8513 95.871 12.4839C96.064 12.1799 96.162 11.8193 96.162 11.4021Z" fill="white"/>
<path d="M102.883 13.6675H101.836V11.078C101.836 10.2801 101.52 9.88111 100.885 9.88111C100.574 9.88111 100.323 9.99044 100.129 10.2101C99.935 10.4297 99.838 10.6886 99.838 10.985V13.6665H98.789V10.4383C98.789 10.0413 98.777 9.61065 98.752 9.14454H99.672L99.721 9.85138H99.75C99.873 9.63175 100.055 9.45049 100.293 9.30567C100.578 9.13687 100.895 9.05151 101.244 9.05151C101.683 9.05151 102.049 9.1877 102.34 9.46103C102.703 9.79575 102.883 10.2954 102.883 10.9591V13.6675Z" fill="white"/>
<path d="M109.936 9.89956H108.782V12.0958C108.782 12.654 108.987 12.9331 109.393 12.9331C109.581 12.9331 109.737 12.9177 109.86 12.8861L109.887 13.6485C109.68 13.7234 109.408 13.7608 109.073 13.7608C108.659 13.7608 108.337 13.6399 108.104 13.3982C107.87 13.1565 107.754 12.7499 107.754 12.1793V9.89956H107.065V9.14669H107.754V8.31806L108.781 8.02075V9.14574H109.935V9.89956H109.936Z" fill="white"/>
<path d="M115.484 13.6676H114.435V11.0973C114.435 10.2869 114.119 9.88125 113.486 9.88125C113 9.88125 112.668 10.1162 112.486 10.5862C112.455 10.6849 112.437 10.8058 112.437 10.9477V13.6667H111.39V7.07214H112.437V9.79685H112.457C112.787 9.30101 113.26 9.05357 113.873 9.05357C114.307 9.05357 114.666 9.18976 114.951 9.46309C115.306 9.80356 115.484 10.3099 115.484 10.9794V13.6676Z" fill="white"/>
<path d="M121.207 11.193C121.207 11.3733 121.193 11.5248 121.168 11.6486H118.025C118.039 12.0955 118.189 12.4359 118.48 12.6719C118.746 12.8829 119.089 12.9884 119.509 12.9884C119.974 12.9884 120.398 12.9174 120.78 12.7745L120.944 13.4727C120.497 13.6588 119.971 13.7518 119.362 13.7518C118.632 13.7518 118.057 13.5456 117.641 13.1332C117.223 12.7208 117.016 12.1674 117.016 11.473C117.016 10.7912 117.209 10.2234 117.598 9.77071C118.004 9.28734 118.553 9.04565 119.246 9.04565C119.924 9.04565 120.439 9.28734 120.787 9.77071C121.068 10.1543 121.207 10.6291 121.207 11.193ZM120.207 10.9331C120.215 10.6348 120.146 10.3778 120.004 10.161C119.822 9.88196 119.545 9.74194 119.17 9.74194C118.828 9.74194 118.549 9.87812 118.336 10.1515C118.162 10.3692 118.059 10.6291 118.025 10.9331H120.207Z" fill="white"/>
<path d="M53.645 31.0001H51.374L50.13 27.2511H45.806L44.621 31.0001H42.41L46.694 18.2368H49.34L53.645 31.0001ZM49.755 25.6782L48.63 22.3455C48.511 22.005 48.288 21.2032 47.959 19.9411H47.919C47.788 20.4839 47.577 21.2857 47.287 22.3455L46.182 25.6782H49.755Z" fill="white"/>
<path d="M64.662 26.2854C64.662 27.8506 64.221 29.0878 63.339 29.996C62.549 30.8045 61.568 31.2083 60.397 31.2083C59.133 31.2083 58.225 30.7729 57.672 29.902H57.632V34.7501H55.5V24.8267C55.5 23.8427 55.473 22.8328 55.421 21.797H57.296L57.415 23.2557H57.455C58.166 22.1566 59.245 21.608 60.693 21.608C61.825 21.608 62.77 22.0367 63.526 22.8951C64.284 23.7544 64.662 24.8842 64.662 26.2854ZM62.49 26.3602C62.49 25.4644 62.28 24.726 61.858 24.1448C61.397 23.5386 60.778 23.2356 60.002 23.2356C59.476 23.2356 58.998 23.4044 58.571 23.7372C58.143 24.0728 57.863 24.5111 57.732 25.054C57.666 25.3071 57.633 25.5143 57.633 25.6773V27.2119C57.633 27.8813 57.847 28.4462 58.275 28.9075C58.703 29.3688 59.259 29.599 59.943 29.599C60.746 29.599 61.371 29.3017 61.818 28.709C62.266 28.1153 62.49 27.3327 62.49 26.3602Z" fill="white"/>
<path d="M75.699 26.2854C75.699 27.8506 75.258 29.0878 74.375 29.996C73.586 30.8045 72.605 31.2083 71.434 31.2083C70.17 31.2083 69.262 30.7729 68.71 29.902H68.67V34.7501H66.538V24.8267C66.538 23.8427 66.511 22.8328 66.459 21.797H68.334L68.453 23.2557H68.493C69.203 22.1566 70.282 21.608 71.731 21.608C72.862 21.608 73.807 22.0367 74.565 22.8951C75.32 23.7544 75.699 24.8842 75.699 26.2854ZM73.527 26.3602C73.527 25.4644 73.316 24.726 72.894 24.1448C72.433 23.5386 71.816 23.2356 71.039 23.2356C70.512 23.2356 70.035 23.4044 69.607 23.7372C69.179 24.0728 68.9 24.5111 68.769 25.054C68.704 25.3071 68.67 25.5143 68.67 25.6773V27.2119C68.67 27.8813 68.884 28.4462 69.31 28.9075C69.738 29.3678 70.294 29.599 70.98 29.599C71.783 29.599 72.408 29.3017 72.855 28.709C73.303 28.1153 73.527 27.3327 73.527 26.3602Z" fill="white"/>
<path d="M88.039 27.421C88.039 28.5066 87.646 29.3899 86.857 30.0718C85.99 30.817 84.783 31.1891 83.232 31.1891C81.8 31.1891 80.652 30.9244 79.783 30.3941L80.277 28.6898C81.213 29.2326 82.24 29.505 83.359 29.505C84.162 29.505 84.787 29.3305 85.236 28.9833C85.683 28.6361 85.906 28.17 85.906 27.5888C85.906 27.0709 85.722 26.6345 85.353 26.2806C84.986 25.9267 84.373 25.5978 83.517 25.2937C81.187 24.4603 80.023 23.2394 80.023 21.634C80.023 20.5847 80.431 19.7245 81.248 19.055C82.062 18.3846 83.148 18.0499 84.506 18.0499C85.717 18.0499 86.723 18.2523 87.526 18.6561L86.993 20.3229C86.243 19.9316 85.395 19.736 84.446 19.736C83.696 19.736 83.11 19.9134 82.69 20.2663C82.335 20.5819 82.157 20.9664 82.157 21.422C82.157 21.9265 82.36 22.3437 82.768 22.6717C83.123 22.9747 83.768 23.3027 84.704 23.6566C85.849 24.0988 86.69 24.6157 87.231 25.2084C87.77 25.7992 88.039 26.5386 88.039 27.421Z" fill="white"/>
<path d="M95.088 23.3314H92.738V27.7997C92.738 28.9362 93.152 29.504 93.982 29.504C94.363 29.504 94.679 29.4723 94.929 29.409L94.988 30.9617C94.568 31.1123 94.015 31.1881 93.33 31.1881C92.488 31.1881 91.83 30.9416 91.355 30.4496C90.882 29.9566 90.644 29.1299 90.644 27.9685V23.3295H89.244V21.795H90.644V20.1099L92.738 19.5038V21.795H95.088V23.3314Z" fill="white"/>
<path d="M105.691 26.3228C105.691 27.7374 105.269 28.8989 104.427 29.8071C103.544 30.7422 102.372 31.2083 100.911 31.2083C99.5031 31.2083 98.382 30.7604 97.546 29.8646C96.7101 28.9689 96.2921 27.8381 96.2921 26.4753C96.2921 25.0492 96.7221 23.881 97.5851 22.9728C98.4461 22.0636 99.6081 21.609 101.069 21.609C102.477 21.609 103.61 22.0569 104.465 22.9536C105.283 23.8235 105.691 24.9466 105.691 26.3228ZM103.479 26.389C103.479 25.5402 103.29 24.8123 102.907 24.2052C102.46 23.4706 101.821 23.1042 100.993 23.1042C100.136 23.1042 99.4851 23.4715 99.0381 24.2052C98.6551 24.8132 98.4661 25.5527 98.4661 26.4274C98.4661 27.2761 98.6551 28.0041 99.0381 28.6102C99.4991 29.3448 100.143 29.7112 100.974 29.7112C101.788 29.7112 102.427 29.3372 102.888 28.591C103.281 27.9724 103.479 27.2368 103.479 26.389Z" fill="white"/>
<path d="M112.621 23.5952C112.41 23.5578 112.185 23.5386 111.949 23.5386C111.199 23.5386 110.619 23.81 110.211 24.3538C109.856 24.8334 109.678 25.4395 109.678 26.1713V31.0002H107.547L107.567 24.6953C107.567 23.6345 107.54 22.6688 107.487 21.7979H109.344L109.422 23.5588H109.481C109.706 22.9536 110.061 22.4664 110.547 22.101C111.022 21.772 111.535 21.608 112.088 21.608C112.285 21.608 112.463 21.6215 112.621 21.6454V23.5952Z" fill="white"/>
<path d="M122.156 25.9631C122.156 26.3294 122.131 26.6383 122.078 26.8905H115.682C115.707 27.7997 116.016 28.495 116.61 28.9745C117.149 29.4032 117.846 29.6181 118.702 29.6181C119.649 29.6181 120.513 29.4733 121.29 29.1827L121.624 30.6021C120.716 30.9819 119.644 31.1708 118.407 31.1708C116.919 31.1708 115.751 30.7507 114.901 29.9115C114.053 29.0724 113.628 27.9455 113.628 26.5318C113.628 25.144 114.023 23.9884 114.814 23.0667C115.642 22.0827 116.761 21.5907 118.169 21.5907C119.552 21.5907 120.599 22.0827 121.31 23.0667C121.873 23.8483 122.156 24.8151 122.156 25.9631ZM120.123 25.4327C120.137 24.8266 119.998 24.3029 119.709 23.8608C119.34 23.2921 118.773 23.0082 118.01 23.0082C117.313 23.0082 116.746 23.2854 116.313 23.8416C115.958 24.2838 115.747 24.8141 115.682 25.4318H120.123V25.4327Z" fill="white"/>
</svg>
