<svg width="1440" height="110" viewBox="0 0 1440 110" fill="none" xmlns="http://www.w3.org/2000/svg">
<rect width="1440" height="110" fill="#100F0E" fill-opacity="0.02"/>
<path fill-rule="evenodd" clip-rule="evenodd" d="M192.348 66.9749C190.513 66.6189 188.366 66.4229 186.223 66.4449C184.305 66.3449 182.383 66.4819 178.958 67.2149C175.535 67.9469 170.616 69.2749 167.335 70.0349C164.058 70.7929 162.421 70.9819 160.779 71.0149C159.959 71.0149 159.149 70.9499 158.429 70.8309C157.709 70.7109 157.083 70.5389 156.532 70.3349C155.982 70.1269 155.506 69.8889 155.085 69.6249C154.668 69.3609 154.305 69.0749 153.991 68.7619C153.674 68.4519 153.401 68.1149 153.171 67.7549C152.934 67.3949 152.737 67.0109 152.578 66.5949C152.418 66.1749 152.294 65.7289 152.211 65.2419C152.129 64.7549 152.087 64.2289 152.088 63.7019C152.095 62.9049 152.194 62.1119 152.456 61.0439C152.716 59.9739 153.138 58.6239 153.826 56.9939C154.511 55.3539 155.459 53.4339 156.572 51.5339C157.685 49.6239 158.962 47.7439 160.177 46.1539C161.393 44.5639 162.552 43.2739 163.581 42.2539C164.615 41.2339 165.521 40.4839 166.307 39.9239C167.097 39.3539 167.764 38.9739 168.361 38.6869C168.953 38.4069 169.481 38.2269 169.953 38.1099C170.428 37.9939 170.855 37.9439 171.283 37.9439C171.563 37.9499 171.778 37.9599 172.019 38.1319C172.252 38.3419 172.279 38.5119 172.326 38.8179C172.338 38.9539 172.346 39.1359 172.346 39.3179C171.729 39.5909 171.056 40.0339 170.552 40.4729C170.316 40.6749 170.147 40.8529 170.012 41.0059C169.662 41.4159 169.458 41.7959 169.447 42.2009C169.402 42.4949 169.807 43.0309 170.077 43.1749C170.907 43.7289 171.845 43.3569 172.717 42.3549C172.887 42.1469 173.053 41.9089 173.197 41.6499C173.344 41.3929 173.472 41.1099 173.574 40.8269C173.94 39.6969 174.102 38.5309 173.3 37.5329C173.112 37.3069 172.885 37.1089 172.614 36.9429C172.34 36.7769 172.026 36.6459 171.674 36.5529C171.314 36.4629 170.914 36.4109 170.326 36.4229C169.736 36.4359 168.96 36.5129 168.089 36.6979C167.219 36.8879 166.252 37.1829 165.179 37.6419C164.109 38.0959 162.932 38.7119 161.639 39.5519C160.346 40.3919 158.936 41.4539 157.504 42.7379C156.074 44.0239 154.62 45.5279 153.294 47.1279C150.594 50.3679 148.574 53.8419 147.48 56.5629C146.926 57.9529 146.566 59.1779 146.33 60.2629C146.104 61.3489 146 62.2949 146 63.2449C145.996 64.4919 146.156 65.7429 146.48 66.7889C146.636 67.2859 146.82 67.7389 147.038 68.1589C147.256 68.5789 147.505 68.9669 147.788 69.3289C148.072 69.6889 148.392 70.0219 148.761 70.3349C149.131 70.6469 149.551 70.9389 150.031 71.2089C150.516 71.4789 151.061 71.7239 151.711 71.9389C152.361 72.1589 153.114 72.3469 154.034 72.4789C154.954 72.6129 156.044 72.6889 157.134 72.6889C158.844 72.7439 160.554 72.6159 163.397 72.0339C166.241 71.4439 170.217 70.4139 173.07 69.8339C175.92 69.2539 177.65 69.1239 179.38 69.1839C180.46 69.1739 181.55 69.2539 182.43 69.3839C183.31 69.5139 183.985 69.7059 184.617 69.9539C185.247 70.1969 185.837 70.4959 186.487 70.9489C187.144 71.4039 187.862 72.0139 188.52 72.6789C190.31 71.5039 192.194 70.8089 193.64 70.5789C194.366 70.4489 195.023 70.3919 195.678 70.3949C195.958 70.3949 196.238 70.4179 196.565 70.4599C196.891 70.4999 197.269 70.5679 198.355 70.8839C199.435 71.2009 201.219 71.7709 202.99 72.3789C201.17 70.9189 199.203 69.6339 197.46 68.7389C195.712 67.8389 194.187 67.3189 192.353 66.9689L192.348 66.9749ZM236.968 64.8589C236.532 65.5129 236.078 66.1289 235.634 66.6629C235.194 67.1969 234.764 67.6529 234.389 68.0029C234.009 68.3549 233.689 68.6069 233.429 68.7809C233.169 68.9559 232.959 69.0539 232.799 69.1159C232.639 69.1759 232.519 69.2059 232.395 69.2059C232.005 69.2059 231.615 69.0459 231.27 68.6559C231.16 68.5339 231.063 68.3859 230.98 68.2159C230.798 67.8259 230.72 67.5059 230.73 66.9959C230.732 66.7099 230.762 66.3399 230.833 65.9499C230.903 65.5599 231.013 65.1539 231.173 64.7199C231.717 63.2549 232.83 61.6959 234.386 60.3749C234.578 60.7199 234.821 61.0509 235.186 61.3799C235.356 61.5359 235.553 61.6859 235.791 61.8399C236.029 61.9929 236.308 62.1479 236.715 62.3159C237.119 62.4819 237.655 62.6639 238.195 62.8109C237.815 63.5209 237.395 64.2149 236.958 64.8679L236.968 64.8589ZM258.296 65.6989C257.892 66.3689 257.428 67.0069 257.056 67.4789C256.683 67.9489 256.388 68.2489 256.133 68.4659C255.879 68.6859 255.663 68.8259 255.448 68.9159C255.008 69.0959 254.514 69.1359 254.173 68.8659C253.88 68.5759 253.886 68.3459 253.879 67.9159C253.879 67.7259 253.899 67.4659 253.939 67.1759C253.982 66.8859 254.051 66.5659 254.163 66.1859C254.273 65.8159 254.425 65.4059 254.638 64.9159C254.853 64.4359 255.128 63.8859 255.488 63.2759C255.845 62.6659 256.288 61.9959 256.803 61.2959C257.323 60.6059 257.918 59.8859 258.499 59.2559C259.079 58.6359 259.649 58.0959 260.125 57.6859C260.605 57.2859 260.995 57.0059 261.295 56.8259C261.595 56.6459 261.811 56.5539 261.98 56.4959C262.15 56.4359 262.28 56.4139 262.407 56.4129C262.647 56.4159 262.813 56.4159 263.001 56.5159C263.279 56.7289 263.165 56.9859 263.111 57.2859C263.071 57.4579 263.001 57.6779 262.881 57.9489C262.761 58.2189 262.598 58.5389 262.411 58.8489L258.298 65.7049L258.296 65.6989ZM239.508 59.0249C239.478 59.2409 239.438 59.4529 239.272 59.9049C239.106 60.3579 238.81 61.0499 238.487 61.7269C238.06 61.5999 237.639 61.4469 237.335 61.3119C237.028 61.1779 236.841 61.0619 236.682 60.9549C236.526 60.8449 236.402 60.7419 236.296 60.6389C236.083 60.4289 235.94 60.2239 235.836 60.0039C235.382 58.8539 235.456 57.6639 236.816 56.7439C237.222 56.4939 237.642 56.3839 238.03 56.3939C238.428 56.4039 238.73 56.4139 239.076 56.6739C239.413 56.9889 239.456 57.2669 239.522 57.7039C239.542 57.8869 239.552 58.1269 239.552 58.3539C239.552 58.5839 239.536 58.7989 239.508 59.0139V59.0249ZM198.683 57.6799C199.008 56.9679 199.543 55.8349 200.093 54.7099L204.97 45.7219H201.315L200.703 46.4839C200.193 46.2139 199.668 45.9739 199.291 45.8339C198.911 45.6939 198.681 45.6439 198.431 45.6139C198.191 45.5839 197.921 45.5639 197.661 45.5639C196.801 45.5739 195.971 45.8039 194.981 46.3639C194.611 46.5769 194.191 46.8639 193.664 47.2639C193.134 47.6659 192.498 48.1879 191.342 49.5139C190.185 50.8369 188.509 52.9639 187.117 54.6899C185.724 56.4199 184.615 57.7469 183.817 58.6049C183.017 59.4629 182.527 59.8449 182.124 60.1329C181.722 60.4169 181.409 60.6029 181.124 60.7389C180.844 60.8749 180.594 60.9609 180.359 61.0159C179.749 61.1559 179.096 61.1459 178.599 60.8359C178.299 60.6199 178.216 60.4319 178.125 60.1959C177.938 59.5559 178.015 59.0439 178.105 58.4189C178.165 58.0489 178.26 57.6389 178.411 57.1589C178.563 56.6789 178.771 56.1359 179.064 55.5149C179.354 54.8949 179.728 54.1949 180.206 53.4379C181.146 51.9209 182.559 50.1879 183.686 49.1179C184.242 48.5819 184.71 48.2079 185.076 47.9579C185.441 47.7079 185.704 47.5729 185.906 47.4939C186.109 47.4169 186.25 47.3889 186.394 47.3879C186.594 47.3939 186.768 47.4149 186.954 47.5379C187.184 47.7179 187.224 47.8379 187.28 48.1239C187.296 48.2509 187.31 48.4309 187.31 48.6109C186.967 48.6609 186.63 48.7379 186.363 48.8169C186.098 48.8969 185.909 48.9799 185.753 49.0609C185.596 49.1449 185.468 49.2249 185.36 49.3049C184.6 49.8819 184.52 50.6049 184.594 51.0749C184.664 51.3049 184.844 51.5429 185.084 51.7149C185.774 52.2449 186.584 51.8949 187.354 50.9649C187.494 50.7949 187.634 50.5999 187.764 50.3899C188.174 49.7149 188.404 49.0639 188.494 48.5019C188.616 47.6119 188.488 46.5659 187.274 45.7799C186.82 45.5259 186.418 45.4179 185.874 45.4179C185.574 45.4179 185.207 45.4509 184.838 45.5279C184.468 45.5979 184.096 45.7159 183.673 45.8779C183.253 46.0429 182.786 46.2559 181.937 46.9279C181.087 47.6029 179.851 48.7379 178.872 49.5609C177.892 50.3849 177.162 50.8979 176.532 51.2779C175.902 51.6579 175.369 51.9079 174.846 52.1079C174.323 52.3129 173.813 52.4679 173.294 52.5839C173.549 51.9369 173.774 51.2839 173.939 50.7169C174.104 50.1529 174.209 49.6799 174.274 49.3219C174.339 48.9619 174.364 48.7119 174.362 48.4559C174.359 47.9459 174.242 47.4159 174.038 47.0109C173.938 46.8109 173.818 46.6369 173.688 46.4849C173.388 46.1349 173.073 45.9449 172.742 45.8049C171.86 45.4689 171.116 45.5249 170.22 45.7299C169.766 45.8399 169.253 46.0149 168.67 46.2899C168.09 46.5639 167.442 46.9349 166.74 47.4329C166.037 47.9269 165.282 48.5479 164.54 49.2729C163.796 49.9989 163.063 50.8229 162.417 51.6689C161.137 53.3419 160.207 55.0839 159.681 56.5359C159.419 57.2559 159.246 57.9109 159.136 58.5099C159.026 59.1099 158.976 59.6499 158.971 60.0899C158.965 60.5269 159.001 60.8599 159.064 61.1599C159.124 61.4599 159.216 61.7299 159.334 61.9699C159.447 62.2099 159.588 62.4199 159.754 62.6099C159.924 62.7999 160.114 62.9599 160.336 63.0999C160.556 63.2379 160.809 63.3499 161.094 63.4259C161.379 63.5019 161.697 63.5459 162.048 63.5459C162.398 63.5459 162.778 63.5059 163.171 63.4159C163.564 63.3259 163.973 63.1959 164.405 63.0009C164.835 62.8069 165.295 62.5509 165.801 62.1909C166.309 61.8359 166.861 61.3809 167.499 60.7509C168.139 60.1239 168.865 59.3209 169.754 58.1389C170.644 56.9589 171.698 55.3989 172.674 53.7949L175.419 53.1849C174.724 54.5649 174.086 55.9779 173.725 56.8809C173.365 57.7809 173.285 58.1739 173.225 58.5909C173.045 59.9049 173.088 61.2409 173.839 62.2789C174.069 62.5989 174.349 62.8789 174.679 63.1119C175.009 63.3419 175.394 63.5319 175.829 63.6559C176.269 63.7859 176.759 63.8529 177.249 63.8519C178.515 63.8359 179.615 63.5819 181.043 62.6969C181.526 62.3969 182.069 62.0049 182.803 61.3519C183.533 60.6979 184.453 59.7819 185.323 58.8219C185.318 59.6589 185.347 60.4989 185.393 61.0419C185.441 61.5869 185.503 61.8319 185.567 62.0319C185.634 62.2319 185.697 62.3849 185.763 62.5179C185.833 62.6479 185.903 62.7559 185.978 62.8479C186.261 63.1879 186.528 63.3179 186.843 63.4219C187.886 63.6719 188.693 63.5419 189.693 63.1019C190.049 62.9419 190.437 62.7219 190.941 62.3619C191.445 61.9969 192.061 61.4919 192.641 60.9519C192.641 61.2959 192.661 61.6419 192.687 61.8919C192.717 62.1419 192.757 62.2979 192.797 62.4269C192.867 62.6369 192.931 62.7799 193.089 62.9669C193.489 63.3769 193.879 63.4369 194.379 63.5069C194.579 63.5269 194.829 63.5369 195.079 63.5369C196.053 63.5329 197.019 63.2269 198.133 62.5169C198.716 62.1429 199.336 61.6469 199.999 60.9819C200.659 60.3169 201.362 59.4819 202.089 58.4419C202.813 57.4019 203.561 56.1519 204.222 54.8559L203.459 54.6999C202.539 55.9319 201.599 57.1439 200.983 57.8929C200.371 58.6389 200.091 58.9229 199.878 59.1229C199.664 59.3229 199.518 59.4329 199.388 59.5149C199.118 59.6949 198.838 59.7519 198.558 59.7149C198.396 59.7229 198.128 59.5279 198.138 59.2909C198.138 59.1569 198.083 59.1509 198.198 58.8429C198.261 58.6699 198.372 58.3769 198.698 57.6649L198.683 57.6799ZM168.563 57.7479C167.89 58.6849 167.596 58.9819 167.351 59.2099C167.111 59.4399 166.911 59.5999 166.741 59.7249C166.561 59.8479 166.401 59.9349 166.249 60.0019C165.532 60.2919 164.703 60.3419 164.115 59.6019C163.908 59.2919 163.835 59.0139 163.841 58.6079C163.851 58.3729 163.885 58.0799 163.991 57.6839C164.091 57.2839 164.261 56.7839 164.557 56.1439C164.85 55.5039 165.271 54.7339 165.823 53.8759C166.376 53.0209 167.066 52.0859 167.803 51.1929C168.206 51.6529 168.637 52.0829 168.976 52.3869C169.316 52.6909 169.566 52.8609 169.936 53.0509C170.306 53.2409 170.802 53.4539 171.306 53.6309C170.304 55.2309 169.25 56.8029 168.576 57.7409L168.563 57.7479ZM194.445 56.9919C194.158 57.4619 193.849 57.9159 193.579 58.2819C193.309 58.6449 193.069 58.9199 192.869 59.1339C192.659 59.3439 192.489 59.4939 192.339 59.6139C192.079 59.8139 191.859 59.9339 191.639 59.9939C191.299 60.0809 190.882 60.0109 190.555 59.7139C190.229 59.3639 190.175 59.1539 190.17 58.7539C190.17 58.5839 190.195 58.3559 190.253 58.0669C190.315 57.7769 190.413 57.4269 190.583 56.9769C190.753 56.5269 190.996 55.9789 191.366 55.2969C191.736 54.6139 192.226 53.7969 192.823 52.9369C193.42 52.0769 194.117 51.1729 194.76 50.4209C195.403 49.6709 195.994 49.0709 196.464 48.6409C196.932 48.2109 197.284 47.9509 197.554 47.7779C197.822 47.5999 198.014 47.5129 198.164 47.4579C198.451 47.3519 198.714 47.3479 198.984 47.4579C199.454 47.7309 199.304 48.2179 199.288 48.4729C199.268 48.5729 199.242 48.6629 199.068 48.9859C198.898 49.3099 198.578 49.8679 198.248 50.4259L194.438 56.9759L194.445 56.9919ZM265.18 66.2519C264.654 66.8999 264.248 67.3319 263.918 67.6579C263.588 67.9829 263.332 68.1979 263.12 68.3579C262.91 68.5179 262.742 68.6209 262.596 68.6949C262.306 68.8369 262.096 68.9149 261.802 68.8649C261.512 68.7989 261.498 68.5669 261.497 68.4249C261.527 68.3109 261.447 68.4679 261.787 67.7519C262.04 67.2219 262.527 66.2219 263.017 65.2239L268.807 54.5539H265.457L264.39 55.4639C263.95 55.2039 263.492 54.9699 263.16 54.8279C262.83 54.6879 262.623 54.6379 262.413 54.6019C262.208 54.5669 262.003 54.5479 261.773 54.5479C260.617 54.5619 259.548 54.8979 258.396 55.5679C258.052 55.7679 257.684 56.0079 257.276 56.3249C256.87 56.6379 256.416 57.0249 255.879 57.5309C255.339 58.0349 254.699 58.6609 253.609 60.0659C252.519 61.4719 250.975 63.6599 249.885 65.1599C248.795 66.6599 248.158 67.4699 247.71 67.9799C247.265 68.4869 247.008 68.6899 246.804 68.8319C246.6 68.9719 246.454 69.0519 246.318 69.1019C246.123 69.1719 245.978 69.1919 245.778 69.1619C245.465 69.1579 245.054 68.7299 244.98 68.4339C244.81 67.8799 244.85 67.6379 244.99 66.7909C245.072 66.2959 245.22 65.5609 245.46 64.6209C245.7 63.6829 246.03 62.5369 246.4 61.4039C248.85 59.8709 251.21 58.1839 253 56.7139C254.79 55.2439 256.01 53.9979 257.25 52.4939C258.49 50.9889 259.75 49.2269 260.873 47.3879L259.35 47.5379C258.48 48.8479 257.52 50.0979 256.37 51.4039C255.222 52.7089 253.887 54.0669 252.41 55.3809C250.932 56.6909 249.31 57.9569 247.62 59.1179C248.574 57.1279 249.602 55.1739 250.696 53.2679C251.788 51.3579 252.946 49.4979 254.106 47.7879C255.27 46.0799 256.436 44.5219 257.492 43.2319C258.552 41.9419 259.498 40.9199 260.282 40.1589C261.062 39.3989 261.682 38.8989 262.162 38.5609C262.645 38.2209 262.995 38.0409 263.266 37.9309C263.536 37.8209 263.726 37.7839 263.916 37.7809C264.006 37.7809 264.103 37.8109 264.196 37.8659C264.586 38.1589 264.536 38.3239 264.506 38.6479C264.496 38.7379 264.48 38.8349 264.356 39.2009C264.236 39.5629 264.006 40.2009 263.764 40.8259L265.134 40.6759C265.357 40.3059 265.559 39.9189 265.678 39.6559C265.798 39.3899 265.834 39.2459 265.858 39.0799C265.886 38.9139 265.898 38.7299 265.898 38.5399C265.888 37.9159 265.705 37.3099 265.038 36.8029C264.858 36.6729 264.658 36.5729 264.441 36.5049C263.711 36.2999 263.079 36.4149 262.276 36.6189C261.722 36.7729 261.09 37.0149 260.341 37.4089C259.595 37.8009 258.733 38.3489 257.706 39.1519C256.681 39.9579 255.493 41.0219 254.162 42.4319C252.832 43.8399 251.356 45.5919 249.862 47.6319C248.369 49.6749 246.852 52.0019 245.488 54.3849C244.128 56.7679 242.908 59.2009 241.828 61.6949H240.008C240.308 60.9949 240.576 60.2849 240.742 59.7719C240.906 59.2619 240.969 58.9419 241.014 58.6379C241.142 57.7779 241.096 56.8279 240.669 56.0699C240.542 55.8359 240.389 55.6299 240.219 55.4599C239.555 54.8259 239.009 54.6949 238.276 54.6899C237.981 54.6919 237.633 54.7299 237.233 54.8229C236.833 54.9129 236.383 55.0629 235.877 55.2929C235.37 55.5279 234.804 55.8429 234.175 56.2809C233.54 56.7209 232.845 57.2809 232.117 57.9769C231.391 58.6709 230.633 59.5009 229.93 60.3969C228.485 62.2369 227.383 64.2339 226.8 65.7569C226.493 66.5369 226.3 67.2219 226.174 67.8269C226.051 68.4269 225.998 68.9469 225.994 69.3969C225.992 69.8469 226.04 70.2269 226.134 70.5719C226.234 70.9119 226.364 71.2219 226.544 71.4939C226.72 71.7659 226.934 72.0039 227.184 72.1979C227.434 72.3949 227.721 72.5509 228.034 72.6529C228.354 72.7569 228.694 72.8079 229.044 72.8129C229.759 72.8159 230.449 72.6449 231.284 72.2469C231.714 72.0369 232.188 71.7539 232.719 71.3569C233.249 70.9589 233.839 70.4469 234.509 69.7519C235.179 69.0579 235.929 68.1819 236.772 67.0159C237.618 65.8529 238.552 64.4029 239.412 62.9089H241.242C240.772 64.3689 240.342 65.8429 240.102 66.7739C239.862 67.7039 239.809 68.0939 239.772 68.4779C239.706 69.1949 239.682 69.8979 239.807 70.4979C239.865 70.7779 239.95 71.0309 240.064 71.2629C240.174 71.4929 240.314 71.7029 240.478 71.8889C240.643 72.0769 240.834 72.2389 241.051 72.3769C241.264 72.5169 241.506 72.6269 241.771 72.7029C242.035 72.7769 242.324 72.8169 242.621 72.8189C243.631 72.8089 244.575 72.4929 245.707 71.7249C246.127 71.4349 246.603 71.0619 247.169 70.5249C247.734 69.9889 248.394 69.2879 249.009 68.5529C249.009 69.0149 249.037 69.4759 249.079 69.8529C249.126 70.2299 249.185 70.5249 249.256 70.7729C249.322 71.0199 249.396 71.2199 249.476 71.3929C249.556 71.5629 249.639 71.7059 249.728 71.8279C249.918 72.0879 250.103 72.2479 250.303 72.3699C250.693 72.5959 251.003 72.6669 251.503 72.6649C251.703 72.6619 251.957 72.6449 252.213 72.5979C252.728 72.5079 253.205 72.3359 253.797 71.9859C254.097 71.8059 254.43 71.5759 254.887 71.1789C255.344 70.7829 255.922 70.2169 256.47 69.6189C256.47 70.0429 256.49 70.4659 256.53 70.7849C256.565 71.1049 256.615 71.3209 256.67 71.4949C256.72 71.6719 256.776 71.8049 256.836 71.9249C256.991 72.2789 257.416 72.6389 257.743 72.7219C258.783 72.9669 259.593 72.7549 260.673 72.2559C261.103 72.0459 261.563 71.7629 262.08 71.3699C262.593 70.9799 263.155 70.4769 263.774 69.8099C264.394 69.1419 265.074 68.3099 265.782 67.2669C266.492 66.2219 267.237 64.9709 267.902 63.6809L266.988 63.8349C266.368 64.7149 265.716 65.5779 265.188 66.2279L265.18 66.2519ZM172.77 50.0969C172.738 50.3229 172.69 50.5309 172.548 50.9189C172.404 51.3069 172.165 51.8759 171.905 52.4319C171.492 52.3079 171.085 52.1569 170.772 52.0189C170.458 51.8789 170.236 51.7509 170.05 51.6309C169.866 51.5109 169.723 51.3959 169.6 51.2859C169.478 51.1759 169.38 51.0759 169.297 50.9659C168.679 50.0959 168.637 49.1859 169.557 48.2859C169.691 48.1579 169.847 48.0359 170.017 47.9259C170.187 47.8159 170.377 47.7159 170.56 47.6399C171.134 47.4379 171.67 47.2329 172.22 47.6269C172.838 48.2509 172.788 48.8069 172.82 49.4209C172.818 49.6379 172.802 49.8809 172.77 50.1069V50.0969ZM235.586 39.3409C235.576 40.0029 235.506 40.6609 235.35 41.4379C235.193 42.2139 234.95 43.1079 234.663 43.9379C234.373 44.7679 234.037 45.5379 233.708 46.1779C233.378 46.8219 233.056 47.3379 232.752 47.7579C231.975 48.8259 231.272 49.4099 230.512 49.7509C229.719 50.0809 228.955 50.1259 228.25 49.7269C228.05 49.6099 227.835 49.3649 227.754 49.1399C227.541 48.3849 227.718 47.7399 227.986 46.9099C228.106 46.5799 228.266 46.2169 228.49 45.8119C228.714 45.4099 229 44.9639 229.38 44.4619C229.768 43.9619 230.25 43.4049 230.87 42.7959C231.494 42.1959 232.254 41.5359 233.058 40.9359C233.861 40.3459 234.706 39.8159 235.585 39.3459L235.586 39.3409ZM208.168 45.7429H212.132L210.302 49.0929H206.494L208.168 45.7429ZM259.22 42.3629C261.09 42.3829 262.962 42.1729 264.6 41.7769C266.24 41.3809 267.64 40.8019 269.193 39.9039C270.743 39.0039 272.44 37.7839 274 36.4139C273.638 37.3839 273.14 38.3059 272.45 39.2469C271.757 40.1869 270.872 41.1489 269.813 42.0369C267.699 43.8269 264.899 45.2289 262.333 45.8469C261.055 46.1669 259.833 46.3169 258.613 46.3169C257.953 46.3169 257.441 46.3009 256.973 46.2519C256.733 46.2279 256.451 46.1979 256.173 46.1619L259.22 42.3519V42.3629ZM227.465 59.6969C227.605 58.9369 227.675 58.2039 227.673 57.4729C227.673 56.9259 227.58 56.3779 227.388 55.9759C227.303 55.7959 227.2 55.6359 227.084 55.4959C226.8 55.1559 226.514 54.9859 226.174 54.8459C225.977 54.7659 225.754 54.7029 225.492 54.6559C225.229 54.6109 224.926 54.5859 224.585 54.5859C224.245 54.5919 223.865 54.6219 223.485 54.6859C221.96 54.9559 220.402 55.7229 218.871 57.4519C218.481 57.8969 218.101 58.4079 217.731 58.9919C217.361 59.5779 217.011 60.2369 216.691 60.9589C216.371 61.6849 216.091 62.4749 215.861 63.3019C215.631 64.1259 215.457 64.9919 215.341 65.8619C216.151 65.1879 216.988 64.5419 217.591 64.1069C218.193 63.6739 218.563 63.4539 219.064 63.1949C219.562 62.9349 220.19 62.6349 220.828 62.3599C220.974 61.3899 221.242 60.4019 221.588 59.5899C221.748 59.2099 221.921 58.8739 222.093 58.5799C222.266 58.2949 222.438 58.0499 222.61 57.8439C223.096 57.2519 223.57 56.9239 224.05 56.7339C224.763 56.5089 225.336 56.4139 225.995 56.9439C226.29 57.2439 226.365 57.4919 226.429 57.8039C226.539 58.9639 226.359 60.0059 226.004 61.1999C225.839 61.7299 225.624 62.2799 225.344 62.8599C225.064 63.4359 224.717 64.0369 224.294 64.6559C223.449 65.8959 222.218 67.2429 220.854 68.3159C219.544 69.3519 218.144 70.0859 217.166 70.3759C216.699 70.5159 216.326 70.5759 215.981 70.5779C215.631 70.5779 215.307 70.5379 214.981 70.4409C214.334 70.2589 213.651 69.8689 213.091 69.2929C212.815 69.0109 212.581 68.6929 212.391 68.3589C212.007 67.6789 211.841 66.9759 211.841 66.3089C211.871 65.5289 212.001 64.7589 212.421 63.4289C212.838 62.1039 213.543 60.2189 214.528 58.1049C215.511 55.9919 216.781 53.6549 218.028 51.6189C219.275 49.5889 220.498 47.8589 221.615 46.4439C222.718 45.0239 223.725 43.9139 224.635 43.0139C225.548 42.1139 226.365 41.4169 227.105 40.8609C227.845 40.3049 228.505 39.8879 229.111 39.5569C229.716 39.2269 230.265 38.9849 230.781 38.7989C232.136 38.2889 233.409 38.2519 234.833 38.2759C233.783 38.8609 232.776 39.5259 231.883 40.2159C230.093 41.6029 228.818 43.0499 228.015 44.2859C227.605 44.9059 227.305 45.4879 227.075 46.0299C226.849 46.5739 226.698 47.0799 226.599 47.5599C226.507 48.0369 226.466 48.4899 226.459 48.8429C226.454 49.1929 226.483 49.4429 226.539 49.6729C226.594 49.8929 226.673 50.0929 226.767 50.2629C226.867 50.4349 226.984 50.5849 227.123 50.7179C227.256 50.8509 227.413 50.9629 227.603 51.0579C227.783 51.1579 227.993 51.2319 228.243 51.2879C228.486 51.3399 228.763 51.3679 229.043 51.3679C229.623 51.3679 230.203 51.2329 230.889 50.9229C231.245 50.7569 231.633 50.5369 232.054 50.2409C232.474 49.9429 232.924 49.5709 233.38 49.1149C233.837 48.6609 234.298 48.1279 234.727 47.5449C235.161 46.9569 235.557 46.3249 235.893 45.6849C236.537 44.4649 236.953 43.2249 237.141 42.1569C237.231 41.6429 237.275 41.1689 237.275 40.6989C237.275 40.5789 237.268 40.4609 237.243 40.2289C237.22 39.9969 237.173 39.6489 237.149 39.4049C237.125 39.1589 237.121 39.0149 237.123 38.8669C238.386 38.8489 239.649 38.9869 240.837 39.2769C242.023 39.5639 243.137 39.9989 244.781 40.8989C246.425 41.7989 248.601 43.1689 250.687 44.6589L254.037 41.1529C252.729 40.1849 251.367 39.2929 250.183 38.6229C249 37.9469 247.999 37.4929 247.113 37.1589C246.223 36.8239 245.449 36.6109 244.743 36.4729C243.651 36.2729 242.798 36.2259 241.623 36.3429C241.229 36.3859 240.813 36.4459 240.009 36.6599C239.202 36.8749 238.005 37.2439 236.823 37.6529C236.129 37.2579 235.41 36.9069 234.888 36.6929C234.363 36.4859 234.04 36.4129 233.708 36.3629C232.468 36.1829 231.368 36.3129 229.898 36.7069C228.836 37.0069 227.568 37.4769 226.105 38.2219C224.635 38.9619 222.965 39.9819 221.263 41.2419C219.558 42.4959 217.823 43.9919 216.253 45.5619C214.679 47.1319 213.27 48.7749 212.085 50.3689C210.905 51.9589 209.941 53.4989 209.175 54.9429C208.405 56.3879 207.828 57.7329 207.395 58.9979C206.957 60.2579 206.665 61.4379 206.475 62.5379C206.285 63.6379 206.201 64.6629 206.197 65.4879C206.193 66.3109 206.267 66.9339 206.415 67.5349C206.565 68.1349 206.785 68.7049 207.081 69.2489C207.375 69.7889 207.747 70.2949 208.191 70.7529C208.635 71.2109 209.154 71.6189 209.731 71.9559C210.307 72.2899 210.941 72.5559 211.606 72.7359C212.986 73.0859 214.256 73.1109 215.696 72.7009C216.441 72.4909 217.286 72.1639 218.194 71.6859C220.039 70.7229 222.06 69.1059 223.57 67.3559C225.126 65.5759 226.18 63.7259 226.8 62.0759C227.12 61.2459 227.335 60.4499 227.48 59.6859L227.465 59.6969Z" fill="black" fill-opacity="0.2"/>
<path fill-rule="evenodd" clip-rule="evenodd" d="M539.348 66.9749C537.513 66.6189 535.366 66.4229 533.223 66.4449C531.305 66.3449 529.383 66.4819 525.958 67.2149C522.535 67.9469 517.616 69.2749 514.335 70.0349C511.058 70.7929 509.421 70.9819 507.779 71.0149C506.959 71.0149 506.149 70.9499 505.429 70.8309C504.709 70.7109 504.083 70.5389 503.532 70.3349C502.982 70.1269 502.506 69.8889 502.085 69.6249C501.668 69.3609 501.305 69.0749 500.991 68.7619C500.674 68.4519 500.401 68.1149 500.171 67.7549C499.934 67.3949 499.737 67.0109 499.578 66.5949C499.418 66.1749 499.294 65.7289 499.211 65.2419C499.129 64.7549 499.087 64.2289 499.088 63.7019C499.095 62.9049 499.194 62.1119 499.456 61.0439C499.716 59.9739 500.138 58.6239 500.826 56.9939C501.511 55.3539 502.459 53.4339 503.572 51.5339C504.685 49.6239 505.962 47.7439 507.177 46.1539C508.393 44.5639 509.552 43.2739 510.581 42.2539C511.615 41.2339 512.521 40.4839 513.307 39.9239C514.097 39.3539 514.764 38.9739 515.361 38.6869C515.953 38.4069 516.481 38.2269 516.953 38.1099C517.428 37.9939 517.855 37.9439 518.283 37.9439C518.563 37.9499 518.778 37.9599 519.019 38.1319C519.252 38.3419 519.279 38.5119 519.326 38.8179C519.338 38.9539 519.346 39.1359 519.346 39.3179C518.729 39.5909 518.056 40.0339 517.552 40.4729C517.316 40.6749 517.147 40.8529 517.012 41.0059C516.662 41.4159 516.458 41.7959 516.447 42.2009C516.402 42.4949 516.807 43.0309 517.077 43.1749C517.907 43.7289 518.845 43.3569 519.717 42.3549C519.887 42.1469 520.053 41.9089 520.197 41.6499C520.344 41.3929 520.472 41.1099 520.574 40.8269C520.94 39.6969 521.102 38.5309 520.3 37.5329C520.112 37.3069 519.885 37.1089 519.614 36.9429C519.34 36.7769 519.026 36.6459 518.674 36.5529C518.314 36.4629 517.914 36.4109 517.326 36.4229C516.736 36.4359 515.96 36.5129 515.089 36.6979C514.219 36.8879 513.252 37.1829 512.179 37.6419C511.109 38.0959 509.932 38.7119 508.639 39.5519C507.346 40.3919 505.936 41.4539 504.504 42.7379C503.074 44.0239 501.62 45.5279 500.294 47.1279C497.594 50.3679 495.574 53.8419 494.48 56.5629C493.926 57.9529 493.566 59.1779 493.33 60.2629C493.104 61.3489 493 62.2949 493 63.2449C492.996 64.4919 493.156 65.7429 493.48 66.7889C493.636 67.2859 493.82 67.7389 494.038 68.1589C494.256 68.5789 494.505 68.9669 494.788 69.3289C495.072 69.6889 495.392 70.0219 495.761 70.3349C496.131 70.6469 496.551 70.9389 497.031 71.2089C497.516 71.4789 498.061 71.7239 498.711 71.9389C499.361 72.1589 500.114 72.3469 501.034 72.4789C501.954 72.6129 503.044 72.6889 504.134 72.6889C505.844 72.7439 507.554 72.6159 510.397 72.0339C513.241 71.4439 517.217 70.4139 520.07 69.8339C522.92 69.2539 524.65 69.1239 526.38 69.1839C527.46 69.1739 528.55 69.2539 529.43 69.3839C530.31 69.5139 530.985 69.7059 531.617 69.9539C532.247 70.1969 532.837 70.4959 533.487 70.9489C534.144 71.4039 534.862 72.0139 535.52 72.6789C537.31 71.5039 539.194 70.8089 540.64 70.5789C541.366 70.4489 542.023 70.3919 542.678 70.3949C542.958 70.3949 543.238 70.4179 543.565 70.4599C543.891 70.4999 544.269 70.5679 545.355 70.8839C546.435 71.2009 548.219 71.7709 549.99 72.3789C548.17 70.9189 546.203 69.6339 544.46 68.7389C542.712 67.8389 541.187 67.3189 539.353 66.9689L539.348 66.9749ZM583.968 64.8589C583.532 65.5129 583.078 66.1289 582.634 66.6629C582.194 67.1969 581.764 67.6529 581.389 68.0029C581.009 68.3549 580.689 68.6069 580.429 68.7809C580.169 68.9559 579.959 69.0539 579.799 69.1159C579.639 69.1759 579.519 69.2059 579.395 69.2059C579.005 69.2059 578.615 69.0459 578.27 68.6559C578.16 68.5339 578.063 68.3859 577.98 68.2159C577.798 67.8259 577.72 67.5059 577.73 66.9959C577.732 66.7099 577.762 66.3399 577.833 65.9499C577.903 65.5599 578.013 65.1539 578.173 64.7199C578.717 63.2549 579.83 61.6959 581.386 60.3749C581.578 60.7199 581.821 61.0509 582.186 61.3799C582.356 61.5359 582.553 61.6859 582.791 61.8399C583.029 61.9929 583.308 62.1479 583.715 62.3159C584.119 62.4819 584.655 62.6639 585.195 62.8109C584.815 63.5209 584.395 64.2149 583.958 64.8679L583.968 64.8589ZM605.296 65.6989C604.892 66.3689 604.428 67.0069 604.056 67.4789C603.683 67.9489 603.388 68.2489 603.133 68.4659C602.879 68.6859 602.663 68.8259 602.448 68.9159C602.008 69.0959 601.514 69.1359 601.173 68.8659C600.88 68.5759 600.886 68.3459 600.879 67.9159C600.879 67.7259 600.899 67.4659 600.939 67.1759C600.982 66.8859 601.051 66.5659 601.163 66.1859C601.273 65.8159 601.425 65.4059 601.638 64.9159C601.853 64.4359 602.128 63.8859 602.488 63.2759C602.845 62.6659 603.288 61.9959 603.803 61.2959C604.323 60.6059 604.918 59.8859 605.499 59.2559C606.079 58.6359 606.649 58.0959 607.125 57.6859C607.605 57.2859 607.995 57.0059 608.295 56.8259C608.595 56.6459 608.811 56.5539 608.98 56.4959C609.15 56.4359 609.28 56.4139 609.407 56.4129C609.647 56.4159 609.813 56.4159 610.001 56.5159C610.279 56.7289 610.165 56.9859 610.111 57.2859C610.071 57.4579 610.001 57.6779 609.881 57.9489C609.761 58.2189 609.598 58.5389 609.411 58.8489L605.298 65.7049L605.296 65.6989ZM586.508 59.0249C586.478 59.2409 586.438 59.4529 586.272 59.9049C586.106 60.3579 585.81 61.0499 585.487 61.7269C585.06 61.5999 584.639 61.4469 584.335 61.3119C584.028 61.1779 583.841 61.0619 583.682 60.9549C583.526 60.8449 583.402 60.7419 583.296 60.6389C583.083 60.4289 582.94 60.2239 582.836 60.0039C582.382 58.8539 582.456 57.6639 583.816 56.7439C584.222 56.4939 584.642 56.3839 585.03 56.3939C585.428 56.4039 585.73 56.4139 586.076 56.6739C586.413 56.9889 586.456 57.2669 586.522 57.7039C586.542 57.8869 586.552 58.1269 586.552 58.3539C586.552 58.5839 586.536 58.7989 586.508 59.0139V59.0249ZM545.683 57.6799C546.008 56.9679 546.543 55.8349 547.093 54.7099L551.97 45.7219H548.315L547.703 46.4839C547.193 46.2139 546.668 45.9739 546.291 45.8339C545.911 45.6939 545.681 45.6439 545.431 45.6139C545.191 45.5839 544.921 45.5639 544.661 45.5639C543.801 45.5739 542.971 45.8039 541.981 46.3639C541.611 46.5769 541.191 46.8639 540.664 47.2639C540.134 47.6659 539.498 48.1879 538.342 49.5139C537.185 50.8369 535.509 52.9639 534.117 54.6899C532.724 56.4199 531.615 57.7469 530.817 58.6049C530.017 59.4629 529.527 59.8449 529.124 60.1329C528.722 60.4169 528.409 60.6029 528.124 60.7389C527.844 60.8749 527.594 60.9609 527.359 61.0159C526.749 61.1559 526.096 61.1459 525.599 60.8359C525.299 60.6199 525.216 60.4319 525.125 60.1959C524.938 59.5559 525.015 59.0439 525.105 58.4189C525.165 58.0489 525.26 57.6389 525.411 57.1589C525.563 56.6789 525.771 56.1359 526.064 55.5149C526.354 54.8949 526.728 54.1949 527.206 53.4379C528.146 51.9209 529.559 50.1879 530.686 49.1179C531.242 48.5819 531.71 48.2079 532.076 47.9579C532.441 47.7079 532.704 47.5729 532.906 47.4939C533.109 47.4169 533.25 47.3889 533.394 47.3879C533.594 47.3939 533.768 47.4149 533.954 47.5379C534.184 47.7179 534.224 47.8379 534.28 48.1239C534.296 48.2509 534.31 48.4309 534.31 48.6109C533.967 48.6609 533.63 48.7379 533.363 48.8169C533.098 48.8969 532.909 48.9799 532.753 49.0609C532.596 49.1449 532.468 49.2249 532.36 49.3049C531.6 49.8819 531.52 50.6049 531.594 51.0749C531.664 51.3049 531.844 51.5429 532.084 51.7149C532.774 52.2449 533.584 51.8949 534.354 50.9649C534.494 50.7949 534.634 50.5999 534.764 50.3899C535.174 49.7149 535.404 49.0639 535.494 48.5019C535.616 47.6119 535.488 46.5659 534.274 45.7799C533.82 45.5259 533.418 45.4179 532.874 45.4179C532.574 45.4179 532.207 45.4509 531.838 45.5279C531.468 45.5979 531.096 45.7159 530.673 45.8779C530.253 46.0429 529.786 46.2559 528.937 46.9279C528.087 47.6029 526.851 48.7379 525.872 49.5609C524.892 50.3849 524.162 50.8979 523.532 51.2779C522.902 51.6579 522.369 51.9079 521.846 52.1079C521.323 52.3129 520.813 52.4679 520.294 52.5839C520.549 51.9369 520.774 51.2839 520.939 50.7169C521.104 50.1529 521.209 49.6799 521.274 49.3219C521.339 48.9619 521.364 48.7119 521.362 48.4559C521.359 47.9459 521.242 47.4159 521.038 47.0109C520.938 46.8109 520.818 46.6369 520.688 46.4849C520.388 46.1349 520.073 45.9449 519.742 45.8049C518.86 45.4689 518.116 45.5249 517.22 45.7299C516.766 45.8399 516.253 46.0149 515.67 46.2899C515.09 46.5639 514.442 46.9349 513.74 47.4329C513.037 47.9269 512.282 48.5479 511.54 49.2729C510.796 49.9989 510.063 50.8229 509.417 51.6689C508.137 53.3419 507.207 55.0839 506.681 56.5359C506.419 57.2559 506.246 57.9109 506.136 58.5099C506.026 59.1099 505.976 59.6499 505.971 60.0899C505.965 60.5269 506.001 60.8599 506.064 61.1599C506.124 61.4599 506.216 61.7299 506.334 61.9699C506.447 62.2099 506.588 62.4199 506.754 62.6099C506.924 62.7999 507.114 62.9599 507.336 63.0999C507.556 63.2379 507.809 63.3499 508.094 63.4259C508.379 63.5019 508.697 63.5459 509.048 63.5459C509.398 63.5459 509.778 63.5059 510.171 63.4159C510.564 63.3259 510.973 63.1959 511.405 63.0009C511.835 62.8069 512.295 62.5509 512.801 62.1909C513.309 61.8359 513.861 61.3809 514.499 60.7509C515.139 60.1239 515.865 59.3209 516.754 58.1389C517.644 56.9589 518.698 55.3989 519.674 53.7949L522.419 53.1849C521.724 54.5649 521.086 55.9779 520.725 56.8809C520.365 57.7809 520.285 58.1739 520.225 58.5909C520.045 59.9049 520.088 61.2409 520.839 62.2789C521.069 62.5989 521.349 62.8789 521.679 63.1119C522.009 63.3419 522.394 63.5319 522.829 63.6559C523.269 63.7859 523.759 63.8529 524.249 63.8519C525.515 63.8359 526.615 63.5819 528.043 62.6969C528.526 62.3969 529.069 62.0049 529.803 61.3519C530.533 60.6979 531.453 59.7819 532.323 58.8219C532.318 59.6589 532.347 60.4989 532.393 61.0419C532.441 61.5869 532.503 61.8319 532.567 62.0319C532.634 62.2319 532.697 62.3849 532.763 62.5179C532.833 62.6479 532.903 62.7559 532.978 62.8479C533.261 63.1879 533.528 63.3179 533.843 63.4219C534.886 63.6719 535.693 63.5419 536.693 63.1019C537.049 62.9419 537.437 62.7219 537.941 62.3619C538.445 61.9969 539.061 61.4919 539.641 60.9519C539.641 61.2959 539.661 61.6419 539.687 61.8919C539.717 62.1419 539.757 62.2979 539.797 62.4269C539.867 62.6369 539.931 62.7799 540.089 62.9669C540.489 63.3769 540.879 63.4369 541.379 63.5069C541.579 63.5269 541.829 63.5369 542.079 63.5369C543.053 63.5329 544.019 63.2269 545.133 62.5169C545.716 62.1429 546.336 61.6469 546.999 60.9819C547.659 60.3169 548.362 59.4819 549.089 58.4419C549.813 57.4019 550.561 56.1519 551.222 54.8559L550.459 54.6999C549.539 55.9319 548.599 57.1439 547.983 57.8929C547.371 58.6389 547.091 58.9229 546.878 59.1229C546.664 59.3229 546.518 59.4329 546.388 59.5149C546.118 59.6949 545.838 59.7519 545.558 59.7149C545.396 59.7229 545.128 59.5279 545.138 59.2909C545.138 59.1569 545.083 59.1509 545.198 58.8429C545.261 58.6699 545.372 58.3769 545.698 57.6649L545.683 57.6799ZM515.563 57.7479C514.89 58.6849 514.596 58.9819 514.351 59.2099C514.111 59.4399 513.911 59.5999 513.741 59.7249C513.561 59.8479 513.401 59.9349 513.249 60.0019C512.532 60.2919 511.703 60.3419 511.115 59.6019C510.908 59.2919 510.835 59.0139 510.841 58.6079C510.851 58.3729 510.885 58.0799 510.991 57.6839C511.091 57.2839 511.261 56.7839 511.557 56.1439C511.85 55.5039 512.271 54.7339 512.823 53.8759C513.376 53.0209 514.066 52.0859 514.803 51.1929C515.206 51.6529 515.637 52.0829 515.976 52.3869C516.316 52.6909 516.566 52.8609 516.936 53.0509C517.306 53.2409 517.802 53.4539 518.306 53.6309C517.304 55.2309 516.25 56.8029 515.576 57.7409L515.563 57.7479ZM541.445 56.9919C541.158 57.4619 540.849 57.9159 540.579 58.2819C540.309 58.6449 540.069 58.9199 539.869 59.1339C539.659 59.3439 539.489 59.4939 539.339 59.6139C539.079 59.8139 538.859 59.9339 538.639 59.9939C538.299 60.0809 537.882 60.0109 537.555 59.7139C537.229 59.3639 537.175 59.1539 537.17 58.7539C537.17 58.5839 537.195 58.3559 537.253 58.0669C537.315 57.7769 537.413 57.4269 537.583 56.9769C537.753 56.5269 537.996 55.9789 538.366 55.2969C538.736 54.6139 539.226 53.7969 539.823 52.9369C540.42 52.0769 541.117 51.1729 541.76 50.4209C542.403 49.6709 542.994 49.0709 543.464 48.6409C543.932 48.2109 544.284 47.9509 544.554 47.7779C544.822 47.5999 545.014 47.5129 545.164 47.4579C545.451 47.3519 545.714 47.3479 545.984 47.4579C546.454 47.7309 546.304 48.2179 546.288 48.4729C546.268 48.5729 546.242 48.6629 546.068 48.9859C545.898 49.3099 545.578 49.8679 545.248 50.4259L541.438 56.9759L541.445 56.9919ZM612.18 66.2519C611.654 66.8999 611.248 67.3319 610.918 67.6579C610.588 67.9829 610.332 68.1979 610.12 68.3579C609.91 68.5179 609.742 68.6209 609.596 68.6949C609.306 68.8369 609.096 68.9149 608.802 68.8649C608.512 68.7989 608.498 68.5669 608.497 68.4249C608.527 68.3109 608.447 68.4679 608.787 67.7519C609.04 67.2219 609.527 66.2219 610.017 65.2239L615.807 54.5539H612.457L611.39 55.4639C610.95 55.2039 610.492 54.9699 610.16 54.8279C609.83 54.6879 609.623 54.6379 609.413 54.6019C609.208 54.5669 609.003 54.5479 608.773 54.5479C607.617 54.5619 606.548 54.8979 605.396 55.5679C605.052 55.7679 604.684 56.0079 604.276 56.3249C603.87 56.6379 603.416 57.0249 602.879 57.5309C602.339 58.0349 601.699 58.6609 600.609 60.0659C599.519 61.4719 597.975 63.6599 596.885 65.1599C595.795 66.6599 595.158 67.4699 594.71 67.9799C594.265 68.4869 594.008 68.6899 593.804 68.8319C593.6 68.9719 593.454 69.0519 593.318 69.1019C593.123 69.1719 592.978 69.1919 592.778 69.1619C592.465 69.1579 592.054 68.7299 591.98 68.4339C591.81 67.8799 591.85 67.6379 591.99 66.7909C592.072 66.2959 592.22 65.5609 592.46 64.6209C592.7 63.6829 593.03 62.5369 593.4 61.4039C595.85 59.8709 598.21 58.1839 600 56.7139C601.79 55.2439 603.01 53.9979 604.25 52.4939C605.49 50.9889 606.75 49.2269 607.873 47.3879L606.35 47.5379C605.48 48.8479 604.52 50.0979 603.37 51.4039C602.222 52.7089 600.887 54.0669 599.41 55.3809C597.932 56.6909 596.31 57.9569 594.62 59.1179C595.574 57.1279 596.602 55.1739 597.696 53.2679C598.788 51.3579 599.946 49.4979 601.106 47.7879C602.27 46.0799 603.436 44.5219 604.492 43.2319C605.552 41.9419 606.498 40.9199 607.282 40.1589C608.062 39.3989 608.682 38.8989 609.162 38.5609C609.645 38.2209 609.995 38.0409 610.266 37.9309C610.536 37.8209 610.726 37.7839 610.916 37.7809C611.006 37.7809 611.103 37.8109 611.196 37.8659C611.586 38.1589 611.536 38.3239 611.506 38.6479C611.496 38.7379 611.48 38.8349 611.356 39.2009C611.236 39.5629 611.006 40.2009 610.764 40.8259L612.134 40.6759C612.357 40.3059 612.559 39.9189 612.678 39.6559C612.798 39.3899 612.834 39.2459 612.858 39.0799C612.886 38.9139 612.898 38.7299 612.898 38.5399C612.888 37.9159 612.705 37.3099 612.038 36.8029C611.858 36.6729 611.658 36.5729 611.441 36.5049C610.711 36.2999 610.079 36.4149 609.276 36.6189C608.722 36.7729 608.09 37.0149 607.341 37.4089C606.595 37.8009 605.733 38.3489 604.706 39.1519C603.681 39.9579 602.493 41.0219 601.162 42.4319C599.832 43.8399 598.356 45.5919 596.862 47.6319C595.369 49.6749 593.852 52.0019 592.488 54.3849C591.128 56.7679 589.908 59.2009 588.828 61.6949H587.008C587.308 60.9949 587.576 60.2849 587.742 59.7719C587.906 59.2619 587.969 58.9419 588.014 58.6379C588.142 57.7779 588.096 56.8279 587.669 56.0699C587.542 55.8359 587.389 55.6299 587.219 55.4599C586.555 54.8259 586.009 54.6949 585.276 54.6899C584.981 54.6919 584.633 54.7299 584.233 54.8229C583.833 54.9129 583.383 55.0629 582.877 55.2929C582.37 55.5279 581.804 55.8429 581.175 56.2809C580.54 56.7209 579.845 57.2809 579.117 57.9769C578.391 58.6709 577.633 59.5009 576.93 60.3969C575.485 62.2369 574.383 64.2339 573.8 65.7569C573.493 66.5369 573.3 67.2219 573.174 67.8269C573.051 68.4269 572.998 68.9469 572.994 69.3969C572.992 69.8469 573.04 70.2269 573.134 70.5719C573.234 70.9119 573.364 71.2219 573.544 71.4939C573.72 71.7659 573.934 72.0039 574.184 72.1979C574.434 72.3949 574.721 72.5509 575.034 72.6529C575.354 72.7569 575.694 72.8079 576.044 72.8129C576.759 72.8159 577.449 72.6449 578.284 72.2469C578.714 72.0369 579.188 71.7539 579.719 71.3569C580.249 70.9589 580.839 70.4469 581.509 69.7519C582.179 69.0579 582.929 68.1819 583.772 67.0159C584.618 65.8529 585.552 64.4029 586.412 62.9089H588.242C587.772 64.3689 587.342 65.8429 587.102 66.7739C586.862 67.7039 586.809 68.0939 586.772 68.4779C586.706 69.1949 586.682 69.8979 586.807 70.4979C586.865 70.7779 586.95 71.0309 587.064 71.2629C587.174 71.4929 587.314 71.7029 587.478 71.8889C587.643 72.0769 587.834 72.2389 588.051 72.3769C588.264 72.5169 588.506 72.6269 588.771 72.7029C589.035 72.7769 589.324 72.8169 589.621 72.8189C590.631 72.8089 591.575 72.4929 592.707 71.7249C593.127 71.4349 593.603 71.0619 594.169 70.5249C594.734 69.9889 595.394 69.2879 596.009 68.5529C596.009 69.0149 596.037 69.4759 596.079 69.8529C596.126 70.2299 596.185 70.5249 596.256 70.7729C596.322 71.0199 596.396 71.2199 596.476 71.3929C596.556 71.5629 596.639 71.7059 596.728 71.8279C596.918 72.0879 597.103 72.2479 597.303 72.3699C597.693 72.5959 598.003 72.6669 598.503 72.6649C598.703 72.6619 598.957 72.6449 599.213 72.5979C599.728 72.5079 600.205 72.3359 600.797 71.9859C601.097 71.8059 601.43 71.5759 601.887 71.1789C602.344 70.7829 602.922 70.2169 603.47 69.6189C603.47 70.0429 603.49 70.4659 603.53 70.7849C603.565 71.1049 603.615 71.3209 603.67 71.4949C603.72 71.6719 603.776 71.8049 603.836 71.9249C603.991 72.2789 604.416 72.6389 604.743 72.7219C605.783 72.9669 606.593 72.7549 607.673 72.2559C608.103 72.0459 608.563 71.7629 609.08 71.3699C609.593 70.9799 610.155 70.4769 610.774 69.8099C611.394 69.1419 612.074 68.3099 612.782 67.2669C613.492 66.2219 614.237 64.9709 614.902 63.6809L613.988 63.8349C613.368 64.7149 612.716 65.5779 612.188 66.2279L612.18 66.2519ZM519.77 50.0969C519.738 50.3229 519.69 50.5309 519.548 50.9189C519.404 51.3069 519.165 51.8759 518.905 52.4319C518.492 52.3079 518.085 52.1569 517.772 52.0189C517.458 51.8789 517.236 51.7509 517.05 51.6309C516.866 51.5109 516.723 51.3959 516.6 51.2859C516.478 51.1759 516.38 51.0759 516.297 50.9659C515.679 50.0959 515.637 49.1859 516.557 48.2859C516.691 48.1579 516.847 48.0359 517.017 47.9259C517.187 47.8159 517.377 47.7159 517.56 47.6399C518.134 47.4379 518.67 47.2329 519.22 47.6269C519.838 48.2509 519.788 48.8069 519.82 49.4209C519.818 49.6379 519.802 49.8809 519.77 50.1069V50.0969ZM582.586 39.3409C582.576 40.0029 582.506 40.6609 582.35 41.4379C582.193 42.2139 581.95 43.1079 581.663 43.9379C581.373 44.7679 581.037 45.5379 580.708 46.1779C580.378 46.8219 580.056 47.3379 579.752 47.7579C578.975 48.8259 578.272 49.4099 577.512 49.7509C576.719 50.0809 575.955 50.1259 575.25 49.7269C575.05 49.6099 574.835 49.3649 574.754 49.1399C574.541 48.3849 574.718 47.7399 574.986 46.9099C575.106 46.5799 575.266 46.2169 575.49 45.8119C575.714 45.4099 576 44.9639 576.38 44.4619C576.768 43.9619 577.25 43.4049 577.87 42.7959C578.494 42.1959 579.254 41.5359 580.058 40.9359C580.861 40.3459 581.706 39.8159 582.585 39.3459L582.586 39.3409ZM555.168 45.7429H559.132L557.302 49.0929H553.494L555.168 45.7429ZM606.22 42.3629C608.09 42.3829 609.962 42.1729 611.6 41.7769C613.24 41.3809 614.64 40.8019 616.193 39.9039C617.743 39.0039 619.44 37.7839 621 36.4139C620.638 37.3839 620.14 38.3059 619.45 39.2469C618.757 40.1869 617.872 41.1489 616.813 42.0369C614.699 43.8269 611.899 45.2289 609.333 45.8469C608.055 46.1669 606.833 46.3169 605.613 46.3169C604.953 46.3169 604.441 46.3009 603.973 46.2519C603.733 46.2279 603.451 46.1979 603.173 46.1619L606.22 42.3519V42.3629ZM574.465 59.6969C574.605 58.9369 574.675 58.2039 574.673 57.4729C574.673 56.9259 574.58 56.3779 574.388 55.9759C574.303 55.7959 574.2 55.6359 574.084 55.4959C573.8 55.1559 573.514 54.9859 573.174 54.8459C572.977 54.7659 572.754 54.7029 572.492 54.6559C572.229 54.6109 571.926 54.5859 571.585 54.5859C571.245 54.5919 570.865 54.6219 570.485 54.6859C568.96 54.9559 567.402 55.7229 565.871 57.4519C565.481 57.8969 565.101 58.4079 564.731 58.9919C564.361 59.5779 564.011 60.2369 563.691 60.9589C563.371 61.6849 563.091 62.4749 562.861 63.3019C562.631 64.1259 562.457 64.9919 562.341 65.8619C563.151 65.1879 563.988 64.5419 564.591 64.1069C565.193 63.6739 565.563 63.4539 566.064 63.1949C566.562 62.9349 567.19 62.6349 567.828 62.3599C567.974 61.3899 568.242 60.4019 568.588 59.5899C568.748 59.2099 568.921 58.8739 569.093 58.5799C569.266 58.2949 569.438 58.0499 569.61 57.8439C570.096 57.2519 570.57 56.9239 571.05 56.7339C571.763 56.5089 572.336 56.4139 572.995 56.9439C573.29 57.2439 573.365 57.4919 573.429 57.8039C573.539 58.9639 573.359 60.0059 573.004 61.1999C572.839 61.7299 572.624 62.2799 572.344 62.8599C572.064 63.4359 571.717 64.0369 571.294 64.6559C570.449 65.8959 569.218 67.2429 567.854 68.3159C566.544 69.3519 565.144 70.0859 564.166 70.3759C563.699 70.5159 563.326 70.5759 562.981 70.5779C562.631 70.5779 562.307 70.5379 561.981 70.4409C561.334 70.2589 560.651 69.8689 560.091 69.2929C559.815 69.0109 559.581 68.6929 559.391 68.3589C559.007 67.6789 558.841 66.9759 558.841 66.3089C558.871 65.5289 559.001 64.7589 559.421 63.4289C559.838 62.1039 560.543 60.2189 561.528 58.1049C562.511 55.9919 563.781 53.6549 565.028 51.6189C566.275 49.5889 567.498 47.8589 568.615 46.4439C569.718 45.0239 570.725 43.9139 571.635 43.0139C572.548 42.1139 573.365 41.4169 574.105 40.8609C574.845 40.3049 575.505 39.8879 576.111 39.5569C576.716 39.2269 577.265 38.9849 577.781 38.7989C579.136 38.2889 580.409 38.2519 581.833 38.2759C580.783 38.8609 579.776 39.5259 578.883 40.2159C577.093 41.6029 575.818 43.0499 575.015 44.2859C574.605 44.9059 574.305 45.4879 574.075 46.0299C573.849 46.5739 573.698 47.0799 573.599 47.5599C573.507 48.0369 573.466 48.4899 573.459 48.8429C573.454 49.1929 573.483 49.4429 573.539 49.6729C573.594 49.8929 573.673 50.0929 573.767 50.2629C573.867 50.4349 573.984 50.5849 574.123 50.7179C574.256 50.8509 574.413 50.9629 574.603 51.0579C574.783 51.1579 574.993 51.2319 575.243 51.2879C575.486 51.3399 575.763 51.3679 576.043 51.3679C576.623 51.3679 577.203 51.2329 577.889 50.9229C578.245 50.7569 578.633 50.5369 579.054 50.2409C579.474 49.9429 579.924 49.5709 580.38 49.1149C580.837 48.6609 581.298 48.1279 581.727 47.5449C582.161 46.9569 582.557 46.3249 582.893 45.6849C583.537 44.4649 583.953 43.2249 584.141 42.1569C584.231 41.6429 584.275 41.1689 584.275 40.6989C584.275 40.5789 584.268 40.4609 584.243 40.2289C584.22 39.9969 584.173 39.6489 584.149 39.4049C584.125 39.1589 584.121 39.0149 584.123 38.8669C585.386 38.8489 586.649 38.9869 587.837 39.2769C589.023 39.5639 590.137 39.9989 591.781 40.8989C593.425 41.7989 595.601 43.1689 597.687 44.6589L601.037 41.1529C599.729 40.1849 598.367 39.2929 597.183 38.6229C596 37.9469 594.999 37.4929 594.113 37.1589C593.223 36.8239 592.449 36.6109 591.743 36.4729C590.651 36.2729 589.798 36.2259 588.623 36.3429C588.229 36.3859 587.813 36.4459 587.009 36.6599C586.202 36.8749 585.005 37.2439 583.823 37.6529C583.129 37.2579 582.41 36.9069 581.888 36.6929C581.363 36.4859 581.04 36.4129 580.708 36.3629C579.468 36.1829 578.368 36.3129 576.898 36.7069C575.836 37.0069 574.568 37.4769 573.105 38.2219C571.635 38.9619 569.965 39.9819 568.263 41.2419C566.558 42.4959 564.823 43.9919 563.253 45.5619C561.679 47.1319 560.27 48.7749 559.085 50.3689C557.905 51.9589 556.941 53.4989 556.175 54.9429C555.405 56.3879 554.828 57.7329 554.395 58.9979C553.957 60.2579 553.665 61.4379 553.475 62.5379C553.285 63.6379 553.201 64.6629 553.197 65.4879C553.193 66.3109 553.267 66.9339 553.415 67.5349C553.565 68.1349 553.785 68.7049 554.081 69.2489C554.375 69.7889 554.747 70.2949 555.191 70.7529C555.635 71.2109 556.154 71.6189 556.731 71.9559C557.307 72.2899 557.941 72.5559 558.606 72.7359C559.986 73.0859 561.256 73.1109 562.696 72.7009C563.441 72.4909 564.286 72.1639 565.194 71.6859C567.039 70.7229 569.06 69.1059 570.57 67.3559C572.126 65.5759 573.18 63.7259 573.8 62.0759C574.12 61.2459 574.335 60.4499 574.48 59.6859L574.465 59.6969Z" fill="black" fill-opacity="0.2"/>
<path fill-rule="evenodd" clip-rule="evenodd" d="M864.348 66.9749C862.513 66.6189 860.366 66.4229 858.223 66.4449C856.305 66.3449 854.383 66.4819 850.958 67.2149C847.535 67.9469 842.616 69.2749 839.335 70.0349C836.058 70.7929 834.421 70.9819 832.779 71.0149C831.959 71.0149 831.149 70.9499 830.429 70.8309C829.709 70.7109 829.083 70.5389 828.532 70.3349C827.982 70.1269 827.506 69.8889 827.085 69.6249C826.668 69.3609 826.305 69.0749 825.991 68.7619C825.674 68.4519 825.401 68.1149 825.171 67.7549C824.934 67.3949 824.737 67.0109 824.578 66.5949C824.418 66.1749 824.294 65.7289 824.211 65.2419C824.129 64.7549 824.087 64.2289 824.088 63.7019C824.095 62.9049 824.194 62.1119 824.456 61.0439C824.716 59.9739 825.138 58.6239 825.826 56.9939C826.511 55.3539 827.459 53.4339 828.572 51.5339C829.685 49.6239 830.962 47.7439 832.177 46.1539C833.393 44.5639 834.552 43.2739 835.581 42.2539C836.615 41.2339 837.521 40.4839 838.307 39.9239C839.097 39.3539 839.764 38.9739 840.361 38.6869C840.953 38.4069 841.481 38.2269 841.953 38.1099C842.428 37.9939 842.855 37.9439 843.283 37.9439C843.563 37.9499 843.778 37.9599 844.019 38.1319C844.252 38.3419 844.279 38.5119 844.326 38.8179C844.338 38.9539 844.346 39.1359 844.346 39.3179C843.729 39.5909 843.056 40.0339 842.552 40.4729C842.316 40.6749 842.147 40.8529 842.012 41.0059C841.662 41.4159 841.458 41.7959 841.447 42.2009C841.402 42.4949 841.807 43.0309 842.077 43.1749C842.907 43.7289 843.845 43.3569 844.717 42.3549C844.887 42.1469 845.053 41.9089 845.197 41.6499C845.344 41.3929 845.472 41.1099 845.574 40.8269C845.94 39.6969 846.102 38.5309 845.3 37.5329C845.112 37.3069 844.885 37.1089 844.614 36.9429C844.34 36.7769 844.026 36.6459 843.674 36.5529C843.314 36.4629 842.914 36.4109 842.326 36.4229C841.736 36.4359 840.96 36.5129 840.089 36.6979C839.219 36.8879 838.252 37.1829 837.179 37.6419C836.109 38.0959 834.932 38.7119 833.639 39.5519C832.346 40.3919 830.936 41.4539 829.504 42.7379C828.074 44.0239 826.62 45.5279 825.294 47.1279C822.594 50.3679 820.574 53.8419 819.48 56.5629C818.926 57.9529 818.566 59.1779 818.33 60.2629C818.104 61.3489 818 62.2949 818 63.2449C817.996 64.4919 818.156 65.7429 818.48 66.7889C818.636 67.2859 818.82 67.7389 819.038 68.1589C819.256 68.5789 819.505 68.9669 819.788 69.3289C820.072 69.6889 820.392 70.0219 820.761 70.3349C821.131 70.6469 821.551 70.9389 822.031 71.2089C822.516 71.4789 823.061 71.7239 823.711 71.9389C824.361 72.1589 825.114 72.3469 826.034 72.4789C826.954 72.6129 828.044 72.6889 829.134 72.6889C830.844 72.7439 832.554 72.6159 835.397 72.0339C838.241 71.4439 842.217 70.4139 845.07 69.8339C847.92 69.2539 849.65 69.1239 851.38 69.1839C852.46 69.1739 853.55 69.2539 854.43 69.3839C855.31 69.5139 855.985 69.7059 856.617 69.9539C857.247 70.1969 857.837 70.4959 858.487 70.9489C859.144 71.4039 859.862 72.0139 860.52 72.6789C862.31 71.5039 864.194 70.8089 865.64 70.5789C866.366 70.4489 867.023 70.3919 867.678 70.3949C867.958 70.3949 868.238 70.4179 868.565 70.4599C868.891 70.4999 869.269 70.5679 870.355 70.8839C871.435 71.2009 873.219 71.7709 874.99 72.3789C873.17 70.9189 871.203 69.6339 869.46 68.7389C867.712 67.8389 866.187 67.3189 864.353 66.9689L864.348 66.9749ZM908.968 64.8589C908.532 65.5129 908.078 66.1289 907.634 66.6629C907.194 67.1969 906.764 67.6529 906.389 68.0029C906.009 68.3549 905.689 68.6069 905.429 68.7809C905.169 68.9559 904.959 69.0539 904.799 69.1159C904.639 69.1759 904.519 69.2059 904.395 69.2059C904.005 69.2059 903.615 69.0459 903.27 68.6559C903.16 68.5339 903.063 68.3859 902.98 68.2159C902.798 67.8259 902.72 67.5059 902.73 66.9959C902.732 66.7099 902.762 66.3399 902.833 65.9499C902.903 65.5599 903.013 65.1539 903.173 64.7199C903.717 63.2549 904.83 61.6959 906.386 60.3749C906.578 60.7199 906.821 61.0509 907.186 61.3799C907.356 61.5359 907.553 61.6859 907.791 61.8399C908.029 61.9929 908.308 62.1479 908.715 62.3159C909.119 62.4819 909.655 62.6639 910.195 62.8109C909.815 63.5209 909.395 64.2149 908.958 64.8679L908.968 64.8589ZM930.296 65.6989C929.892 66.3689 929.428 67.0069 929.056 67.4789C928.683 67.9489 928.388 68.2489 928.133 68.4659C927.879 68.6859 927.663 68.8259 927.448 68.9159C927.008 69.0959 926.514 69.1359 926.173 68.8659C925.88 68.5759 925.886 68.3459 925.879 67.9159C925.879 67.7259 925.899 67.4659 925.939 67.1759C925.982 66.8859 926.051 66.5659 926.163 66.1859C926.273 65.8159 926.425 65.4059 926.638 64.9159C926.853 64.4359 927.128 63.8859 927.488 63.2759C927.845 62.6659 928.288 61.9959 928.803 61.2959C929.323 60.6059 929.918 59.8859 930.499 59.2559C931.079 58.6359 931.649 58.0959 932.125 57.6859C932.605 57.2859 932.995 57.0059 933.295 56.8259C933.595 56.6459 933.811 56.5539 933.98 56.4959C934.15 56.4359 934.28 56.4139 934.407 56.4129C934.647 56.4159 934.813 56.4159 935.001 56.5159C935.279 56.7289 935.165 56.9859 935.111 57.2859C935.071 57.4579 935.001 57.6779 934.881 57.9489C934.761 58.2189 934.598 58.5389 934.411 58.8489L930.298 65.7049L930.296 65.6989ZM911.508 59.0249C911.478 59.2409 911.438 59.4529 911.272 59.9049C911.106 60.3579 910.81 61.0499 910.487 61.7269C910.06 61.5999 909.639 61.4469 909.335 61.3119C909.028 61.1779 908.841 61.0619 908.682 60.9549C908.526 60.8449 908.402 60.7419 908.296 60.6389C908.083 60.4289 907.94 60.2239 907.836 60.0039C907.382 58.8539 907.456 57.6639 908.816 56.7439C909.222 56.4939 909.642 56.3839 910.03 56.3939C910.428 56.4039 910.73 56.4139 911.076 56.6739C911.413 56.9889 911.456 57.2669 911.522 57.7039C911.542 57.8869 911.552 58.1269 911.552 58.3539C911.552 58.5839 911.536 58.7989 911.508 59.0139V59.0249ZM870.683 57.6799C871.008 56.9679 871.543 55.8349 872.093 54.7099L876.97 45.7219H873.315L872.703 46.4839C872.193 46.2139 871.668 45.9739 871.291 45.8339C870.911 45.6939 870.681 45.6439 870.431 45.6139C870.191 45.5839 869.921 45.5639 869.661 45.5639C868.801 45.5739 867.971 45.8039 866.981 46.3639C866.611 46.5769 866.191 46.8639 865.664 47.2639C865.134 47.6659 864.498 48.1879 863.342 49.5139C862.185 50.8369 860.509 52.9639 859.117 54.6899C857.724 56.4199 856.615 57.7469 855.817 58.6049C855.017 59.4629 854.527 59.8449 854.124 60.1329C853.722 60.4169 853.409 60.6029 853.124 60.7389C852.844 60.8749 852.594 60.9609 852.359 61.0159C851.749 61.1559 851.096 61.1459 850.599 60.8359C850.299 60.6199 850.216 60.4319 850.125 60.1959C849.938 59.5559 850.015 59.0439 850.105 58.4189C850.165 58.0489 850.26 57.6389 850.411 57.1589C850.563 56.6789 850.771 56.1359 851.064 55.5149C851.354 54.8949 851.728 54.1949 852.206 53.4379C853.146 51.9209 854.559 50.1879 855.686 49.1179C856.242 48.5819 856.71 48.2079 857.076 47.9579C857.441 47.7079 857.704 47.5729 857.906 47.4939C858.109 47.4169 858.25 47.3889 858.394 47.3879C858.594 47.3939 858.768 47.4149 858.954 47.5379C859.184 47.7179 859.224 47.8379 859.28 48.1239C859.296 48.2509 859.31 48.4309 859.31 48.6109C858.967 48.6609 858.63 48.7379 858.363 48.8169C858.098 48.8969 857.909 48.9799 857.753 49.0609C857.596 49.1449 857.468 49.2249 857.36 49.3049C856.6 49.8819 856.52 50.6049 856.594 51.0749C856.664 51.3049 856.844 51.5429 857.084 51.7149C857.774 52.2449 858.584 51.8949 859.354 50.9649C859.494 50.7949 859.634 50.5999 859.764 50.3899C860.174 49.7149 860.404 49.0639 860.494 48.5019C860.616 47.6119 860.488 46.5659 859.274 45.7799C858.82 45.5259 858.418 45.4179 857.874 45.4179C857.574 45.4179 857.207 45.4509 856.838 45.5279C856.468 45.5979 856.096 45.7159 855.673 45.8779C855.253 46.0429 854.786 46.2559 853.937 46.9279C853.087 47.6029 851.851 48.7379 850.872 49.5609C849.892 50.3849 849.162 50.8979 848.532 51.2779C847.902 51.6579 847.369 51.9079 846.846 52.1079C846.323 52.3129 845.813 52.4679 845.294 52.5839C845.549 51.9369 845.774 51.2839 845.939 50.7169C846.104 50.1529 846.209 49.6799 846.274 49.3219C846.339 48.9619 846.364 48.7119 846.362 48.4559C846.359 47.9459 846.242 47.4159 846.038 47.0109C845.938 46.8109 845.818 46.6369 845.688 46.4849C845.388 46.1349 845.073 45.9449 844.742 45.8049C843.86 45.4689 843.116 45.5249 842.22 45.7299C841.766 45.8399 841.253 46.0149 840.67 46.2899C840.09 46.5639 839.442 46.9349 838.74 47.4329C838.037 47.9269 837.282 48.5479 836.54 49.2729C835.796 49.9989 835.063 50.8229 834.417 51.6689C833.137 53.3419 832.207 55.0839 831.681 56.5359C831.419 57.2559 831.246 57.9109 831.136 58.5099C831.026 59.1099 830.976 59.6499 830.971 60.0899C830.965 60.5269 831.001 60.8599 831.064 61.1599C831.124 61.4599 831.216 61.7299 831.334 61.9699C831.447 62.2099 831.588 62.4199 831.754 62.6099C831.924 62.7999 832.114 62.9599 832.336 63.0999C832.556 63.2379 832.809 63.3499 833.094 63.4259C833.379 63.5019 833.697 63.5459 834.048 63.5459C834.398 63.5459 834.778 63.5059 835.171 63.4159C835.564 63.3259 835.973 63.1959 836.405 63.0009C836.835 62.8069 837.295 62.5509 837.801 62.1909C838.309 61.8359 838.861 61.3809 839.499 60.7509C840.139 60.1239 840.865 59.3209 841.754 58.1389C842.644 56.9589 843.698 55.3989 844.674 53.7949L847.419 53.1849C846.724 54.5649 846.086 55.9779 845.725 56.8809C845.365 57.7809 845.285 58.1739 845.225 58.5909C845.045 59.9049 845.088 61.2409 845.839 62.2789C846.069 62.5989 846.349 62.8789 846.679 63.1119C847.009 63.3419 847.394 63.5319 847.829 63.6559C848.269 63.7859 848.759 63.8529 849.249 63.8519C850.515 63.8359 851.615 63.5819 853.043 62.6969C853.526 62.3969 854.069 62.0049 854.803 61.3519C855.533 60.6979 856.453 59.7819 857.323 58.8219C857.318 59.6589 857.347 60.4989 857.393 61.0419C857.441 61.5869 857.503 61.8319 857.567 62.0319C857.634 62.2319 857.697 62.3849 857.763 62.5179C857.833 62.6479 857.903 62.7559 857.978 62.8479C858.261 63.1879 858.528 63.3179 858.843 63.4219C859.886 63.6719 860.693 63.5419 861.693 63.1019C862.049 62.9419 862.437 62.7219 862.941 62.3619C863.445 61.9969 864.061 61.4919 864.641 60.9519C864.641 61.2959 864.661 61.6419 864.687 61.8919C864.717 62.1419 864.757 62.2979 864.797 62.4269C864.867 62.6369 864.931 62.7799 865.089 62.9669C865.489 63.3769 865.879 63.4369 866.379 63.5069C866.579 63.5269 866.829 63.5369 867.079 63.5369C868.053 63.5329 869.019 63.2269 870.133 62.5169C870.716 62.1429 871.336 61.6469 871.999 60.9819C872.659 60.3169 873.362 59.4819 874.089 58.4419C874.813 57.4019 875.561 56.1519 876.222 54.8559L875.459 54.6999C874.539 55.9319 873.599 57.1439 872.983 57.8929C872.371 58.6389 872.091 58.9229 871.878 59.1229C871.664 59.3229 871.518 59.4329 871.388 59.5149C871.118 59.6949 870.838 59.7519 870.558 59.7149C870.396 59.7229 870.128 59.5279 870.138 59.2909C870.138 59.1569 870.083 59.1509 870.198 58.8429C870.261 58.6699 870.372 58.3769 870.698 57.6649L870.683 57.6799ZM840.563 57.7479C839.89 58.6849 839.596 58.9819 839.351 59.2099C839.111 59.4399 838.911 59.5999 838.741 59.7249C838.561 59.8479 838.401 59.9349 838.249 60.0019C837.532 60.2919 836.703 60.3419 836.115 59.6019C835.908 59.2919 835.835 59.0139 835.841 58.6079C835.851 58.3729 835.885 58.0799 835.991 57.6839C836.091 57.2839 836.261 56.7839 836.557 56.1439C836.85 55.5039 837.271 54.7339 837.823 53.8759C838.376 53.0209 839.066 52.0859 839.803 51.1929C840.206 51.6529 840.637 52.0829 840.976 52.3869C841.316 52.6909 841.566 52.8609 841.936 53.0509C842.306 53.2409 842.802 53.4539 843.306 53.6309C842.304 55.2309 841.25 56.8029 840.576 57.7409L840.563 57.7479ZM866.445 56.9919C866.158 57.4619 865.849 57.9159 865.579 58.2819C865.309 58.6449 865.069 58.9199 864.869 59.1339C864.659 59.3439 864.489 59.4939 864.339 59.6139C864.079 59.8139 863.859 59.9339 863.639 59.9939C863.299 60.0809 862.882 60.0109 862.555 59.7139C862.229 59.3639 862.175 59.1539 862.17 58.7539C862.17 58.5839 862.195 58.3559 862.253 58.0669C862.315 57.7769 862.413 57.4269 862.583 56.9769C862.753 56.5269 862.996 55.9789 863.366 55.2969C863.736 54.6139 864.226 53.7969 864.823 52.9369C865.42 52.0769 866.117 51.1729 866.76 50.4209C867.403 49.6709 867.994 49.0709 868.464 48.6409C868.932 48.2109 869.284 47.9509 869.554 47.7779C869.822 47.5999 870.014 47.5129 870.164 47.4579C870.451 47.3519 870.714 47.3479 870.984 47.4579C871.454 47.7309 871.304 48.2179 871.288 48.4729C871.268 48.5729 871.242 48.6629 871.068 48.9859C870.898 49.3099 870.578 49.8679 870.248 50.4259L866.438 56.9759L866.445 56.9919ZM937.18 66.2519C936.654 66.8999 936.248 67.3319 935.918 67.6579C935.588 67.9829 935.332 68.1979 935.12 68.3579C934.91 68.5179 934.742 68.6209 934.596 68.6949C934.306 68.8369 934.096 68.9149 933.802 68.8649C933.512 68.7989 933.498 68.5669 933.497 68.4249C933.527 68.3109 933.447 68.4679 933.787 67.7519C934.04 67.2219 934.527 66.2219 935.017 65.2239L940.807 54.5539H937.457L936.39 55.4639C935.95 55.2039 935.492 54.9699 935.16 54.8279C934.83 54.6879 934.623 54.6379 934.413 54.6019C934.208 54.5669 934.003 54.5479 933.773 54.5479C932.617 54.5619 931.548 54.8979 930.396 55.5679C930.052 55.7679 929.684 56.0079 929.276 56.3249C928.87 56.6379 928.416 57.0249 927.879 57.5309C927.339 58.0349 926.699 58.6609 925.609 60.0659C924.519 61.4719 922.975 63.6599 921.885 65.1599C920.795 66.6599 920.158 67.4699 919.71 67.9799C919.265 68.4869 919.008 68.6899 918.804 68.8319C918.6 68.9719 918.454 69.0519 918.318 69.1019C918.123 69.1719 917.978 69.1919 917.778 69.1619C917.465 69.1579 917.054 68.7299 916.98 68.4339C916.81 67.8799 916.85 67.6379 916.99 66.7909C917.072 66.2959 917.22 65.5609 917.46 64.6209C917.7 63.6829 918.03 62.5369 918.4 61.4039C920.85 59.8709 923.21 58.1839 925 56.7139C926.79 55.2439 928.01 53.9979 929.25 52.4939C930.49 50.9889 931.75 49.2269 932.873 47.3879L931.35 47.5379C930.48 48.8479 929.52 50.0979 928.37 51.4039C927.222 52.7089 925.887 54.0669 924.41 55.3809C922.932 56.6909 921.31 57.9569 919.62 59.1179C920.574 57.1279 921.602 55.1739 922.696 53.2679C923.788 51.3579 924.946 49.4979 926.106 47.7879C927.27 46.0799 928.436 44.5219 929.492 43.2319C930.552 41.9419 931.498 40.9199 932.282 40.1589C933.062 39.3989 933.682 38.8989 934.162 38.5609C934.645 38.2209 934.995 38.0409 935.266 37.9309C935.536 37.8209 935.726 37.7839 935.916 37.7809C936.006 37.7809 936.103 37.8109 936.196 37.8659C936.586 38.1589 936.536 38.3239 936.506 38.6479C936.496 38.7379 936.48 38.8349 936.356 39.2009C936.236 39.5629 936.006 40.2009 935.764 40.8259L937.134 40.6759C937.357 40.3059 937.559 39.9189 937.678 39.6559C937.798 39.3899 937.834 39.2459 937.858 39.0799C937.886 38.9139 937.898 38.7299 937.898 38.5399C937.888 37.9159 937.705 37.3099 937.038 36.8029C936.858 36.6729 936.658 36.5729 936.441 36.5049C935.711 36.2999 935.079 36.4149 934.276 36.6189C933.722 36.7729 933.09 37.0149 932.341 37.4089C931.595 37.8009 930.733 38.3489 929.706 39.1519C928.681 39.9579 927.493 41.0219 926.162 42.4319C924.832 43.8399 923.356 45.5919 921.862 47.6319C920.369 49.6749 918.852 52.0019 917.488 54.3849C916.128 56.7679 914.908 59.2009 913.828 61.6949H912.008C912.308 60.9949 912.576 60.2849 912.742 59.7719C912.906 59.2619 912.969 58.9419 913.014 58.6379C913.142 57.7779 913.096 56.8279 912.669 56.0699C912.542 55.8359 912.389 55.6299 912.219 55.4599C911.555 54.8259 911.009 54.6949 910.276 54.6899C909.981 54.6919 909.633 54.7299 909.233 54.8229C908.833 54.9129 908.383 55.0629 907.877 55.2929C907.37 55.5279 906.804 55.8429 906.175 56.2809C905.54 56.7209 904.845 57.2809 904.117 57.9769C903.391 58.6709 902.633 59.5009 901.93 60.3969C900.485 62.2369 899.383 64.2339 898.8 65.7569C898.493 66.5369 898.3 67.2219 898.174 67.8269C898.051 68.4269 897.998 68.9469 897.994 69.3969C897.992 69.8469 898.04 70.2269 898.134 70.5719C898.234 70.9119 898.364 71.2219 898.544 71.4939C898.72 71.7659 898.934 72.0039 899.184 72.1979C899.434 72.3949 899.721 72.5509 900.034 72.6529C900.354 72.7569 900.694 72.8079 901.044 72.8129C901.759 72.8159 902.449 72.6449 903.284 72.2469C903.714 72.0369 904.188 71.7539 904.719 71.3569C905.249 70.9589 905.839 70.4469 906.509 69.7519C907.179 69.0579 907.929 68.1819 908.772 67.0159C909.618 65.8529 910.552 64.4029 911.412 62.9089H913.242C912.772 64.3689 912.342 65.8429 912.102 66.7739C911.862 67.7039 911.809 68.0939 911.772 68.4779C911.706 69.1949 911.682 69.8979 911.807 70.4979C911.865 70.7779 911.95 71.0309 912.064 71.2629C912.174 71.4929 912.314 71.7029 912.478 71.8889C912.643 72.0769 912.834 72.2389 913.051 72.3769C913.264 72.5169 913.506 72.6269 913.771 72.7029C914.035 72.7769 914.324 72.8169 914.621 72.8189C915.631 72.8089 916.575 72.4929 917.707 71.7249C918.127 71.4349 918.603 71.0619 919.169 70.5249C919.734 69.9889 920.394 69.2879 921.009 68.5529C921.009 69.0149 921.037 69.4759 921.079 69.8529C921.126 70.2299 921.185 70.5249 921.256 70.7729C921.322 71.0199 921.396 71.2199 921.476 71.3929C921.556 71.5629 921.639 71.7059 921.728 71.8279C921.918 72.0879 922.103 72.2479 922.303 72.3699C922.693 72.5959 923.003 72.6669 923.503 72.6649C923.703 72.6619 923.957 72.6449 924.213 72.5979C924.728 72.5079 925.205 72.3359 925.797 71.9859C926.097 71.8059 926.43 71.5759 926.887 71.1789C927.344 70.7829 927.922 70.2169 928.47 69.6189C928.47 70.0429 928.49 70.4659 928.53 70.7849C928.565 71.1049 928.615 71.3209 928.67 71.4949C928.72 71.6719 928.776 71.8049 928.836 71.9249C928.991 72.2789 929.416 72.6389 929.743 72.7219C930.783 72.9669 931.593 72.7549 932.673 72.2559C933.103 72.0459 933.563 71.7629 934.08 71.3699C934.593 70.9799 935.155 70.4769 935.774 69.8099C936.394 69.1419 937.074 68.3099 937.782 67.2669C938.492 66.2219 939.237 64.9709 939.902 63.6809L938.988 63.8349C938.368 64.7149 937.716 65.5779 937.188 66.2279L937.18 66.2519ZM844.77 50.0969C844.738 50.3229 844.69 50.5309 844.548 50.9189C844.404 51.3069 844.165 51.8759 843.905 52.4319C843.492 52.3079 843.085 52.1569 842.772 52.0189C842.458 51.8789 842.236 51.7509 842.05 51.6309C841.866 51.5109 841.723 51.3959 841.6 51.2859C841.478 51.1759 841.38 51.0759 841.297 50.9659C840.679 50.0959 840.637 49.1859 841.557 48.2859C841.691 48.1579 841.847 48.0359 842.017 47.9259C842.187 47.8159 842.377 47.7159 842.56 47.6399C843.134 47.4379 843.67 47.2329 844.22 47.6269C844.838 48.2509 844.788 48.8069 844.82 49.4209C844.818 49.6379 844.802 49.8809 844.77 50.1069V50.0969ZM907.586 39.3409C907.576 40.0029 907.506 40.6609 907.35 41.4379C907.193 42.2139 906.95 43.1079 906.663 43.9379C906.373 44.7679 906.037 45.5379 905.708 46.1779C905.378 46.8219 905.056 47.3379 904.752 47.7579C903.975 48.8259 903.272 49.4099 902.512 49.7509C901.719 50.0809 900.955 50.1259 900.25 49.7269C900.05 49.6099 899.835 49.3649 899.754 49.1399C899.541 48.3849 899.718 47.7399 899.986 46.9099C900.106 46.5799 900.266 46.2169 900.49 45.8119C900.714 45.4099 901 44.9639 901.38 44.4619C901.768 43.9619 902.25 43.4049 902.87 42.7959C903.494 42.1959 904.254 41.5359 905.058 40.9359C905.861 40.3459 906.706 39.8159 907.585 39.3459L907.586 39.3409ZM880.168 45.7429H884.132L882.302 49.0929H878.494L880.168 45.7429ZM931.22 42.3629C933.09 42.3829 934.962 42.1729 936.6 41.7769C938.24 41.3809 939.64 40.8019 941.193 39.9039C942.743 39.0039 944.44 37.7839 946 36.4139C945.638 37.3839 945.14 38.3059 944.45 39.2469C943.757 40.1869 942.872 41.1489 941.813 42.0369C939.699 43.8269 936.899 45.2289 934.333 45.8469C933.055 46.1669 931.833 46.3169 930.613 46.3169C929.953 46.3169 929.441 46.3009 928.973 46.2519C928.733 46.2279 928.451 46.1979 928.173 46.1619L931.22 42.3519V42.3629ZM899.465 59.6969C899.605 58.9369 899.675 58.2039 899.673 57.4729C899.673 56.9259 899.58 56.3779 899.388 55.9759C899.303 55.7959 899.2 55.6359 899.084 55.4959C898.8 55.1559 898.514 54.9859 898.174 54.8459C897.977 54.7659 897.754 54.7029 897.492 54.6559C897.229 54.6109 896.926 54.5859 896.585 54.5859C896.245 54.5919 895.865 54.6219 895.485 54.6859C893.96 54.9559 892.402 55.7229 890.871 57.4519C890.481 57.8969 890.101 58.4079 889.731 58.9919C889.361 59.5779 889.011 60.2369 888.691 60.9589C888.371 61.6849 888.091 62.4749 887.861 63.3019C887.631 64.1259 887.457 64.9919 887.341 65.8619C888.151 65.1879 888.988 64.5419 889.591 64.1069C890.193 63.6739 890.563 63.4539 891.064 63.1949C891.562 62.9349 892.19 62.6349 892.828 62.3599C892.974 61.3899 893.242 60.4019 893.588 59.5899C893.748 59.2099 893.921 58.8739 894.093 58.5799C894.266 58.2949 894.438 58.0499 894.61 57.8439C895.096 57.2519 895.57 56.9239 896.05 56.7339C896.763 56.5089 897.336 56.4139 897.995 56.9439C898.29 57.2439 898.365 57.4919 898.429 57.8039C898.539 58.9639 898.359 60.0059 898.004 61.1999C897.839 61.7299 897.624 62.2799 897.344 62.8599C897.064 63.4359 896.717 64.0369 896.294 64.6559C895.449 65.8959 894.218 67.2429 892.854 68.3159C891.544 69.3519 890.144 70.0859 889.166 70.3759C888.699 70.5159 888.326 70.5759 887.981 70.5779C887.631 70.5779 887.307 70.5379 886.981 70.4409C886.334 70.2589 885.651 69.8689 885.091 69.2929C884.815 69.0109 884.581 68.6929 884.391 68.3589C884.007 67.6789 883.841 66.9759 883.841 66.3089C883.871 65.5289 884.001 64.7589 884.421 63.4289C884.838 62.1039 885.543 60.2189 886.528 58.1049C887.511 55.9919 888.781 53.6549 890.028 51.6189C891.275 49.5889 892.498 47.8589 893.615 46.4439C894.718 45.0239 895.725 43.9139 896.635 43.0139C897.548 42.1139 898.365 41.4169 899.105 40.8609C899.845 40.3049 900.505 39.8879 901.111 39.5569C901.716 39.2269 902.265 38.9849 902.781 38.7989C904.136 38.2889 905.409 38.2519 906.833 38.2759C905.783 38.8609 904.776 39.5259 903.883 40.2159C902.093 41.6029 900.818 43.0499 900.015 44.2859C899.605 44.9059 899.305 45.4879 899.075 46.0299C898.849 46.5739 898.698 47.0799 898.599 47.5599C898.507 48.0369 898.466 48.4899 898.459 48.8429C898.454 49.1929 898.483 49.4429 898.539 49.6729C898.594 49.8929 898.673 50.0929 898.767 50.2629C898.867 50.4349 898.984 50.5849 899.123 50.7179C899.256 50.8509 899.413 50.9629 899.603 51.0579C899.783 51.1579 899.993 51.2319 900.243 51.2879C900.486 51.3399 900.763 51.3679 901.043 51.3679C901.623 51.3679 902.203 51.2329 902.889 50.9229C903.245 50.7569 903.633 50.5369 904.054 50.2409C904.474 49.9429 904.924 49.5709 905.38 49.1149C905.837 48.6609 906.298 48.1279 906.727 47.5449C907.161 46.9569 907.557 46.3249 907.893 45.6849C908.537 44.4649 908.953 43.2249 909.141 42.1569C909.231 41.6429 909.275 41.1689 909.275 40.6989C909.275 40.5789 909.268 40.4609 909.243 40.2289C909.22 39.9969 909.173 39.6489 909.149 39.4049C909.125 39.1589 909.121 39.0149 909.123 38.8669C910.386 38.8489 911.649 38.9869 912.837 39.2769C914.023 39.5639 915.137 39.9989 916.781 40.8989C918.425 41.7989 920.601 43.1689 922.687 44.6589L926.037 41.1529C924.729 40.1849 923.367 39.2929 922.183 38.6229C921 37.9469 919.999 37.4929 919.113 37.1589C918.223 36.8239 917.449 36.6109 916.743 36.4729C915.651 36.2729 914.798 36.2259 913.623 36.3429C913.229 36.3859 912.813 36.4459 912.009 36.6599C911.202 36.8749 910.005 37.2439 908.823 37.6529C908.129 37.2579 907.41 36.9069 906.888 36.6929C906.363 36.4859 906.04 36.4129 905.708 36.3629C904.468 36.1829 903.368 36.3129 901.898 36.7069C900.836 37.0069 899.568 37.4769 898.105 38.2219C896.635 38.9619 894.965 39.9819 893.263 41.2419C891.558 42.4959 889.823 43.9919 888.253 45.5619C886.679 47.1319 885.27 48.7749 884.085 50.3689C882.905 51.9589 881.941 53.4989 881.175 54.9429C880.405 56.3879 879.828 57.7329 879.395 58.9979C878.957 60.2579 878.665 61.4379 878.475 62.5379C878.285 63.6379 878.201 64.6629 878.197 65.4879C878.193 66.3109 878.267 66.9339 878.415 67.5349C878.565 68.1349 878.785 68.7049 879.081 69.2489C879.375 69.7889 879.747 70.2949 880.191 70.7529C880.635 71.2109 881.154 71.6189 881.731 71.9559C882.307 72.2899 882.941 72.5559 883.606 72.7359C884.986 73.0859 886.256 73.1109 887.696 72.7009C888.441 72.4909 889.286 72.1639 890.194 71.6859C892.039 70.7229 894.06 69.1059 895.57 67.3559C897.126 65.5759 898.18 63.7259 898.8 62.0759C899.12 61.2459 899.335 60.4499 899.48 59.6859L899.465 59.6969Z" fill="black" fill-opacity="0.2"/>
<path fill-rule="evenodd" clip-rule="evenodd" d="M1189.35 66.9749C1187.51 66.6189 1185.37 66.4229 1183.22 66.4449C1181.31 66.3449 1179.38 66.4819 1175.96 67.2149C1172.54 67.9469 1167.62 69.2749 1164.34 70.0349C1161.06 70.7929 1159.42 70.9819 1157.78 71.0149C1156.96 71.0149 1156.15 70.9499 1155.43 70.8309C1154.71 70.7109 1154.08 70.5389 1153.53 70.3349C1152.98 70.1269 1152.51 69.8889 1152.09 69.6249C1151.67 69.3609 1151.31 69.0749 1150.99 68.7619C1150.67 68.4519 1150.4 68.1149 1150.17 67.7549C1149.93 67.3949 1149.74 67.0109 1149.58 66.5949C1149.42 66.1749 1149.29 65.7289 1149.21 65.2419C1149.13 64.7549 1149.09 64.2289 1149.09 63.7019C1149.1 62.9049 1149.19 62.1119 1149.46 61.0439C1149.72 59.9739 1150.14 58.6239 1150.83 56.9939C1151.51 55.3539 1152.46 53.4339 1153.57 51.5339C1154.69 49.6239 1155.96 47.7439 1157.18 46.1539C1158.39 44.5639 1159.55 43.2739 1160.58 42.2539C1161.62 41.2339 1162.52 40.4839 1163.31 39.9239C1164.1 39.3539 1164.76 38.9739 1165.36 38.6869C1165.95 38.4069 1166.48 38.2269 1166.95 38.1099C1167.43 37.9939 1167.86 37.9439 1168.28 37.9439C1168.56 37.9499 1168.78 37.9599 1169.02 38.1319C1169.25 38.3419 1169.28 38.5119 1169.33 38.8179C1169.34 38.9539 1169.35 39.1359 1169.35 39.3179C1168.73 39.5909 1168.06 40.0339 1167.55 40.4729C1167.32 40.6749 1167.15 40.8529 1167.01 41.0059C1166.66 41.4159 1166.46 41.7959 1166.45 42.2009C1166.4 42.4949 1166.81 43.0309 1167.08 43.1749C1167.91 43.7289 1168.85 43.3569 1169.72 42.3549C1169.89 42.1469 1170.05 41.9089 1170.2 41.6499C1170.34 41.3929 1170.47 41.1099 1170.57 40.8269C1170.94 39.6969 1171.1 38.5309 1170.3 37.5329C1170.11 37.3069 1169.89 37.1089 1169.61 36.9429C1169.34 36.7769 1169.03 36.6459 1168.67 36.5529C1168.31 36.4629 1167.91 36.4109 1167.33 36.4229C1166.74 36.4359 1165.96 36.5129 1165.09 36.6979C1164.22 36.8879 1163.25 37.1829 1162.18 37.6419C1161.11 38.0959 1159.93 38.7119 1158.64 39.5519C1157.35 40.3919 1155.94 41.4539 1154.5 42.7379C1153.07 44.0239 1151.62 45.5279 1150.29 47.1279C1147.59 50.3679 1145.57 53.8419 1144.48 56.5629C1143.93 57.9529 1143.57 59.1779 1143.33 60.2629C1143.1 61.3489 1143 62.2949 1143 63.2449C1143 64.4919 1143.16 65.7429 1143.48 66.7889C1143.64 67.2859 1143.82 67.7389 1144.04 68.1589C1144.26 68.5789 1144.51 68.9669 1144.79 69.3289C1145.07 69.6889 1145.39 70.0219 1145.76 70.3349C1146.13 70.6469 1146.55 70.9389 1147.03 71.2089C1147.52 71.4789 1148.06 71.7239 1148.71 71.9389C1149.36 72.1589 1150.11 72.3469 1151.03 72.4789C1151.95 72.6129 1153.04 72.6889 1154.13 72.6889C1155.84 72.7439 1157.55 72.6159 1160.4 72.0339C1163.24 71.4439 1167.22 70.4139 1170.07 69.8339C1172.92 69.2539 1174.65 69.1239 1176.38 69.1839C1177.46 69.1739 1178.55 69.2539 1179.43 69.3839C1180.31 69.5139 1180.99 69.7059 1181.62 69.9539C1182.25 70.1969 1182.84 70.4959 1183.49 70.9489C1184.14 71.4039 1184.86 72.0139 1185.52 72.6789C1187.31 71.5039 1189.19 70.8089 1190.64 70.5789C1191.37 70.4489 1192.02 70.3919 1192.68 70.3949C1192.96 70.3949 1193.24 70.4179 1193.57 70.4599C1193.89 70.4999 1194.27 70.5679 1195.36 70.8839C1196.44 71.2009 1198.22 71.7709 1199.99 72.3789C1198.17 70.9189 1196.2 69.6339 1194.46 68.7389C1192.71 67.8389 1191.19 67.3189 1189.35 66.9689L1189.35 66.9749ZM1233.97 64.8589C1233.53 65.5129 1233.08 66.1289 1232.63 66.6629C1232.19 67.1969 1231.76 67.6529 1231.39 68.0029C1231.01 68.3549 1230.69 68.6069 1230.43 68.7809C1230.17 68.9559 1229.96 69.0539 1229.8 69.1159C1229.64 69.1759 1229.52 69.2059 1229.4 69.2059C1229.01 69.2059 1228.62 69.0459 1228.27 68.6559C1228.16 68.5339 1228.06 68.3859 1227.98 68.2159C1227.8 67.8259 1227.72 67.5059 1227.73 66.9959C1227.73 66.7099 1227.76 66.3399 1227.83 65.9499C1227.9 65.5599 1228.01 65.1539 1228.17 64.7199C1228.72 63.2549 1229.83 61.6959 1231.39 60.3749C1231.58 60.7199 1231.82 61.0509 1232.19 61.3799C1232.36 61.5359 1232.55 61.6859 1232.79 61.8399C1233.03 61.9929 1233.31 62.1479 1233.72 62.3159C1234.12 62.4819 1234.66 62.6639 1235.2 62.8109C1234.82 63.5209 1234.4 64.2149 1233.96 64.8679L1233.97 64.8589ZM1255.3 65.6989C1254.89 66.3689 1254.43 67.0069 1254.06 67.4789C1253.68 67.9489 1253.39 68.2489 1253.13 68.4659C1252.88 68.6859 1252.66 68.8259 1252.45 68.9159C1252.01 69.0959 1251.51 69.1359 1251.17 68.8659C1250.88 68.5759 1250.89 68.3459 1250.88 67.9159C1250.88 67.7259 1250.9 67.4659 1250.94 67.1759C1250.98 66.8859 1251.05 66.5659 1251.16 66.1859C1251.27 65.8159 1251.43 65.4059 1251.64 64.9159C1251.85 64.4359 1252.13 63.8859 1252.49 63.2759C1252.85 62.6659 1253.29 61.9959 1253.8 61.2959C1254.32 60.6059 1254.92 59.8859 1255.5 59.2559C1256.08 58.6359 1256.65 58.0959 1257.13 57.6859C1257.61 57.2859 1258 57.0059 1258.3 56.8259C1258.6 56.6459 1258.81 56.5539 1258.98 56.4959C1259.15 56.4359 1259.28 56.4139 1259.41 56.4129C1259.65 56.4159 1259.81 56.4159 1260 56.5159C1260.28 56.7289 1260.17 56.9859 1260.11 57.2859C1260.07 57.4579 1260 57.6779 1259.88 57.9489C1259.76 58.2189 1259.6 58.5389 1259.41 58.8489L1255.3 65.7049L1255.3 65.6989ZM1236.51 59.0249C1236.48 59.2409 1236.44 59.4529 1236.27 59.9049C1236.11 60.3579 1235.81 61.0499 1235.49 61.7269C1235.06 61.5999 1234.64 61.4469 1234.34 61.3119C1234.03 61.1779 1233.84 61.0619 1233.68 60.9549C1233.53 60.8449 1233.4 60.7419 1233.3 60.6389C1233.08 60.4289 1232.94 60.2239 1232.84 60.0039C1232.38 58.8539 1232.46 57.6639 1233.82 56.7439C1234.22 56.4939 1234.64 56.3839 1235.03 56.3939C1235.43 56.4039 1235.73 56.4139 1236.08 56.6739C1236.41 56.9889 1236.46 57.2669 1236.52 57.7039C1236.54 57.8869 1236.55 58.1269 1236.55 58.3539C1236.55 58.5839 1236.54 58.7989 1236.51 59.0139V59.0249ZM1195.68 57.6799C1196.01 56.9679 1196.54 55.8349 1197.09 54.7099L1201.97 45.7219H1198.32L1197.7 46.4839C1197.19 46.2139 1196.67 45.9739 1196.29 45.8339C1195.91 45.6939 1195.68 45.6439 1195.43 45.6139C1195.19 45.5839 1194.92 45.5639 1194.66 45.5639C1193.8 45.5739 1192.97 45.8039 1191.98 46.3639C1191.61 46.5769 1191.19 46.8639 1190.66 47.2639C1190.13 47.6659 1189.5 48.1879 1188.34 49.5139C1187.19 50.8369 1185.51 52.9639 1184.12 54.6899C1182.72 56.4199 1181.62 57.7469 1180.82 58.6049C1180.02 59.4629 1179.53 59.8449 1179.12 60.1329C1178.72 60.4169 1178.41 60.6029 1178.12 60.7389C1177.84 60.8749 1177.59 60.9609 1177.36 61.0159C1176.75 61.1559 1176.1 61.1459 1175.6 60.8359C1175.3 60.6199 1175.22 60.4319 1175.13 60.1959C1174.94 59.5559 1175.02 59.0439 1175.11 58.4189C1175.17 58.0489 1175.26 57.6389 1175.41 57.1589C1175.56 56.6789 1175.77 56.1359 1176.06 55.5149C1176.35 54.8949 1176.73 54.1949 1177.21 53.4379C1178.15 51.9209 1179.56 50.1879 1180.69 49.1179C1181.24 48.5819 1181.71 48.2079 1182.08 47.9579C1182.44 47.7079 1182.7 47.5729 1182.91 47.4939C1183.11 47.4169 1183.25 47.3889 1183.39 47.3879C1183.59 47.3939 1183.77 47.4149 1183.95 47.5379C1184.18 47.7179 1184.22 47.8379 1184.28 48.1239C1184.3 48.2509 1184.31 48.4309 1184.31 48.6109C1183.97 48.6609 1183.63 48.7379 1183.36 48.8169C1183.1 48.8969 1182.91 48.9799 1182.75 49.0609C1182.6 49.1449 1182.47 49.2249 1182.36 49.3049C1181.6 49.8819 1181.52 50.6049 1181.59 51.0749C1181.66 51.3049 1181.84 51.5429 1182.08 51.7149C1182.77 52.2449 1183.58 51.8949 1184.35 50.9649C1184.49 50.7949 1184.63 50.5999 1184.76 50.3899C1185.17 49.7149 1185.4 49.0639 1185.49 48.5019C1185.62 47.6119 1185.49 46.5659 1184.27 45.7799C1183.82 45.5259 1183.42 45.4179 1182.87 45.4179C1182.57 45.4179 1182.21 45.4509 1181.84 45.5279C1181.47 45.5979 1181.1 45.7159 1180.67 45.8779C1180.25 46.0429 1179.79 46.2559 1178.94 46.9279C1178.09 47.6029 1176.85 48.7379 1175.87 49.5609C1174.89 50.3849 1174.16 50.8979 1173.53 51.2779C1172.9 51.6579 1172.37 51.9079 1171.85 52.1079C1171.32 52.3129 1170.81 52.4679 1170.29 52.5839C1170.55 51.9369 1170.77 51.2839 1170.94 50.7169C1171.1 50.1529 1171.21 49.6799 1171.27 49.3219C1171.34 48.9619 1171.36 48.7119 1171.36 48.4559C1171.36 47.9459 1171.24 47.4159 1171.04 47.0109C1170.94 46.8109 1170.82 46.6369 1170.69 46.4849C1170.39 46.1349 1170.07 45.9449 1169.74 45.8049C1168.86 45.4689 1168.12 45.5249 1167.22 45.7299C1166.77 45.8399 1166.25 46.0149 1165.67 46.2899C1165.09 46.5639 1164.44 46.9349 1163.74 47.4329C1163.04 47.9269 1162.28 48.5479 1161.54 49.2729C1160.8 49.9989 1160.06 50.8229 1159.42 51.6689C1158.14 53.3419 1157.21 55.0839 1156.68 56.5359C1156.42 57.2559 1156.25 57.9109 1156.14 58.5099C1156.03 59.1099 1155.98 59.6499 1155.97 60.0899C1155.97 60.5269 1156 60.8599 1156.06 61.1599C1156.12 61.4599 1156.22 61.7299 1156.33 61.9699C1156.45 62.2099 1156.59 62.4199 1156.75 62.6099C1156.92 62.7999 1157.11 62.9599 1157.34 63.0999C1157.56 63.2379 1157.81 63.3499 1158.09 63.4259C1158.38 63.5019 1158.7 63.5459 1159.05 63.5459C1159.4 63.5459 1159.78 63.5059 1160.17 63.4159C1160.56 63.3259 1160.97 63.1959 1161.41 63.0009C1161.84 62.8069 1162.3 62.5509 1162.8 62.1909C1163.31 61.8359 1163.86 61.3809 1164.5 60.7509C1165.14 60.1239 1165.87 59.3209 1166.75 58.1389C1167.64 56.9589 1168.7 55.3989 1169.67 53.7949L1172.42 53.1849C1171.72 54.5649 1171.09 55.9779 1170.73 56.8809C1170.37 57.7809 1170.29 58.1739 1170.23 58.5909C1170.05 59.9049 1170.09 61.2409 1170.84 62.2789C1171.07 62.5989 1171.35 62.8789 1171.68 63.1119C1172.01 63.3419 1172.39 63.5319 1172.83 63.6559C1173.27 63.7859 1173.76 63.8529 1174.25 63.8519C1175.52 63.8359 1176.62 63.5819 1178.04 62.6969C1178.53 62.3969 1179.07 62.0049 1179.8 61.3519C1180.53 60.6979 1181.45 59.7819 1182.32 58.8219C1182.32 59.6589 1182.35 60.4989 1182.39 61.0419C1182.44 61.5869 1182.5 61.8319 1182.57 62.0319C1182.63 62.2319 1182.7 62.3849 1182.76 62.5179C1182.83 62.6479 1182.9 62.7559 1182.98 62.8479C1183.26 63.1879 1183.53 63.3179 1183.84 63.4219C1184.89 63.6719 1185.69 63.5419 1186.69 63.1019C1187.05 62.9419 1187.44 62.7219 1187.94 62.3619C1188.45 61.9969 1189.06 61.4919 1189.64 60.9519C1189.64 61.2959 1189.66 61.6419 1189.69 61.8919C1189.72 62.1419 1189.76 62.2979 1189.8 62.4269C1189.87 62.6369 1189.93 62.7799 1190.09 62.9669C1190.49 63.3769 1190.88 63.4369 1191.38 63.5069C1191.58 63.5269 1191.83 63.5369 1192.08 63.5369C1193.05 63.5329 1194.02 63.2269 1195.13 62.5169C1195.72 62.1429 1196.34 61.6469 1197 60.9819C1197.66 60.3169 1198.36 59.4819 1199.09 58.4419C1199.81 57.4019 1200.56 56.1519 1201.22 54.8559L1200.46 54.6999C1199.54 55.9319 1198.6 57.1439 1197.98 57.8929C1197.37 58.6389 1197.09 58.9229 1196.88 59.1229C1196.66 59.3229 1196.52 59.4329 1196.39 59.5149C1196.12 59.6949 1195.84 59.7519 1195.56 59.7149C1195.4 59.7229 1195.13 59.5279 1195.14 59.2909C1195.14 59.1569 1195.08 59.1509 1195.2 58.8429C1195.26 58.6699 1195.37 58.3769 1195.7 57.6649L1195.68 57.6799ZM1165.56 57.7479C1164.89 58.6849 1164.6 58.9819 1164.35 59.2099C1164.11 59.4399 1163.91 59.5999 1163.74 59.7249C1163.56 59.8479 1163.4 59.9349 1163.25 60.0019C1162.53 60.2919 1161.7 60.3419 1161.12 59.6019C1160.91 59.2919 1160.84 59.0139 1160.84 58.6079C1160.85 58.3729 1160.89 58.0799 1160.99 57.6839C1161.09 57.2839 1161.26 56.7839 1161.56 56.1439C1161.85 55.5039 1162.27 54.7339 1162.82 53.8759C1163.38 53.0209 1164.07 52.0859 1164.8 51.1929C1165.21 51.6529 1165.64 52.0829 1165.98 52.3869C1166.32 52.6909 1166.57 52.8609 1166.94 53.0509C1167.31 53.2409 1167.8 53.4539 1168.31 53.6309C1167.3 55.2309 1166.25 56.8029 1165.58 57.7409L1165.56 57.7479ZM1191.45 56.9919C1191.16 57.4619 1190.85 57.9159 1190.58 58.2819C1190.31 58.6449 1190.07 58.9199 1189.87 59.1339C1189.66 59.3439 1189.49 59.4939 1189.34 59.6139C1189.08 59.8139 1188.86 59.9339 1188.64 59.9939C1188.3 60.0809 1187.88 60.0109 1187.56 59.7139C1187.23 59.3639 1187.18 59.1539 1187.17 58.7539C1187.17 58.5839 1187.2 58.3559 1187.25 58.0669C1187.32 57.7769 1187.41 57.4269 1187.58 56.9769C1187.75 56.5269 1188 55.9789 1188.37 55.2969C1188.74 54.6139 1189.23 53.7969 1189.82 52.9369C1190.42 52.0769 1191.12 51.1729 1191.76 50.4209C1192.4 49.6709 1192.99 49.0709 1193.46 48.6409C1193.93 48.2109 1194.28 47.9509 1194.55 47.7779C1194.82 47.5999 1195.01 47.5129 1195.16 47.4579C1195.45 47.3519 1195.71 47.3479 1195.98 47.4579C1196.45 47.7309 1196.3 48.2179 1196.29 48.4729C1196.27 48.5729 1196.24 48.6629 1196.07 48.9859C1195.9 49.3099 1195.58 49.8679 1195.25 50.4259L1191.44 56.9759L1191.45 56.9919ZM1262.18 66.2519C1261.65 66.8999 1261.25 67.3319 1260.92 67.6579C1260.59 67.9829 1260.33 68.1979 1260.12 68.3579C1259.91 68.5179 1259.74 68.6209 1259.6 68.6949C1259.31 68.8369 1259.1 68.9149 1258.8 68.8649C1258.51 68.7989 1258.5 68.5669 1258.5 68.4249C1258.53 68.3109 1258.45 68.4679 1258.79 67.7519C1259.04 67.2219 1259.53 66.2219 1260.02 65.2239L1265.81 54.5539H1262.46L1261.39 55.4639C1260.95 55.2039 1260.49 54.9699 1260.16 54.8279C1259.83 54.6879 1259.62 54.6379 1259.41 54.6019C1259.21 54.5669 1259 54.5479 1258.77 54.5479C1257.62 54.5619 1256.55 54.8979 1255.4 55.5679C1255.05 55.7679 1254.68 56.0079 1254.28 56.3249C1253.87 56.6379 1253.42 57.0249 1252.88 57.5309C1252.34 58.0349 1251.7 58.6609 1250.61 60.0659C1249.52 61.4719 1247.98 63.6599 1246.89 65.1599C1245.8 66.6599 1245.16 67.4699 1244.71 67.9799C1244.27 68.4869 1244.01 68.6899 1243.8 68.8319C1243.6 68.9719 1243.45 69.0519 1243.32 69.1019C1243.12 69.1719 1242.98 69.1919 1242.78 69.1619C1242.47 69.1579 1242.05 68.7299 1241.98 68.4339C1241.81 67.8799 1241.85 67.6379 1241.99 66.7909C1242.07 66.2959 1242.22 65.5609 1242.46 64.6209C1242.7 63.6829 1243.03 62.5369 1243.4 61.4039C1245.85 59.8709 1248.21 58.1839 1250 56.7139C1251.79 55.2439 1253.01 53.9979 1254.25 52.4939C1255.49 50.9889 1256.75 49.2269 1257.87 47.3879L1256.35 47.5379C1255.48 48.8479 1254.52 50.0979 1253.37 51.4039C1252.22 52.7089 1250.89 54.0669 1249.41 55.3809C1247.93 56.6909 1246.31 57.9569 1244.62 59.1179C1245.57 57.1279 1246.6 55.1739 1247.7 53.2679C1248.79 51.3579 1249.95 49.4979 1251.11 47.7879C1252.27 46.0799 1253.44 44.5219 1254.49 43.2319C1255.55 41.9419 1256.5 40.9199 1257.28 40.1589C1258.06 39.3989 1258.68 38.8989 1259.16 38.5609C1259.65 38.2209 1260 38.0409 1260.27 37.9309C1260.54 37.8209 1260.73 37.7839 1260.92 37.7809C1261.01 37.7809 1261.1 37.8109 1261.2 37.8659C1261.59 38.1589 1261.54 38.3239 1261.51 38.6479C1261.5 38.7379 1261.48 38.8349 1261.36 39.2009C1261.24 39.5629 1261.01 40.2009 1260.76 40.8259L1262.13 40.6759C1262.36 40.3059 1262.56 39.9189 1262.68 39.6559C1262.8 39.3899 1262.83 39.2459 1262.86 39.0799C1262.89 38.9139 1262.9 38.7299 1262.9 38.5399C1262.89 37.9159 1262.71 37.3099 1262.04 36.8029C1261.86 36.6729 1261.66 36.5729 1261.44 36.5049C1260.71 36.2999 1260.08 36.4149 1259.28 36.6189C1258.72 36.7729 1258.09 37.0149 1257.34 37.4089C1256.6 37.8009 1255.73 38.3489 1254.71 39.1519C1253.68 39.9579 1252.49 41.0219 1251.16 42.4319C1249.83 43.8399 1248.36 45.5919 1246.86 47.6319C1245.37 49.6749 1243.85 52.0019 1242.49 54.3849C1241.13 56.7679 1239.91 59.2009 1238.83 61.6949H1237.01C1237.31 60.9949 1237.58 60.2849 1237.74 59.7719C1237.91 59.2619 1237.97 58.9419 1238.01 58.6379C1238.14 57.7779 1238.1 56.8279 1237.67 56.0699C1237.54 55.8359 1237.39 55.6299 1237.22 55.4599C1236.56 54.8259 1236.01 54.6949 1235.28 54.6899C1234.98 54.6919 1234.63 54.7299 1234.23 54.8229C1233.83 54.9129 1233.38 55.0629 1232.88 55.2929C1232.37 55.5279 1231.8 55.8429 1231.18 56.2809C1230.54 56.7209 1229.85 57.2809 1229.12 57.9769C1228.39 58.6709 1227.63 59.5009 1226.93 60.3969C1225.49 62.2369 1224.38 64.2339 1223.8 65.7569C1223.49 66.5369 1223.3 67.2219 1223.17 67.8269C1223.05 68.4269 1223 68.9469 1222.99 69.3969C1222.99 69.8469 1223.04 70.2269 1223.13 70.5719C1223.23 70.9119 1223.36 71.2219 1223.54 71.4939C1223.72 71.7659 1223.93 72.0039 1224.18 72.1979C1224.43 72.3949 1224.72 72.5509 1225.03 72.6529C1225.35 72.7569 1225.69 72.8079 1226.04 72.8129C1226.76 72.8159 1227.45 72.6449 1228.28 72.2469C1228.71 72.0369 1229.19 71.7539 1229.72 71.3569C1230.25 70.9589 1230.84 70.4469 1231.51 69.7519C1232.18 69.0579 1232.93 68.1819 1233.77 67.0159C1234.62 65.8529 1235.55 64.4029 1236.41 62.9089H1238.24C1237.77 64.3689 1237.34 65.8429 1237.1 66.7739C1236.86 67.7039 1236.81 68.0939 1236.77 68.4779C1236.71 69.1949 1236.68 69.8979 1236.81 70.4979C1236.87 70.7779 1236.95 71.0309 1237.06 71.2629C1237.17 71.4929 1237.31 71.7029 1237.48 71.8889C1237.64 72.0769 1237.83 72.2389 1238.05 72.3769C1238.26 72.5169 1238.51 72.6269 1238.77 72.7029C1239.04 72.7769 1239.32 72.8169 1239.62 72.8189C1240.63 72.8089 1241.58 72.4929 1242.71 71.7249C1243.13 71.4349 1243.6 71.0619 1244.17 70.5249C1244.73 69.9889 1245.39 69.2879 1246.01 68.5529C1246.01 69.0149 1246.04 69.4759 1246.08 69.8529C1246.13 70.2299 1246.19 70.5249 1246.26 70.7729C1246.32 71.0199 1246.4 71.2199 1246.48 71.3929C1246.56 71.5629 1246.64 71.7059 1246.73 71.8279C1246.92 72.0879 1247.1 72.2479 1247.3 72.3699C1247.69 72.5959 1248 72.6669 1248.5 72.6649C1248.7 72.6619 1248.96 72.6449 1249.21 72.5979C1249.73 72.5079 1250.21 72.3359 1250.8 71.9859C1251.1 71.8059 1251.43 71.5759 1251.89 71.1789C1252.34 70.7829 1252.92 70.2169 1253.47 69.6189C1253.47 70.0429 1253.49 70.4659 1253.53 70.7849C1253.57 71.1049 1253.62 71.3209 1253.67 71.4949C1253.72 71.6719 1253.78 71.8049 1253.84 71.9249C1253.99 72.2789 1254.42 72.6389 1254.74 72.7219C1255.78 72.9669 1256.59 72.7549 1257.67 72.2559C1258.1 72.0459 1258.56 71.7629 1259.08 71.3699C1259.59 70.9799 1260.16 70.4769 1260.77 69.8099C1261.39 69.1419 1262.07 68.3099 1262.78 67.2669C1263.49 66.2219 1264.24 64.9709 1264.9 63.6809L1263.99 63.8349C1263.37 64.7149 1262.72 65.5779 1262.19 66.2279L1262.18 66.2519ZM1169.77 50.0969C1169.74 50.3229 1169.69 50.5309 1169.55 50.9189C1169.4 51.3069 1169.17 51.8759 1168.91 52.4319C1168.49 52.3079 1168.09 52.1569 1167.77 52.0189C1167.46 51.8789 1167.24 51.7509 1167.05 51.6309C1166.87 51.5109 1166.72 51.3959 1166.6 51.2859C1166.48 51.1759 1166.38 51.0759 1166.3 50.9659C1165.68 50.0959 1165.64 49.1859 1166.56 48.2859C1166.69 48.1579 1166.85 48.0359 1167.02 47.9259C1167.19 47.8159 1167.38 47.7159 1167.56 47.6399C1168.13 47.4379 1168.67 47.2329 1169.22 47.6269C1169.84 48.2509 1169.79 48.8069 1169.82 49.4209C1169.82 49.6379 1169.8 49.8809 1169.77 50.1069V50.0969ZM1232.59 39.3409C1232.58 40.0029 1232.51 40.6609 1232.35 41.4379C1232.19 42.2139 1231.95 43.1079 1231.66 43.9379C1231.37 44.7679 1231.04 45.5379 1230.71 46.1779C1230.38 46.8219 1230.06 47.3379 1229.75 47.7579C1228.98 48.8259 1228.27 49.4099 1227.51 49.7509C1226.72 50.0809 1225.96 50.1259 1225.25 49.7269C1225.05 49.6099 1224.84 49.3649 1224.75 49.1399C1224.54 48.3849 1224.72 47.7399 1224.99 46.9099C1225.11 46.5799 1225.27 46.2169 1225.49 45.8119C1225.71 45.4099 1226 44.9639 1226.38 44.4619C1226.77 43.9619 1227.25 43.4049 1227.87 42.7959C1228.49 42.1959 1229.25 41.5359 1230.06 40.9359C1230.86 40.3459 1231.71 39.8159 1232.59 39.3459L1232.59 39.3409ZM1205.17 45.7429H1209.13L1207.3 49.0929H1203.49L1205.17 45.7429ZM1256.22 42.3629C1258.09 42.3829 1259.96 42.1729 1261.6 41.7769C1263.24 41.3809 1264.64 40.8019 1266.19 39.9039C1267.74 39.0039 1269.44 37.7839 1271 36.4139C1270.64 37.3839 1270.14 38.3059 1269.45 39.2469C1268.76 40.1869 1267.87 41.1489 1266.81 42.0369C1264.7 43.8269 1261.9 45.2289 1259.33 45.8469C1258.06 46.1669 1256.83 46.3169 1255.61 46.3169C1254.95 46.3169 1254.44 46.3009 1253.97 46.2519C1253.73 46.2279 1253.45 46.1979 1253.17 46.1619L1256.22 42.3519V42.3629ZM1224.47 59.6969C1224.61 58.9369 1224.68 58.2039 1224.67 57.4729C1224.67 56.9259 1224.58 56.3779 1224.39 55.9759C1224.3 55.7959 1224.2 55.6359 1224.08 55.4959C1223.8 55.1559 1223.51 54.9859 1223.17 54.8459C1222.98 54.7659 1222.75 54.7029 1222.49 54.6559C1222.23 54.6109 1221.93 54.5859 1221.59 54.5859C1221.25 54.5919 1220.87 54.6219 1220.49 54.6859C1218.96 54.9559 1217.4 55.7229 1215.87 57.4519C1215.48 57.8969 1215.1 58.4079 1214.73 58.9919C1214.36 59.5779 1214.01 60.2369 1213.69 60.9589C1213.37 61.6849 1213.09 62.4749 1212.86 63.3019C1212.63 64.1259 1212.46 64.9919 1212.34 65.8619C1213.15 65.1879 1213.99 64.5419 1214.59 64.1069C1215.19 63.6739 1215.56 63.4539 1216.06 63.1949C1216.56 62.9349 1217.19 62.6349 1217.83 62.3599C1217.97 61.3899 1218.24 60.4019 1218.59 59.5899C1218.75 59.2099 1218.92 58.8739 1219.09 58.5799C1219.27 58.2949 1219.44 58.0499 1219.61 57.8439C1220.1 57.2519 1220.57 56.9239 1221.05 56.7339C1221.76 56.5089 1222.34 56.4139 1223 56.9439C1223.29 57.2439 1223.37 57.4919 1223.43 57.8039C1223.54 58.9639 1223.36 60.0059 1223 61.1999C1222.84 61.7299 1222.62 62.2799 1222.34 62.8599C1222.06 63.4359 1221.72 64.0369 1221.29 64.6559C1220.45 65.8959 1219.22 67.2429 1217.85 68.3159C1216.54 69.3519 1215.14 70.0859 1214.17 70.3759C1213.7 70.5159 1213.33 70.5759 1212.98 70.5779C1212.63 70.5779 1212.31 70.5379 1211.98 70.4409C1211.33 70.2589 1210.65 69.8689 1210.09 69.2929C1209.82 69.0109 1209.58 68.6929 1209.39 68.3589C1209.01 67.6789 1208.84 66.9759 1208.84 66.3089C1208.87 65.5289 1209 64.7589 1209.42 63.4289C1209.84 62.1039 1210.54 60.2189 1211.53 58.1049C1212.51 55.9919 1213.78 53.6549 1215.03 51.6189C1216.28 49.5889 1217.5 47.8589 1218.62 46.4439C1219.72 45.0239 1220.73 43.9139 1221.64 43.0139C1222.55 42.1139 1223.37 41.4169 1224.11 40.8609C1224.85 40.3049 1225.51 39.8879 1226.11 39.5569C1226.72 39.2269 1227.27 38.9849 1227.78 38.7989C1229.14 38.2889 1230.41 38.2519 1231.83 38.2759C1230.78 38.8609 1229.78 39.5259 1228.88 40.2159C1227.09 41.6029 1225.82 43.0499 1225.02 44.2859C1224.61 44.9059 1224.31 45.4879 1224.08 46.0299C1223.85 46.5739 1223.7 47.0799 1223.6 47.5599C1223.51 48.0369 1223.47 48.4899 1223.46 48.8429C1223.45 49.1929 1223.48 49.4429 1223.54 49.6729C1223.59 49.8929 1223.67 50.0929 1223.77 50.2629C1223.87 50.4349 1223.98 50.5849 1224.12 50.7179C1224.26 50.8509 1224.41 50.9629 1224.6 51.0579C1224.78 51.1579 1224.99 51.2319 1225.24 51.2879C1225.49 51.3399 1225.76 51.3679 1226.04 51.3679C1226.62 51.3679 1227.2 51.2329 1227.89 50.9229C1228.25 50.7569 1228.63 50.5369 1229.05 50.2409C1229.47 49.9429 1229.92 49.5709 1230.38 49.1149C1230.84 48.6609 1231.3 48.1279 1231.73 47.5449C1232.16 46.9569 1232.56 46.3249 1232.89 45.6849C1233.54 44.4649 1233.95 43.2249 1234.14 42.1569C1234.23 41.6429 1234.28 41.1689 1234.28 40.6989C1234.28 40.5789 1234.27 40.4609 1234.24 40.2289C1234.22 39.9969 1234.17 39.6489 1234.15 39.4049C1234.13 39.1589 1234.12 39.0149 1234.12 38.8669C1235.39 38.8489 1236.65 38.9869 1237.84 39.2769C1239.02 39.5639 1240.14 39.9989 1241.78 40.8989C1243.43 41.7989 1245.6 43.1689 1247.69 44.6589L1251.04 41.1529C1249.73 40.1849 1248.37 39.2929 1247.18 38.6229C1246 37.9469 1245 37.4929 1244.11 37.1589C1243.22 36.8239 1242.45 36.6109 1241.74 36.4729C1240.65 36.2729 1239.8 36.2259 1238.62 36.3429C1238.23 36.3859 1237.81 36.4459 1237.01 36.6599C1236.2 36.8749 1235.01 37.2439 1233.82 37.6529C1233.13 37.2579 1232.41 36.9069 1231.89 36.6929C1231.36 36.4859 1231.04 36.4129 1230.71 36.3629C1229.47 36.1829 1228.37 36.3129 1226.9 36.7069C1225.84 37.0069 1224.57 37.4769 1223.11 38.2219C1221.64 38.9619 1219.97 39.9819 1218.26 41.2419C1216.56 42.4959 1214.82 43.9919 1213.25 45.5619C1211.68 47.1319 1210.27 48.7749 1209.09 50.3689C1207.91 51.9589 1206.94 53.4989 1206.18 54.9429C1205.41 56.3879 1204.83 57.7329 1204.4 58.9979C1203.96 60.2579 1203.67 61.4379 1203.48 62.5379C1203.29 63.6379 1203.2 64.6629 1203.2 65.4879C1203.19 66.3109 1203.27 66.9339 1203.42 67.5349C1203.57 68.1349 1203.79 68.7049 1204.08 69.2489C1204.38 69.7889 1204.75 70.2949 1205.19 70.7529C1205.64 71.2109 1206.15 71.6189 1206.73 71.9559C1207.31 72.2899 1207.94 72.5559 1208.61 72.7359C1209.99 73.0859 1211.26 73.1109 1212.7 72.7009C1213.44 72.4909 1214.29 72.1639 1215.19 71.6859C1217.04 70.7229 1219.06 69.1059 1220.57 67.3559C1222.13 65.5759 1223.18 63.7259 1223.8 62.0759C1224.12 61.2459 1224.34 60.4499 1224.48 59.6859L1224.47 59.6969Z" fill="black" fill-opacity="0.2"/>
</svg>
