<svg width="135" height="29" viewBox="0 0 135 29" fill="none" xmlns="http://www.w3.org/2000/svg">
<rect width="134.348" height="22" rx="7" fill="#FB8011" fill-opacity="0.04"/>
<path d="M7.1 14C7.02667 14 6.97 13.98 6.93 13.94C6.89 13.8933 6.87 13.8367 6.87 13.77V7.24C6.87 7.16667 6.89 7.11 6.93 7.07C6.97 7.02333 7.02667 7 7.1 7H11.18C11.2533 7 11.31 7.02333 11.35 7.07C11.39 7.11 11.41 7.16667 11.41 7.24V7.64C11.41 7.71333 11.39 7.77 11.35 7.81C11.31 7.85 11.2533 7.87 11.18 7.87H7.84V10.2H10.98C11.0533 10.2 11.11 10.2233 11.15 10.27C11.19 10.31 11.21 10.3667 11.21 10.44V10.84C11.21 10.9067 11.19 10.9633 11.15 11.01C11.11 11.05 11.0533 11.07 10.98 11.07H7.84V13.77C7.84 13.8367 7.81667 13.8933 7.77 13.94C7.73 13.98 7.67333 14 7.6 14H7.1ZM13.7369 14.1C13.4035 14.1 13.1002 14.0333 12.8269 13.9C12.5535 13.7667 12.3335 13.5867 12.1669 13.36C12.0002 13.1333 11.9169 12.8767 11.9169 12.59C11.9169 12.13 12.1035 11.7633 12.4769 11.49C12.8502 11.2167 13.3369 11.0367 13.9369 10.95L15.4269 10.74V10.45C15.4269 10.13 15.3335 9.88 15.1469 9.7C14.9669 9.52 14.6702 9.43 14.2569 9.43C13.9569 9.43 13.7135 9.49 13.5269 9.61C13.3469 9.73 13.2202 9.88333 13.1469 10.07C13.1069 10.17 13.0369 10.22 12.9369 10.22H12.4869C12.4135 10.22 12.3569 10.2 12.3169 10.16C12.2835 10.1133 12.2669 10.06 12.2669 10C12.2669 9.9 12.3035 9.77667 12.3769 9.63C12.4569 9.48333 12.5769 9.34 12.7369 9.2C12.8969 9.06 13.1002 8.94333 13.3469 8.85C13.6002 8.75 13.9069 8.7 14.2669 8.7C14.6669 8.7 15.0035 8.75333 15.2769 8.86C15.5502 8.96 15.7635 9.09667 15.9169 9.27C16.0769 9.44333 16.1902 9.64 16.2569 9.86C16.3302 10.08 16.3669 10.3033 16.3669 10.53V13.77C16.3669 13.8367 16.3435 13.8933 16.2969 13.94C16.2569 13.98 16.2035 14 16.1369 14H15.6769C15.6035 14 15.5469 13.98 15.5069 13.94C15.4669 13.8933 15.4469 13.8367 15.4469 13.77V13.34C15.3602 13.46 15.2435 13.58 15.0969 13.7C14.9502 13.8133 14.7669 13.91 14.5469 13.99C14.3269 14.0633 14.0569 14.1 13.7369 14.1ZM13.9469 13.35C14.2202 13.35 14.4702 13.2933 14.6969 13.18C14.9235 13.06 15.1002 12.8767 15.2269 12.63C15.3602 12.3833 15.4269 12.0733 15.4269 11.7V11.42L14.2669 11.59C13.7935 11.6567 13.4369 11.77 13.1969 11.93C12.9569 12.0833 12.8369 12.28 12.8369 12.52C12.8369 12.7067 12.8902 12.8633 12.9969 12.99C13.1102 13.11 13.2502 13.2 13.4169 13.26C13.5902 13.32 13.7669 13.35 13.9469 13.35ZM19.6045 14.1C19.2311 14.1 18.9111 14.0533 18.6445 13.96C18.3778 13.8667 18.1611 13.7533 17.9945 13.62C17.8278 13.4867 17.7011 13.3533 17.6145 13.22C17.5345 13.0867 17.4911 12.98 17.4845 12.9C17.4778 12.8267 17.5011 12.77 17.5545 12.73C17.6078 12.69 17.6611 12.67 17.7145 12.67H18.1545C18.1945 12.67 18.2245 12.6767 18.2445 12.69C18.2711 12.6967 18.3045 12.7233 18.3445 12.77C18.4311 12.8633 18.5278 12.9567 18.6345 13.05C18.7411 13.1433 18.8711 13.22 19.0245 13.28C19.1845 13.34 19.3811 13.37 19.6145 13.37C19.9545 13.37 20.2345 13.3067 20.4545 13.18C20.6745 13.0467 20.7845 12.8533 20.7845 12.6C20.7845 12.4333 20.7378 12.3 20.6445 12.2C20.5578 12.1 20.3978 12.01 20.1645 11.93C19.9378 11.85 19.6245 11.7667 19.2245 11.68C18.8245 11.5867 18.5078 11.4733 18.2745 11.34C18.0411 11.2 17.8745 11.0367 17.7745 10.85C17.6745 10.6567 17.6245 10.44 17.6245 10.2C17.6245 9.95333 17.6978 9.71667 17.8445 9.49C17.9911 9.25667 18.2045 9.06667 18.4845 8.92C18.7711 8.77333 19.1278 8.7 19.5545 8.7C19.9011 8.7 20.1978 8.74333 20.4445 8.83C20.6911 8.91667 20.8945 9.02667 21.0545 9.16C21.2145 9.28667 21.3345 9.41333 21.4145 9.54C21.4945 9.66667 21.5378 9.77333 21.5445 9.86C21.5511 9.92667 21.5311 9.98333 21.4845 10.03C21.4378 10.07 21.3845 10.09 21.3245 10.09H20.9045C20.8578 10.09 20.8178 10.08 20.7845 10.06C20.7578 10.04 20.7311 10.0167 20.7045 9.99C20.6378 9.90333 20.5578 9.81667 20.4645 9.73C20.3778 9.64333 20.2611 9.57333 20.1145 9.52C19.9745 9.46 19.7878 9.43 19.5545 9.43C19.2211 9.43 18.9711 9.5 18.8045 9.64C18.6378 9.78 18.5545 9.95667 18.5545 10.17C18.5545 10.2967 18.5911 10.41 18.6645 10.51C18.7378 10.61 18.8778 10.7 19.0845 10.78C19.2911 10.86 19.5978 10.9467 20.0045 11.04C20.4445 11.1267 20.7911 11.2433 21.0445 11.39C21.2978 11.5367 21.4778 11.7067 21.5845 11.9C21.6911 12.0933 21.7445 12.3167 21.7445 12.57C21.7445 12.85 21.6611 13.1067 21.4945 13.34C21.3345 13.5733 21.0945 13.76 20.7745 13.9C20.4611 14.0333 20.0711 14.1 19.6045 14.1ZM24.9223 14C24.549 14 24.2457 13.93 24.0123 13.79C23.779 13.6433 23.609 13.44 23.5023 13.18C23.3957 12.9133 23.3423 12.6 23.3423 12.24V9.6H22.5623C22.4957 9.6 22.439 9.58 22.3923 9.54C22.3523 9.49333 22.3323 9.43667 22.3323 9.37V9.03C22.3323 8.96333 22.3523 8.91 22.3923 8.87C22.439 8.82333 22.4957 8.8 22.5623 8.8H23.3423V7.13C23.3423 7.06333 23.3623 7.01 23.4023 6.97C23.449 6.92333 23.5057 6.9 23.5723 6.9H24.0423C24.109 6.9 24.1623 6.92333 24.2023 6.97C24.249 7.01 24.2723 7.06333 24.2723 7.13V8.8H25.5123C25.579 8.8 25.6323 8.82333 25.6723 8.87C25.719 8.91 25.7423 8.96333 25.7423 9.03V9.37C25.7423 9.43667 25.719 9.49333 25.6723 9.54C25.6323 9.58 25.579 9.6 25.5123 9.6H24.2723V12.17C24.2723 12.4833 24.3257 12.73 24.4323 12.91C24.539 13.09 24.729 13.18 25.0023 13.18H25.6123C25.679 13.18 25.7323 13.2033 25.7723 13.25C25.819 13.29 25.8423 13.3433 25.8423 13.41V13.77C25.8423 13.8367 25.819 13.8933 25.7723 13.94C25.7323 13.98 25.679 14 25.6123 14H24.9223ZM29.8142 14C29.7476 14 29.6909 13.98 29.6442 13.94C29.6042 13.8933 29.5842 13.8367 29.5842 13.77V9.6H28.7342C28.6676 9.6 28.6109 9.58 28.5642 9.54C28.5242 9.49333 28.5042 9.43667 28.5042 9.37V9.03C28.5042 8.96333 28.5242 8.91 28.5642 8.87C28.6109 8.82333 28.6676 8.8 28.7342 8.8H29.5842V8.3C29.5842 7.96 29.6409 7.66333 29.7542 7.41C29.8676 7.15 30.0476 6.95 30.2942 6.81C30.5476 6.67 30.8842 6.6 31.3042 6.6H31.9042C31.9709 6.6 32.0242 6.62333 32.0642 6.67C32.1042 6.71 32.1242 6.76333 32.1242 6.83V7.17C32.1242 7.23667 32.1042 7.29333 32.0642 7.34C32.0242 7.38 31.9709 7.4 31.9042 7.4H31.3242C31.0109 7.4 30.7976 7.48333 30.6842 7.65C30.5709 7.81 30.5142 8.04333 30.5142 8.35V8.8H31.8042C31.8709 8.8 31.9242 8.82333 31.9642 8.87C32.0042 8.91 32.0242 8.96333 32.0242 9.03V9.37C32.0242 9.43667 32.0042 9.49333 31.9642 9.54C31.9242 9.58 31.8709 9.6 31.8042 9.6H30.5142V13.77C30.5142 13.8367 30.4909 13.8933 30.4442 13.94C30.4042 13.98 30.3509 14 30.2842 14H29.8142ZM34.9442 14.1C34.4376 14.1 34.0142 14.0033 33.6742 13.81C33.3342 13.6167 33.0742 13.35 32.8942 13.01C32.7142 12.6633 32.6142 12.27 32.5942 11.83C32.5876 11.7167 32.5842 11.5733 32.5842 11.4C32.5842 11.22 32.5876 11.0767 32.5942 10.97C32.6142 10.5233 32.7142 10.13 32.8942 9.79C33.0809 9.45 33.3442 9.18333 33.6842 8.99C34.0242 8.79667 34.4442 8.7 34.9442 8.7C35.4442 8.7 35.8642 8.79667 36.2042 8.99C36.5442 9.18333 36.8042 9.45 36.9842 9.79C37.1709 10.13 37.2742 10.5233 37.2942 10.97C37.3009 11.0767 37.3042 11.22 37.3042 11.4C37.3042 11.5733 37.3009 11.7167 37.2942 11.83C37.2742 12.27 37.1742 12.6633 36.9942 13.01C36.8142 13.35 36.5542 13.6167 36.2142 13.81C35.8742 14.0033 35.4509 14.1 34.9442 14.1ZM34.9442 13.33C35.3576 13.33 35.6876 13.2 35.9342 12.94C36.1809 12.6733 36.3142 12.2867 36.3342 11.78C36.3409 11.68 36.3442 11.5533 36.3442 11.4C36.3442 11.2467 36.3409 11.12 36.3342 11.02C36.3142 10.5133 36.1809 10.13 35.9342 9.87C35.6876 9.60333 35.3576 9.47 34.9442 9.47C34.5309 9.47 34.1976 9.60333 33.9442 9.87C33.6976 10.13 33.5676 10.5133 33.5542 11.02C33.5476 11.12 33.5442 11.2467 33.5442 11.4C33.5442 11.5533 33.5476 11.68 33.5542 11.78C33.5676 12.2867 33.6976 12.6733 33.9442 12.94C34.1976 13.2 34.5309 13.33 34.9442 13.33ZM40.6864 14.1C40.1797 14.1 39.7564 14.0033 39.4164 13.81C39.0764 13.6167 38.8164 13.35 38.6364 13.01C38.4564 12.6633 38.3564 12.27 38.3364 11.83C38.3297 11.7167 38.3264 11.5733 38.3264 11.4C38.3264 11.22 38.3297 11.0767 38.3364 10.97C38.3564 10.5233 38.4564 10.13 38.6364 9.79C38.8231 9.45 39.0864 9.18333 39.4264 8.99C39.7664 8.79667 40.1864 8.7 40.6864 8.7C41.1864 8.7 41.6064 8.79667 41.9464 8.99C42.2864 9.18333 42.5464 9.45 42.7264 9.79C42.9131 10.13 43.0164 10.5233 43.0364 10.97C43.0431 11.0767 43.0464 11.22 43.0464 11.4C43.0464 11.5733 43.0431 11.7167 43.0364 11.83C43.0164 12.27 42.9164 12.6633 42.7364 13.01C42.5564 13.35 42.2964 13.6167 41.9564 13.81C41.6164 14.0033 41.1931 14.1 40.6864 14.1ZM40.6864 13.33C41.0997 13.33 41.4297 13.2 41.6764 12.94C41.9231 12.6733 42.0564 12.2867 42.0764 11.78C42.0831 11.68 42.0864 11.5533 42.0864 11.4C42.0864 11.2467 42.0831 11.12 42.0764 11.02C42.0564 10.5133 41.9231 10.13 41.6764 9.87C41.4297 9.60333 41.0997 9.47 40.6864 9.47C40.2731 9.47 39.9397 9.60333 39.6864 9.87C39.4397 10.13 39.3097 10.5133 39.2964 11.02C39.2897 11.12 39.2864 11.2467 39.2864 11.4C39.2864 11.5533 39.2897 11.68 39.2964 11.78C39.3097 12.2867 39.4397 12.6733 39.6864 12.94C39.9397 13.2 40.2731 13.33 40.6864 13.33ZM46.1986 14.1C45.8319 14.1 45.5153 14.0367 45.2486 13.91C44.9819 13.7767 44.7619 13.6 44.5886 13.38C44.4219 13.1533 44.2953 12.8967 44.2086 12.61C44.1286 12.3233 44.0819 12.02 44.0686 11.7C44.0619 11.5933 44.0586 11.4933 44.0586 11.4C44.0586 11.3067 44.0619 11.2067 44.0686 11.1C44.0819 10.7867 44.1286 10.4867 44.2086 10.2C44.2953 9.91333 44.4219 9.65667 44.5886 9.43C44.7619 9.20333 44.9819 9.02667 45.2486 8.9C45.5153 8.76667 45.8319 8.7 46.1986 8.7C46.5919 8.7 46.9186 8.77 47.1786 8.91C47.4386 9.05 47.6519 9.22333 47.8186 9.43V7.13C47.8186 7.06333 47.8386 7.01 47.8786 6.97C47.9253 6.92333 47.9819 6.9 48.0486 6.9H48.5286C48.5953 6.9 48.6486 6.92333 48.6886 6.97C48.7353 7.01 48.7586 7.06333 48.7586 7.13V13.77C48.7586 13.8367 48.7353 13.8933 48.6886 13.94C48.6486 13.98 48.5953 14 48.5286 14H48.0786C48.0053 14 47.9486 13.98 47.9086 13.94C47.8686 13.8933 47.8486 13.8367 47.8486 13.77V13.35C47.6819 13.5633 47.4653 13.7433 47.1986 13.89C46.9319 14.03 46.5986 14.1 46.1986 14.1ZM46.4086 13.29C46.7419 13.29 47.0086 13.2133 47.2086 13.06C47.4086 12.9067 47.5586 12.7133 47.6586 12.48C47.7586 12.24 47.8119 11.9967 47.8186 11.75C47.8253 11.6433 47.8286 11.5167 47.8286 11.37C47.8286 11.2167 47.8253 11.0867 47.8186 10.98C47.8119 10.7467 47.7553 10.5167 47.6486 10.29C47.5486 10.0633 47.3953 9.87667 47.1886 9.73C46.9886 9.58333 46.7286 9.51 46.4086 9.51C46.0686 9.51 45.7986 9.58667 45.5986 9.74C45.3986 9.88667 45.2553 10.0833 45.1686 10.33C45.0819 10.57 45.0319 10.83 45.0186 11.11C45.0119 11.3033 45.0119 11.4967 45.0186 11.69C45.0319 11.97 45.0819 12.2333 45.1686 12.48C45.2553 12.72 45.3986 12.9167 45.5986 13.07C45.7986 13.2167 46.0686 13.29 46.4086 13.29ZM54.597 14.1C54.2304 14.1 53.9137 14.0367 53.647 13.91C53.3804 13.7767 53.1604 13.6 52.987 13.38C52.8204 13.1533 52.6937 12.8967 52.607 12.61C52.527 12.3233 52.4804 12.02 52.467 11.7C52.4604 11.5933 52.457 11.4933 52.457 11.4C52.457 11.3067 52.4604 11.2067 52.467 11.1C52.4804 10.7867 52.527 10.4867 52.607 10.2C52.6937 9.91333 52.8204 9.65667 52.987 9.43C53.1604 9.20333 53.3804 9.02667 53.647 8.9C53.9137 8.76667 54.2304 8.7 54.597 8.7C54.9904 8.7 55.317 8.77 55.577 8.91C55.837 9.05 56.0504 9.22333 56.217 9.43V7.13C56.217 7.06333 56.237 7.01 56.277 6.97C56.3237 6.92333 56.3804 6.9 56.447 6.9H56.927C56.9937 6.9 57.047 6.92333 57.087 6.97C57.1337 7.01 57.157 7.06333 57.157 7.13V13.77C57.157 13.8367 57.1337 13.8933 57.087 13.94C57.047 13.98 56.9937 14 56.927 14H56.477C56.4037 14 56.347 13.98 56.307 13.94C56.267 13.8933 56.247 13.8367 56.247 13.77V13.35C56.0804 13.5633 55.8637 13.7433 55.597 13.89C55.3304 14.03 54.997 14.1 54.597 14.1ZM54.807 13.29C55.1404 13.29 55.407 13.2133 55.607 13.06C55.807 12.9067 55.957 12.7133 56.057 12.48C56.157 12.24 56.2104 11.9967 56.217 11.75C56.2237 11.6433 56.227 11.5167 56.227 11.37C56.227 11.2167 56.2237 11.0867 56.217 10.98C56.2104 10.7467 56.1537 10.5167 56.047 10.29C55.947 10.0633 55.7937 9.87667 55.587 9.73C55.387 9.58333 55.127 9.51 54.807 9.51C54.467 9.51 54.197 9.58667 53.997 9.74C53.797 9.88667 53.6537 10.0833 53.567 10.33C53.4804 10.57 53.4304 10.83 53.417 11.11C53.4104 11.3033 53.4104 11.4967 53.417 11.69C53.4304 11.97 53.4804 12.2333 53.567 12.48C53.6537 12.72 53.797 12.9167 53.997 13.07C54.197 13.2167 54.467 13.29 54.807 13.29ZM60.7143 14.1C60.0276 14.1 59.481 13.89 59.0743 13.47C58.6676 13.0433 58.4443 12.4633 58.4043 11.73C58.3976 11.6433 58.3943 11.5333 58.3943 11.4C58.3943 11.26 58.3976 11.1467 58.4043 11.06C58.431 10.5867 58.541 10.1733 58.7343 9.82C58.9276 9.46 59.191 9.18333 59.5243 8.99C59.8643 8.79667 60.261 8.7 60.7143 8.7C61.221 8.7 61.6443 8.80667 61.9843 9.02C62.331 9.23333 62.5943 9.53667 62.7743 9.93C62.9543 10.3233 63.0443 10.7833 63.0443 11.31V11.48C63.0443 11.5533 63.021 11.61 62.9743 11.65C62.9343 11.69 62.881 11.71 62.8143 11.71H59.3543C59.3543 11.7167 59.3543 11.73 59.3543 11.75C59.3543 11.77 59.3543 11.7867 59.3543 11.8C59.3676 12.0733 59.4276 12.33 59.5343 12.57C59.641 12.8033 59.7943 12.9933 59.9943 13.14C60.1943 13.2867 60.4343 13.36 60.7143 13.36C60.9543 13.36 61.1543 13.3233 61.3143 13.25C61.4743 13.1767 61.6043 13.0967 61.7043 13.01C61.8043 12.9167 61.871 12.8467 61.9043 12.8C61.9643 12.7133 62.011 12.6633 62.0443 12.65C62.0776 12.63 62.131 12.62 62.2043 12.62H62.6843C62.751 12.62 62.8043 12.64 62.8443 12.68C62.891 12.7133 62.911 12.7633 62.9043 12.83C62.8976 12.93 62.8443 13.0533 62.7443 13.2C62.6443 13.34 62.501 13.48 62.3143 13.62C62.1276 13.76 61.901 13.8767 61.6343 13.97C61.3676 14.0567 61.061 14.1 60.7143 14.1ZM59.3543 11.02H62.0943V10.99C62.0943 10.69 62.0376 10.4233 61.9243 10.19C61.8176 9.95667 61.661 9.77333 61.4543 9.64C61.2476 9.5 61.001 9.43 60.7143 9.43C60.4276 9.43 60.181 9.5 59.9743 9.64C59.7743 9.77333 59.621 9.95667 59.5143 10.19C59.4076 10.4233 59.3543 10.69 59.3543 10.99V11.02ZM64.48 14C64.4133 14 64.3567 13.98 64.31 13.94C64.27 13.8933 64.25 13.8367 64.25 13.77V7.13C64.25 7.06333 64.27 7.01 64.31 6.97C64.3567 6.92333 64.4133 6.9 64.48 6.9H64.95C65.0233 6.9 65.08 6.92333 65.12 6.97C65.16 7.01 65.18 7.06333 65.18 7.13V13.77C65.18 13.8367 65.16 13.8933 65.12 13.94C65.08 13.98 65.0233 14 64.95 14H64.48ZM66.9993 14C66.9326 14 66.876 13.98 66.8293 13.94C66.7893 13.8933 66.7693 13.8367 66.7693 13.77V9.03C66.7693 8.96333 66.7893 8.91 66.8293 8.87C66.876 8.82333 66.9326 8.8 66.9993 8.8H67.4793C67.546 8.8 67.5993 8.82333 67.6393 8.87C67.6793 8.91 67.6993 8.96333 67.6993 9.03V13.77C67.6993 13.8367 67.6793 13.8933 67.6393 13.94C67.5993 13.98 67.546 14 67.4793 14H66.9993ZM66.9193 7.83C66.8526 7.83 66.796 7.81 66.7493 7.77C66.7093 7.72333 66.6893 7.66667 66.6893 7.6V7.06C66.6893 6.99333 66.7093 6.94 66.7493 6.9C66.796 6.85333 66.8526 6.83 66.9193 6.83H67.5493C67.616 6.83 67.6693 6.85333 67.7093 6.9C67.756 6.94 67.7793 6.99333 67.7793 7.06V7.6C67.7793 7.66667 67.756 7.72333 67.7093 7.77C67.6693 7.81 67.616 7.83 67.5493 7.83H66.9193ZM71.0012 14C70.9012 14 70.8212 13.9767 70.7612 13.93C70.7078 13.8833 70.6645 13.8233 70.6312 13.75L68.7812 9.11C68.7678 9.07667 68.7612 9.04333 68.7612 9.01C68.7612 8.95 68.7812 8.9 68.8212 8.86C68.8612 8.82 68.9112 8.8 68.9712 8.8H69.4512C69.5245 8.8 69.5812 8.82 69.6212 8.86C69.6612 8.9 69.6845 8.93667 69.6912 8.97L71.2212 12.91L72.7412 8.97C72.7545 8.93667 72.7778 8.9 72.8112 8.86C72.8512 8.82 72.9078 8.8 72.9812 8.8H73.4712C73.5245 8.8 73.5712 8.82 73.6112 8.86C73.6578 8.9 73.6812 8.95 73.6812 9.01C73.6812 9.04333 73.6745 9.07667 73.6612 9.11L71.8012 13.75C71.7745 13.8233 71.7312 13.8833 71.6712 13.93C71.6178 13.9767 71.5378 14 71.4312 14H71.0012ZM76.6127 14.1C75.9261 14.1 75.3794 13.89 74.9727 13.47C74.5661 13.0433 74.3427 12.4633 74.3027 11.73C74.2961 11.6433 74.2927 11.5333 74.2927 11.4C74.2927 11.26 74.2961 11.1467 74.3027 11.06C74.3294 10.5867 74.4394 10.1733 74.6327 9.82C74.8261 9.46 75.0894 9.18333 75.4227 8.99C75.7627 8.79667 76.1594 8.7 76.6127 8.7C77.1194 8.7 77.5427 8.80667 77.8827 9.02C78.2294 9.23333 78.4927 9.53667 78.6727 9.93C78.8527 10.3233 78.9427 10.7833 78.9427 11.31V11.48C78.9427 11.5533 78.9194 11.61 78.8727 11.65C78.8327 11.69 78.7794 11.71 78.7127 11.71H75.2527C75.2527 11.7167 75.2527 11.73 75.2527 11.75C75.2527 11.77 75.2527 11.7867 75.2527 11.8C75.2661 12.0733 75.3261 12.33 75.4327 12.57C75.5394 12.8033 75.6927 12.9933 75.8927 13.14C76.0927 13.2867 76.3327 13.36 76.6127 13.36C76.8527 13.36 77.0527 13.3233 77.2127 13.25C77.3727 13.1767 77.5027 13.0967 77.6027 13.01C77.7027 12.9167 77.7694 12.8467 77.8027 12.8C77.8627 12.7133 77.9094 12.6633 77.9427 12.65C77.9761 12.63 78.0294 12.62 78.1027 12.62H78.5827C78.6494 12.62 78.7027 12.64 78.7427 12.68C78.7894 12.7133 78.8094 12.7633 78.8027 12.83C78.7961 12.93 78.7427 13.0533 78.6427 13.2C78.5427 13.34 78.3994 13.48 78.2127 13.62C78.0261 13.76 77.7994 13.8767 77.5327 13.97C77.2661 14.0567 76.9594 14.1 76.6127 14.1ZM75.2527 11.02H77.9927V10.99C77.9927 10.69 77.9361 10.4233 77.8227 10.19C77.7161 9.95667 77.5594 9.77333 77.3527 9.64C77.1461 9.5 76.8994 9.43 76.6127 9.43C76.3261 9.43 76.0794 9.5 75.8727 9.64C75.6727 9.77333 75.5194 9.95667 75.4127 10.19C75.3061 10.4233 75.2527 10.69 75.2527 10.99V11.02ZM80.3684 14C80.3018 14 80.2451 13.98 80.1984 13.94C80.1584 13.8933 80.1384 13.8367 80.1384 13.77V9.04C80.1384 8.97333 80.1584 8.91667 80.1984 8.87C80.2451 8.82333 80.3018 8.8 80.3684 8.8H80.8284C80.8951 8.8 80.9518 8.82333 80.9984 8.87C81.0451 8.91667 81.0684 8.97333 81.0684 9.04V9.48C81.2018 9.25333 81.3851 9.08333 81.6184 8.97C81.8518 8.85667 82.1318 8.8 82.4584 8.8H82.8584C82.9251 8.8 82.9784 8.82333 83.0184 8.87C83.0584 8.91 83.0784 8.96333 83.0784 9.03V9.44C83.0784 9.50667 83.0584 9.56 83.0184 9.6C82.9784 9.64 82.9251 9.66 82.8584 9.66H82.2584C81.8984 9.66 81.6151 9.76667 81.4084 9.98C81.2018 10.1867 81.0984 10.47 81.0984 10.83V13.77C81.0984 13.8367 81.0751 13.8933 81.0284 13.94C80.9818 13.98 80.9251 14 80.8584 14H80.3684ZM84.8473 15.9C84.7939 15.9 84.7473 15.88 84.7073 15.84C84.6673 15.8 84.6473 15.7533 84.6473 15.7C84.6473 15.6733 84.6506 15.6467 84.6573 15.62C84.6639 15.5933 84.6773 15.56 84.6973 15.52L85.4673 13.69L83.5573 9.18C83.5239 9.1 83.5073 9.04333 83.5073 9.01C83.5073 8.95 83.5273 8.9 83.5673 8.86C83.6073 8.82 83.6573 8.8 83.7173 8.8H84.2073C84.2739 8.8 84.3273 8.81667 84.3673 8.85C84.4073 8.88333 84.4339 8.92333 84.4473 8.97L85.9673 12.61L87.5273 8.97C87.5473 8.92333 87.5739 8.88333 87.6073 8.85C87.6473 8.81667 87.7039 8.8 87.7773 8.8H88.2473C88.3073 8.8 88.3573 8.82 88.3973 8.86C88.4373 8.9 88.4573 8.94667 88.4573 9C88.4573 9.03333 88.4406 9.09333 88.4073 9.18L85.5673 15.73C85.5473 15.7767 85.5173 15.8167 85.4773 15.85C85.4439 15.8833 85.3906 15.9 85.3173 15.9H84.8473Z" fill="#FB8011"/>
<path d="M105.768 9.54566C105.768 9.54566 105.015 10.2478 103.736 11.0753C103.385 9.04414 102.407 6.53655 100.502 3.47729C100.502 3.47729 99.8748 6.76223 97.7935 9.84657C96.8907 8.44232 96.4895 7.33898 96.4895 7.33898C89.9698 13.8838 95.3862 18.5228 98.7965 18.5228C103.16 18.5228 106.996 16.4164 105.768 9.54566Z" fill="#FF9D33"/>
<path d="M103.185 15.3634C103.561 14.5359 103.837 13.4576 103.887 12.1035C103.887 12.1035 103.36 12.5549 102.458 13.1316C102.207 11.7775 101.53 10.1225 100.201 8.06628C100.201 8.06628 99.7745 10.2479 98.3201 12.3292C97.6932 11.4014 97.4174 10.6491 97.4174 10.6491C96.3391 12.3543 95.9129 13.7084 95.8878 14.7866C95.286 14.5609 94.9098 14.3854 94.9098 14.3854C95.9379 17.4447 98.0694 18.1217 99.0223 18.1217C100.727 18.1217 102.458 17.6202 104.163 15.1878C104.163 15.1628 103.787 15.2631 103.185 15.3634Z" fill="#FFCE31"/>
<path d="M96.9662 13.9843C96.9662 13.9843 97.6683 14.9371 98.1949 14.7115C98.1949 14.7115 99.1979 13.1317 100.652 12.254C100.652 12.254 100.351 14.6613 100.702 15.0876C101.154 15.6643 102.383 14.4607 102.383 14.4607C102.383 15.89 100.828 17.6704 99.4236 17.6704C98.0695 17.6704 96.1136 16.1157 96.9662 13.9843Z" fill="#FFDF85"/>
<path d="M103.962 7.51457C104.489 6.76229 104.84 5.95986 104.84 5.95986C105.717 7.41426 105.191 8.29192 104.815 8.56775C104.288 8.96897 103.36 8.39222 103.962 7.51457ZM94.3832 7.26381C93.8566 6.38615 93.8064 5.28281 93.8064 5.28281C92.5526 7.1635 93.0291 8.21669 93.4554 8.5176C94.007 8.94389 94.9599 8.29192 94.3832 7.26381ZM97.292 5.30789C97.3672 4.70607 97.1164 4.10425 97.1164 4.10425C98.295 4.8816 98.295 5.53357 98.1446 5.80941C97.9189 6.13539 97.2167 5.98494 97.292 5.30789Z" fill="#FF9D33"/>
<g filter="url(#filter0_d_2_29)">
<path d="M112.722 16.0915C113.945 14.8683 114.067 14.5625 114.832 15.327C115.596 16.0915 115.291 16.1832 114.067 17.437C113.15 18.3544 111.988 18.1709 111.988 18.1709C111.988 18.1709 111.804 17.0089 112.722 16.0915Z" fill="#FF9D27"/>
<path d="M115.046 17.3451C115.535 16.0607 115.688 15.9078 114.985 15.5103C114.282 15.1127 114.282 15.3879 113.823 16.6723C113.456 17.6203 113.884 18.4765 113.884 18.4765C113.884 18.4765 114.71 18.3236 115.046 17.3451Z" fill="#FF9D27"/>
<path d="M114.342 16.1526C114.618 15.4493 114.618 15.2964 114.985 15.5104C115.382 15.7245 115.29 15.8162 115.015 16.5196C114.832 17.0394 114.373 17.1617 114.373 17.1617C114.373 17.1617 114.159 16.703 114.342 16.1526Z" fill="#FDF516"/>
<path d="M114.618 15.174C114.22 14.4707 114.067 14.6236 112.783 15.1129C111.835 15.4798 111.652 16.2749 111.652 16.2749C111.652 16.2749 112.508 16.703 113.456 16.3361C114.74 15.8468 115.015 15.8468 114.618 15.174Z" fill="#FF9D27"/>
<path d="M113.976 15.8162C114.679 15.5409 114.832 15.5409 114.618 15.174C114.404 14.7764 114.312 14.8682 113.609 15.1434C113.089 15.3269 112.966 15.7856 112.966 15.7856C112.966 15.7856 113.456 15.9996 113.976 15.8162Z" fill="#FDF516"/>
<path d="M113.639 15.7552C114.312 15.0825 114.373 14.899 114.801 15.3271C115.229 15.7552 115.046 15.8164 114.373 16.4891C113.853 17.009 113.211 16.8867 113.211 16.8867C113.211 16.8867 113.15 16.2751 113.639 15.7552Z" fill="#FDF516"/>
<path d="M115.046 12.8195C113.15 9.63914 110 10.9541 110 10.9541C110 10.9541 114.495 6.45883 117.523 9.48624L115.046 12.8195Z" fill="#3BAACF"/>
<path d="M116.514 10.4648L117.492 9.48624C114.495 6.45883 110 10.9541 110 10.9541C110 10.9541 113.945 8.14073 116.514 10.4648Z" fill="#428BC1"/>
<path d="M117.339 15.1131C120.519 17.009 119.205 20.1588 119.205 20.1588C119.205 20.1588 123.7 15.6635 120.672 12.6361L117.339 15.1131Z" fill="#3BAACF"/>
<path d="M119.694 13.6451L120.672 12.6665C123.7 15.6939 119.205 20.1892 119.205 20.1892C119.205 20.1892 122.018 16.2138 119.694 13.6451Z" fill="#428BC1"/>
<path d="M124.312 10.6484C120.734 14.1956 116.789 16.1222 115.413 14.7461C114.037 13.37 115.963 9.42517 119.51 5.84732C123.669 1.68845 128.287 1.87193 128.287 1.87193C128.287 1.87193 128.44 6.4895 124.312 10.6484Z" fill="#C5D0D8"/>
<path d="M123.394 9.63913C119.847 13.1864 116.3 15.5105 115.474 14.6848C114.649 13.8592 116.973 10.3119 120.52 6.76462C124.679 2.60575 128.348 1.81067 128.348 1.81067C128.348 1.81067 127.553 5.48026 123.394 9.63913Z" fill="#DAE3EA"/>
<path d="M116.819 15.7243C116.666 15.8772 116.422 15.8772 116.269 15.7243L114.434 13.8895C114.281 13.7366 114.281 13.4614 114.434 13.3085L114.984 12.7581L117.37 15.1433L116.819 15.7243Z" fill="#C94747"/>
<path d="M116.299 15.1743C116.146 15.3272 115.963 15.3883 115.871 15.2966L114.831 14.2569C114.74 14.1651 114.801 13.9817 114.954 13.8288L115.504 13.2783L116.85 14.6238L116.299 15.1743Z" fill="#F15744"/>
<path d="M115.78 15.9386C115.688 16.0304 115.474 16.0304 115.382 15.9386L114.19 14.746C114.098 14.6543 114.128 14.4708 114.22 14.379L114.587 14.0121L116.147 15.5717L115.78 15.9386Z" fill="#3E4347"/>
<path d="M115.535 15.6938C115.443 15.7856 115.26 15.8162 115.199 15.755L114.373 14.9294C114.312 14.8682 114.342 14.7153 114.465 14.6236L114.832 14.2566L115.902 15.3269L115.535 15.6938Z" fill="#62727A"/>
<path d="M128.287 1.87205C128.287 1.87205 126.636 1.81089 124.403 2.66713L127.492 5.7557C128.348 3.52336 128.287 1.87205 128.287 1.87205Z" fill="#C94747"/>
<path d="M128.287 1.87207C128.287 1.87207 126.972 2.14729 124.984 3.27875L126.88 5.1747C128.011 3.18701 128.287 1.87207 128.287 1.87207Z" fill="#F15744"/>
<path d="M122.691 8.99708C123.535 8.99708 124.22 8.31252 124.22 7.46808C124.22 6.62364 123.535 5.93909 122.691 5.93909C121.847 5.93909 121.162 6.62364 121.162 7.46808C121.162 8.31252 121.847 8.99708 122.691 8.99708Z" fill="#EDF4F9"/>
<path d="M122.691 8.47701C123.248 8.47701 123.7 8.02521 123.7 7.46788C123.7 6.91055 123.248 6.45874 122.691 6.45874C122.133 6.45874 121.682 6.91055 121.682 7.46788C121.682 8.02521 122.133 8.47701 122.691 8.47701Z" fill="#3BAACF"/>
<path d="M119.633 12.0547C120.477 12.0547 121.162 11.3701 121.162 10.5257C121.162 9.68126 120.477 8.9967 119.633 8.9967C118.788 8.9967 118.104 9.68126 118.104 10.5257C118.104 11.3701 118.788 12.0547 119.633 12.0547Z" fill="#EDF4F9"/>
<path d="M119.633 11.5352C120.19 11.5352 120.642 11.0834 120.642 10.5261C120.642 9.96877 120.19 9.51697 119.633 9.51697C119.076 9.51697 118.624 9.96877 118.624 10.5261C118.624 11.0834 119.076 11.5352 119.633 11.5352Z" fill="#3BAACF"/>
<path d="M124.342 3.30918C124.25 3.40092 124.067 3.40092 123.975 3.30918C123.883 3.21744 123.883 3.03396 123.975 2.94222C124.067 2.85048 124.25 2.85048 124.342 2.94222C124.434 3.03396 124.434 3.21744 124.342 3.30918Z" fill="white"/>
<path d="M124.862 4.074C124.997 4.074 125.107 3.96447 125.107 3.82936C125.107 3.69425 124.997 3.58472 124.862 3.58472C124.727 3.58472 124.617 3.69425 124.617 3.82936C124.617 3.96447 124.727 4.074 124.862 4.074Z" fill="white"/>
<path d="M125.596 4.80776C125.731 4.80776 125.841 4.69823 125.841 4.56312C125.841 4.42801 125.731 4.31848 125.596 4.31848C125.461 4.31848 125.351 4.42801 125.351 4.56312C125.351 4.69823 125.461 4.80776 125.596 4.80776Z" fill="white"/>
<path d="M126.299 5.54152C126.435 5.54152 126.544 5.432 126.544 5.29689C126.544 5.16177 126.435 5.05225 126.299 5.05225C126.164 5.05225 126.055 5.16177 126.055 5.29689C126.055 5.432 126.164 5.54152 126.299 5.54152Z" fill="white"/>
<path d="M127.033 6.24489C127.168 6.24489 127.278 6.13537 127.278 6.00025C127.278 5.86514 127.168 5.75562 127.033 5.75562C126.898 5.75562 126.789 5.86514 126.789 6.00025C126.789 6.13537 126.898 6.24489 127.033 6.24489Z" fill="white"/>
</g>
<defs>
<filter id="filter0_d_2_29" x="106" y="1.81067" width="26.3483" height="26.3785" filterUnits="userSpaceOnUse" color-interpolation-filters="sRGB">
<feFlood flood-opacity="0" result="BackgroundImageFix"/>
<feColorMatrix in="SourceAlpha" type="matrix" values="0 0 0 0 0 0 0 0 0 0 0 0 0 0 0 0 0 0 127 0" result="hardAlpha"/>
<feOffset dy="4"/>
<feGaussianBlur stdDeviation="2"/>
<feComposite in2="hardAlpha" operator="out"/>
<feColorMatrix type="matrix" values="0 0 0 0 0 0 0 0 0 0 0 0 0 0 0 0 0 0 0.25 0"/>
<feBlend mode="normal" in2="BackgroundImageFix" result="effect1_dropShadow_2_29"/>
<feBlend mode="normal" in="SourceGraphic" in2="effect1_dropShadow_2_29" result="shape"/>
</filter>
</defs>
</svg>
