<svg width="138" height="40" viewBox="0 0 138 40" fill="none" xmlns="http://www.w3.org/2000/svg">
<path d="M132.889 40.0001H5.11111C2.30128 40.0001 0 37.793 0 35.0982V5.6869C0 2.99208 2.30128 0.785008 5.11111 0.785008H132.889C135.699 0.785008 138 2.99208 138 5.6869V35.0982C138 37.793 135.699 40.0001 132.889 40.0001Z" fill="#2B2B2B"/>
<path d="M132.889 1.57054C135.255 1.57054 137.181 3.41732 137.181 5.6869V35.0982C137.181 37.3678 135.255 39.2146 132.889 39.2146H5.11111C2.74467 39.2146 0.819055 37.3678 0.819055 35.0982V5.6869C0.819055 3.41732 2.74467 1.57054 5.11111 1.57054H132.889ZM132.889 0.785008H5.11111C2.30128 0.785008 0 2.99208 0 5.6869V35.0982C0 37.793 2.30128 40.0001 5.11111 40.0001H132.889C135.699 40.0001 138 37.793 138 35.0982V5.6869C138 2.99208 135.699 0.785008 132.889 0.785008Z" fill="#A6A6A6"/>
<path d="M9.90014 8.17588C9.59986 8.47734 9.42609 8.9467 9.42609 9.55453V31.2356C9.42609 31.8434 9.59986 32.3128 9.90014 32.6142L9.97425 32.6804L22.6421 20.536V20.2492L9.97425 8.1048L9.90014 8.17588Z" fill="white"/>
<path d="M28.3934 24.5865L24.1754 20.5364V20.2496L28.3985 16.1994L28.4931 16.2521L33.4943 18.9812C34.9216 19.7557 34.9216 21.0302 33.4943 21.8096L28.4931 24.5339L28.3934 24.5865Z" fill="white"/>
<path d="M27.7264 25.2876L23.4088 21.1468L10.6668 33.3684C11.1409 33.8463 11.9139 33.9039 12.7931 33.426L27.7264 25.2876Z" fill="white"/>
<path d="M27.7264 15.4982L12.7931 7.35981C11.9139 6.88678 11.1409 6.94437 10.6668 7.42231L23.4088 19.639L27.7264 15.4982Z" fill="white"/>
<path d="M48.4712 10.8282C48.4712 11.6468 48.2156 12.3024 47.7122 12.7914C47.1333 13.3711 46.3794 13.6627 45.4556 13.6627C44.5727 13.6627 43.8188 13.3662 43.2003 12.7816C42.5806 12.1885 42.2714 11.4605 42.2714 10.5892C42.2714 9.71792 42.5806 8.98999 43.2003 8.40176C43.8188 7.81231 44.5727 7.51575 45.4556 7.51575C45.8952 7.51575 46.3143 7.60276 46.7142 7.76452C47.1129 7.92751 47.4374 8.14809 47.6726 8.42015L47.1384 8.9373C46.7283 8.47284 46.1699 8.24368 45.4556 8.24368C44.8116 8.24368 44.2532 8.45936 43.7792 8.8944C43.3102 9.33067 43.0751 9.89561 43.0751 10.5892C43.0751 11.2828 43.3102 11.8527 43.7792 12.289C44.2532 12.7191 44.8116 12.9397 45.4556 12.9397C46.1392 12.9397 46.7142 12.7191 47.1678 12.2841C47.4668 11.9961 47.6368 11.599 47.6815 11.0917H45.4556V10.3834H48.4252C48.4609 10.5365 48.4712 10.6848 48.4712 10.8282Z" fill="white" stroke="white" stroke-width="0.0408889" stroke-miterlimit="10"/>
<path d="M53.1823 8.37232H50.3929V10.235H52.9075V10.9434H50.3929V12.8061H53.1823V13.5279H49.6032V7.65051H53.1823V8.37232Z" fill="white" stroke="white" stroke-width="0.0408889" stroke-miterlimit="10"/>
<path d="M56.5071 13.5279H55.7174V8.37232H54.0065V7.65051H58.2193V8.37232H56.5071V13.5279Z" fill="white" stroke="white" stroke-width="0.0408889" stroke-miterlimit="10"/>
<path d="M61.2682 13.5279V7.65051H62.0566V13.5279H61.2682Z" fill="white" stroke="white" stroke-width="0.0408889" stroke-miterlimit="10"/>
<path d="M65.5512 13.5279H64.7679V8.37232H63.0506V7.65051H67.2685V8.37232H65.5512V13.5279Z" fill="white" stroke="white" stroke-width="0.0408889" stroke-miterlimit="10"/>
<path d="M75.2445 12.7718C74.6401 13.3662 73.8913 13.6627 72.9982 13.6627C72.0999 13.6627 71.3511 13.3662 70.7467 12.7718C70.1436 12.1787 69.8433 11.4507 69.8433 10.5892C69.8433 9.72772 70.1436 8.99979 70.7467 8.40667C71.3511 7.81231 72.0999 7.51575 72.9982 7.51575C73.8862 7.51575 74.635 7.81231 75.2394 8.41157C75.8476 9.0096 76.1479 9.73263 76.1479 10.5892C76.1479 11.4507 75.8476 12.1787 75.2445 12.7718ZM71.3307 12.2792C71.7855 12.7191 72.3388 12.9397 72.9982 12.9397C73.6524 12.9397 74.2108 12.7191 74.6605 12.2792C75.1142 11.8392 75.3442 11.2743 75.3442 10.5892C75.3442 9.90419 75.1142 9.33925 74.6605 8.89931C74.2108 8.45936 73.6524 8.23878 72.9982 8.23878C72.3388 8.23878 71.7855 8.45936 71.3307 8.89931C70.877 9.33925 70.647 9.90419 70.647 10.5892C70.647 11.2743 70.877 11.8392 71.3307 12.2792Z" fill="white" stroke="white" stroke-width="0.0408889" stroke-miterlimit="10"/>
<path d="M77.2557 13.5279V7.65051H78.214L81.1938 12.2215H81.2283L81.1938 11.0916V7.65051H81.9822V13.5279H81.1593L78.039 8.73138H78.0045L78.039 9.86617V13.5279H77.2557Z" fill="white" stroke="white" stroke-width="0.0408889" stroke-miterlimit="10"/>
<path d="M69.6492 22.1103C67.2482 22.1103 65.2869 23.8628 65.2869 26.2806C65.2869 28.6789 67.2482 30.4497 69.6492 30.4497C72.0552 30.4497 74.0166 28.6789 74.0166 26.2806C74.0166 23.8628 72.0552 22.1103 69.6492 22.1103ZM69.6492 28.8075C68.3318 28.8075 67.1984 27.7647 67.1984 26.2806C67.1984 24.777 68.3318 23.7525 69.6492 23.7525C70.9666 23.7525 72.1051 24.777 72.1051 26.2806C72.1051 27.7647 70.9666 28.8075 69.6492 28.8075ZM60.131 22.1103C57.725 22.1103 55.7687 23.8628 55.7687 26.2806C55.7687 28.6789 57.725 30.4497 60.131 30.4497C62.5358 30.4497 64.4934 28.6789 64.4934 26.2806C64.4934 23.8628 62.5358 22.1103 60.131 22.1103ZM60.131 28.8075C58.8124 28.8075 57.6751 27.7647 57.6751 26.2806C57.6751 24.777 58.8124 23.7525 60.131 23.7525C61.4484 23.7525 62.5818 24.777 62.5818 26.2806C62.5818 27.7647 61.4484 28.8075 60.131 28.8075ZM48.8048 23.3885V25.1605H53.217C53.0879 26.1507 52.7429 26.8786 52.2139 27.386C51.5699 27.9987 50.5669 28.6789 48.8048 28.6789C46.0895 28.6789 43.9633 26.5772 43.9633 23.973C43.9633 21.3689 46.0895 19.2672 48.8048 19.2672C50.273 19.2672 51.3412 19.8175 52.1296 20.5307L53.4316 19.2819C52.3289 18.2721 50.862 17.4964 48.8048 17.4964C45.0814 17.4964 41.9521 20.402 41.9521 23.973C41.9521 27.5441 45.0814 30.4497 48.8048 30.4497C50.8173 30.4497 52.3289 29.8173 53.5172 28.6311C54.735 27.4632 55.1145 25.8211 55.1145 24.4951C55.1145 24.0833 55.0787 23.7047 55.0148 23.3885H48.8048ZM95.1191 24.7622C94.7601 23.8297 93.6522 22.1103 91.3957 22.1103C89.1596 22.1103 87.2979 23.8003 87.2979 26.2806C87.2979 28.6164 89.1404 30.4497 91.6103 30.4497C93.6075 30.4497 94.7601 29.2818 95.2341 28.6017L93.7519 27.6544C93.2574 28.348 92.584 28.8075 91.6103 28.8075C90.6431 28.8075 89.9492 28.3823 89.5046 27.5441L95.3197 25.2365L95.1191 24.7622ZM89.1902 26.1507C89.1404 24.5429 90.4923 23.7194 91.4609 23.7194C92.2199 23.7194 92.8639 24.0833 93.0785 24.6042L89.1902 26.1507ZM84.4637 30.196H86.3753V17.9413H84.4637V30.196ZM81.3332 23.0392H81.2693C80.84 22.5515 80.0209 22.1103 78.9834 22.1103C76.806 22.1103 74.8152 23.9436 74.8152 26.2941C74.8152 28.6311 76.806 30.4497 78.9834 30.4497C80.0209 30.4497 80.84 30.0048 81.2693 29.5024H81.3332V30.1004C81.3332 31.6947 80.4451 32.5513 79.0127 32.5513C77.8449 32.5513 77.1204 31.7425 76.8214 31.0624L75.159 31.7278C75.6381 32.8332 76.907 34.1935 79.0127 34.1935C81.254 34.1935 83.1451 32.9288 83.1451 29.8516V22.364H81.3332V23.0392ZM79.1469 28.8075C77.8295 28.8075 76.7268 27.7499 76.7268 26.2941C76.7268 24.8247 77.8295 23.7525 79.1469 23.7525C80.4451 23.7525 81.4686 24.8247 81.4686 26.2941C81.4686 27.7499 80.4451 28.8075 79.1469 28.8075ZM104.069 17.9413H99.4968V30.196H101.403V25.5527H104.069C106.186 25.5527 108.262 24.0833 108.262 21.7464C108.262 19.4106 106.181 17.9413 104.069 17.9413ZM104.119 23.848H101.403V19.6459H104.119C105.542 19.6459 106.355 20.7795 106.355 21.7464C106.355 22.6949 105.542 23.848 104.119 23.848ZM115.903 22.087C114.526 22.087 113.094 22.6704 112.505 23.9632L114.196 24.6434C114.561 23.9632 115.23 23.7427 115.938 23.7427C116.927 23.7427 117.93 24.3125 117.945 25.3186V25.4473C117.6 25.2561 116.862 24.973 115.953 24.973C114.131 24.973 112.275 25.935 112.275 27.7303C112.275 29.3725 113.767 30.4301 115.445 30.4301C116.728 30.4301 117.436 29.8749 117.88 29.2291H117.945V30.1764H119.787V25.4755C119.787 23.3027 118.095 22.087 115.903 22.087ZM115.673 28.8026C115.05 28.8026 114.181 28.5061 114.181 27.7647C114.181 26.8161 115.265 26.4522 116.202 26.4522C117.042 26.4522 117.436 26.6299 117.945 26.8639C117.796 27.9987 116.777 28.8026 115.673 28.8026ZM126.495 22.3554L124.304 27.6678H124.238L121.973 22.3554H119.917L123.321 29.7793L121.379 33.9104H123.371L128.616 22.3554H126.495ZM109.31 30.196H111.222V17.9413H109.31V30.196Z" fill="white"/>
</svg>
