<svg width="25" height="25" viewBox="0 0 25 25" fill="none" xmlns="http://www.w3.org/2000/svg">
<g clip-path="url(#clip0_2_2356)">
<path d="M13.0294 9.5C12.2338 9.5 11.4707 9.81607 10.9081 10.3787C10.3455 10.9413 10.0294 11.7044 10.0294 12.5C10.0294 13.2956 10.3455 14.0587 10.9081 14.6213C11.4707 15.1839 12.2338 15.5 13.0294 15.5C13.8251 15.5 14.5882 15.1839 15.1508 14.6213C15.7134 14.0587 16.0294 13.2956 16.0294 12.5C16.0294 11.7044 15.7134 10.9413 15.1508 10.3787C14.5882 9.81607 13.8251 9.5 13.0294 9.5ZM13.0294 7.5C14.3555 7.5 15.6273 8.02678 16.565 8.96447C17.5027 9.90215 18.0294 11.1739 18.0294 12.5C18.0294 13.8261 17.5027 15.0979 16.565 16.0355C15.6273 16.9732 14.3555 17.5 13.0294 17.5C11.7034 17.5 10.4316 16.9732 9.49392 16.0355C8.55623 15.0979 8.02945 13.8261 8.02945 12.5C8.02945 11.1739 8.55623 9.90215 9.49392 8.96447C10.4316 8.02678 11.7034 7.5 13.0294 7.5ZM19.5294 7.25C19.5294 7.58152 19.3978 7.89946 19.1633 8.13388C18.9289 8.3683 18.611 8.5 18.2794 8.5C17.9479 8.5 17.63 8.3683 17.3956 8.13388C17.1611 7.89946 17.0294 7.58152 17.0294 7.25C17.0294 6.91848 17.1611 6.60054 17.3956 6.36612C17.63 6.1317 17.9479 6 18.2794 6C18.611 6 18.9289 6.1317 19.1633 6.36612C19.3978 6.60054 19.5294 6.91848 19.5294 7.25ZM13.0294 4.5C10.5554 4.5 10.1514 4.507 9.00045 4.558C8.21645 4.595 7.69045 4.7 7.20245 4.89C6.76845 5.058 6.45545 5.259 6.12245 5.593C5.80946 5.8954 5.5688 6.26458 5.41845 6.673C5.22845 7.163 5.12345 7.688 5.08745 8.471C5.03545 9.575 5.02945 9.961 5.02945 12.5C5.02945 14.974 5.03645 15.378 5.08745 16.529C5.12445 17.312 5.22945 17.839 5.41845 18.326C5.58845 18.761 5.78845 19.074 6.12045 19.406C6.45745 19.742 6.77045 19.943 7.20045 20.109C7.69445 20.3 8.22045 20.406 9.00045 20.442C10.1044 20.494 10.4904 20.5 13.0294 20.5C15.5034 20.5 15.9074 20.493 17.0584 20.442C17.8404 20.405 18.3674 20.3 18.8554 20.111C19.2885 19.942 19.6034 19.741 19.9354 19.409C20.2724 19.072 20.4734 18.759 20.6395 18.329C20.8295 17.836 20.9354 17.309 20.9714 16.529C21.0234 15.425 21.0294 15.039 21.0294 12.5C21.0294 10.026 21.0224 9.622 20.9714 8.471C20.9344 7.689 20.8295 7.161 20.6395 6.673C20.4887 6.265 20.2485 5.89596 19.9364 5.593C19.6342 5.27985 19.265 5.03917 18.8564 4.889C18.3664 4.699 17.8404 4.594 17.0584 4.558C15.9544 4.506 15.5684 4.5 13.0294 4.5ZM13.0294 2.5C15.7464 2.5 16.0854 2.51 17.1514 2.56C18.2164 2.61 18.9414 2.777 19.5794 3.025C20.2394 3.279 20.7955 3.623 21.3514 4.178C21.8599 4.6779 22.2534 5.28259 22.5044 5.95C22.7514 6.587 22.9195 7.313 22.9695 8.378C23.0165 9.444 23.0294 9.783 23.0294 12.5C23.0294 15.217 23.0194 15.556 22.9695 16.622C22.9195 17.687 22.7514 18.412 22.5044 19.05C22.2541 19.7178 21.8606 20.3226 21.3515 20.822C20.8514 21.3303 20.2468 21.7238 19.5794 21.975C18.9424 22.222 18.2164 22.39 17.1514 22.44C16.0854 22.487 15.7464 22.5 13.0294 22.5C10.3124 22.5 9.97345 22.49 8.90745 22.44C7.84245 22.39 7.11745 22.222 6.47945 21.975C5.81178 21.7245 5.20698 21.3309 4.70745 20.822C4.19886 20.3222 3.80538 19.7175 3.55445 19.05C3.30645 18.413 3.13945 17.687 3.08945 16.622C3.04245 15.556 3.02945 15.217 3.02945 12.5C3.02945 9.783 3.03945 9.444 3.08945 8.378C3.13945 7.312 3.30645 6.588 3.55445 5.95C3.80469 5.28218 4.19825 4.67732 4.70745 4.178C5.20712 3.66923 5.81188 3.27573 6.47945 3.025C7.11745 2.777 7.84145 2.61 8.90745 2.56C9.97345 2.513 10.3124 2.5 13.0294 2.5Z" fill="#2B2B2B"/>
</g>
<defs>
<clipPath id="clip0_2_2356">
<rect width="24" height="24" fill="white" transform="translate(0.0294495 0.5)"/>
</clipPath>
</defs>
</svg>
