<svg width="37" height="37" viewBox="0 0 37 37" fill="none" xmlns="http://www.w3.org/2000/svg">
<circle cx="18.0143" cy="18.5" r="18" fill="#B4BFC0" fill-opacity="0.26"/>
<path fill-rule="evenodd" clip-rule="evenodd" d="M13.0281 18.5652C13.0115 18.3989 13.0029 18.2301 13.0029 18.0594C13.0029 15.2916 15.2466 10.4014 18.0144 10.4014C20.7822 10.4014 23.0259 15.2916 23.0259 18.0594C23.0259 18.2301 23.0173 18.3989 23.0007 18.5652C22.7471 16.035 20.6114 14.0596 18.0144 14.0596C15.4174 14.0596 13.2817 16.035 13.0281 18.5652ZM13.0281 18.5652C13.0115 18.7316 13.0029 18.9003 13.0029 19.071C13.0029 21.8388 15.2466 24.0825 18.0144 24.0825C20.7822 24.0825 23.0259 21.8388 23.0259 19.071C23.0259 18.9003 23.0173 18.7316 23.0007 18.5652C22.7471 21.0954 20.6114 23.0709 18.0144 23.0709C15.4174 23.0709 13.2817 21.0954 13.0281 18.5652Z" fill="#BF645A"/>
</svg>
