<svg width="41" height="41" viewBox="0 0 41 41" fill="none" xmlns="http://www.w3.org/2000/svg">
<rect x="0.569824" y="0.779785" width="39.8604" height="39.8604" rx="6.64339" fill="#F7F7F7"/>
<path d="M18.9373 13.1725L15.1948 14.575C14.3323 14.8975 13.6273 15.9175 13.6273 16.84V22.4125C13.6273 23.2975 14.2123 24.46 14.9248 24.9925L18.1498 27.4C19.2073 28.195 20.9473 28.195 22.0048 27.4L25.2298 24.9925C25.9423 24.46 26.5273 23.2975 26.5273 22.4125V16.84C26.5273 15.9175 25.8223 14.8975 24.9598 14.575L21.2173 13.1725C20.5798 12.94 19.5598 12.94 18.9373 13.1725Z" stroke="#2B2B2B" stroke-width="1.5" stroke-linecap="round" stroke-linejoin="round"/>
<path d="M20.0698 19.69H19.9723C19.2673 19.6675 18.7048 19.0825 18.7048 18.37C18.7048 17.6425 19.2973 17.05 20.0248 17.05C20.7523 17.05 21.3448 17.6425 21.3448 18.37C21.3373 19.09 20.7748 19.6675 20.0698 19.69ZM18.5773 21.79C17.8573 22.27 17.8573 23.0575 18.5773 23.5375C19.3948 24.085 20.7373 24.085 21.5548 23.5375C22.2748 23.0575 22.2748 22.27 21.5548 21.79C20.7448 21.2425 19.4023 21.2425 18.5773 21.79Z" stroke="#2B2B2B" stroke-width="1.5" stroke-linecap="round" stroke-linejoin="round"/>
</svg>
