<svg width="136" height="39" viewBox="0 0 136 39" fill="none" xmlns="http://www.w3.org/2000/svg">
<path d="M134.925 34.3699C134.925 36.4142 133.206 38.0702 131.08 38.0702H5.27413C3.14943 38.0702 1.4248 36.4142 1.4248 34.3699V4.86049C1.4248 2.81707 3.14943 1.15527 5.27413 1.15527H131.079C133.206 1.15527 134.924 2.81707 134.924 4.86049L134.925 34.3699Z" fill="#2B2B2B"/>
<path d="M130.675 1.20003C132.99 1.20003 134.874 3.00667 134.874 5.22691V33.9989C134.874 36.2191 132.99 38.0257 130.675 38.0257H5.6748C3.3598 38.0257 1.47605 36.2191 1.47605 33.9989V5.22691C1.47605 3.00667 3.3598 1.20003 5.6748 1.20003H130.675ZM130.675 0.43158H5.6748C2.92605 0.43158 0.674805 2.59068 0.674805 5.22691V33.9989C0.674805 36.6351 2.92605 38.7942 5.6748 38.7942H130.675C133.424 38.7942 135.675 36.6351 135.675 33.9989V5.22691C135.675 2.59068 133.424 0.43158 130.675 0.43158Z" fill="#A6A6A6"/>
<path d="M30.8028 19.4056C30.7738 16.3145 33.4418 14.8107 33.5638 14.7407C32.0528 12.6278 29.7108 12.3392 28.8878 12.3161C26.9208 12.1176 25.0128 13.445 24.0108 13.445C22.9888 13.445 21.4458 12.3353 19.7828 12.3679C17.6428 12.3996 15.6408 13.5879 14.5428 15.4331C12.2768 19.1955 13.9668 24.7245 16.1378 27.7657C17.2238 29.2552 18.4928 30.9182 20.1538 30.8597C21.7788 30.7954 22.3858 29.8661 24.3468 29.8661C26.2898 29.8661 26.8598 30.8597 28.5538 30.8223C30.2978 30.7954 31.3958 29.3261 32.4438 27.8233C33.6988 26.1161 34.2028 24.4349 34.2228 24.3486C34.1818 24.3352 30.8358 23.1104 30.8028 19.4056Z" fill="white"/>
<path d="M27.6028 10.3155C28.4768 9.26728 29.0748 7.84115 28.9088 6.39392C27.6438 6.44763 26.0618 7.2331 25.1508 8.25834C24.3448 9.16178 23.6248 10.6426 23.8108 12.0351C25.2318 12.1368 26.6908 11.3475 27.6028 10.3155Z" fill="white"/>
<path d="M49.7248 10.0302C49.7248 11.159 49.3718 12.0088 48.6668 12.5794C48.0138 13.106 47.0858 13.3697 45.8838 13.3697C45.2878 13.3697 44.7778 13.3448 44.3508 13.2949V7.12714C44.9078 7.04082 45.5078 6.9967 46.1558 6.9967C47.3008 6.9967 48.1638 7.23551 48.7458 7.71313C49.3978 8.25308 49.7248 9.02513 49.7248 10.0302ZM48.6198 10.058C48.6198 9.32627 48.4178 8.76522 48.0138 8.37392C47.6098 7.98358 47.0198 7.78793 46.2428 7.78793C45.9128 7.78793 45.6318 7.80903 45.3988 7.85315V12.542C45.5278 12.5612 45.7638 12.5698 46.1068 12.5698C46.9088 12.5698 47.5278 12.356 47.9638 11.9282C48.3998 11.5005 48.6198 10.8771 48.6198 10.058Z" fill="white"/>
<path d="M55.5839 11.016C55.5839 11.7113 55.3769 12.281 54.9629 12.7279C54.5289 13.1873 53.9539 13.4165 53.2359 13.4165C52.5439 13.4165 51.9929 13.1969 51.5819 12.7557C51.1719 12.3155 50.9669 11.7602 50.9669 11.0908C50.9669 10.3907 51.1779 9.8162 51.6019 9.37023C52.0259 8.92427 52.5959 8.70081 53.3139 8.70081C54.0059 8.70081 54.5619 8.92043 54.9829 9.36064C55.3829 9.78839 55.5839 10.3408 55.5839 11.016ZM54.4969 11.0486C54.4969 10.6314 54.4029 10.2737 54.2159 9.9754C53.9959 9.61479 53.6829 9.43449 53.2759 9.43449C52.8549 9.43449 52.5349 9.61479 52.3149 9.9754C52.1269 10.2737 52.0339 10.6372 52.0339 11.0668C52.0339 11.484 52.1279 11.8417 52.3149 12.14C52.5419 12.5006 52.8579 12.6809 53.2659 12.6809C53.6659 12.6809 53.9799 12.4977 54.2059 12.1304C54.3999 11.8264 54.4969 11.4658 54.4969 11.0486Z" fill="white"/>
<path d="M63.4399 8.79309L61.9649 13.3141H61.0049L60.3939 11.3509C60.2389 10.8608 60.1129 10.3736 60.0149 9.89026H59.9959C59.9049 10.3871 59.7789 10.8733 59.6169 11.3509L58.9679 13.3141H57.9969L56.6099 8.79309H57.6869L58.2199 10.9424C58.3489 11.4507 58.4549 11.935 58.5399 12.3934H58.5589C58.6369 12.0155 58.7659 11.5341 58.9479 10.9519L59.6169 8.79405H60.4709L61.1119 10.9059C61.2669 11.4209 61.3929 11.9168 61.4899 12.3944H61.5189C61.5899 11.9292 61.6969 11.4334 61.8389 10.9059L62.4109 8.79405H63.4399V8.79309Z" fill="white"/>
<path d="M68.8728 13.314H67.8248V10.7245C67.8248 9.92656 67.5088 9.52759 66.8748 9.52759C66.5638 9.52759 66.3128 9.63692 66.1178 9.85655C65.9248 10.0762 65.8268 10.3351 65.8268 10.6315V13.313H64.7788V10.0848C64.7788 9.68775 64.7658 9.25713 64.7408 8.79103H65.6618L65.7108 9.49786H65.7398C65.8618 9.27823 66.0438 9.09697 66.2828 8.95215C66.5668 8.78336 66.8848 8.698 67.2328 8.698C67.6728 8.698 68.0388 8.83419 68.3298 9.10752C68.6918 9.44223 68.8728 9.94191 68.8728 10.6056V13.314Z" fill="white"/>
<path d="M71.7628 13.3141H70.7158V6.71863H71.7628V13.3141Z" fill="white"/>
<path d="M77.9329 11.016C77.9329 11.7113 77.7259 12.281 77.3119 12.7279C76.8779 13.1873 76.3019 13.4165 75.5849 13.4165C74.8919 13.4165 74.3409 13.1969 73.9309 12.7557C73.5209 12.3155 73.3159 11.7602 73.3159 11.0908C73.3159 10.3907 73.5269 9.8162 73.9509 9.37023C74.3749 8.92427 74.9449 8.70081 75.6619 8.70081C76.3549 8.70081 76.9099 8.92043 77.3319 9.36064C77.7319 9.78839 77.9329 10.3408 77.9329 11.016ZM76.8449 11.0486C76.8449 10.6314 76.7509 10.2737 76.5639 9.9754C76.3449 9.61479 76.0309 9.43449 75.6249 9.43449C75.2029 9.43449 74.8829 9.61479 74.6639 9.9754C74.4759 10.2737 74.3829 10.6372 74.3829 11.0668C74.3829 11.484 74.4769 11.8417 74.6639 12.14C74.8909 12.5006 75.2069 12.6809 75.6149 12.6809C76.0149 12.6809 76.3279 12.4977 76.5539 12.1304C76.7489 11.8264 76.8449 11.4658 76.8449 11.0486Z" fill="white"/>
<path d="M83.0048 13.3139H82.0638L81.9858 12.7931H81.9568C81.6348 13.2084 81.1758 13.4165 80.5798 13.4165C80.1348 13.4165 79.7748 13.2794 79.5038 13.007C79.2578 12.7596 79.1348 12.4517 79.1348 12.0863C79.1348 11.5339 79.3748 11.1129 79.8578 10.8213C80.3398 10.5297 81.0178 10.3868 81.8908 10.3936V10.3092C81.8908 9.71358 81.5648 9.41627 80.9118 9.41627C80.4468 9.41627 80.0368 9.52848 79.6828 9.75098L79.4698 9.09114C79.9078 8.83124 80.4488 8.70081 81.0868 8.70081C82.3188 8.70081 82.9368 9.3242 82.9368 10.571V12.2359C82.9368 12.6876 82.9598 13.0473 83.0048 13.3139ZM81.9168 11.7602V11.063C80.7608 11.0438 80.1828 11.3478 80.1828 11.9741C80.1828 12.21 80.2488 12.3865 80.3838 12.5045C80.5188 12.6224 80.6908 12.6809 80.8958 12.6809C81.1258 12.6809 81.3408 12.6109 81.5368 12.4719C81.7338 12.3318 81.8548 12.1544 81.8998 11.9367C81.9108 11.8878 81.9168 11.8283 81.9168 11.7602Z" fill="white"/>
<path d="M88.9598 13.3141H88.0298L87.9808 12.5881H87.9518C87.6548 13.1405 87.1488 13.4167 86.4378 13.4167C85.8698 13.4167 85.3968 13.2029 85.0218 12.7751C84.6468 12.3474 84.4598 11.7921 84.4598 11.1102C84.4598 10.3784 84.6628 9.78572 85.0708 9.33304C85.4658 8.91105 85.9498 8.70006 86.5258 8.70006C87.1588 8.70006 87.6018 8.90434 87.8538 9.31386H87.8738V6.71863H88.9228V12.0961C88.9228 12.5363 88.9348 12.942 88.9598 13.3141ZM87.8738 11.4075V10.6537C87.8738 10.5232 87.8638 10.4177 87.8448 10.3372C87.7858 10.0955 87.6588 9.89218 87.4658 9.72817C87.2708 9.56417 87.0358 9.4817 86.7648 9.4817C86.3738 9.4817 86.0678 9.63035 85.8428 9.92862C85.6198 10.2269 85.5068 10.6076 85.5068 11.0728C85.5068 11.5197 85.6138 11.8822 85.8288 12.1613C86.0558 12.4586 86.3618 12.6073 86.7448 12.6073C87.0888 12.6073 87.3638 12.4836 87.5728 12.2352C87.7748 12.006 87.8738 11.7297 87.8738 11.4075Z" fill="white"/>
<path d="M97.9228 11.016C97.9228 11.7113 97.7158 12.281 97.3018 12.7279C96.8678 13.1873 96.2938 13.4165 95.5748 13.4165C94.8838 13.4165 94.3329 13.1969 93.9209 12.7557C93.5109 12.3155 93.3058 11.7602 93.3058 11.0908C93.3058 10.3907 93.5168 9.8162 93.9408 9.37023C94.3648 8.92427 94.9348 8.70081 95.6538 8.70081C96.3448 8.70081 96.9018 8.92043 97.3218 9.36064C97.7218 9.78839 97.9228 10.3408 97.9228 11.016ZM96.8368 11.0486C96.8368 10.6314 96.7428 10.2737 96.5558 9.9754C96.3348 9.61479 96.0228 9.43449 95.6148 9.43449C95.1948 9.43449 94.8748 9.61479 94.6538 9.9754C94.4658 10.2737 94.3728 10.6372 94.3728 11.0668C94.3728 11.484 94.4668 11.8417 94.6538 12.14C94.8808 12.5006 95.1968 12.6809 95.6048 12.6809C96.0048 12.6809 96.3198 12.4977 96.5458 12.1304C96.7388 11.8264 96.8368 11.4658 96.8368 11.0486Z" fill="white"/>
<path d="M103.558 13.314H102.511V10.7245C102.511 9.92656 102.195 9.52759 101.56 9.52759C101.249 9.52759 100.998 9.63692 100.804 9.85655C100.61 10.0762 100.513 10.3351 100.513 10.6315V13.313H99.4638V10.0848C99.4638 9.68775 99.4518 9.25713 99.4268 8.79103H100.347L100.396 9.49786H100.425C100.548 9.27823 100.73 9.09697 100.968 8.95215C101.253 8.78336 101.57 8.698 101.919 8.698C102.358 8.698 102.724 8.83419 103.015 9.10752C103.378 9.44223 103.558 9.94191 103.558 10.6056V13.314Z" fill="white"/>
<path d="M110.611 9.54605H109.457V11.7423C109.457 12.3005 109.662 12.5796 110.068 12.5796C110.256 12.5796 110.412 12.5642 110.535 12.5326L110.562 13.295C110.355 13.3698 110.083 13.4072 109.748 13.4072C109.334 13.4072 109.012 13.2864 108.779 13.0447C108.545 12.803 108.429 12.3964 108.429 11.8257V9.54605H107.74V8.79318H108.429V7.96455L109.456 7.66724V8.79222H110.61V9.54605H110.611Z" fill="white"/>
<path d="M116.159 13.3141H115.11V10.7438C115.11 9.93342 114.794 9.52773 114.161 9.52773C113.675 9.52773 113.343 9.7627 113.161 10.2326C113.13 10.3314 113.112 10.4523 113.112 10.5942V13.3132H112.065V6.71863H113.112V9.44333H113.132C113.462 8.9475 113.935 8.70006 114.548 8.70006C114.982 8.70006 115.341 8.83624 115.626 9.10958C115.981 9.45005 116.159 9.95643 116.159 10.6259V13.3141Z" fill="white"/>
<path d="M121.882 10.8395C121.882 11.0198 121.868 11.1713 121.843 11.295H118.7C118.714 11.742 118.864 12.0824 119.155 12.3184C119.421 12.5294 119.764 12.6349 120.184 12.6349C120.649 12.6349 121.073 12.5639 121.455 12.421L121.619 13.1192C121.172 13.3052 120.646 13.3983 120.037 13.3983C119.307 13.3983 118.732 13.1921 118.316 12.7797C117.898 12.3673 117.691 11.8139 117.691 11.1195C117.691 10.4376 117.884 9.86987 118.273 9.41719C118.679 8.93382 119.228 8.69214 119.921 8.69214C120.599 8.69214 121.114 8.93382 121.462 9.41719C121.743 9.80082 121.882 10.2756 121.882 10.8395ZM120.882 10.5796C120.89 10.2813 120.821 10.0243 120.679 9.80753C120.497 9.52844 120.22 9.38842 119.845 9.38842C119.503 9.38842 119.224 9.52461 119.011 9.79794C118.837 10.0156 118.734 10.2756 118.7 10.5796H120.882Z" fill="white"/>
<path d="M54.3198 30.6465H52.0488L50.8048 26.8976H46.4808L45.2958 30.6465H43.0848L47.3688 17.8833H50.0148L54.3198 30.6465ZM50.4298 25.3247L49.3048 21.9919C49.1858 21.6515 48.9628 20.8497 48.6338 19.5876H48.5938C48.4628 20.1304 48.2518 20.9322 47.9618 21.9919L46.8568 25.3247H50.4298Z" fill="white"/>
<path d="M65.3368 25.9319C65.3368 27.4971 64.8958 28.7343 64.0138 29.6425C63.2238 30.451 62.2428 30.8548 61.0718 30.8548C59.8078 30.8548 58.8998 30.4193 58.3468 29.5485H58.3068V34.3966H56.1748V24.4731C56.1748 23.4891 56.1478 22.4792 56.0958 21.4435H57.9708L58.0898 22.9022H58.1298C58.8408 21.8031 59.9198 21.2545 61.3678 21.2545C62.4998 21.2545 63.4448 21.6832 64.2008 22.5416C64.9588 23.4009 65.3368 24.5307 65.3368 25.9319ZM63.1648 26.0067C63.1648 25.1109 62.9548 24.3724 62.5328 23.7912C62.0718 23.1851 61.4528 22.8821 60.6768 22.8821C60.1508 22.8821 59.6728 23.0508 59.2458 23.3836C58.8178 23.7193 58.5378 24.1576 58.4068 24.7004C58.3408 24.9536 58.3078 25.1608 58.3078 25.3238V26.8583C58.3078 27.5278 58.5218 28.0927 58.9498 28.554C59.3778 29.0153 59.9338 29.2454 60.6178 29.2454C61.4208 29.2454 62.0458 28.9481 62.4928 28.3554C62.9408 27.7618 63.1648 26.9792 63.1648 26.0067Z" fill="white"/>
<path d="M76.3738 25.9319C76.3738 27.4971 75.9329 28.7343 75.0499 29.6425C74.2609 30.451 73.2798 30.8548 72.1088 30.8548C70.8448 30.8548 69.9368 30.4193 69.3848 29.5485H69.3448V34.3966H67.2129V24.4731C67.2129 23.4891 67.1859 22.4792 67.1339 21.4435H69.0089L69.1279 22.9022H69.1678C69.8778 21.8031 70.9569 21.2545 72.4059 21.2545C73.5369 21.2545 74.4819 21.6832 75.2399 22.5416C75.9949 23.4009 76.3738 24.5307 76.3738 25.9319ZM74.2019 26.0067C74.2019 25.1109 73.9908 24.3724 73.5688 23.7912C73.1078 23.1851 72.4909 22.8821 71.7139 22.8821C71.1869 22.8821 70.7099 23.0508 70.2819 23.3836C69.8539 23.7193 69.5748 24.1576 69.4438 24.7004C69.3788 24.9536 69.3448 25.1608 69.3448 25.3238V26.8583C69.3448 27.5278 69.5588 28.0927 69.9848 28.554C70.4128 29.0143 70.9689 29.2454 71.6549 29.2454C72.4579 29.2454 73.0829 28.9481 73.5299 28.3554C73.9779 27.7618 74.2019 26.9792 74.2019 26.0067Z" fill="white"/>
<path d="M88.7138 27.0674C88.7138 28.1531 88.3208 29.0364 87.5318 29.7183C86.6648 30.4635 85.4578 30.8356 83.9068 30.8356C82.4748 30.8356 81.3268 30.5709 80.4578 30.0405L80.9518 28.3363C81.8878 28.8791 82.9148 29.1515 84.0338 29.1515C84.8368 29.1515 85.4618 28.9769 85.9108 28.6298C86.3578 28.2826 86.5808 27.8165 86.5808 27.2353C86.5808 26.7174 86.3968 26.281 86.0278 25.9271C85.6608 25.5732 85.0478 25.2443 84.1918 24.9402C81.8618 24.1068 80.6978 22.8859 80.6978 21.2804C80.6978 20.2312 81.1058 19.3709 81.9228 18.7015C82.7368 18.0311 83.8228 17.6964 85.1808 17.6964C86.3918 17.6964 87.3978 17.8988 88.2008 18.3025L87.6678 19.9694C86.9178 19.5781 86.0698 19.3824 85.1208 19.3824C84.3708 19.3824 83.7848 19.5599 83.3648 19.9128C83.0098 20.2283 82.8318 20.6129 82.8318 21.0685C82.8318 21.573 83.0348 21.9901 83.4428 22.3181C83.7978 22.6212 84.4428 22.9492 85.3788 23.3031C86.5238 23.7452 87.3648 24.2622 87.9058 24.8549C88.4448 25.4457 88.7138 26.1851 88.7138 27.0674Z" fill="white"/>
<path d="M95.7628 22.9779H93.4128V27.4462C93.4128 28.5827 93.8268 29.1504 94.6568 29.1504C95.0378 29.1504 95.3538 29.1188 95.6038 29.0555L95.6628 30.6082C95.2428 30.7588 94.6898 30.8346 94.0048 30.8346C93.1628 30.8346 92.5048 30.5881 92.0298 30.0961C91.5568 29.6031 91.3188 28.7764 91.3188 27.615V22.976H89.9188V21.4415H91.3188V19.7564L93.4128 19.1503V21.4415H95.7628V22.9779Z" fill="white"/>
<path d="M106.366 25.9693C106.366 27.3839 105.944 28.5453 105.102 29.4536C104.219 30.3887 103.047 30.8548 101.586 30.8548C100.178 30.8548 99.0569 30.4069 98.2209 29.5111C97.3849 28.6154 96.9669 27.4846 96.9669 26.1218C96.9669 24.6957 97.3969 23.5275 98.2599 22.6193C99.1209 21.7101 100.283 21.2555 101.744 21.2555C103.152 21.2555 104.285 21.7034 105.14 22.6001C105.958 23.47 106.366 24.593 106.366 25.9693ZM104.154 26.0355C104.154 25.1867 103.965 24.4588 103.582 23.8517C103.135 23.117 102.496 22.7507 101.668 22.7507C100.811 22.7507 100.16 23.118 99.7129 23.8517C99.3299 24.4597 99.1409 25.1992 99.1409 26.0738C99.1409 26.9226 99.3299 27.6505 99.7129 28.2567C100.174 28.9913 100.818 29.3577 101.649 29.3577C102.463 29.3577 103.102 28.9836 103.563 28.2375C103.956 27.6189 104.154 26.8833 104.154 26.0355Z" fill="white"/>
<path d="M113.296 23.2417C113.085 23.2043 112.86 23.1851 112.624 23.1851C111.874 23.1851 111.294 23.4565 110.886 24.0003C110.531 24.4799 110.353 25.086 110.353 25.8177V30.6466H108.222L108.242 24.3417C108.242 23.281 108.215 22.3152 108.162 21.4444H110.019L110.097 23.2053H110.156C110.381 22.6001 110.736 22.1129 111.222 21.7475C111.697 21.4185 112.21 21.2545 112.763 21.2545C112.96 21.2545 113.138 21.2679 113.296 21.2919V23.2417Z" fill="white"/>
<path d="M122.831 25.6096C122.831 25.9759 122.806 26.2847 122.753 26.537H116.357C116.382 27.4462 116.691 28.1415 117.285 28.621C117.824 29.0497 118.521 29.2646 119.377 29.2646C120.324 29.2646 121.188 29.1197 121.965 28.8291L122.299 30.2486C121.391 30.6284 120.319 30.8173 119.082 30.8173C117.594 30.8173 116.426 30.3972 115.576 29.558C114.728 28.7189 114.303 27.5919 114.303 26.1783C114.303 24.7905 114.698 23.6348 115.489 22.7132C116.317 21.7292 117.436 21.2372 118.844 21.2372C120.227 21.2372 121.274 21.7292 121.985 22.7132C122.548 23.4948 122.831 24.4616 122.831 25.6096ZM120.798 25.0792C120.812 24.4731 120.673 23.9494 120.384 23.5073C120.015 22.9386 119.448 22.6547 118.685 22.6547C117.988 22.6547 117.421 22.9319 116.988 23.4881C116.633 23.9302 116.422 24.4606 116.357 25.0782H120.798V25.0792Z" fill="white"/>
</svg>
