<svg width="139" height="40" viewBox="0 0 139 40" fill="none" xmlns="http://www.w3.org/2000/svg">
<path d="M133.564 39.6466H5.78591C2.97608 39.6466 0.674805 37.4395 0.674805 34.7447V5.33338C0.674805 2.63857 2.97608 0.431492 5.78591 0.431492H133.564C136.374 0.431492 138.675 2.63857 138.675 5.33338V34.7447C138.675 37.4395 136.374 39.6466 133.564 39.6466Z" fill="#2B2B2B"/>
<path d="M133.564 1.21702C135.93 1.21702 137.856 3.06381 137.856 5.33338V34.7447C137.856 37.0143 135.93 38.8611 133.564 38.8611H5.78591C3.41947 38.8611 1.49386 37.0143 1.49386 34.7447V5.33338C1.49386 3.06381 3.41947 1.21702 5.78591 1.21702H133.564ZM133.564 0.431492H5.78591C2.97608 0.431492 0.674805 2.63857 0.674805 5.33338V34.7447C0.674805 37.4395 2.97608 39.6466 5.78591 39.6466H133.564C136.374 39.6466 138.675 37.4395 138.675 34.7447V5.33338C138.675 2.63857 136.374 0.431492 133.564 0.431492Z" fill="#A6A6A6"/>
<path d="M10.5749 7.82236C10.2747 8.12383 10.1009 8.59318 10.1009 9.20101V30.8821C10.1009 31.4899 10.2747 31.9593 10.5749 32.2607L10.6491 32.3269L23.3169 20.1825V19.8957L10.6491 7.75128L10.5749 7.82236Z" fill="white"/>
<path d="M29.0682 24.233L24.8503 20.1828V19.8961L29.0733 15.8459L29.1679 15.8986L34.1691 18.6277C35.5964 19.4022 35.5964 20.6767 34.1691 21.4561L29.1679 24.1803L29.0682 24.233Z" fill="white"/>
<path d="M28.4013 24.9341L24.0836 20.7933L11.3416 33.0149C11.8157 33.4928 12.5888 33.5504 13.4679 33.0725L28.4013 24.9341Z" fill="white"/>
<path d="M28.4013 15.1447L13.4679 7.00629C12.5888 6.53326 11.8157 6.59086 11.3416 7.06879L24.0836 19.2855L28.4013 15.1447Z" fill="white"/>
<path d="M49.146 10.4747C49.146 11.2933 48.8904 11.9489 48.387 12.4379C47.8081 13.0175 47.0543 13.3092 46.1304 13.3092C45.2475 13.3092 44.4936 13.0126 43.8751 12.4281C43.2554 11.835 42.9462 11.107 42.9462 10.2357C42.9462 9.36441 43.2554 8.63647 43.8751 8.04825C44.4936 7.4588 45.2475 7.16223 46.1304 7.16223C46.57 7.16223 46.9891 7.24924 47.389 7.411C47.7877 7.57399 48.1122 7.79457 48.3474 8.06663L47.8133 8.58378C47.4031 8.11933 46.8447 7.89016 46.1304 7.89016C45.4864 7.89016 44.928 8.10584 44.454 8.54089C43.985 8.97716 43.7499 9.5421 43.7499 10.2357C43.7499 10.9293 43.985 11.4992 44.454 11.9354C44.928 12.3656 45.4864 12.5862 46.1304 12.5862C46.814 12.5862 47.389 12.3656 47.8426 11.9305C48.1416 11.6426 48.3116 11.2455 48.3563 10.7382H46.1304V10.0298H49.1C49.1358 10.183 49.146 10.3313 49.146 10.4747Z" fill="white" stroke="white" stroke-width="0.0408889" stroke-miterlimit="10"/>
<path d="M53.8571 8.0188H51.0677V9.88152H53.5823V10.5898H51.0677V12.4526H53.8571V13.1744H50.278V7.297H53.8571V8.0188Z" fill="white" stroke="white" stroke-width="0.0408889" stroke-miterlimit="10"/>
<path d="M57.1819 13.1744H56.3922V8.0188H54.6813V7.297H58.8941V8.0188H57.1819V13.1744Z" fill="white" stroke="white" stroke-width="0.0408889" stroke-miterlimit="10"/>
<path d="M61.943 13.1744V7.297H62.7314V13.1744H61.943Z" fill="white" stroke="white" stroke-width="0.0408889" stroke-miterlimit="10"/>
<path d="M66.226 13.1744H65.4427V8.0188H63.7254V7.297H67.9433V8.0188H66.226V13.1744Z" fill="white" stroke="white" stroke-width="0.0408889" stroke-miterlimit="10"/>
<path d="M75.9193 12.4183C75.3149 13.0126 74.5661 13.3092 73.673 13.3092C72.7747 13.3092 72.0259 13.0126 71.4215 12.4183C70.8184 11.8252 70.5181 11.0972 70.5181 10.2357C70.5181 9.37421 70.8184 8.64628 71.4215 8.05315C72.0259 7.4588 72.7747 7.16223 73.673 7.16223C74.561 7.16223 75.3098 7.4588 75.9142 8.05805C76.5224 8.65608 76.8227 9.37911 76.8227 10.2357C76.8227 11.0972 76.5224 11.8252 75.9193 12.4183ZM72.0055 11.9256C72.4604 12.3656 73.0136 12.5862 73.673 12.5862C74.3272 12.5862 74.8856 12.3656 75.3354 11.9256C75.789 11.4857 76.019 10.9208 76.019 10.2357C76.019 9.55068 75.789 8.98573 75.3354 8.54579C74.8856 8.10585 74.3272 7.88526 73.673 7.88526C73.0136 7.88526 72.4604 8.10585 72.0055 8.54579C71.5519 8.98573 71.3219 9.55068 71.3219 10.2357C71.3219 10.9208 71.5519 11.4857 72.0055 11.9256Z" fill="white" stroke="white" stroke-width="0.0408889" stroke-miterlimit="10"/>
<path d="M77.9305 13.1744V7.297H78.8888L81.8686 11.868H81.9031L81.8686 10.7381V7.297H82.657V13.1744H81.8341L78.7138 8.37786H78.6793L78.7138 9.51265V13.1744H77.9305Z" fill="white" stroke="white" stroke-width="0.0408889" stroke-miterlimit="10"/>
<path d="M70.324 21.7568C67.9231 21.7568 65.9617 23.5092 65.9617 25.9271C65.9617 28.3253 67.9231 30.0961 70.324 30.0961C72.73 30.0961 74.6914 28.3253 74.6914 25.9271C74.6914 23.5092 72.73 21.7568 70.324 21.7568ZM70.324 28.454C69.0066 28.454 67.8732 27.4111 67.8732 25.9271C67.8732 24.4234 69.0066 23.3989 70.324 23.3989C71.6414 23.3989 72.7799 24.4234 72.7799 25.9271C72.7799 27.4111 71.6414 28.454 70.324 28.454ZM60.8058 21.7568C58.3998 21.7568 56.4435 23.5092 56.4435 25.9271C56.4435 28.3253 58.3998 30.0961 60.8058 30.0961C63.2106 30.0961 65.1682 28.3253 65.1682 25.9271C65.1682 23.5092 63.2106 21.7568 60.8058 21.7568ZM60.8058 28.454C59.4872 28.454 58.3499 27.4111 58.3499 25.9271C58.3499 24.4234 59.4872 23.3989 60.8058 23.3989C62.1232 23.3989 63.2566 24.4234 63.2566 25.9271C63.2566 27.4111 62.1232 28.454 60.8058 28.454ZM49.4796 23.035V24.807H53.8918C53.7627 25.7972 53.4177 26.5251 52.8887 27.0325C52.2447 27.6452 51.2417 28.3253 49.4796 28.3253C46.7643 28.3253 44.6381 26.2237 44.6381 23.6195C44.6381 21.0154 46.7643 18.9137 49.4796 18.9137C50.9478 18.9137 52.016 19.464 52.8044 20.1772L54.1064 18.9284C53.0037 17.9186 51.5368 17.1429 49.4796 17.1429C45.7562 17.1429 42.6269 20.0485 42.6269 23.6195C42.6269 27.1906 45.7562 30.0961 49.4796 30.0961C51.4921 30.0961 53.0037 29.4638 54.1921 28.2775C55.4098 27.1097 55.7893 25.4675 55.7893 24.1416C55.7893 23.7298 55.7535 23.3512 55.6896 23.035H49.4796ZM95.7939 24.4087C95.4349 23.4761 94.327 21.7568 92.0705 21.7568C89.8344 21.7568 87.9727 23.4467 87.9727 25.9271C87.9727 28.2628 89.8152 30.0961 92.2852 30.0961C94.2823 30.0961 95.4349 28.9283 95.9089 28.2481L94.4267 27.3008C93.9322 27.9945 93.2588 28.454 92.2852 28.454C91.3179 28.454 90.624 28.0288 90.1794 27.1906L95.9945 24.883L95.7939 24.4087ZM89.865 25.7972C89.8152 24.1894 91.1671 23.3659 92.1357 23.3659C92.8947 23.3659 93.5387 23.7298 93.7533 24.2506L89.865 25.7972ZM85.1385 29.8425H87.0501V17.5878H85.1385V29.8425ZM82.008 22.6857H81.9441C81.5148 22.198 80.6957 21.7568 79.6582 21.7568C77.4808 21.7568 75.4901 23.5901 75.4901 25.9406C75.4901 28.2775 77.4808 30.0961 79.6582 30.0961C80.6957 30.0961 81.5148 29.6513 81.9441 29.1489H82.008V29.7469C82.008 31.3412 81.1199 32.1978 79.6875 32.1978C78.5197 32.1978 77.7952 31.389 77.4962 30.7089L75.8338 31.3743C76.3129 32.4797 77.5818 33.84 79.6875 33.84C81.9288 33.84 83.8199 32.5753 83.8199 29.4981V22.0105H82.008V22.6857ZM79.8217 28.454C78.5043 28.454 77.4016 27.3964 77.4016 25.9406C77.4016 24.4712 78.5043 23.3989 79.8217 23.3989C81.1199 23.3989 82.1434 24.4712 82.1434 25.9406C82.1434 27.3964 81.1199 28.454 79.8217 28.454ZM104.743 17.5878H100.172V29.8425H102.078V25.1992H104.743C106.861 25.1992 108.937 23.7298 108.937 21.3928C108.937 19.0571 106.856 17.5878 104.743 17.5878ZM104.793 23.4945H102.078V19.2924H104.793C106.217 19.2924 107.029 20.4259 107.029 21.3928C107.029 22.3414 106.217 23.4945 104.793 23.4945ZM116.578 21.7335C115.201 21.7335 113.768 22.3169 113.179 23.6097L114.871 24.2899C115.235 23.6097 115.905 23.3891 116.613 23.3891C117.602 23.3891 118.605 23.959 118.62 24.9651V25.0938C118.275 24.9026 117.537 24.6195 116.628 24.6195C114.806 24.6195 112.949 25.5815 112.949 27.3768C112.949 29.019 114.442 30.0765 116.12 30.0765C117.402 30.0765 118.11 29.5214 118.555 28.8756H118.62V29.8229H120.461V25.122C120.461 22.9492 118.77 21.7335 116.578 21.7335ZM116.348 28.4491C115.725 28.4491 114.856 28.1526 114.856 27.4111C114.856 26.4626 115.939 26.0987 116.877 26.0987C117.717 26.0987 118.11 26.2764 118.62 26.5104C118.471 27.6452 117.452 28.4491 116.348 28.4491ZM127.17 22.0019L124.978 27.3143H124.913L122.648 22.0019H120.592L123.996 29.4258L122.054 33.5569H124.046L129.291 22.0019H127.17ZM109.985 29.8425H111.896V17.5878H109.985V29.8425Z" fill="white"/>
</svg>
