<svg width="72" height="14" viewBox="0 0 72 14" fill="none" xmlns="http://www.w3.org/2000/svg">
<path d="M7.84708 11.2943L4.0431 13.2865C3.87505 13.3795 3.69937 13.4193 3.51604 13.4061C3.33272 13.3928 3.17231 13.3397 3.03482 13.2467C2.89732 13.1537 2.79039 13.0374 2.714 12.8976C2.63762 12.7579 2.62234 12.602 2.66817 12.4299L3.67645 8.66449L0.307871 6.13433C0.155101 6.01479 0.0597721 5.87852 0.0218851 5.72552C-0.0160019 5.57251 -0.00469701 5.42322 0.0558 5.27766C0.116908 5.13156 0.20857 5.01202 0.330786 4.91905C0.453002 4.82608 0.621049 4.76631 0.834928 4.73975L5.28054 4.40106L6.9992 0.854851C7.07559 0.69547 7.19414 0.575935 7.35485 0.496244C7.51557 0.416554 7.67964 0.376709 7.84708 0.376709C8.01513 0.376709 8.1792 0.416554 8.3393 0.496244C8.49941 0.575935 8.61796 0.69547 8.69495 0.854851L10.4136 4.40106L14.8592 4.73975C15.0731 4.76631 15.2412 4.82608 15.3634 4.91905C15.4856 5.01202 15.5772 5.13156 15.6384 5.27766C15.6995 5.42376 15.7111 5.57331 15.6732 5.72631C15.6353 5.87932 15.5397 6.01532 15.3863 6.13433L12.0177 8.66449L13.026 12.4299C13.0718 12.6025 13.0565 12.7587 12.9802 12.8984C12.9038 13.0382 12.7968 13.1542 12.6593 13.2467C12.5218 13.3397 12.3614 13.3928 12.1781 13.4061C11.9948 13.4193 11.8191 13.3795 11.6511 13.2865L7.84708 11.2943Z" fill="#FB8011"/>
<path d="M26.542 11.2943L22.738 13.2865C22.57 13.3795 22.3943 13.4193 22.211 13.4061C22.0277 13.3928 21.8673 13.3397 21.7298 13.2467C21.5923 13.1537 21.4853 13.0374 21.4089 12.8976C21.3326 12.7579 21.3173 12.602 21.3631 12.4299L22.3714 8.66449L19.0028 6.13433C18.85 6.01479 18.7547 5.87852 18.7168 5.72552C18.6789 5.57251 18.6902 5.42322 18.7507 5.27766C18.8119 5.13156 18.9035 5.01202 19.0257 4.91905C19.1479 4.82608 19.316 4.76631 19.5299 4.73975L23.9755 4.40106L25.6941 0.854851C25.7705 0.69547 25.8891 0.575935 26.0498 0.496244C26.2105 0.416554 26.3746 0.376709 26.542 0.376709C26.7101 0.376709 26.8741 0.416554 27.0342 0.496244C27.1944 0.575935 27.3129 0.69547 27.3899 0.854851L29.1086 4.40106L33.5542 4.73975C33.7681 4.76631 33.9361 4.82608 34.0583 4.91905C34.1805 5.01202 34.2722 5.13156 34.3333 5.27766C34.3944 5.42376 34.406 5.57331 34.3681 5.72631C34.3302 5.87932 34.2346 6.01532 34.0812 6.13433L30.7126 8.66449L31.7209 12.4299C31.7668 12.6025 31.7515 12.7587 31.6751 12.8984C31.5987 13.0382 31.4918 13.1542 31.3543 13.2467C31.2168 13.3397 31.0564 13.3928 30.8731 13.4061C30.6897 13.4193 30.514 13.3795 30.346 13.2865L26.542 11.2943Z" fill="#FB8011"/>
<path d="M45.2369 11.2943L41.433 13.2865C41.2649 13.3795 41.0892 13.4193 40.9059 13.4061C40.7226 13.3928 40.5622 13.3397 40.4247 13.2467C40.2872 13.1537 40.1802 13.0374 40.1039 12.8976C40.0275 12.7579 40.0122 12.602 40.058 12.4299L41.0663 8.66449L37.6977 6.13433C37.545 6.01479 37.4496 5.87852 37.4117 5.72552C37.3739 5.57251 37.3852 5.42322 37.4457 5.27766C37.5068 5.13156 37.5984 5.01202 37.7206 4.91905C37.8429 4.82608 38.0109 4.76631 38.2248 4.73975L42.6704 4.40106L44.3891 0.854851C44.4655 0.69547 44.584 0.575935 44.7447 0.496244C44.9054 0.416554 45.0695 0.376709 45.2369 0.376709C45.405 0.376709 45.5691 0.416554 45.7292 0.496244C45.8893 0.575935 46.0078 0.69547 46.0848 0.854851L47.8035 4.40106L52.2491 4.73975C52.463 4.76631 52.631 4.82608 52.7532 4.91905C52.8754 5.01202 52.9671 5.13156 53.0282 5.27766C53.0893 5.42376 53.1009 5.57331 53.063 5.72631C53.0252 5.87932 52.9295 6.01532 52.7761 6.13433L49.4076 8.66449L50.4158 12.4299C50.4617 12.6025 50.4464 12.7587 50.37 12.8984C50.2936 13.0382 50.1867 13.1542 50.0492 13.2467C49.9117 13.3397 49.7513 13.3928 49.568 13.4061C49.3847 13.4193 49.209 13.3795 49.0409 13.2865L45.2369 11.2943Z" fill="#FB8011"/>
<path d="M63.9319 11.2943L60.1279 13.2865C59.9599 13.3795 59.7842 13.4193 59.6009 13.4061C59.4175 13.3928 59.2571 13.3397 59.1196 13.2467C58.9821 13.1537 58.8752 13.0374 58.7988 12.8976C58.7224 12.7579 58.7071 12.602 58.753 12.4299L59.7613 8.66449L56.3927 6.13433C56.2399 6.01479 56.1446 5.87852 56.1067 5.72552C56.0688 5.57251 56.0801 5.42322 56.1406 5.27766C56.2017 5.13156 56.2934 5.01202 56.4156 4.91905C56.5378 4.82608 56.7059 4.76631 56.9197 4.73975L61.3653 4.40106L63.084 0.854851C63.1604 0.69547 63.2789 0.575935 63.4397 0.496244C63.6004 0.416554 63.7645 0.376709 63.9319 0.376709C64.0999 0.376709 64.264 0.416554 64.4241 0.496244C64.5842 0.575935 64.7028 0.69547 64.7798 0.854851L66.4984 4.40106L70.944 4.73975C71.1579 4.76631 71.326 4.82608 71.4482 4.91905C71.5704 5.01202 71.6621 5.13156 71.7232 5.27766C71.7843 5.42376 71.7959 5.57331 71.758 5.72631C71.7201 5.87932 71.6245 6.01532 71.4711 6.13433L68.1025 8.66449L69.1108 12.4299C69.1566 12.6025 69.1413 12.7587 69.065 12.8984C68.9886 13.0382 68.8816 13.1542 68.7441 13.2467C68.6067 13.3397 68.4462 13.3928 68.2629 13.4061C68.0796 13.4193 67.9039 13.3795 67.7359 13.2865L63.9319 11.2943Z" fill="#FB8011"/>
</svg>
