<svg width="327" height="37" viewBox="0 0 327 37" fill="none" xmlns="http://www.w3.org/2000/svg">
<rect x="0.0143127" y="0.5" width="72" height="36" rx="18" fill="#F7F7F7"/>
<path d="M18.4783 17.974C18.833 18.03 19.155 18.1747 19.4443 18.408C19.743 18.6413 19.9763 18.9307 20.1443 19.276C20.3216 19.6213 20.4103 19.99 20.4103 20.382C20.4103 20.8767 20.2843 21.3247 20.0323 21.726C19.7803 22.118 19.4116 22.4307 18.9263 22.664C18.4503 22.888 17.8856 23 17.2323 23H13.5923V13.242H17.0923C17.755 13.242 18.3196 13.354 18.7863 13.578C19.253 13.7927 19.603 14.0867 19.8363 14.46C20.0696 14.8333 20.1863 15.2533 20.1863 15.72C20.1863 16.2987 20.0276 16.7793 19.7103 17.162C19.4023 17.5353 18.9916 17.806 18.4783 17.974ZM14.8663 17.456H17.0083C17.6056 17.456 18.0676 17.316 18.3943 17.036C18.721 16.756 18.8843 16.3687 18.8843 15.874C18.8843 15.3793 18.721 14.992 18.3943 14.712C18.0676 14.432 17.5963 14.292 16.9803 14.292H14.8663V17.456ZM17.1203 21.95C17.755 21.95 18.2496 21.8007 18.6043 21.502C18.959 21.2033 19.1363 20.788 19.1363 20.256C19.1363 19.7147 18.9496 19.29 18.5763 18.982C18.203 18.6647 17.7036 18.506 17.0783 18.506H14.8663V21.95H17.1203ZM28.9823 15.328V23H27.7083V21.866C27.4656 22.258 27.1249 22.566 26.6863 22.79C26.2569 23.0047 25.7809 23.112 25.2583 23.112C24.6609 23.112 24.1243 22.9907 23.6483 22.748C23.1723 22.496 22.7943 22.1227 22.5143 21.628C22.2436 21.1333 22.1083 20.5313 22.1083 19.822V15.328H23.3683V19.654C23.3683 20.41 23.5596 20.9933 23.9423 21.404C24.3249 21.8053 24.8476 22.006 25.5103 22.006C26.1916 22.006 26.7283 21.796 27.1203 21.376C27.5123 20.956 27.7083 20.3447 27.7083 19.542V15.328H28.9823ZM32.4073 16.574C32.6313 16.1353 32.9487 15.7947 33.3593 15.552C33.7793 15.3093 34.288 15.188 34.8853 15.188V16.504H34.5493C33.1213 16.504 32.4073 17.2787 32.4073 18.828V23H31.1333V15.328H32.4073V16.574ZM39.52 15.202C40.1827 15.202 40.7613 15.3467 41.256 15.636C41.76 15.9253 42.1333 16.2893 42.376 16.728V15.328H43.664V23.168C43.664 23.868 43.5147 24.4887 43.216 25.03C42.9173 25.5807 42.488 26.01 41.928 26.318C41.3773 26.626 40.7333 26.78 39.996 26.78C38.988 26.78 38.148 26.542 37.476 26.066C36.804 25.59 36.4073 24.9413 36.286 24.12H37.546C37.686 24.5867 37.9753 24.96 38.414 25.24C38.8527 25.5293 39.38 25.674 39.996 25.674C40.696 25.674 41.2653 25.4547 41.704 25.016C42.152 24.5773 42.376 23.9613 42.376 23.168V21.558C42.124 22.006 41.7507 22.3793 41.256 22.678C40.7613 22.9767 40.1827 23.126 39.52 23.126C38.8387 23.126 38.218 22.958 37.658 22.622C37.1073 22.286 36.6733 21.8147 36.356 21.208C36.0387 20.6013 35.88 19.9107 35.88 19.136C35.88 18.352 36.0387 17.666 36.356 17.078C36.6733 16.4807 37.1073 16.0187 37.658 15.692C38.218 15.3653 38.8387 15.202 39.52 15.202ZM42.376 19.15C42.376 18.5713 42.2593 18.0673 42.026 17.638C41.7927 17.2087 41.4753 16.882 41.074 16.658C40.682 16.4247 40.248 16.308 39.772 16.308C39.296 16.308 38.862 16.42 38.47 16.644C38.078 16.868 37.7653 17.1947 37.532 17.624C37.2987 18.0533 37.182 18.5573 37.182 19.136C37.182 19.724 37.2987 20.2373 37.532 20.676C37.7653 21.1053 38.078 21.4367 38.47 21.67C38.862 21.894 39.296 22.006 39.772 22.006C40.248 22.006 40.682 21.894 41.074 21.67C41.4753 21.4367 41.7927 21.1053 42.026 20.676C42.2593 20.2373 42.376 19.7287 42.376 19.15ZM52.8169 18.87C52.8169 19.1127 52.8029 19.3693 52.7749 19.64H46.6429C46.6896 20.396 46.9463 20.9887 47.4129 21.418C47.8889 21.838 48.4629 22.048 49.1349 22.048C49.6856 22.048 50.1429 21.922 50.5069 21.67C50.8803 21.4087 51.1416 21.0633 51.2909 20.634H52.6629C52.4576 21.3713 52.0469 21.9733 51.4309 22.44C50.8149 22.8973 50.0496 23.126 49.1349 23.126C48.4069 23.126 47.7536 22.9627 47.1749 22.636C46.6056 22.3093 46.1576 21.8473 45.8309 21.25C45.5043 20.6433 45.3409 19.9433 45.3409 19.15C45.3409 18.3567 45.4996 17.6613 45.8169 17.064C46.1343 16.4667 46.5776 16.0093 47.1469 15.692C47.7256 15.3653 48.3883 15.202 49.1349 15.202C49.8629 15.202 50.5069 15.3607 51.0669 15.678C51.6269 15.9953 52.0563 16.434 52.3549 16.994C52.6629 17.5447 52.8169 18.17 52.8169 18.87ZM51.5009 18.604C51.5009 18.1187 51.3936 17.7033 51.1789 17.358C50.9643 17.0033 50.6703 16.7373 50.2969 16.56C49.9329 16.3733 49.5269 16.28 49.0789 16.28C48.4349 16.28 47.8843 16.4853 47.4269 16.896C46.9789 17.3067 46.7223 17.876 46.6569 18.604H51.5009ZM55.7726 16.574C55.9966 16.1353 56.3139 15.7947 56.7246 15.552C57.1446 15.3093 57.6532 15.188 58.2506 15.188V16.504H57.9146C56.4866 16.504 55.7726 17.2787 55.7726 18.828V23H54.4986V15.328H55.7726V16.574Z" fill="#3D3A3A"/>
<rect x="82.0143" y="0.5" width="67" height="36" rx="18" fill="#F7F7F7"/>
<path d="M105.978 17.974C106.333 18.03 106.655 18.1747 106.944 18.408C107.243 18.6413 107.476 18.9307 107.644 19.276C107.822 19.6213 107.91 19.99 107.91 20.382C107.91 20.8767 107.784 21.3247 107.532 21.726C107.28 22.118 106.912 22.4307 106.426 22.664C105.95 22.888 105.386 23 104.732 23H101.092V13.242H104.592C105.255 13.242 105.82 13.354 106.286 13.578C106.753 13.7927 107.103 14.0867 107.336 14.46C107.57 14.8333 107.686 15.2533 107.686 15.72C107.686 16.2987 107.528 16.7793 107.21 17.162C106.902 17.5353 106.492 17.806 105.978 17.974ZM102.366 17.456H104.508C105.106 17.456 105.568 17.316 105.894 17.036C106.221 16.756 106.384 16.3687 106.384 15.874C106.384 15.3793 106.221 14.992 105.894 14.712C105.568 14.432 105.096 14.292 104.48 14.292H102.366V17.456ZM104.62 21.95C105.255 21.95 105.75 21.8007 106.104 21.502C106.459 21.2033 106.636 20.788 106.636 20.256C106.636 19.7147 106.45 19.29 106.076 18.982C105.703 18.6647 105.204 18.506 104.578 18.506H102.366V21.95H104.62ZM116.678 18.87C116.678 19.1127 116.664 19.3693 116.636 19.64H110.504C110.551 20.396 110.808 20.9887 111.274 21.418C111.75 21.838 112.324 22.048 112.996 22.048C113.547 22.048 114.004 21.922 114.368 21.67C114.742 21.4087 115.003 21.0633 115.152 20.634H116.524C116.319 21.3713 115.908 21.9733 115.292 22.44C114.676 22.8973 113.911 23.126 112.996 23.126C112.268 23.126 111.615 22.9627 111.036 22.636C110.467 22.3093 110.019 21.8473 109.692 21.25C109.366 20.6433 109.202 19.9433 109.202 19.15C109.202 18.3567 109.361 17.6613 109.678 17.064C109.996 16.4667 110.439 16.0093 111.008 15.692C111.587 15.3653 112.25 15.202 112.996 15.202C113.724 15.202 114.368 15.3607 114.928 15.678C115.488 15.9953 115.918 16.434 116.216 16.994C116.524 17.5447 116.678 18.17 116.678 18.87ZM115.362 18.604C115.362 18.1187 115.255 17.7033 115.04 17.358C114.826 17.0033 114.532 16.7373 114.158 16.56C113.794 16.3733 113.388 16.28 112.94 16.28C112.296 16.28 111.746 16.4853 111.288 16.896C110.84 17.3067 110.584 17.876 110.518 18.604H115.362ZM125.36 18.87C125.36 19.1127 125.346 19.3693 125.318 19.64H119.186C119.233 20.396 119.489 20.9887 119.956 21.418C120.432 21.838 121.006 22.048 121.678 22.048C122.229 22.048 122.686 21.922 123.05 21.67C123.423 21.4087 123.685 21.0633 123.834 20.634H125.206C125.001 21.3713 124.59 21.9733 123.974 22.44C123.358 22.8973 122.593 23.126 121.678 23.126C120.95 23.126 120.297 22.9627 119.718 22.636C119.149 22.3093 118.701 21.8473 118.374 21.25C118.047 20.6433 117.884 19.9433 117.884 19.15C117.884 18.3567 118.043 17.6613 118.36 17.064C118.677 16.4667 119.121 16.0093 119.69 15.692C120.269 15.3653 120.931 15.202 121.678 15.202C122.406 15.202 123.05 15.3607 123.61 15.678C124.17 15.9953 124.599 16.434 124.898 16.994C125.206 17.5447 125.36 18.17 125.36 18.87ZM124.044 18.604C124.044 18.1187 123.937 17.7033 123.722 17.358C123.507 17.0033 123.213 16.7373 122.84 16.56C122.476 16.3733 122.07 16.28 121.622 16.28C120.978 16.28 120.427 16.4853 119.97 16.896C119.522 17.3067 119.265 17.876 119.2 18.604H124.044ZM130.164 16.378H128.554V23H127.28V16.378H126.286V15.328H127.28V14.782C127.28 13.9233 127.499 13.298 127.938 12.906C128.386 12.5047 129.1 12.304 130.08 12.304V13.368C129.52 13.368 129.123 13.48 128.89 13.704C128.666 13.9187 128.554 14.278 128.554 14.782V15.328H130.164V16.378Z" fill="#3D3A3A"/>
<rect x="159.014" y="0.5" width="75" height="36" rx="18" fill="#F7F7F7"/>
<path d="M168.616 18.114C168.616 17.162 168.831 16.308 169.26 15.552C169.69 14.7867 170.273 14.1893 171.01 13.76C171.757 13.3307 172.583 13.116 173.488 13.116C174.552 13.116 175.481 13.3727 176.274 13.886C177.068 14.3993 177.646 15.1273 178.01 16.07H176.484C176.214 15.482 175.822 15.0293 175.308 14.712C174.804 14.3947 174.198 14.236 173.488 14.236C172.807 14.236 172.196 14.3947 171.654 14.712C171.113 15.0293 170.688 15.482 170.38 16.07C170.072 16.6487 169.918 17.33 169.918 18.114C169.918 18.8887 170.072 19.57 170.38 20.158C170.688 20.7367 171.113 21.1847 171.654 21.502C172.196 21.8193 172.807 21.978 173.488 21.978C174.198 21.978 174.804 21.824 175.308 21.516C175.822 21.1987 176.214 20.746 176.484 20.158H178.01C177.646 21.0913 177.068 21.8147 176.274 22.328C175.481 22.832 174.552 23.084 173.488 23.084C172.583 23.084 171.757 22.874 171.01 22.454C170.273 22.0247 169.69 21.432 169.26 20.676C168.831 19.92 168.616 19.066 168.616 18.114ZM183.715 15.188C184.293 15.188 184.816 15.314 185.283 15.566C185.749 15.8087 186.113 16.1773 186.375 16.672C186.645 17.1667 186.781 17.7687 186.781 18.478V23H185.521V18.66C185.521 17.8947 185.329 17.3113 184.947 16.91C184.564 16.4993 184.041 16.294 183.379 16.294C182.707 16.294 182.17 16.504 181.769 16.924C181.377 17.344 181.181 17.9553 181.181 18.758V23H179.907V12.64H181.181V16.42C181.433 16.028 181.778 15.7247 182.217 15.51C182.665 15.2953 183.164 15.188 183.715 15.188ZM189.52 14.082C189.277 14.082 189.072 13.998 188.904 13.83C188.736 13.662 188.652 13.4567 188.652 13.214C188.652 12.9713 188.736 12.766 188.904 12.598C189.072 12.43 189.277 12.346 189.52 12.346C189.753 12.346 189.949 12.43 190.108 12.598C190.276 12.766 190.36 12.9713 190.36 13.214C190.36 13.4567 190.276 13.662 190.108 13.83C189.949 13.998 189.753 14.082 189.52 14.082ZM190.136 15.328V23H188.862V15.328H190.136ZM191.831 19.15C191.831 18.3567 191.99 17.666 192.307 17.078C192.624 16.4807 193.063 16.0187 193.623 15.692C194.192 15.3653 194.841 15.202 195.569 15.202C196.512 15.202 197.286 15.4307 197.893 15.888C198.509 16.3453 198.915 16.98 199.111 17.792H197.739C197.608 17.3253 197.352 16.9567 196.969 16.686C196.596 16.4153 196.129 16.28 195.569 16.28C194.841 16.28 194.253 16.532 193.805 17.036C193.357 17.5307 193.133 18.2353 193.133 19.15C193.133 20.074 193.357 20.788 193.805 21.292C194.253 21.796 194.841 22.048 195.569 22.048C196.129 22.048 196.596 21.9173 196.969 21.656C197.342 21.3947 197.599 21.0213 197.739 20.536H199.111C198.906 21.32 198.495 21.95 197.879 22.426C197.263 22.8927 196.493 23.126 195.569 23.126C194.841 23.126 194.192 22.9627 193.623 22.636C193.063 22.3093 192.624 21.8473 192.307 21.25C191.99 20.6527 191.831 19.9527 191.831 19.15ZM205.095 23L202.085 19.612V23H200.811V12.64H202.085V18.73L205.039 15.328H206.817L203.205 19.15L206.831 23H205.095ZM215.016 18.87C215.016 19.1127 215.002 19.3693 214.974 19.64H208.842C208.889 20.396 209.145 20.9887 209.612 21.418C210.088 21.838 210.662 22.048 211.334 22.048C211.885 22.048 212.342 21.922 212.706 21.67C213.079 21.4087 213.341 21.0633 213.49 20.634H214.862C214.657 21.3713 214.246 21.9733 213.63 22.44C213.014 22.8973 212.249 23.126 211.334 23.126C210.606 23.126 209.953 22.9627 209.374 22.636C208.805 22.3093 208.357 21.8473 208.03 21.25C207.703 20.6433 207.54 19.9433 207.54 19.15C207.54 18.3567 207.699 17.6613 208.016 17.064C208.333 16.4667 208.777 16.0093 209.346 15.692C209.925 15.3653 210.587 15.202 211.334 15.202C212.062 15.202 212.706 15.3607 213.266 15.678C213.826 15.9953 214.255 16.434 214.554 16.994C214.862 17.5447 215.016 18.17 215.016 18.87ZM213.7 18.604C213.7 18.1187 213.593 17.7033 213.378 17.358C213.163 17.0033 212.869 16.7373 212.496 16.56C212.132 16.3733 211.726 16.28 211.278 16.28C210.634 16.28 210.083 16.4853 209.626 16.896C209.178 17.3067 208.921 17.876 208.856 18.604H213.7ZM220.436 15.188C221.369 15.188 222.125 15.4727 222.704 16.042C223.282 16.602 223.572 17.414 223.572 18.478V23H222.312V18.66C222.312 17.8947 222.12 17.3113 221.738 16.91C221.355 16.4993 220.832 16.294 220.17 16.294C219.498 16.294 218.961 16.504 218.56 16.924C218.168 17.344 217.972 17.9553 217.972 18.758V23H216.698V15.328H217.972V16.42C218.224 16.028 218.564 15.7247 218.994 15.51C219.432 15.2953 219.913 15.188 220.436 15.188Z" fill="#3D3A3A"/>
<rect x="244.014" y="0.5" width="82" height="36" rx="18" fill="#F7F7F7"/>
<path d="M257.656 13.242L253.974 23H252.504L248.822 13.242H250.18L253.246 21.656L256.312 13.242H257.656ZM266.053 18.87C266.053 19.1127 266.039 19.3693 266.011 19.64H259.879C259.926 20.396 260.183 20.9887 260.649 21.418C261.125 21.838 261.699 22.048 262.371 22.048C262.922 22.048 263.379 21.922 263.743 21.67C264.117 21.4087 264.378 21.0633 264.527 20.634H265.899C265.694 21.3713 265.283 21.9733 264.667 22.44C264.051 22.8973 263.286 23.126 262.371 23.126C261.643 23.126 260.99 22.9627 260.411 22.636C259.842 22.3093 259.394 21.8473 259.067 21.25C258.741 20.6433 258.577 19.9433 258.577 19.15C258.577 18.3567 258.736 17.6613 259.053 17.064C259.371 16.4667 259.814 16.0093 260.383 15.692C260.962 15.3653 261.625 15.202 262.371 15.202C263.099 15.202 263.743 15.3607 264.303 15.678C264.863 15.9953 265.293 16.434 265.591 16.994C265.899 17.5447 266.053 18.17 266.053 18.87ZM264.737 18.604C264.737 18.1187 264.63 17.7033 264.415 17.358C264.201 17.0033 263.907 16.7373 263.533 16.56C263.169 16.3733 262.763 16.28 262.315 16.28C261.671 16.28 261.121 16.4853 260.663 16.896C260.215 17.3067 259.959 17.876 259.893 18.604H264.737ZM270.899 15.202C271.562 15.202 272.14 15.3467 272.635 15.636C273.139 15.9253 273.512 16.2893 273.755 16.728V15.328H275.043V23.168C275.043 23.868 274.894 24.4887 274.595 25.03C274.296 25.5807 273.867 26.01 273.307 26.318C272.756 26.626 272.112 26.78 271.375 26.78C270.367 26.78 269.527 26.542 268.855 26.066C268.183 25.59 267.786 24.9413 267.665 24.12H268.925C269.065 24.5867 269.354 24.96 269.793 25.24C270.232 25.5293 270.759 25.674 271.375 25.674C272.075 25.674 272.644 25.4547 273.083 25.016C273.531 24.5773 273.755 23.9613 273.755 23.168V21.558C273.503 22.006 273.13 22.3793 272.635 22.678C272.14 22.9767 271.562 23.126 270.899 23.126C270.218 23.126 269.597 22.958 269.037 22.622C268.486 22.286 268.052 21.8147 267.735 21.208C267.418 20.6013 267.259 19.9107 267.259 19.136C267.259 18.352 267.418 17.666 267.735 17.078C268.052 16.4807 268.486 16.0187 269.037 15.692C269.597 15.3653 270.218 15.202 270.899 15.202ZM273.755 19.15C273.755 18.5713 273.638 18.0673 273.405 17.638C273.172 17.2087 272.854 16.882 272.453 16.658C272.061 16.4247 271.627 16.308 271.151 16.308C270.675 16.308 270.241 16.42 269.849 16.644C269.457 16.868 269.144 17.1947 268.911 17.624C268.678 18.0533 268.561 18.5573 268.561 19.136C268.561 19.724 268.678 20.2373 268.911 20.676C269.144 21.1053 269.457 21.4367 269.849 21.67C270.241 21.894 270.675 22.006 271.151 22.006C271.627 22.006 272.061 21.894 272.453 21.67C272.854 21.4367 273.172 21.1053 273.405 20.676C273.638 20.2373 273.755 19.7287 273.755 19.15ZM284.196 18.87C284.196 19.1127 284.182 19.3693 284.154 19.64H278.022C278.068 20.396 278.325 20.9887 278.792 21.418C279.268 21.838 279.842 22.048 280.514 22.048C281.064 22.048 281.522 21.922 281.886 21.67C282.259 21.4087 282.52 21.0633 282.67 20.634H284.042C283.836 21.3713 283.426 21.9733 282.81 22.44C282.194 22.8973 281.428 23.126 280.514 23.126C279.786 23.126 279.132 22.9627 278.554 22.636C277.984 22.3093 277.536 21.8473 277.21 21.25C276.883 20.6433 276.72 19.9433 276.72 19.15C276.72 18.3567 276.878 17.6613 277.196 17.064C277.513 16.4667 277.956 16.0093 278.526 15.692C279.104 15.3653 279.767 15.202 280.514 15.202C281.242 15.202 281.886 15.3607 282.446 15.678C283.006 15.9953 283.435 16.434 283.734 16.994C284.042 17.5447 284.196 18.17 284.196 18.87ZM282.88 18.604C282.88 18.1187 282.772 17.7033 282.558 17.358C282.343 17.0033 282.049 16.7373 281.676 16.56C281.312 16.3733 280.906 16.28 280.458 16.28C279.814 16.28 279.263 16.4853 278.806 16.896C278.358 17.3067 278.101 17.876 278.036 18.604H282.88ZM287.431 16.378V20.9C287.431 21.2733 287.511 21.5393 287.669 21.698C287.828 21.8473 288.103 21.922 288.495 21.922H289.433V23H288.285C287.576 23 287.044 22.8367 286.689 22.51C286.335 22.1833 286.157 21.6467 286.157 20.9V16.378H285.163V15.328H286.157V13.396H287.431V15.328H289.433V16.378H287.431ZM290.501 19.136C290.501 18.352 290.66 17.666 290.977 17.078C291.294 16.4807 291.728 16.0187 292.279 15.692C292.839 15.3653 293.46 15.202 294.141 15.202C294.813 15.202 295.396 15.3467 295.891 15.636C296.386 15.9253 296.754 16.2893 296.997 16.728V15.328H298.285V23H296.997V21.572C296.745 22.02 296.367 22.3933 295.863 22.692C295.368 22.9813 294.79 23.126 294.127 23.126C293.446 23.126 292.83 22.958 292.279 22.622C291.728 22.286 291.294 21.8147 290.977 21.208C290.66 20.6013 290.501 19.9107 290.501 19.136ZM296.997 19.15C296.997 18.5713 296.88 18.0673 296.647 17.638C296.414 17.2087 296.096 16.882 295.695 16.658C295.303 16.4247 294.869 16.308 294.393 16.308C293.917 16.308 293.483 16.42 293.091 16.644C292.699 16.868 292.386 17.1947 292.153 17.624C291.92 18.0533 291.803 18.5573 291.803 19.136C291.803 19.724 291.92 20.2373 292.153 20.676C292.386 21.1053 292.699 21.4367 293.091 21.67C293.483 21.894 293.917 22.006 294.393 22.006C294.869 22.006 295.303 21.894 295.695 21.67C296.096 21.4367 296.414 21.1053 296.647 20.676C296.88 20.2373 296.997 19.7287 296.997 19.15ZM301.712 16.756C301.973 16.2987 302.356 15.9253 302.86 15.636C303.364 15.3467 303.938 15.202 304.582 15.202C305.273 15.202 305.893 15.3653 306.444 15.692C306.995 16.0187 307.429 16.4807 307.746 17.078C308.063 17.666 308.222 18.352 308.222 19.136C308.222 19.9107 308.063 20.6013 307.746 21.208C307.429 21.8147 306.99 22.286 306.43 22.622C305.879 22.958 305.263 23.126 304.582 23.126C303.919 23.126 303.336 22.9813 302.832 22.692C302.337 22.4027 301.964 22.034 301.712 21.586V23H300.438V12.64H301.712V16.756ZM306.92 19.136C306.92 18.5573 306.803 18.0533 306.57 17.624C306.337 17.1947 306.019 16.868 305.618 16.644C305.226 16.42 304.792 16.308 304.316 16.308C303.849 16.308 303.415 16.4247 303.014 16.658C302.622 16.882 302.305 17.2133 302.062 17.652C301.829 18.0813 301.712 18.5807 301.712 19.15C301.712 19.7287 301.829 20.2373 302.062 20.676C302.305 21.1053 302.622 21.4367 303.014 21.67C303.415 21.894 303.849 22.006 304.316 22.006C304.792 22.006 305.226 21.894 305.618 21.67C306.019 21.4367 306.337 21.1053 306.57 20.676C306.803 20.2373 306.92 19.724 306.92 19.136ZM311.173 12.64V23H309.899V12.64H311.173ZM320.344 18.87C320.344 19.1127 320.33 19.3693 320.302 19.64H314.17C314.217 20.396 314.474 20.9887 314.94 21.418C315.416 21.838 315.99 22.048 316.662 22.048C317.213 22.048 317.67 21.922 318.034 21.67C318.408 21.4087 318.669 21.0633 318.818 20.634H320.19C319.985 21.3713 319.574 21.9733 318.958 22.44C318.342 22.8973 317.577 23.126 316.662 23.126C315.934 23.126 315.281 22.9627 314.702 22.636C314.133 22.3093 313.685 21.8473 313.358 21.25C313.032 20.6433 312.868 19.9433 312.868 19.15C312.868 18.3567 313.027 17.6613 313.344 17.064C313.662 16.4667 314.105 16.0093 314.674 15.692C315.253 15.3653 315.916 15.202 316.662 15.202C317.39 15.202 318.034 15.3607 318.594 15.678C319.154 15.9953 319.584 16.434 319.882 16.994C320.19 17.5447 320.344 18.17 320.344 18.87ZM319.028 18.604C319.028 18.1187 318.921 17.7033 318.706 17.358C318.492 17.0033 318.198 16.7373 317.824 16.56C317.46 16.3733 317.054 16.28 316.606 16.28C315.962 16.28 315.412 16.4853 314.954 16.896C314.506 17.3067 314.25 17.876 314.184 18.604H319.028Z" fill="#3D3A3A"/>
</svg>
