<svg width="327" height="37" viewBox="0 0 327 37" fill="none" xmlns="http://www.w3.org/2000/svg">
<rect x="0.0429688" y="0.5" width="72" height="36" rx="18" fill="#F7F7F7"/>
<path d="M27.259 23L24.935 19.01H23.395V23H22.121V13.242H25.271C26.0083 13.242 26.629 13.368 27.133 13.62C27.6463 13.872 28.029 14.2127 28.281 14.642C28.533 15.0713 28.659 15.5613 28.659 16.112C28.659 16.784 28.463 17.3767 28.071 17.89C27.6883 18.4033 27.1096 18.744 26.335 18.912L28.785 23H27.259ZM23.395 17.988H25.271C25.9616 17.988 26.4796 17.82 26.825 17.484C27.1703 17.1387 27.343 16.6813 27.343 16.112C27.343 15.5333 27.1703 15.0853 26.825 14.768C26.489 14.4507 25.971 14.292 25.271 14.292H23.395V17.988ZM31.2965 14.082C31.0539 14.082 30.8485 13.998 30.6805 13.83C30.5125 13.662 30.4285 13.4567 30.4285 13.214C30.4285 12.9713 30.5125 12.766 30.6805 12.598C30.8485 12.43 31.0539 12.346 31.2965 12.346C31.5299 12.346 31.7259 12.43 31.8845 12.598C32.0525 12.766 32.1365 12.9713 32.1365 13.214C32.1365 13.4567 32.0525 13.662 31.8845 13.83C31.7259 13.998 31.5299 14.082 31.2965 14.082ZM31.9125 15.328V23H30.6385V15.328H31.9125ZM33.6079 19.15C33.6079 18.3567 33.7665 17.666 34.0839 17.078C34.4012 16.4807 34.8399 16.0187 35.3999 15.692C35.9692 15.3653 36.6179 15.202 37.3459 15.202C38.2885 15.202 39.0632 15.4307 39.6699 15.888C40.2859 16.3453 40.6919 16.98 40.8879 17.792H39.5159C39.3852 17.3253 39.1285 16.9567 38.7459 16.686C38.3725 16.4153 37.9059 16.28 37.3459 16.28C36.6179 16.28 36.0299 16.532 35.5819 17.036C35.1339 17.5307 34.9099 18.2353 34.9099 19.15C34.9099 20.074 35.1339 20.788 35.5819 21.292C36.0299 21.796 36.6179 22.048 37.3459 22.048C37.9059 22.048 38.3725 21.9173 38.7459 21.656C39.1192 21.3947 39.3759 21.0213 39.5159 20.536H40.8879C40.6825 21.32 40.2719 21.95 39.6559 22.426C39.0399 22.8927 38.2699 23.126 37.3459 23.126C36.6179 23.126 35.9692 22.9627 35.3999 22.636C34.8399 22.3093 34.4012 21.8473 34.0839 21.25C33.7665 20.6527 33.6079 19.9527 33.6079 19.15ZM49.5878 18.87C49.5878 19.1127 49.5738 19.3693 49.5458 19.64H43.4138C43.4604 20.396 43.7171 20.9887 44.1838 21.418C44.6598 21.838 45.2338 22.048 45.9058 22.048C46.4564 22.048 46.9138 21.922 47.2778 21.67C47.6511 21.4087 47.9124 21.0633 48.0618 20.634H49.4338C49.2284 21.3713 48.8178 21.9733 48.2018 22.44C47.5858 22.8973 46.8204 23.126 45.9058 23.126C45.1778 23.126 44.5244 22.9627 43.9458 22.636C43.3764 22.3093 42.9284 21.8473 42.6018 21.25C42.2751 20.6433 42.1118 19.9433 42.1118 19.15C42.1118 18.3567 42.2704 17.6613 42.5878 17.064C42.9051 16.4667 43.3484 16.0093 43.9178 15.692C44.4964 15.3653 45.1591 15.202 45.9058 15.202C46.6338 15.202 47.2778 15.3607 47.8378 15.678C48.3978 15.9953 48.8271 16.434 49.1258 16.994C49.4338 17.5447 49.5878 18.17 49.5878 18.87ZM48.2718 18.604C48.2718 18.1187 48.1644 17.7033 47.9498 17.358C47.7351 17.0033 47.4411 16.7373 47.0678 16.56C46.7038 16.3733 46.2978 16.28 45.8498 16.28C45.2058 16.28 44.6551 16.4853 44.1978 16.896C43.7498 17.3067 43.4931 17.876 43.4278 18.604H48.2718Z" fill="#3D3A3A"/>
<rect x="82.043" y="0.5" width="67" height="36" rx="18" fill="#F7F7F7"/>
<path d="M106.007 17.974C106.362 18.03 106.684 18.1747 106.973 18.408C107.272 18.6413 107.505 18.9307 107.673 19.276C107.85 19.6213 107.939 19.99 107.939 20.382C107.939 20.8767 107.813 21.3247 107.561 21.726C107.309 22.118 106.94 22.4307 106.455 22.664C105.979 22.888 105.414 23 104.761 23H101.121V13.242H104.621C105.284 13.242 105.848 13.354 106.315 13.578C106.782 13.7927 107.132 14.0867 107.365 14.46C107.598 14.8333 107.715 15.2533 107.715 15.72C107.715 16.2987 107.556 16.7793 107.239 17.162C106.931 17.5353 106.52 17.806 106.007 17.974ZM102.395 17.456H104.537C105.134 17.456 105.596 17.316 105.923 17.036C106.25 16.756 106.413 16.3687 106.413 15.874C106.413 15.3793 106.25 14.992 105.923 14.712C105.596 14.432 105.125 14.292 104.509 14.292H102.395V17.456ZM104.649 21.95C105.284 21.95 105.778 21.8007 106.133 21.502C106.488 21.2033 106.665 20.788 106.665 20.256C106.665 19.7147 106.478 19.29 106.105 18.982C105.732 18.6647 105.232 18.506 104.607 18.506H102.395V21.95H104.649ZM116.707 18.87C116.707 19.1127 116.693 19.3693 116.665 19.64H110.533C110.58 20.396 110.836 20.9887 111.303 21.418C111.779 21.838 112.353 22.048 113.025 22.048C113.576 22.048 114.033 21.922 114.397 21.67C114.77 21.4087 115.032 21.0633 115.181 20.634H116.553C116.348 21.3713 115.937 21.9733 115.321 22.44C114.705 22.8973 113.94 23.126 113.025 23.126C112.297 23.126 111.644 22.9627 111.065 22.636C110.496 22.3093 110.048 21.8473 109.721 21.25C109.394 20.6433 109.231 19.9433 109.231 19.15C109.231 18.3567 109.39 17.6613 109.707 17.064C110.024 16.4667 110.468 16.0093 111.037 15.692C111.616 15.3653 112.278 15.202 113.025 15.202C113.753 15.202 114.397 15.3607 114.957 15.678C115.517 15.9953 115.946 16.434 116.245 16.994C116.553 17.5447 116.707 18.17 116.707 18.87ZM115.391 18.604C115.391 18.1187 115.284 17.7033 115.069 17.358C114.854 17.0033 114.56 16.7373 114.187 16.56C113.823 16.3733 113.417 16.28 112.969 16.28C112.325 16.28 111.774 16.4853 111.317 16.896C110.869 17.3067 110.612 17.876 110.547 18.604H115.391ZM125.389 18.87C125.389 19.1127 125.375 19.3693 125.347 19.64H119.215C119.261 20.396 119.518 20.9887 119.985 21.418C120.461 21.838 121.035 22.048 121.707 22.048C122.257 22.048 122.715 21.922 123.079 21.67C123.452 21.4087 123.713 21.0633 123.863 20.634H125.235C125.029 21.3713 124.619 21.9733 124.003 22.44C123.387 22.8973 122.621 23.126 121.707 23.126C120.979 23.126 120.325 22.9627 119.747 22.636C119.177 22.3093 118.729 21.8473 118.403 21.25C118.076 20.6433 117.913 19.9433 117.913 19.15C117.913 18.3567 118.071 17.6613 118.389 17.064C118.706 16.4667 119.149 16.0093 119.719 15.692C120.297 15.3653 120.96 15.202 121.707 15.202C122.435 15.202 123.079 15.3607 123.639 15.678C124.199 15.9953 124.628 16.434 124.927 16.994C125.235 17.5447 125.389 18.17 125.389 18.87ZM124.073 18.604C124.073 18.1187 123.965 17.7033 123.751 17.358C123.536 17.0033 123.242 16.7373 122.869 16.56C122.505 16.3733 122.099 16.28 121.651 16.28C121.007 16.28 120.456 16.4853 119.999 16.896C119.551 17.3067 119.294 17.876 119.229 18.604H124.073ZM130.192 16.378H128.582V23H127.308V16.378H126.314V15.328H127.308V14.782C127.308 13.9233 127.528 13.298 127.966 12.906C128.414 12.5047 129.128 12.304 130.108 12.304V13.368C129.548 13.368 129.152 13.48 128.918 13.704C128.694 13.9187 128.582 14.278 128.582 14.782V15.328H130.192V16.378Z" fill="#3D3A3A"/>
<rect x="159.043" y="0.5" width="75" height="36" rx="18" fill="#F7F7F7"/>
<path d="M168.645 18.114C168.645 17.162 168.86 16.308 169.289 15.552C169.718 14.7867 170.302 14.1893 171.039 13.76C171.786 13.3307 172.612 13.116 173.517 13.116C174.581 13.116 175.51 13.3727 176.303 13.886C177.096 14.3993 177.675 15.1273 178.039 16.07H176.513C176.242 15.482 175.85 15.0293 175.337 14.712C174.833 14.3947 174.226 14.236 173.517 14.236C172.836 14.236 172.224 14.3947 171.683 14.712C171.142 15.0293 170.717 15.482 170.409 16.07C170.101 16.6487 169.947 17.33 169.947 18.114C169.947 18.8887 170.101 19.57 170.409 20.158C170.717 20.7367 171.142 21.1847 171.683 21.502C172.224 21.8193 172.836 21.978 173.517 21.978C174.226 21.978 174.833 21.824 175.337 21.516C175.85 21.1987 176.242 20.746 176.513 20.158H178.039C177.675 21.0913 177.096 21.8147 176.303 22.328C175.51 22.832 174.581 23.084 173.517 23.084C172.612 23.084 171.786 22.874 171.039 22.454C170.302 22.0247 169.718 21.432 169.289 20.676C168.86 19.92 168.645 19.066 168.645 18.114ZM183.743 15.188C184.322 15.188 184.845 15.314 185.311 15.566C185.778 15.8087 186.142 16.1773 186.403 16.672C186.674 17.1667 186.809 17.7687 186.809 18.478V23H185.549V18.66C185.549 17.8947 185.358 17.3113 184.975 16.91C184.593 16.4993 184.07 16.294 183.407 16.294C182.735 16.294 182.199 16.504 181.797 16.924C181.405 17.344 181.209 17.9553 181.209 18.758V23H179.935V12.64H181.209V16.42C181.461 16.028 181.807 15.7247 182.245 15.51C182.693 15.2953 183.193 15.188 183.743 15.188ZM189.549 14.082C189.306 14.082 189.101 13.998 188.933 13.83C188.765 13.662 188.681 13.4567 188.681 13.214C188.681 12.9713 188.765 12.766 188.933 12.598C189.101 12.43 189.306 12.346 189.549 12.346C189.782 12.346 189.978 12.43 190.137 12.598C190.305 12.766 190.389 12.9713 190.389 13.214C190.389 13.4567 190.305 13.662 190.137 13.83C189.978 13.998 189.782 14.082 189.549 14.082ZM190.165 15.328V23H188.891V15.328H190.165ZM191.86 19.15C191.86 18.3567 192.018 17.666 192.336 17.078C192.653 16.4807 193.092 16.0187 193.652 15.692C194.221 15.3653 194.87 15.202 195.598 15.202C196.54 15.202 197.315 15.4307 197.922 15.888C198.538 16.3453 198.944 16.98 199.14 17.792H197.768C197.637 17.3253 197.38 16.9567 196.998 16.686C196.624 16.4153 196.158 16.28 195.598 16.28C194.87 16.28 194.282 16.532 193.834 17.036C193.386 17.5307 193.162 18.2353 193.162 19.15C193.162 20.074 193.386 20.788 193.834 21.292C194.282 21.796 194.87 22.048 195.598 22.048C196.158 22.048 196.624 21.9173 196.998 21.656C197.371 21.3947 197.628 21.0213 197.768 20.536H199.14C198.934 21.32 198.524 21.95 197.908 22.426C197.292 22.8927 196.522 23.126 195.598 23.126C194.87 23.126 194.221 22.9627 193.652 22.636C193.092 22.3093 192.653 21.8473 192.336 21.25C192.018 20.6527 191.86 19.9527 191.86 19.15ZM205.124 23L202.114 19.612V23H200.84V12.64H202.114V18.73L205.068 15.328H206.846L203.234 19.15L206.86 23H205.124ZM215.045 18.87C215.045 19.1127 215.031 19.3693 215.003 19.64H208.871C208.917 20.396 209.174 20.9887 209.641 21.418C210.117 21.838 210.691 22.048 211.363 22.048C211.913 22.048 212.371 21.922 212.735 21.67C213.108 21.4087 213.369 21.0633 213.519 20.634H214.891C214.685 21.3713 214.275 21.9733 213.659 22.44C213.043 22.8973 212.277 23.126 211.363 23.126C210.635 23.126 209.981 22.9627 209.403 22.636C208.833 22.3093 208.385 21.8473 208.059 21.25C207.732 20.6433 207.569 19.9433 207.569 19.15C207.569 18.3567 207.727 17.6613 208.045 17.064C208.362 16.4667 208.805 16.0093 209.375 15.692C209.953 15.3653 210.616 15.202 211.363 15.202C212.091 15.202 212.735 15.3607 213.295 15.678C213.855 15.9953 214.284 16.434 214.583 16.994C214.891 17.5447 215.045 18.17 215.045 18.87ZM213.729 18.604C213.729 18.1187 213.621 17.7033 213.407 17.358C213.192 17.0033 212.898 16.7373 212.525 16.56C212.161 16.3733 211.755 16.28 211.307 16.28C210.663 16.28 210.112 16.4853 209.655 16.896C209.207 17.3067 208.95 17.876 208.885 18.604H213.729ZM220.464 15.188C221.398 15.188 222.154 15.4727 222.732 16.042C223.311 16.602 223.6 17.414 223.6 18.478V23H222.34V18.66C222.34 17.8947 222.149 17.3113 221.766 16.91C221.384 16.4993 220.861 16.294 220.198 16.294C219.526 16.294 218.99 16.504 218.588 16.924C218.196 17.344 218 17.9553 218 18.758V23H216.726V15.328H218V16.42C218.252 16.028 218.593 15.7247 219.022 15.51C219.461 15.2953 219.942 15.188 220.464 15.188Z" fill="#3D3A3A"/>
<rect x="244.043" y="0.5" width="82" height="36" rx="18" fill="#F7F7F7"/>
<path d="M268.145 16.098C268.145 16.91 267.865 17.5867 267.305 18.128C266.754 18.66 265.91 18.926 264.771 18.926H262.895V23H261.621V13.242H264.771C265.872 13.242 266.708 13.508 267.277 14.04C267.856 14.572 268.145 15.258 268.145 16.098ZM264.771 17.876C265.48 17.876 266.003 17.722 266.339 17.414C266.675 17.106 266.843 16.6673 266.843 16.098C266.843 14.894 266.152 14.292 264.771 14.292H262.895V17.876H264.771ZM271.002 16.574C271.226 16.1353 271.544 15.7947 271.954 15.552C272.374 15.3093 272.883 15.188 273.48 15.188V16.504H273.144C271.716 16.504 271.002 17.2787 271.002 18.828V23H269.728V15.328H271.002V16.574ZM278.297 23.126C277.578 23.126 276.925 22.9627 276.337 22.636C275.758 22.3093 275.301 21.8473 274.965 21.25C274.638 20.6433 274.475 19.9433 274.475 19.15C274.475 18.366 274.643 17.6753 274.979 17.078C275.324 16.4713 275.791 16.0093 276.379 15.692C276.967 15.3653 277.625 15.202 278.353 15.202C279.081 15.202 279.739 15.3653 280.327 15.692C280.915 16.0093 281.377 16.4667 281.713 17.064C282.058 17.6613 282.231 18.3567 282.231 19.15C282.231 19.9433 282.054 20.6433 281.699 21.25C281.354 21.8473 280.882 22.3093 280.285 22.636C279.688 22.9627 279.025 23.126 278.297 23.126ZM278.297 22.006C278.754 22.006 279.184 21.8987 279.585 21.684C279.986 21.4693 280.308 21.1473 280.551 20.718C280.803 20.2887 280.929 19.766 280.929 19.15C280.929 18.534 280.808 18.0113 280.565 17.582C280.322 17.1527 280.005 16.8353 279.613 16.63C279.221 16.4153 278.796 16.308 278.339 16.308C277.872 16.308 277.443 16.4153 277.051 16.63C276.668 16.8353 276.36 17.1527 276.127 17.582C275.894 18.0113 275.777 18.534 275.777 19.15C275.777 19.7753 275.889 20.3027 276.113 20.732C276.346 21.1613 276.654 21.4833 277.037 21.698C277.42 21.9033 277.84 22.006 278.297 22.006ZM285.46 16.378V20.9C285.46 21.2733 285.539 21.5393 285.698 21.698C285.857 21.8473 286.132 21.922 286.524 21.922H287.462V23H286.314C285.605 23 285.073 22.8367 284.718 22.51C284.363 22.1833 284.186 21.6467 284.186 20.9V16.378H283.192V15.328H284.186V13.396H285.46V15.328H287.462V16.378H285.46ZM296.006 18.87C296.006 19.1127 295.992 19.3693 295.964 19.64H289.832C289.878 20.396 290.135 20.9887 290.602 21.418C291.078 21.838 291.652 22.048 292.324 22.048C292.874 22.048 293.332 21.922 293.696 21.67C294.069 21.4087 294.33 21.0633 294.48 20.634H295.852C295.646 21.3713 295.236 21.9733 294.62 22.44C294.004 22.8973 293.238 23.126 292.324 23.126C291.596 23.126 290.942 22.9627 290.364 22.636C289.794 22.3093 289.346 21.8473 289.02 21.25C288.693 20.6433 288.53 19.9433 288.53 19.15C288.53 18.3567 288.688 17.6613 289.006 17.064C289.323 16.4667 289.766 16.0093 290.336 15.692C290.914 15.3653 291.577 15.202 292.324 15.202C293.052 15.202 293.696 15.3607 294.256 15.678C294.816 15.9953 295.245 16.434 295.544 16.994C295.852 17.5447 296.006 18.17 296.006 18.87ZM294.69 18.604C294.69 18.1187 294.582 17.7033 294.368 17.358C294.153 17.0033 293.859 16.7373 293.486 16.56C293.122 16.3733 292.716 16.28 292.268 16.28C291.624 16.28 291.073 16.4853 290.616 16.896C290.168 17.3067 289.911 17.876 289.846 18.604H294.69ZM298.345 14.082C298.103 14.082 297.897 13.998 297.729 13.83C297.561 13.662 297.477 13.4567 297.477 13.214C297.477 12.9713 297.561 12.766 297.729 12.598C297.897 12.43 298.103 12.346 298.345 12.346C298.579 12.346 298.775 12.43 298.933 12.598C299.101 12.766 299.185 12.9713 299.185 13.214C299.185 13.4567 299.101 13.662 298.933 13.83C298.775 13.998 298.579 14.082 298.345 14.082ZM298.961 15.328V23H297.687V15.328H298.961ZM304.871 15.188C305.804 15.188 306.56 15.4727 307.139 16.042C307.717 16.602 308.007 17.414 308.007 18.478V23H306.747V18.66C306.747 17.8947 306.555 17.3113 306.173 16.91C305.79 16.4993 305.267 16.294 304.605 16.294C303.933 16.294 303.396 16.504 302.995 16.924C302.603 17.344 302.407 17.9553 302.407 18.758V23H301.133V15.328H302.407V16.42C302.659 16.028 302.999 15.7247 303.429 15.51C303.867 15.2953 304.348 15.188 304.871 15.188Z" fill="#3D3A3A"/>
</svg>
