<svg width="327" height="37" viewBox="0 0 327 37" fill="none" xmlns="http://www.w3.org/2000/svg">
<rect x="0.985718" y="0.5" width="72" height="36" rx="18" fill="#F7F7F7"/>
<path d="M19.4497 17.974C19.8044 18.03 20.1264 18.1747 20.4157 18.408C20.7144 18.6413 20.9477 18.9307 21.1157 19.276C21.2931 19.6213 21.3817 19.99 21.3817 20.382C21.3817 20.8767 21.2557 21.3247 21.0037 21.726C20.7517 22.118 20.3831 22.4307 19.8977 22.664C19.4217 22.888 18.8571 23 18.2037 23H14.5637V13.242H18.0637C18.7264 13.242 19.2911 13.354 19.7577 13.578C20.2244 13.7927 20.5744 14.0867 20.8077 14.46C21.0411 14.8333 21.1577 15.2533 21.1577 15.72C21.1577 16.2987 20.9991 16.7793 20.6817 17.162C20.3737 17.5353 19.9631 17.806 19.4497 17.974ZM15.8377 17.456H17.9797C18.5771 17.456 19.0391 17.316 19.3657 17.036C19.6924 16.756 19.8557 16.3687 19.8557 15.874C19.8557 15.3793 19.6924 14.992 19.3657 14.712C19.0391 14.432 18.5677 14.292 17.9517 14.292H15.8377V17.456ZM18.0917 21.95C18.7264 21.95 19.2211 21.8007 19.5757 21.502C19.9304 21.2033 20.1077 20.788 20.1077 20.256C20.1077 19.7147 19.9211 19.29 19.5477 18.982C19.1744 18.6647 18.6751 18.506 18.0497 18.506H15.8377V21.95H18.0917ZM29.9537 15.328V23H28.6797V21.866C28.437 22.258 28.0963 22.566 27.6577 22.79C27.2283 23.0047 26.7523 23.112 26.2297 23.112C25.6323 23.112 25.0957 22.9907 24.6197 22.748C24.1437 22.496 23.7657 22.1227 23.4857 21.628C23.215 21.1333 23.0797 20.5313 23.0797 19.822V15.328H24.3397V19.654C24.3397 20.41 24.531 20.9933 24.9137 21.404C25.2963 21.8053 25.819 22.006 26.4817 22.006C27.163 22.006 27.6997 21.796 28.0917 21.376C28.4837 20.956 28.6797 20.3447 28.6797 19.542V15.328H29.9537ZM33.3787 16.574C33.6027 16.1353 33.9201 15.7947 34.3307 15.552C34.7507 15.3093 35.2594 15.188 35.8567 15.188V16.504H35.5207C34.0927 16.504 33.3787 17.2787 33.3787 18.828V23H32.1047V15.328H33.3787V16.574ZM40.4914 15.202C41.1541 15.202 41.7327 15.3467 42.2274 15.636C42.7314 15.9253 43.1047 16.2893 43.3474 16.728V15.328H44.6354V23.168C44.6354 23.868 44.4861 24.4887 44.1874 25.03C43.8887 25.5807 43.4594 26.01 42.8994 26.318C42.3487 26.626 41.7047 26.78 40.9674 26.78C39.9594 26.78 39.1194 26.542 38.4474 26.066C37.7754 25.59 37.3787 24.9413 37.2574 24.12H38.5174C38.6574 24.5867 38.9467 24.96 39.3854 25.24C39.8241 25.5293 40.3514 25.674 40.9674 25.674C41.6674 25.674 42.2367 25.4547 42.6754 25.016C43.1234 24.5773 43.3474 23.9613 43.3474 23.168V21.558C43.0954 22.006 42.7221 22.3793 42.2274 22.678C41.7327 22.9767 41.1541 23.126 40.4914 23.126C39.8101 23.126 39.1894 22.958 38.6294 22.622C38.0787 22.286 37.6447 21.8147 37.3274 21.208C37.0101 20.6013 36.8514 19.9107 36.8514 19.136C36.8514 18.352 37.0101 17.666 37.3274 17.078C37.6447 16.4807 38.0787 16.0187 38.6294 15.692C39.1894 15.3653 39.8101 15.202 40.4914 15.202ZM43.3474 19.15C43.3474 18.5713 43.2307 18.0673 42.9974 17.638C42.7641 17.2087 42.4467 16.882 42.0454 16.658C41.6534 16.4247 41.2194 16.308 40.7434 16.308C40.2674 16.308 39.8334 16.42 39.4414 16.644C39.0494 16.868 38.7367 17.1947 38.5034 17.624C38.2701 18.0533 38.1534 18.5573 38.1534 19.136C38.1534 19.724 38.2701 20.2373 38.5034 20.676C38.7367 21.1053 39.0494 21.4367 39.4414 21.67C39.8334 21.894 40.2674 22.006 40.7434 22.006C41.2194 22.006 41.6534 21.894 42.0454 21.67C42.4467 21.4367 42.7641 21.1053 42.9974 20.676C43.2307 20.2373 43.3474 19.7287 43.3474 19.15ZM53.7883 18.87C53.7883 19.1127 53.7743 19.3693 53.7463 19.64H47.6143C47.661 20.396 47.9177 20.9887 48.3843 21.418C48.8603 21.838 49.4343 22.048 50.1063 22.048C50.657 22.048 51.1143 21.922 51.4783 21.67C51.8517 21.4087 52.113 21.0633 52.2623 20.634H53.6343C53.429 21.3713 53.0183 21.9733 52.4023 22.44C51.7863 22.8973 51.021 23.126 50.1063 23.126C49.3783 23.126 48.725 22.9627 48.1463 22.636C47.577 22.3093 47.129 21.8473 46.8023 21.25C46.4757 20.6433 46.3123 19.9433 46.3123 19.15C46.3123 18.3567 46.471 17.6613 46.7883 17.064C47.1057 16.4667 47.549 16.0093 48.1183 15.692C48.697 15.3653 49.3597 15.202 50.1063 15.202C50.8343 15.202 51.4783 15.3607 52.0383 15.678C52.5983 15.9953 53.0277 16.434 53.3263 16.994C53.6343 17.5447 53.7883 18.17 53.7883 18.87ZM52.4723 18.604C52.4723 18.1187 52.365 17.7033 52.1503 17.358C51.9357 17.0033 51.6417 16.7373 51.2683 16.56C50.9043 16.3733 50.4983 16.28 50.0503 16.28C49.4063 16.28 48.8557 16.4853 48.3983 16.896C47.9503 17.3067 47.6937 17.876 47.6283 18.604H52.4723ZM56.744 16.574C56.968 16.1353 57.2853 15.7947 57.696 15.552C58.116 15.3093 58.6246 15.188 59.222 15.188V16.504H58.886C57.458 16.504 56.744 17.2787 56.744 18.828V23H55.47V15.328H56.744V16.574Z" fill="#3D3A3A"/>
<rect x="82.9857" y="0.5" width="67" height="36" rx="18" fill="#F7F7F7"/>
<path d="M104.088 16.098C104.088 16.91 103.808 17.5867 103.248 18.128C102.697 18.66 101.852 18.926 100.714 18.926H98.8377V23H97.5637V13.242H100.714C101.815 13.242 102.65 13.508 103.22 14.04C103.798 14.572 104.088 15.258 104.088 16.098ZM100.714 17.876C101.423 17.876 101.946 17.722 102.282 17.414C102.618 17.106 102.786 16.6673 102.786 16.098C102.786 14.894 102.095 14.292 100.714 14.292H98.8377V17.876H100.714ZM105.195 19.136C105.195 18.352 105.354 17.666 105.671 17.078C105.988 16.4807 106.422 16.0187 106.973 15.692C107.533 15.3653 108.154 15.202 108.835 15.202C109.507 15.202 110.09 15.3467 110.585 15.636C111.08 15.9253 111.448 16.2893 111.691 16.728V15.328H112.979V23H111.691V21.572C111.439 22.02 111.061 22.3933 110.557 22.692C110.062 22.9813 109.484 23.126 108.821 23.126C108.14 23.126 107.524 22.958 106.973 22.622C106.422 22.286 105.988 21.8147 105.671 21.208C105.354 20.6013 105.195 19.9107 105.195 19.136ZM111.691 19.15C111.691 18.5713 111.574 18.0673 111.341 17.638C111.108 17.2087 110.79 16.882 110.389 16.658C109.997 16.4247 109.563 16.308 109.087 16.308C108.611 16.308 108.177 16.42 107.785 16.644C107.393 16.868 107.08 17.1947 106.847 17.624C106.614 18.0533 106.497 18.5573 106.497 19.136C106.497 19.724 106.614 20.2373 106.847 20.676C107.08 21.1053 107.393 21.4367 107.785 21.67C108.177 21.894 108.611 22.006 109.087 22.006C109.563 22.006 109.997 21.894 110.389 21.67C110.79 21.4367 111.108 21.1053 111.341 20.676C111.574 20.2373 111.691 19.7287 111.691 19.15ZM117.848 23.126C117.26 23.126 116.733 23.028 116.266 22.832C115.799 22.6267 115.431 22.3467 115.16 21.992C114.889 21.628 114.74 21.2127 114.712 20.746H116.028C116.065 21.1287 116.243 21.4413 116.56 21.684C116.887 21.9267 117.311 22.048 117.834 22.048C118.319 22.048 118.702 21.9407 118.982 21.726C119.262 21.5113 119.402 21.2407 119.402 20.914C119.402 20.578 119.253 20.3307 118.954 20.172C118.655 20.004 118.193 19.8407 117.568 19.682C116.999 19.5327 116.532 19.3833 116.168 19.234C115.813 19.0753 115.505 18.8467 115.244 18.548C114.992 18.24 114.866 17.8387 114.866 17.344C114.866 16.952 114.983 16.5927 115.216 16.266C115.449 15.9393 115.781 15.6827 116.21 15.496C116.639 15.3 117.129 15.202 117.68 15.202C118.529 15.202 119.215 15.4167 119.738 15.846C120.261 16.2753 120.541 16.8633 120.578 17.61H119.304C119.276 17.2087 119.113 16.8867 118.814 16.644C118.525 16.4013 118.133 16.28 117.638 16.28C117.181 16.28 116.817 16.378 116.546 16.574C116.275 16.77 116.14 17.0267 116.14 17.344C116.14 17.596 116.219 17.806 116.378 17.974C116.546 18.1327 116.751 18.2633 116.994 18.366C117.246 18.4593 117.591 18.5667 118.03 18.688C118.581 18.8373 119.029 18.9867 119.374 19.136C119.719 19.276 120.013 19.4907 120.256 19.78C120.508 20.0693 120.639 20.4473 120.648 20.914C120.648 21.334 120.531 21.712 120.298 22.048C120.065 22.384 119.733 22.65 119.304 22.846C118.884 23.0327 118.399 23.126 117.848 23.126ZM124.001 16.378V20.9C124.001 21.2733 124.08 21.5393 124.239 21.698C124.397 21.8473 124.673 21.922 125.065 21.922H126.003V23H124.855C124.145 23 123.613 22.8367 123.259 22.51C122.904 22.1833 122.727 21.6467 122.727 20.9V16.378H121.733V15.328H122.727V13.396H124.001V15.328H126.003V16.378H124.001ZM127.07 19.136C127.07 18.352 127.229 17.666 127.546 17.078C127.863 16.4807 128.297 16.0187 128.848 15.692C129.408 15.3653 130.029 15.202 130.71 15.202C131.382 15.202 131.965 15.3467 132.46 15.636C132.955 15.9253 133.323 16.2893 133.566 16.728V15.328H134.854V23H133.566V21.572C133.314 22.02 132.936 22.3933 132.432 22.692C131.937 22.9813 131.359 23.126 130.696 23.126C130.015 23.126 129.399 22.958 128.848 22.622C128.297 22.286 127.863 21.8147 127.546 21.208C127.229 20.6013 127.07 19.9107 127.07 19.136ZM133.566 19.15C133.566 18.5713 133.449 18.0673 133.216 17.638C132.983 17.2087 132.665 16.882 132.264 16.658C131.872 16.4247 131.438 16.308 130.962 16.308C130.486 16.308 130.052 16.42 129.66 16.644C129.268 16.868 128.955 17.1947 128.722 17.624C128.489 18.0533 128.372 18.5573 128.372 19.136C128.372 19.724 128.489 20.2373 128.722 20.676C128.955 21.1053 129.268 21.4367 129.66 21.67C130.052 21.894 130.486 22.006 130.962 22.006C131.438 22.006 131.872 21.894 132.264 21.67C132.665 21.4367 132.983 21.1053 133.216 20.676C133.449 20.2373 133.566 19.7287 133.566 19.15Z" fill="#3D3A3A"/>
<rect x="159.986" y="0.5" width="75" height="36" rx="18" fill="#F7F7F7"/>
<path d="M169.588 18.114C169.588 17.162 169.802 16.308 170.232 15.552C170.661 14.7867 171.244 14.1893 171.982 13.76C172.728 13.3307 173.554 13.116 174.46 13.116C175.524 13.116 176.452 13.3727 177.246 13.886C178.039 14.3993 178.618 15.1273 178.982 16.07H177.456C177.185 15.482 176.793 15.0293 176.28 14.712C175.776 14.3947 175.169 14.236 174.46 14.236C173.778 14.236 173.167 14.3947 172.626 14.712C172.084 15.0293 171.66 15.482 171.352 16.07C171.044 16.6487 170.89 17.33 170.89 18.114C170.89 18.8887 171.044 19.57 171.352 20.158C171.66 20.7367 172.084 21.1847 172.626 21.502C173.167 21.8193 173.778 21.978 174.46 21.978C175.169 21.978 175.776 21.824 176.28 21.516C176.793 21.1987 177.185 20.746 177.456 20.158H178.982C178.618 21.0913 178.039 21.8147 177.246 22.328C176.452 22.832 175.524 23.084 174.46 23.084C173.554 23.084 172.728 22.874 171.982 22.454C171.244 22.0247 170.661 21.432 170.232 20.676C169.802 19.92 169.588 19.066 169.588 18.114ZM184.686 15.188C185.265 15.188 185.788 15.314 186.254 15.566C186.721 15.8087 187.085 16.1773 187.346 16.672C187.617 17.1667 187.752 17.7687 187.752 18.478V23H186.492V18.66C186.492 17.8947 186.301 17.3113 185.918 16.91C185.536 16.4993 185.013 16.294 184.35 16.294C183.678 16.294 183.142 16.504 182.74 16.924C182.348 17.344 182.152 17.9553 182.152 18.758V23H180.878V12.64H182.152V16.42C182.404 16.028 182.75 15.7247 183.188 15.51C183.636 15.2953 184.136 15.188 184.686 15.188ZM190.491 14.082C190.249 14.082 190.043 13.998 189.875 13.83C189.707 13.662 189.623 13.4567 189.623 13.214C189.623 12.9713 189.707 12.766 189.875 12.598C190.043 12.43 190.249 12.346 190.491 12.346C190.725 12.346 190.921 12.43 191.079 12.598C191.247 12.766 191.331 12.9713 191.331 13.214C191.331 13.4567 191.247 13.662 191.079 13.83C190.921 13.998 190.725 14.082 190.491 14.082ZM191.107 15.328V23H189.833V15.328H191.107ZM192.803 19.15C192.803 18.3567 192.961 17.666 193.279 17.078C193.596 16.4807 194.035 16.0187 194.595 15.692C195.164 15.3653 195.813 15.202 196.541 15.202C197.483 15.202 198.258 15.4307 198.865 15.888C199.481 16.3453 199.887 16.98 200.083 17.792H198.711C198.58 17.3253 198.323 16.9567 197.941 16.686C197.567 16.4153 197.101 16.28 196.541 16.28C195.813 16.28 195.225 16.532 194.777 17.036C194.329 17.5307 194.105 18.2353 194.105 19.15C194.105 20.074 194.329 20.788 194.777 21.292C195.225 21.796 195.813 22.048 196.541 22.048C197.101 22.048 197.567 21.9173 197.941 21.656C198.314 21.3947 198.571 21.0213 198.711 20.536H200.083C199.877 21.32 199.467 21.95 198.851 22.426C198.235 22.8927 197.465 23.126 196.541 23.126C195.813 23.126 195.164 22.9627 194.595 22.636C194.035 22.3093 193.596 21.8473 193.279 21.25C192.961 20.6527 192.803 19.9527 192.803 19.15ZM206.066 23L203.056 19.612V23H201.782V12.64H203.056V18.73L206.01 15.328H207.788L204.176 19.15L207.802 23H206.066ZM215.988 18.87C215.988 19.1127 215.974 19.3693 215.946 19.64H209.814C209.86 20.396 210.117 20.9887 210.584 21.418C211.06 21.838 211.634 22.048 212.306 22.048C212.856 22.048 213.314 21.922 213.678 21.67C214.051 21.4087 214.312 21.0633 214.462 20.634H215.834C215.628 21.3713 215.218 21.9733 214.602 22.44C213.986 22.8973 213.22 23.126 212.306 23.126C211.578 23.126 210.924 22.9627 210.346 22.636C209.776 22.3093 209.328 21.8473 209.002 21.25C208.675 20.6433 208.512 19.9433 208.512 19.15C208.512 18.3567 208.67 17.6613 208.988 17.064C209.305 16.4667 209.748 16.0093 210.318 15.692C210.896 15.3653 211.559 15.202 212.306 15.202C213.034 15.202 213.678 15.3607 214.238 15.678C214.798 15.9953 215.227 16.434 215.526 16.994C215.834 17.5447 215.988 18.17 215.988 18.87ZM214.672 18.604C214.672 18.1187 214.564 17.7033 214.35 17.358C214.135 17.0033 213.841 16.7373 213.468 16.56C213.104 16.3733 212.698 16.28 212.25 16.28C211.606 16.28 211.055 16.4853 210.598 16.896C210.15 17.3067 209.893 17.876 209.828 18.604H214.672ZM221.407 15.188C222.341 15.188 223.097 15.4727 223.675 16.042C224.254 16.602 224.543 17.414 224.543 18.478V23H223.283V18.66C223.283 17.8947 223.092 17.3113 222.709 16.91C222.327 16.4993 221.804 16.294 221.141 16.294C220.469 16.294 219.933 16.504 219.531 16.924C219.139 17.344 218.943 17.9553 218.943 18.758V23H217.669V15.328H218.943V16.42C219.195 16.028 219.536 15.7247 219.965 15.51C220.404 15.2953 220.885 15.188 221.407 15.188Z" fill="#3D3A3A"/>
<rect x="244.986" y="0.5" width="82" height="36" rx="18" fill="#F7F7F7"/>
<path d="M258.628 13.242L254.946 23H253.476L249.794 13.242H251.152L254.218 21.656L257.284 13.242H258.628ZM267.025 18.87C267.025 19.1127 267.011 19.3693 266.983 19.64H260.851C260.897 20.396 261.154 20.9887 261.621 21.418C262.097 21.838 262.671 22.048 263.343 22.048C263.893 22.048 264.351 21.922 264.715 21.67C265.088 21.4087 265.349 21.0633 265.499 20.634H266.871C266.665 21.3713 266.255 21.9733 265.639 22.44C265.023 22.8973 264.257 23.126 263.343 23.126C262.615 23.126 261.961 22.9627 261.383 22.636C260.813 22.3093 260.365 21.8473 260.039 21.25C259.712 20.6433 259.549 19.9433 259.549 19.15C259.549 18.3567 259.707 17.6613 260.025 17.064C260.342 16.4667 260.785 16.0093 261.355 15.692C261.933 15.3653 262.596 15.202 263.343 15.202C264.071 15.202 264.715 15.3607 265.275 15.678C265.835 15.9953 266.264 16.434 266.563 16.994C266.871 17.5447 267.025 18.17 267.025 18.87ZM265.709 18.604C265.709 18.1187 265.601 17.7033 265.387 17.358C265.172 17.0033 264.878 16.7373 264.505 16.56C264.141 16.3733 263.735 16.28 263.287 16.28C262.643 16.28 262.092 16.4853 261.635 16.896C261.187 17.3067 260.93 17.876 260.865 18.604H265.709ZM271.87 15.202C272.533 15.202 273.112 15.3467 273.606 15.636C274.11 15.9253 274.484 16.2893 274.726 16.728V15.328H276.014V23.168C276.014 23.868 275.865 24.4887 275.566 25.03C275.268 25.5807 274.838 26.01 274.278 26.318C273.728 26.626 273.084 26.78 272.346 26.78C271.338 26.78 270.498 26.542 269.826 26.066C269.154 25.59 268.758 24.9413 268.636 24.12H269.896C270.036 24.5867 270.326 24.96 270.764 25.24C271.203 25.5293 271.73 25.674 272.346 25.674C273.046 25.674 273.616 25.4547 274.054 25.016C274.502 24.5773 274.726 23.9613 274.726 23.168V21.558C274.474 22.006 274.101 22.3793 273.606 22.678C273.112 22.9767 272.533 23.126 271.87 23.126C271.189 23.126 270.568 22.958 270.008 22.622C269.458 22.286 269.024 21.8147 268.706 21.208C268.389 20.6013 268.23 19.9107 268.23 19.136C268.23 18.352 268.389 17.666 268.706 17.078C269.024 16.4807 269.458 16.0187 270.008 15.692C270.568 15.3653 271.189 15.202 271.87 15.202ZM274.726 19.15C274.726 18.5713 274.61 18.0673 274.376 17.638C274.143 17.2087 273.826 16.882 273.424 16.658C273.032 16.4247 272.598 16.308 272.122 16.308C271.646 16.308 271.212 16.42 270.82 16.644C270.428 16.868 270.116 17.1947 269.882 17.624C269.649 18.0533 269.532 18.5573 269.532 19.136C269.532 19.724 269.649 20.2373 269.882 20.676C270.116 21.1053 270.428 21.4367 270.82 21.67C271.212 21.894 271.646 22.006 272.122 22.006C272.598 22.006 273.032 21.894 273.424 21.67C273.826 21.4367 274.143 21.1053 274.376 20.676C274.61 20.2373 274.726 19.7287 274.726 19.15ZM285.167 18.87C285.167 19.1127 285.153 19.3693 285.125 19.64H278.993C279.04 20.396 279.297 20.9887 279.763 21.418C280.239 21.838 280.813 22.048 281.485 22.048C282.036 22.048 282.493 21.922 282.857 21.67C283.231 21.4087 283.492 21.0633 283.641 20.634H285.013C284.808 21.3713 284.397 21.9733 283.781 22.44C283.165 22.8973 282.4 23.126 281.485 23.126C280.757 23.126 280.104 22.9627 279.525 22.636C278.956 22.3093 278.508 21.8473 278.181 21.25C277.855 20.6433 277.691 19.9433 277.691 19.15C277.691 18.3567 277.85 17.6613 278.167 17.064C278.485 16.4667 278.928 16.0093 279.497 15.692C280.076 15.3653 280.739 15.202 281.485 15.202C282.213 15.202 282.857 15.3607 283.417 15.678C283.977 15.9953 284.407 16.434 284.705 16.994C285.013 17.5447 285.167 18.17 285.167 18.87ZM283.851 18.604C283.851 18.1187 283.744 17.7033 283.529 17.358C283.315 17.0033 283.021 16.7373 282.647 16.56C282.283 16.3733 281.877 16.28 281.429 16.28C280.785 16.28 280.235 16.4853 279.777 16.896C279.329 17.3067 279.073 17.876 279.007 18.604H283.851ZM288.403 16.378V20.9C288.403 21.2733 288.482 21.5393 288.641 21.698C288.8 21.8473 289.075 21.922 289.467 21.922H290.405V23H289.257C288.548 23 288.016 22.8367 287.661 22.51C287.306 22.1833 287.129 21.6467 287.129 20.9V16.378H286.135V15.328H287.129V13.396H288.403V15.328H290.405V16.378H288.403ZM291.472 19.136C291.472 18.352 291.631 17.666 291.948 17.078C292.266 16.4807 292.7 16.0187 293.25 15.692C293.81 15.3653 294.431 15.202 295.112 15.202C295.784 15.202 296.368 15.3467 296.862 15.636C297.357 15.9253 297.726 16.2893 297.968 16.728V15.328H299.256V23H297.968V21.572C297.716 22.02 297.338 22.3933 296.834 22.692C296.34 22.9813 295.761 23.126 295.098 23.126C294.417 23.126 293.801 22.958 293.25 22.622C292.7 22.286 292.266 21.8147 291.948 21.208C291.631 20.6013 291.472 19.9107 291.472 19.136ZM297.968 19.15C297.968 18.5713 297.852 18.0673 297.618 17.638C297.385 17.2087 297.068 16.882 296.666 16.658C296.274 16.4247 295.84 16.308 295.364 16.308C294.888 16.308 294.454 16.42 294.062 16.644C293.67 16.868 293.358 17.1947 293.124 17.624C292.891 18.0533 292.774 18.5573 292.774 19.136C292.774 19.724 292.891 20.2373 293.124 20.676C293.358 21.1053 293.67 21.4367 294.062 21.67C294.454 21.894 294.888 22.006 295.364 22.006C295.84 22.006 296.274 21.894 296.666 21.67C297.068 21.4367 297.385 21.1053 297.618 20.676C297.852 20.2373 297.968 19.7287 297.968 19.15ZM302.683 16.756C302.945 16.2987 303.327 15.9253 303.831 15.636C304.335 15.3467 304.909 15.202 305.553 15.202C306.244 15.202 306.865 15.3653 307.415 15.692C307.966 16.0187 308.4 16.4807 308.717 17.078C309.035 17.666 309.193 18.352 309.193 19.136C309.193 19.9107 309.035 20.6013 308.717 21.208C308.4 21.8147 307.961 22.286 307.401 22.622C306.851 22.958 306.235 23.126 305.553 23.126C304.891 23.126 304.307 22.9813 303.803 22.692C303.309 22.4027 302.935 22.034 302.683 21.586V23H301.409V12.64H302.683V16.756ZM307.891 19.136C307.891 18.5573 307.775 18.0533 307.541 17.624C307.308 17.1947 306.991 16.868 306.589 16.644C306.197 16.42 305.763 16.308 305.287 16.308C304.821 16.308 304.387 16.4247 303.985 16.658C303.593 16.882 303.276 17.2133 303.033 17.652C302.8 18.0813 302.683 18.5807 302.683 19.15C302.683 19.7287 302.8 20.2373 303.033 20.676C303.276 21.1053 303.593 21.4367 303.985 21.67C304.387 21.894 304.821 22.006 305.287 22.006C305.763 22.006 306.197 21.894 306.589 21.67C306.991 21.4367 307.308 21.1053 307.541 20.676C307.775 20.2373 307.891 19.724 307.891 19.136ZM312.144 12.64V23H310.87V12.64H312.144ZM321.316 18.87C321.316 19.1127 321.302 19.3693 321.274 19.64H315.142C315.188 20.396 315.445 20.9887 315.912 21.418C316.388 21.838 316.962 22.048 317.634 22.048C318.184 22.048 318.642 21.922 319.006 21.67C319.379 21.4087 319.64 21.0633 319.79 20.634H321.162C320.956 21.3713 320.546 21.9733 319.93 22.44C319.314 22.8973 318.548 23.126 317.634 23.126C316.906 23.126 316.252 22.9627 315.674 22.636C315.104 22.3093 314.656 21.8473 314.33 21.25C314.003 20.6433 313.84 19.9433 313.84 19.15C313.84 18.3567 313.998 17.6613 314.316 17.064C314.633 16.4667 315.076 16.0093 315.646 15.692C316.224 15.3653 316.887 15.202 317.634 15.202C318.362 15.202 319.006 15.3607 319.566 15.678C320.126 15.9953 320.555 16.434 320.854 16.994C321.162 17.5447 321.316 18.17 321.316 18.87ZM320 18.604C320 18.1187 319.892 17.7033 319.678 17.358C319.463 17.0033 319.169 16.7373 318.796 16.56C318.432 16.3733 318.026 16.28 317.578 16.28C316.934 16.28 316.383 16.4853 315.926 16.896C315.478 17.3067 315.221 17.876 315.156 18.604H320Z" fill="#3D3A3A"/>
</svg>
