<svg width="327" height="37" viewBox="0 0 327 37" fill="none" xmlns="http://www.w3.org/2000/svg">
<rect x="0.0429688" y="0.5" width="72" height="36" rx="18" fill="#F7F7F7"/>
<path d="M18.507 17.974C18.8616 18.03 19.1836 18.1747 19.473 18.408C19.7716 18.6413 20.005 18.9307 20.173 19.276C20.3503 19.6213 20.439 19.99 20.439 20.382C20.439 20.8767 20.313 21.3247 20.061 21.726C19.809 22.118 19.4403 22.4307 18.955 22.664C18.479 22.888 17.9143 23 17.261 23H13.621V13.242H17.121C17.7836 13.242 18.3483 13.354 18.815 13.578C19.2816 13.7927 19.6316 14.0867 19.865 14.46C20.0983 14.8333 20.215 15.2533 20.215 15.72C20.215 16.2987 20.0563 16.7793 19.739 17.162C19.431 17.5353 19.0203 17.806 18.507 17.974ZM14.895 17.456H17.037C17.6343 17.456 18.0963 17.316 18.423 17.036C18.7496 16.756 18.913 16.3687 18.913 15.874C18.913 15.3793 18.7496 14.992 18.423 14.712C18.0963 14.432 17.625 14.292 17.009 14.292H14.895V17.456ZM17.149 21.95C17.7836 21.95 18.2783 21.8007 18.633 21.502C18.9876 21.2033 19.165 20.788 19.165 20.256C19.165 19.7147 18.9783 19.29 18.605 18.982C18.2316 18.6647 17.7323 18.506 17.107 18.506H14.895V21.95H17.149ZM29.0109 15.328V23H27.7369V21.866C27.4942 22.258 27.1536 22.566 26.7149 22.79C26.2856 23.0047 25.8096 23.112 25.2869 23.112C24.6896 23.112 24.1529 22.9907 23.6769 22.748C23.2009 22.496 22.8229 22.1227 22.5429 21.628C22.2722 21.1333 22.1369 20.5313 22.1369 19.822V15.328H23.3969V19.654C23.3969 20.41 23.5882 20.9933 23.9709 21.404C24.3536 21.8053 24.8762 22.006 25.5389 22.006C26.2202 22.006 26.7569 21.796 27.1489 21.376C27.5409 20.956 27.7369 20.3447 27.7369 19.542V15.328H29.0109ZM32.436 16.574C32.66 16.1353 32.9773 15.7947 33.388 15.552C33.808 15.3093 34.3167 15.188 34.914 15.188V16.504H34.578C33.15 16.504 32.436 17.2787 32.436 18.828V23H31.162V15.328H32.436V16.574ZM39.5486 15.202C40.2113 15.202 40.79 15.3467 41.2846 15.636C41.7886 15.9253 42.162 16.2893 42.4046 16.728V15.328H43.6926V23.168C43.6926 23.868 43.5433 24.4887 43.2446 25.03C42.946 25.5807 42.5166 26.01 41.9566 26.318C41.406 26.626 40.762 26.78 40.0246 26.78C39.0166 26.78 38.1766 26.542 37.5046 26.066C36.8326 25.59 36.436 24.9413 36.3146 24.12H37.5746C37.7146 24.5867 38.004 24.96 38.4426 25.24C38.8813 25.5293 39.4086 25.674 40.0246 25.674C40.7246 25.674 41.294 25.4547 41.7326 25.016C42.1806 24.5773 42.4046 23.9613 42.4046 23.168V21.558C42.1526 22.006 41.7793 22.3793 41.2846 22.678C40.79 22.9767 40.2113 23.126 39.5486 23.126C38.8673 23.126 38.2466 22.958 37.6866 22.622C37.136 22.286 36.702 21.8147 36.3846 21.208C36.0673 20.6013 35.9086 19.9107 35.9086 19.136C35.9086 18.352 36.0673 17.666 36.3846 17.078C36.702 16.4807 37.136 16.0187 37.6866 15.692C38.2466 15.3653 38.8673 15.202 39.5486 15.202ZM42.4046 19.15C42.4046 18.5713 42.288 18.0673 42.0546 17.638C41.8213 17.2087 41.504 16.882 41.1026 16.658C40.7106 16.4247 40.2766 16.308 39.8006 16.308C39.3246 16.308 38.8906 16.42 38.4986 16.644C38.1066 16.868 37.794 17.1947 37.5606 17.624C37.3273 18.0533 37.2106 18.5573 37.2106 19.136C37.2106 19.724 37.3273 20.2373 37.5606 20.676C37.794 21.1053 38.1066 21.4367 38.4986 21.67C38.8906 21.894 39.3246 22.006 39.8006 22.006C40.2766 22.006 40.7106 21.894 41.1026 21.67C41.504 21.4367 41.8213 21.1053 42.0546 20.676C42.288 20.2373 42.4046 19.7287 42.4046 19.15ZM52.8456 18.87C52.8456 19.1127 52.8316 19.3693 52.8036 19.64H46.6716C46.7182 20.396 46.9749 20.9887 47.4416 21.418C47.9176 21.838 48.4916 22.048 49.1636 22.048C49.7142 22.048 50.1716 21.922 50.5356 21.67C50.9089 21.4087 51.1702 21.0633 51.3196 20.634H52.6916C52.4862 21.3713 52.0756 21.9733 51.4596 22.44C50.8436 22.8973 50.0782 23.126 49.1636 23.126C48.4356 23.126 47.7822 22.9627 47.2036 22.636C46.6342 22.3093 46.1862 21.8473 45.8596 21.25C45.5329 20.6433 45.3696 19.9433 45.3696 19.15C45.3696 18.3567 45.5282 17.6613 45.8456 17.064C46.1629 16.4667 46.6062 16.0093 47.1756 15.692C47.7542 15.3653 48.4169 15.202 49.1636 15.202C49.8916 15.202 50.5356 15.3607 51.0956 15.678C51.6556 15.9953 52.0849 16.434 52.3836 16.994C52.6916 17.5447 52.8456 18.17 52.8456 18.87ZM51.5296 18.604C51.5296 18.1187 51.4222 17.7033 51.2076 17.358C50.9929 17.0033 50.6989 16.7373 50.3256 16.56C49.9616 16.3733 49.5556 16.28 49.1076 16.28C48.4636 16.28 47.9129 16.4853 47.4556 16.896C47.0076 17.3067 46.7509 17.876 46.6856 18.604H51.5296ZM55.8012 16.574C56.0252 16.1353 56.3426 15.7947 56.7532 15.552C57.1732 15.3093 57.6819 15.188 58.2792 15.188V16.504H57.9432C56.5152 16.504 55.8012 17.2787 55.8012 18.828V23H54.5272V15.328H55.8012V16.574Z" fill="#3D3A3A"/>
<rect x="82.043" y="0.5" width="67" height="36" rx="18" fill="#F7F7F7"/>
<path d="M106.007 17.974C106.362 18.03 106.684 18.1747 106.973 18.408C107.272 18.6413 107.505 18.9307 107.673 19.276C107.85 19.6213 107.939 19.99 107.939 20.382C107.939 20.8767 107.813 21.3247 107.561 21.726C107.309 22.118 106.94 22.4307 106.455 22.664C105.979 22.888 105.414 23 104.761 23H101.121V13.242H104.621C105.284 13.242 105.848 13.354 106.315 13.578C106.782 13.7927 107.132 14.0867 107.365 14.46C107.598 14.8333 107.715 15.2533 107.715 15.72C107.715 16.2987 107.556 16.7793 107.239 17.162C106.931 17.5353 106.52 17.806 106.007 17.974ZM102.395 17.456H104.537C105.134 17.456 105.596 17.316 105.923 17.036C106.25 16.756 106.413 16.3687 106.413 15.874C106.413 15.3793 106.25 14.992 105.923 14.712C105.596 14.432 105.125 14.292 104.509 14.292H102.395V17.456ZM104.649 21.95C105.284 21.95 105.778 21.8007 106.133 21.502C106.488 21.2033 106.665 20.788 106.665 20.256C106.665 19.7147 106.478 19.29 106.105 18.982C105.732 18.6647 105.232 18.506 104.607 18.506H102.395V21.95H104.649ZM116.707 18.87C116.707 19.1127 116.693 19.3693 116.665 19.64H110.533C110.58 20.396 110.836 20.9887 111.303 21.418C111.779 21.838 112.353 22.048 113.025 22.048C113.576 22.048 114.033 21.922 114.397 21.67C114.77 21.4087 115.032 21.0633 115.181 20.634H116.553C116.348 21.3713 115.937 21.9733 115.321 22.44C114.705 22.8973 113.94 23.126 113.025 23.126C112.297 23.126 111.644 22.9627 111.065 22.636C110.496 22.3093 110.048 21.8473 109.721 21.25C109.394 20.6433 109.231 19.9433 109.231 19.15C109.231 18.3567 109.39 17.6613 109.707 17.064C110.024 16.4667 110.468 16.0093 111.037 15.692C111.616 15.3653 112.278 15.202 113.025 15.202C113.753 15.202 114.397 15.3607 114.957 15.678C115.517 15.9953 115.946 16.434 116.245 16.994C116.553 17.5447 116.707 18.17 116.707 18.87ZM115.391 18.604C115.391 18.1187 115.284 17.7033 115.069 17.358C114.854 17.0033 114.56 16.7373 114.187 16.56C113.823 16.3733 113.417 16.28 112.969 16.28C112.325 16.28 111.774 16.4853 111.317 16.896C110.869 17.3067 110.612 17.876 110.547 18.604H115.391ZM125.389 18.87C125.389 19.1127 125.375 19.3693 125.347 19.64H119.215C119.261 20.396 119.518 20.9887 119.985 21.418C120.461 21.838 121.035 22.048 121.707 22.048C122.257 22.048 122.715 21.922 123.079 21.67C123.452 21.4087 123.713 21.0633 123.863 20.634H125.235C125.029 21.3713 124.619 21.9733 124.003 22.44C123.387 22.8973 122.621 23.126 121.707 23.126C120.979 23.126 120.325 22.9627 119.747 22.636C119.177 22.3093 118.729 21.8473 118.403 21.25C118.076 20.6433 117.913 19.9433 117.913 19.15C117.913 18.3567 118.071 17.6613 118.389 17.064C118.706 16.4667 119.149 16.0093 119.719 15.692C120.297 15.3653 120.96 15.202 121.707 15.202C122.435 15.202 123.079 15.3607 123.639 15.678C124.199 15.9953 124.628 16.434 124.927 16.994C125.235 17.5447 125.389 18.17 125.389 18.87ZM124.073 18.604C124.073 18.1187 123.965 17.7033 123.751 17.358C123.536 17.0033 123.242 16.7373 122.869 16.56C122.505 16.3733 122.099 16.28 121.651 16.28C121.007 16.28 120.456 16.4853 119.999 16.896C119.551 17.3067 119.294 17.876 119.229 18.604H124.073ZM130.192 16.378H128.582V23H127.308V16.378H126.314V15.328H127.308V14.782C127.308 13.9233 127.528 13.298 127.966 12.906C128.414 12.5047 129.128 12.304 130.108 12.304V13.368C129.548 13.368 129.152 13.48 128.918 13.704C128.694 13.9187 128.582 14.278 128.582 14.782V15.328H130.192V16.378Z" fill="#3D3A3A"/>
<rect x="159.043" y="0.5" width="75" height="36" rx="18" fill="#F7F7F7"/>
<path d="M168.645 18.114C168.645 17.162 168.86 16.308 169.289 15.552C169.718 14.7867 170.302 14.1893 171.039 13.76C171.786 13.3307 172.612 13.116 173.517 13.116C174.581 13.116 175.51 13.3727 176.303 13.886C177.096 14.3993 177.675 15.1273 178.039 16.07H176.513C176.242 15.482 175.85 15.0293 175.337 14.712C174.833 14.3947 174.226 14.236 173.517 14.236C172.836 14.236 172.224 14.3947 171.683 14.712C171.142 15.0293 170.717 15.482 170.409 16.07C170.101 16.6487 169.947 17.33 169.947 18.114C169.947 18.8887 170.101 19.57 170.409 20.158C170.717 20.7367 171.142 21.1847 171.683 21.502C172.224 21.8193 172.836 21.978 173.517 21.978C174.226 21.978 174.833 21.824 175.337 21.516C175.85 21.1987 176.242 20.746 176.513 20.158H178.039C177.675 21.0913 177.096 21.8147 176.303 22.328C175.51 22.832 174.581 23.084 173.517 23.084C172.612 23.084 171.786 22.874 171.039 22.454C170.302 22.0247 169.718 21.432 169.289 20.676C168.86 19.92 168.645 19.066 168.645 18.114ZM183.743 15.188C184.322 15.188 184.845 15.314 185.311 15.566C185.778 15.8087 186.142 16.1773 186.403 16.672C186.674 17.1667 186.809 17.7687 186.809 18.478V23H185.549V18.66C185.549 17.8947 185.358 17.3113 184.975 16.91C184.593 16.4993 184.07 16.294 183.407 16.294C182.735 16.294 182.199 16.504 181.797 16.924C181.405 17.344 181.209 17.9553 181.209 18.758V23H179.935V12.64H181.209V16.42C181.461 16.028 181.807 15.7247 182.245 15.51C182.693 15.2953 183.193 15.188 183.743 15.188ZM189.549 14.082C189.306 14.082 189.101 13.998 188.933 13.83C188.765 13.662 188.681 13.4567 188.681 13.214C188.681 12.9713 188.765 12.766 188.933 12.598C189.101 12.43 189.306 12.346 189.549 12.346C189.782 12.346 189.978 12.43 190.137 12.598C190.305 12.766 190.389 12.9713 190.389 13.214C190.389 13.4567 190.305 13.662 190.137 13.83C189.978 13.998 189.782 14.082 189.549 14.082ZM190.165 15.328V23H188.891V15.328H190.165ZM191.86 19.15C191.86 18.3567 192.018 17.666 192.336 17.078C192.653 16.4807 193.092 16.0187 193.652 15.692C194.221 15.3653 194.87 15.202 195.598 15.202C196.54 15.202 197.315 15.4307 197.922 15.888C198.538 16.3453 198.944 16.98 199.14 17.792H197.768C197.637 17.3253 197.38 16.9567 196.998 16.686C196.624 16.4153 196.158 16.28 195.598 16.28C194.87 16.28 194.282 16.532 193.834 17.036C193.386 17.5307 193.162 18.2353 193.162 19.15C193.162 20.074 193.386 20.788 193.834 21.292C194.282 21.796 194.87 22.048 195.598 22.048C196.158 22.048 196.624 21.9173 196.998 21.656C197.371 21.3947 197.628 21.0213 197.768 20.536H199.14C198.934 21.32 198.524 21.95 197.908 22.426C197.292 22.8927 196.522 23.126 195.598 23.126C194.87 23.126 194.221 22.9627 193.652 22.636C193.092 22.3093 192.653 21.8473 192.336 21.25C192.018 20.6527 191.86 19.9527 191.86 19.15ZM205.124 23L202.114 19.612V23H200.84V12.64H202.114V18.73L205.068 15.328H206.846L203.234 19.15L206.86 23H205.124ZM215.045 18.87C215.045 19.1127 215.031 19.3693 215.003 19.64H208.871C208.917 20.396 209.174 20.9887 209.641 21.418C210.117 21.838 210.691 22.048 211.363 22.048C211.913 22.048 212.371 21.922 212.735 21.67C213.108 21.4087 213.369 21.0633 213.519 20.634H214.891C214.685 21.3713 214.275 21.9733 213.659 22.44C213.043 22.8973 212.277 23.126 211.363 23.126C210.635 23.126 209.981 22.9627 209.403 22.636C208.833 22.3093 208.385 21.8473 208.059 21.25C207.732 20.6433 207.569 19.9433 207.569 19.15C207.569 18.3567 207.727 17.6613 208.045 17.064C208.362 16.4667 208.805 16.0093 209.375 15.692C209.953 15.3653 210.616 15.202 211.363 15.202C212.091 15.202 212.735 15.3607 213.295 15.678C213.855 15.9953 214.284 16.434 214.583 16.994C214.891 17.5447 215.045 18.17 215.045 18.87ZM213.729 18.604C213.729 18.1187 213.621 17.7033 213.407 17.358C213.192 17.0033 212.898 16.7373 212.525 16.56C212.161 16.3733 211.755 16.28 211.307 16.28C210.663 16.28 210.112 16.4853 209.655 16.896C209.207 17.3067 208.95 17.876 208.885 18.604H213.729ZM220.464 15.188C221.398 15.188 222.154 15.4727 222.732 16.042C223.311 16.602 223.6 17.414 223.6 18.478V23H222.34V18.66C222.34 17.8947 222.149 17.3113 221.766 16.91C221.384 16.4993 220.861 16.294 220.198 16.294C219.526 16.294 218.99 16.504 218.588 16.924C218.196 17.344 218 17.9553 218 18.758V23H216.726V15.328H218V16.42C218.252 16.028 218.593 15.7247 219.022 15.51C219.461 15.2953 219.942 15.188 220.464 15.188Z" fill="#3D3A3A"/>
<rect x="244.043" y="0.5" width="82" height="36" rx="18" fill="#F7F7F7"/>
<path d="M257.685 13.242L254.003 23H252.533L248.851 13.242H250.209L253.275 21.656L256.341 13.242H257.685ZM266.082 18.87C266.082 19.1127 266.068 19.3693 266.04 19.64H259.908C259.955 20.396 260.211 20.9887 260.678 21.418C261.154 21.838 261.728 22.048 262.4 22.048C262.951 22.048 263.408 21.922 263.772 21.67C264.145 21.4087 264.407 21.0633 264.556 20.634H265.928C265.723 21.3713 265.312 21.9733 264.696 22.44C264.08 22.8973 263.315 23.126 262.4 23.126C261.672 23.126 261.019 22.9627 260.44 22.636C259.871 22.3093 259.423 21.8473 259.096 21.25C258.769 20.6433 258.606 19.9433 258.606 19.15C258.606 18.3567 258.765 17.6613 259.082 17.064C259.399 16.4667 259.843 16.0093 260.412 15.692C260.991 15.3653 261.653 15.202 262.4 15.202C263.128 15.202 263.772 15.3607 264.332 15.678C264.892 15.9953 265.321 16.434 265.62 16.994C265.928 17.5447 266.082 18.17 266.082 18.87ZM264.766 18.604C264.766 18.1187 264.659 17.7033 264.444 17.358C264.229 17.0033 263.935 16.7373 263.562 16.56C263.198 16.3733 262.792 16.28 262.344 16.28C261.7 16.28 261.149 16.4853 260.692 16.896C260.244 17.3067 259.987 17.876 259.922 18.604H264.766ZM270.928 15.202C271.59 15.202 272.169 15.3467 272.664 15.636C273.168 15.9253 273.541 16.2893 273.784 16.728V15.328H275.072V23.168C275.072 23.868 274.922 24.4887 274.624 25.03C274.325 25.5807 273.896 26.01 273.336 26.318C272.785 26.626 272.141 26.78 271.404 26.78C270.396 26.78 269.556 26.542 268.884 26.066C268.212 25.59 267.815 24.9413 267.694 24.12H268.954C269.094 24.5867 269.383 24.96 269.822 25.24C270.26 25.5293 270.788 25.674 271.404 25.674C272.104 25.674 272.673 25.4547 273.112 25.016C273.56 24.5773 273.784 23.9613 273.784 23.168V21.558C273.532 22.006 273.158 22.3793 272.664 22.678C272.169 22.9767 271.59 23.126 270.928 23.126C270.246 23.126 269.626 22.958 269.066 22.622C268.515 22.286 268.081 21.8147 267.764 21.208C267.446 20.6013 267.288 19.9107 267.288 19.136C267.288 18.352 267.446 17.666 267.764 17.078C268.081 16.4807 268.515 16.0187 269.066 15.692C269.626 15.3653 270.246 15.202 270.928 15.202ZM273.784 19.15C273.784 18.5713 273.667 18.0673 273.434 17.638C273.2 17.2087 272.883 16.882 272.482 16.658C272.09 16.4247 271.656 16.308 271.18 16.308C270.704 16.308 270.27 16.42 269.878 16.644C269.486 16.868 269.173 17.1947 268.94 17.624C268.706 18.0533 268.59 18.5573 268.59 19.136C268.59 19.724 268.706 20.2373 268.94 20.676C269.173 21.1053 269.486 21.4367 269.878 21.67C270.27 21.894 270.704 22.006 271.18 22.006C271.656 22.006 272.09 21.894 272.482 21.67C272.883 21.4367 273.2 21.1053 273.434 20.676C273.667 20.2373 273.784 19.7287 273.784 19.15ZM284.224 18.87C284.224 19.1127 284.21 19.3693 284.182 19.64H278.05C278.097 20.396 278.354 20.9887 278.82 21.418C279.296 21.838 279.87 22.048 280.542 22.048C281.093 22.048 281.55 21.922 281.914 21.67C282.288 21.4087 282.549 21.0633 282.698 20.634H284.07C283.865 21.3713 283.454 21.9733 282.838 22.44C282.222 22.8973 281.457 23.126 280.542 23.126C279.814 23.126 279.161 22.9627 278.582 22.636C278.013 22.3093 277.565 21.8473 277.238 21.25C276.912 20.6433 276.748 19.9433 276.748 19.15C276.748 18.3567 276.907 17.6613 277.224 17.064C277.542 16.4667 277.985 16.0093 278.554 15.692C279.133 15.3653 279.796 15.202 280.542 15.202C281.27 15.202 281.914 15.3607 282.474 15.678C283.034 15.9953 283.464 16.434 283.762 16.994C284.07 17.5447 284.224 18.17 284.224 18.87ZM282.908 18.604C282.908 18.1187 282.801 17.7033 282.586 17.358C282.372 17.0033 282.078 16.7373 281.704 16.56C281.34 16.3733 280.934 16.28 280.486 16.28C279.842 16.28 279.292 16.4853 278.834 16.896C278.386 17.3067 278.13 17.876 278.064 18.604H282.908ZM287.46 16.378V20.9C287.46 21.2733 287.539 21.5393 287.698 21.698C287.857 21.8473 288.132 21.922 288.524 21.922H289.462V23H288.314C287.605 23 287.073 22.8367 286.718 22.51C286.363 22.1833 286.186 21.6467 286.186 20.9V16.378H285.192V15.328H286.186V13.396H287.46V15.328H289.462V16.378H287.46ZM290.53 19.136C290.53 18.352 290.688 17.666 291.006 17.078C291.323 16.4807 291.757 16.0187 292.308 15.692C292.868 15.3653 293.488 15.202 294.17 15.202C294.842 15.202 295.425 15.3467 295.92 15.636C296.414 15.9253 296.783 16.2893 297.026 16.728V15.328H298.314V23H297.026V21.572C296.774 22.02 296.396 22.3933 295.892 22.692C295.397 22.9813 294.818 23.126 294.156 23.126C293.474 23.126 292.858 22.958 292.308 22.622C291.757 22.286 291.323 21.8147 291.006 21.208C290.688 20.6013 290.53 19.9107 290.53 19.136ZM297.026 19.15C297.026 18.5713 296.909 18.0673 296.676 17.638C296.442 17.2087 296.125 16.882 295.724 16.658C295.332 16.4247 294.898 16.308 294.422 16.308C293.946 16.308 293.512 16.42 293.12 16.644C292.728 16.868 292.415 17.1947 292.182 17.624C291.948 18.0533 291.832 18.5573 291.832 19.136C291.832 19.724 291.948 20.2373 292.182 20.676C292.415 21.1053 292.728 21.4367 293.12 21.67C293.512 21.894 293.946 22.006 294.422 22.006C294.898 22.006 295.332 21.894 295.724 21.67C296.125 21.4367 296.442 21.1053 296.676 20.676C296.909 20.2373 297.026 19.7287 297.026 19.15ZM301.741 16.756C302.002 16.2987 302.385 15.9253 302.889 15.636C303.393 15.3467 303.967 15.202 304.611 15.202C305.301 15.202 305.922 15.3653 306.473 15.692C307.023 16.0187 307.457 16.4807 307.775 17.078C308.092 17.666 308.251 18.352 308.251 19.136C308.251 19.9107 308.092 20.6013 307.775 21.208C307.457 21.8147 307.019 22.286 306.459 22.622C305.908 22.958 305.292 23.126 304.611 23.126C303.948 23.126 303.365 22.9813 302.861 22.692C302.366 22.4027 301.993 22.034 301.741 21.586V23H300.467V12.64H301.741V16.756ZM306.949 19.136C306.949 18.5573 306.832 18.0533 306.599 17.624C306.365 17.1947 306.048 16.868 305.647 16.644C305.255 16.42 304.821 16.308 304.345 16.308C303.878 16.308 303.444 16.4247 303.043 16.658C302.651 16.882 302.333 17.2133 302.091 17.652C301.857 18.0813 301.741 18.5807 301.741 19.15C301.741 19.7287 301.857 20.2373 302.091 20.676C302.333 21.1053 302.651 21.4367 303.043 21.67C303.444 21.894 303.878 22.006 304.345 22.006C304.821 22.006 305.255 21.894 305.647 21.67C306.048 21.4367 306.365 21.1053 306.599 20.676C306.832 20.2373 306.949 19.724 306.949 19.136ZM311.202 12.64V23H309.928V12.64H311.202ZM320.373 18.87C320.373 19.1127 320.359 19.3693 320.331 19.64H314.199C314.246 20.396 314.502 20.9887 314.969 21.418C315.445 21.838 316.019 22.048 316.691 22.048C317.242 22.048 317.699 21.922 318.063 21.67C318.436 21.4087 318.698 21.0633 318.847 20.634H320.219C320.014 21.3713 319.603 21.9733 318.987 22.44C318.371 22.8973 317.606 23.126 316.691 23.126C315.963 23.126 315.31 22.9627 314.731 22.636C314.162 22.3093 313.714 21.8473 313.387 21.25C313.06 20.6433 312.897 19.9433 312.897 19.15C312.897 18.3567 313.056 17.6613 313.373 17.064C313.69 16.4667 314.134 16.0093 314.703 15.692C315.282 15.3653 315.944 15.202 316.691 15.202C317.419 15.202 318.063 15.3607 318.623 15.678C319.183 15.9953 319.612 16.434 319.911 16.994C320.219 17.5447 320.373 18.17 320.373 18.87ZM319.057 18.604C319.057 18.1187 318.95 17.7033 318.735 17.358C318.52 17.0033 318.226 16.7373 317.853 16.56C317.489 16.3733 317.083 16.28 316.635 16.28C315.991 16.28 315.44 16.4853 314.983 16.896C314.535 17.3067 314.278 17.876 314.213 18.604H319.057Z" fill="#3D3A3A"/>
</svg>
