<svg width="327" height="37" viewBox="0 0 327 37" fill="none" xmlns="http://www.w3.org/2000/svg">
<rect x="0.985718" y="0.5" width="72" height="36" rx="18" fill="#F7F7F7"/>
<path d="M22.0877 16.098C22.0877 16.91 21.8077 17.5867 21.2477 18.128C20.6971 18.66 19.8524 18.926 18.7137 18.926H16.8377V23H15.5637V13.242H18.7137C19.8151 13.242 20.6504 13.508 21.2197 14.04C21.7984 14.572 22.0877 15.258 22.0877 16.098ZM18.7137 17.876C19.4231 17.876 19.9457 17.722 20.2817 17.414C20.6177 17.106 20.7857 16.6673 20.7857 16.098C20.7857 14.894 20.0951 14.292 18.7137 14.292H16.8377V17.876H18.7137ZM23.1951 19.136C23.1951 18.352 23.3538 17.666 23.6711 17.078C23.9885 16.4807 24.4225 16.0187 24.9731 15.692C25.5331 15.3653 26.1538 15.202 26.8351 15.202C27.5071 15.202 28.0905 15.3467 28.5851 15.636C29.0798 15.9253 29.4485 16.2893 29.6911 16.728V15.328H30.9791V23H29.6911V21.572C29.4391 22.02 29.0611 22.3933 28.5571 22.692C28.0625 22.9813 27.4838 23.126 26.8211 23.126C26.1398 23.126 25.5238 22.958 24.9731 22.622C24.4225 22.286 23.9885 21.8147 23.6711 21.208C23.3538 20.6013 23.1951 19.9107 23.1951 19.136ZM29.6911 19.15C29.6911 18.5713 29.5745 18.0673 29.3411 17.638C29.1078 17.2087 28.7905 16.882 28.3891 16.658C27.9971 16.4247 27.5631 16.308 27.0871 16.308C26.6111 16.308 26.1771 16.42 25.7851 16.644C25.3931 16.868 25.0805 17.1947 24.8471 17.624C24.6138 18.0533 24.4971 18.5573 24.4971 19.136C24.4971 19.724 24.6138 20.2373 24.8471 20.676C25.0805 21.1053 25.3931 21.4367 25.7851 21.67C26.1771 21.894 26.6111 22.006 27.0871 22.006C27.5631 22.006 27.9971 21.894 28.3891 21.67C28.7905 21.4367 29.1078 21.1053 29.3411 20.676C29.5745 20.2373 29.6911 19.7287 29.6911 19.15ZM34.6861 16.378V20.9C34.6861 21.2733 34.7654 21.5393 34.9241 21.698C35.0827 21.8473 35.3581 21.922 35.7501 21.922H36.6881V23H35.5401C34.8307 23 34.2987 22.8367 33.9441 22.51C33.5894 22.1833 33.4121 21.6467 33.4121 20.9V16.378H32.4181V15.328H33.4121V13.396H34.6861V15.328H36.6881V16.378H34.6861ZM40.9477 23.126C40.3597 23.126 39.8324 23.028 39.3657 22.832C38.899 22.6267 38.5304 22.3467 38.2597 21.992C37.989 21.628 37.8397 21.2127 37.8117 20.746H39.1277C39.165 21.1287 39.3424 21.4413 39.6597 21.684C39.9864 21.9267 40.411 22.048 40.9337 22.048C41.419 22.048 41.8017 21.9407 42.0817 21.726C42.3617 21.5113 42.5017 21.2407 42.5017 20.914C42.5017 20.578 42.3524 20.3307 42.0537 20.172C41.755 20.004 41.293 19.8407 40.6677 19.682C40.0984 19.5327 39.6317 19.3833 39.2677 19.234C38.913 19.0753 38.605 18.8467 38.3437 18.548C38.0917 18.24 37.9657 17.8387 37.9657 17.344C37.9657 16.952 38.0824 16.5927 38.3157 16.266C38.549 15.9393 38.8804 15.6827 39.3097 15.496C39.739 15.3 40.229 15.202 40.7797 15.202C41.629 15.202 42.315 15.4167 42.8377 15.846C43.3604 16.2753 43.6404 16.8633 43.6777 17.61H42.4037C42.3757 17.2087 42.2124 16.8867 41.9137 16.644C41.6244 16.4013 41.2324 16.28 40.7377 16.28C40.2804 16.28 39.9164 16.378 39.6457 16.574C39.375 16.77 39.2397 17.0267 39.2397 17.344C39.2397 17.596 39.319 17.806 39.4777 17.974C39.6457 18.1327 39.851 18.2633 40.0937 18.366C40.3457 18.4593 40.691 18.5667 41.1297 18.688C41.6804 18.8373 42.1284 18.9867 42.4737 19.136C42.819 19.276 43.113 19.4907 43.3557 19.78C43.6077 20.0693 43.7384 20.4473 43.7477 20.914C43.7477 21.334 43.631 21.712 43.3977 22.048C43.1644 22.384 42.833 22.65 42.4037 22.846C41.9837 23.0327 41.4984 23.126 40.9477 23.126ZM47.1001 16.378V20.9C47.1001 21.2733 47.1795 21.5393 47.3381 21.698C47.4968 21.8473 47.7721 21.922 48.1641 21.922H49.1021V23H47.9541C47.2448 23 46.7128 22.8367 46.3581 22.51C46.0035 22.1833 45.8261 21.6467 45.8261 20.9V16.378H44.8321V15.328H45.8261V13.396H47.1001V15.328H49.1021V16.378H47.1001ZM50.1697 19.136C50.1697 18.352 50.3284 17.666 50.6457 17.078C50.9631 16.4807 51.3971 16.0187 51.9477 15.692C52.5077 15.3653 53.1284 15.202 53.8097 15.202C54.4817 15.202 55.0651 15.3467 55.5597 15.636C56.0544 15.9253 56.4231 16.2893 56.6657 16.728V15.328H57.9537V23H56.6657V21.572C56.4137 22.02 56.0357 22.3933 55.5317 22.692C55.0371 22.9813 54.4584 23.126 53.7957 23.126C53.1144 23.126 52.4984 22.958 51.9477 22.622C51.3971 22.286 50.9631 21.8147 50.6457 21.208C50.3284 20.6013 50.1697 19.9107 50.1697 19.136ZM56.6657 19.15C56.6657 18.5713 56.5491 18.0673 56.3157 17.638C56.0824 17.2087 55.7651 16.882 55.3637 16.658C54.9717 16.4247 54.5377 16.308 54.0617 16.308C53.5857 16.308 53.1517 16.42 52.7597 16.644C52.3677 16.868 52.0551 17.1947 51.8217 17.624C51.5884 18.0533 51.4717 18.5573 51.4717 19.136C51.4717 19.724 51.5884 20.2373 51.8217 20.676C52.0551 21.1053 52.3677 21.4367 52.7597 21.67C53.1517 21.894 53.5857 22.006 54.0617 22.006C54.5377 22.006 54.9717 21.894 55.3637 21.67C55.7651 21.4367 56.0824 21.1053 56.3157 20.676C56.5491 20.2373 56.6657 19.7287 56.6657 19.15Z" fill="#3D3A3A"/>
<rect x="82.9857" y="0.5" width="67" height="36" rx="18" fill="#F7F7F7"/>
<path d="M106.95 17.974C107.304 18.03 107.626 18.1747 107.916 18.408C108.214 18.6413 108.448 18.9307 108.616 19.276C108.793 19.6213 108.882 19.99 108.882 20.382C108.882 20.8767 108.756 21.3247 108.504 21.726C108.252 22.118 107.883 22.4307 107.398 22.664C106.922 22.888 106.357 23 105.704 23H102.064V13.242H105.564C106.226 13.242 106.791 13.354 107.258 13.578C107.724 13.7927 108.074 14.0867 108.308 14.46C108.541 14.8333 108.658 15.2533 108.658 15.72C108.658 16.2987 108.499 16.7793 108.182 17.162C107.874 17.5353 107.463 17.806 106.95 17.974ZM103.338 17.456H105.48C106.077 17.456 106.539 17.316 106.866 17.036C107.192 16.756 107.356 16.3687 107.356 15.874C107.356 15.3793 107.192 14.992 106.866 14.712C106.539 14.432 106.068 14.292 105.452 14.292H103.338V17.456ZM105.592 21.95C106.226 21.95 106.721 21.8007 107.076 21.502C107.43 21.2033 107.608 20.788 107.608 20.256C107.608 19.7147 107.421 19.29 107.048 18.982C106.674 18.6647 106.175 18.506 105.55 18.506H103.338V21.95H105.592ZM117.65 18.87C117.65 19.1127 117.636 19.3693 117.608 19.64H111.476C111.522 20.396 111.779 20.9887 112.246 21.418C112.722 21.838 113.296 22.048 113.968 22.048C114.518 22.048 114.976 21.922 115.34 21.67C115.713 21.4087 115.974 21.0633 116.124 20.634H117.496C117.29 21.3713 116.88 21.9733 116.264 22.44C115.648 22.8973 114.882 23.126 113.968 23.126C113.24 23.126 112.586 22.9627 112.008 22.636C111.438 22.3093 110.99 21.8473 110.664 21.25C110.337 20.6433 110.174 19.9433 110.174 19.15C110.174 18.3567 110.332 17.6613 110.65 17.064C110.967 16.4667 111.41 16.0093 111.98 15.692C112.558 15.3653 113.221 15.202 113.968 15.202C114.696 15.202 115.34 15.3607 115.9 15.678C116.46 15.9953 116.889 16.434 117.188 16.994C117.496 17.5447 117.65 18.17 117.65 18.87ZM116.334 18.604C116.334 18.1187 116.226 17.7033 116.012 17.358C115.797 17.0033 115.503 16.7373 115.13 16.56C114.766 16.3733 114.36 16.28 113.912 16.28C113.268 16.28 112.717 16.4853 112.26 16.896C111.812 17.3067 111.555 17.876 111.49 18.604H116.334ZM126.331 18.87C126.331 19.1127 126.317 19.3693 126.289 19.64H120.157C120.204 20.396 120.461 20.9887 120.927 21.418C121.403 21.838 121.977 22.048 122.649 22.048C123.2 22.048 123.657 21.922 124.021 21.67C124.395 21.4087 124.656 21.0633 124.805 20.634H126.177C125.972 21.3713 125.561 21.9733 124.945 22.44C124.329 22.8973 123.564 23.126 122.649 23.126C121.921 23.126 121.268 22.9627 120.689 22.636C120.12 22.3093 119.672 21.8473 119.345 21.25C119.019 20.6433 118.855 19.9433 118.855 19.15C118.855 18.3567 119.014 17.6613 119.331 17.064C119.649 16.4667 120.092 16.0093 120.661 15.692C121.24 15.3653 121.903 15.202 122.649 15.202C123.377 15.202 124.021 15.3607 124.581 15.678C125.141 15.9953 125.571 16.434 125.869 16.994C126.177 17.5447 126.331 18.17 126.331 18.87ZM125.015 18.604C125.015 18.1187 124.908 17.7033 124.693 17.358C124.479 17.0033 124.185 16.7373 123.811 16.56C123.447 16.3733 123.041 16.28 122.593 16.28C121.949 16.28 121.399 16.4853 120.941 16.896C120.493 17.3067 120.237 17.876 120.171 18.604H125.015ZM131.135 16.378H129.525V23H128.251V16.378H127.257V15.328H128.251V14.782C128.251 13.9233 128.47 13.298 128.909 12.906C129.357 12.5047 130.071 12.304 131.051 12.304V13.368C130.491 13.368 130.094 13.48 129.861 13.704C129.637 13.9187 129.525 14.278 129.525 14.782V15.328H131.135V16.378Z" fill="#3D3A3A"/>
<rect x="159.986" y="0.5" width="75" height="36" rx="18" fill="#F7F7F7"/>
<path d="M169.588 18.114C169.588 17.162 169.802 16.308 170.232 15.552C170.661 14.7867 171.244 14.1893 171.982 13.76C172.728 13.3307 173.554 13.116 174.46 13.116C175.524 13.116 176.452 13.3727 177.246 13.886C178.039 14.3993 178.618 15.1273 178.982 16.07H177.456C177.185 15.482 176.793 15.0293 176.28 14.712C175.776 14.3947 175.169 14.236 174.46 14.236C173.778 14.236 173.167 14.3947 172.626 14.712C172.084 15.0293 171.66 15.482 171.352 16.07C171.044 16.6487 170.89 17.33 170.89 18.114C170.89 18.8887 171.044 19.57 171.352 20.158C171.66 20.7367 172.084 21.1847 172.626 21.502C173.167 21.8193 173.778 21.978 174.46 21.978C175.169 21.978 175.776 21.824 176.28 21.516C176.793 21.1987 177.185 20.746 177.456 20.158H178.982C178.618 21.0913 178.039 21.8147 177.246 22.328C176.452 22.832 175.524 23.084 174.46 23.084C173.554 23.084 172.728 22.874 171.982 22.454C171.244 22.0247 170.661 21.432 170.232 20.676C169.802 19.92 169.588 19.066 169.588 18.114ZM184.686 15.188C185.265 15.188 185.788 15.314 186.254 15.566C186.721 15.8087 187.085 16.1773 187.346 16.672C187.617 17.1667 187.752 17.7687 187.752 18.478V23H186.492V18.66C186.492 17.8947 186.301 17.3113 185.918 16.91C185.536 16.4993 185.013 16.294 184.35 16.294C183.678 16.294 183.142 16.504 182.74 16.924C182.348 17.344 182.152 17.9553 182.152 18.758V23H180.878V12.64H182.152V16.42C182.404 16.028 182.75 15.7247 183.188 15.51C183.636 15.2953 184.136 15.188 184.686 15.188ZM190.491 14.082C190.249 14.082 190.043 13.998 189.875 13.83C189.707 13.662 189.623 13.4567 189.623 13.214C189.623 12.9713 189.707 12.766 189.875 12.598C190.043 12.43 190.249 12.346 190.491 12.346C190.725 12.346 190.921 12.43 191.079 12.598C191.247 12.766 191.331 12.9713 191.331 13.214C191.331 13.4567 191.247 13.662 191.079 13.83C190.921 13.998 190.725 14.082 190.491 14.082ZM191.107 15.328V23H189.833V15.328H191.107ZM192.803 19.15C192.803 18.3567 192.961 17.666 193.279 17.078C193.596 16.4807 194.035 16.0187 194.595 15.692C195.164 15.3653 195.813 15.202 196.541 15.202C197.483 15.202 198.258 15.4307 198.865 15.888C199.481 16.3453 199.887 16.98 200.083 17.792H198.711C198.58 17.3253 198.323 16.9567 197.941 16.686C197.567 16.4153 197.101 16.28 196.541 16.28C195.813 16.28 195.225 16.532 194.777 17.036C194.329 17.5307 194.105 18.2353 194.105 19.15C194.105 20.074 194.329 20.788 194.777 21.292C195.225 21.796 195.813 22.048 196.541 22.048C197.101 22.048 197.567 21.9173 197.941 21.656C198.314 21.3947 198.571 21.0213 198.711 20.536H200.083C199.877 21.32 199.467 21.95 198.851 22.426C198.235 22.8927 197.465 23.126 196.541 23.126C195.813 23.126 195.164 22.9627 194.595 22.636C194.035 22.3093 193.596 21.8473 193.279 21.25C192.961 20.6527 192.803 19.9527 192.803 19.15ZM206.066 23L203.056 19.612V23H201.782V12.64H203.056V18.73L206.01 15.328H207.788L204.176 19.15L207.802 23H206.066ZM215.988 18.87C215.988 19.1127 215.974 19.3693 215.946 19.64H209.814C209.86 20.396 210.117 20.9887 210.584 21.418C211.06 21.838 211.634 22.048 212.306 22.048C212.856 22.048 213.314 21.922 213.678 21.67C214.051 21.4087 214.312 21.0633 214.462 20.634H215.834C215.628 21.3713 215.218 21.9733 214.602 22.44C213.986 22.8973 213.22 23.126 212.306 23.126C211.578 23.126 210.924 22.9627 210.346 22.636C209.776 22.3093 209.328 21.8473 209.002 21.25C208.675 20.6433 208.512 19.9433 208.512 19.15C208.512 18.3567 208.67 17.6613 208.988 17.064C209.305 16.4667 209.748 16.0093 210.318 15.692C210.896 15.3653 211.559 15.202 212.306 15.202C213.034 15.202 213.678 15.3607 214.238 15.678C214.798 15.9953 215.227 16.434 215.526 16.994C215.834 17.5447 215.988 18.17 215.988 18.87ZM214.672 18.604C214.672 18.1187 214.564 17.7033 214.35 17.358C214.135 17.0033 213.841 16.7373 213.468 16.56C213.104 16.3733 212.698 16.28 212.25 16.28C211.606 16.28 211.055 16.4853 210.598 16.896C210.15 17.3067 209.893 17.876 209.828 18.604H214.672ZM221.407 15.188C222.341 15.188 223.097 15.4727 223.675 16.042C224.254 16.602 224.543 17.414 224.543 18.478V23H223.283V18.66C223.283 17.8947 223.092 17.3113 222.709 16.91C222.327 16.4993 221.804 16.294 221.141 16.294C220.469 16.294 219.933 16.504 219.531 16.924C219.139 17.344 218.943 17.9553 218.943 18.758V23H217.669V15.328H218.943V16.42C219.195 16.028 219.536 15.7247 219.965 15.51C220.404 15.2953 220.885 15.188 221.407 15.188Z" fill="#3D3A3A"/>
<rect x="244.986" y="0.5" width="82" height="36" rx="18" fill="#F7F7F7"/>
<path d="M258.628 13.242L254.946 23H253.476L249.794 13.242H251.152L254.218 21.656L257.284 13.242H258.628ZM267.025 18.87C267.025 19.1127 267.011 19.3693 266.983 19.64H260.851C260.897 20.396 261.154 20.9887 261.621 21.418C262.097 21.838 262.671 22.048 263.343 22.048C263.893 22.048 264.351 21.922 264.715 21.67C265.088 21.4087 265.349 21.0633 265.499 20.634H266.871C266.665 21.3713 266.255 21.9733 265.639 22.44C265.023 22.8973 264.257 23.126 263.343 23.126C262.615 23.126 261.961 22.9627 261.383 22.636C260.813 22.3093 260.365 21.8473 260.039 21.25C259.712 20.6433 259.549 19.9433 259.549 19.15C259.549 18.3567 259.707 17.6613 260.025 17.064C260.342 16.4667 260.785 16.0093 261.355 15.692C261.933 15.3653 262.596 15.202 263.343 15.202C264.071 15.202 264.715 15.3607 265.275 15.678C265.835 15.9953 266.264 16.434 266.563 16.994C266.871 17.5447 267.025 18.17 267.025 18.87ZM265.709 18.604C265.709 18.1187 265.601 17.7033 265.387 17.358C265.172 17.0033 264.878 16.7373 264.505 16.56C264.141 16.3733 263.735 16.28 263.287 16.28C262.643 16.28 262.092 16.4853 261.635 16.896C261.187 17.3067 260.93 17.876 260.865 18.604H265.709ZM271.87 15.202C272.533 15.202 273.112 15.3467 273.606 15.636C274.11 15.9253 274.484 16.2893 274.726 16.728V15.328H276.014V23.168C276.014 23.868 275.865 24.4887 275.566 25.03C275.268 25.5807 274.838 26.01 274.278 26.318C273.728 26.626 273.084 26.78 272.346 26.78C271.338 26.78 270.498 26.542 269.826 26.066C269.154 25.59 268.758 24.9413 268.636 24.12H269.896C270.036 24.5867 270.326 24.96 270.764 25.24C271.203 25.5293 271.73 25.674 272.346 25.674C273.046 25.674 273.616 25.4547 274.054 25.016C274.502 24.5773 274.726 23.9613 274.726 23.168V21.558C274.474 22.006 274.101 22.3793 273.606 22.678C273.112 22.9767 272.533 23.126 271.87 23.126C271.189 23.126 270.568 22.958 270.008 22.622C269.458 22.286 269.024 21.8147 268.706 21.208C268.389 20.6013 268.23 19.9107 268.23 19.136C268.23 18.352 268.389 17.666 268.706 17.078C269.024 16.4807 269.458 16.0187 270.008 15.692C270.568 15.3653 271.189 15.202 271.87 15.202ZM274.726 19.15C274.726 18.5713 274.61 18.0673 274.376 17.638C274.143 17.2087 273.826 16.882 273.424 16.658C273.032 16.4247 272.598 16.308 272.122 16.308C271.646 16.308 271.212 16.42 270.82 16.644C270.428 16.868 270.116 17.1947 269.882 17.624C269.649 18.0533 269.532 18.5573 269.532 19.136C269.532 19.724 269.649 20.2373 269.882 20.676C270.116 21.1053 270.428 21.4367 270.82 21.67C271.212 21.894 271.646 22.006 272.122 22.006C272.598 22.006 273.032 21.894 273.424 21.67C273.826 21.4367 274.143 21.1053 274.376 20.676C274.61 20.2373 274.726 19.7287 274.726 19.15ZM285.167 18.87C285.167 19.1127 285.153 19.3693 285.125 19.64H278.993C279.04 20.396 279.297 20.9887 279.763 21.418C280.239 21.838 280.813 22.048 281.485 22.048C282.036 22.048 282.493 21.922 282.857 21.67C283.231 21.4087 283.492 21.0633 283.641 20.634H285.013C284.808 21.3713 284.397 21.9733 283.781 22.44C283.165 22.8973 282.4 23.126 281.485 23.126C280.757 23.126 280.104 22.9627 279.525 22.636C278.956 22.3093 278.508 21.8473 278.181 21.25C277.855 20.6433 277.691 19.9433 277.691 19.15C277.691 18.3567 277.85 17.6613 278.167 17.064C278.485 16.4667 278.928 16.0093 279.497 15.692C280.076 15.3653 280.739 15.202 281.485 15.202C282.213 15.202 282.857 15.3607 283.417 15.678C283.977 15.9953 284.407 16.434 284.705 16.994C285.013 17.5447 285.167 18.17 285.167 18.87ZM283.851 18.604C283.851 18.1187 283.744 17.7033 283.529 17.358C283.315 17.0033 283.021 16.7373 282.647 16.56C282.283 16.3733 281.877 16.28 281.429 16.28C280.785 16.28 280.235 16.4853 279.777 16.896C279.329 17.3067 279.073 17.876 279.007 18.604H283.851ZM288.403 16.378V20.9C288.403 21.2733 288.482 21.5393 288.641 21.698C288.8 21.8473 289.075 21.922 289.467 21.922H290.405V23H289.257C288.548 23 288.016 22.8367 287.661 22.51C287.306 22.1833 287.129 21.6467 287.129 20.9V16.378H286.135V15.328H287.129V13.396H288.403V15.328H290.405V16.378H288.403ZM291.472 19.136C291.472 18.352 291.631 17.666 291.948 17.078C292.266 16.4807 292.7 16.0187 293.25 15.692C293.81 15.3653 294.431 15.202 295.112 15.202C295.784 15.202 296.368 15.3467 296.862 15.636C297.357 15.9253 297.726 16.2893 297.968 16.728V15.328H299.256V23H297.968V21.572C297.716 22.02 297.338 22.3933 296.834 22.692C296.34 22.9813 295.761 23.126 295.098 23.126C294.417 23.126 293.801 22.958 293.25 22.622C292.7 22.286 292.266 21.8147 291.948 21.208C291.631 20.6013 291.472 19.9107 291.472 19.136ZM297.968 19.15C297.968 18.5713 297.852 18.0673 297.618 17.638C297.385 17.2087 297.068 16.882 296.666 16.658C296.274 16.4247 295.84 16.308 295.364 16.308C294.888 16.308 294.454 16.42 294.062 16.644C293.67 16.868 293.358 17.1947 293.124 17.624C292.891 18.0533 292.774 18.5573 292.774 19.136C292.774 19.724 292.891 20.2373 293.124 20.676C293.358 21.1053 293.67 21.4367 294.062 21.67C294.454 21.894 294.888 22.006 295.364 22.006C295.84 22.006 296.274 21.894 296.666 21.67C297.068 21.4367 297.385 21.1053 297.618 20.676C297.852 20.2373 297.968 19.7287 297.968 19.15ZM302.683 16.756C302.945 16.2987 303.327 15.9253 303.831 15.636C304.335 15.3467 304.909 15.202 305.553 15.202C306.244 15.202 306.865 15.3653 307.415 15.692C307.966 16.0187 308.4 16.4807 308.717 17.078C309.035 17.666 309.193 18.352 309.193 19.136C309.193 19.9107 309.035 20.6013 308.717 21.208C308.4 21.8147 307.961 22.286 307.401 22.622C306.851 22.958 306.235 23.126 305.553 23.126C304.891 23.126 304.307 22.9813 303.803 22.692C303.309 22.4027 302.935 22.034 302.683 21.586V23H301.409V12.64H302.683V16.756ZM307.891 19.136C307.891 18.5573 307.775 18.0533 307.541 17.624C307.308 17.1947 306.991 16.868 306.589 16.644C306.197 16.42 305.763 16.308 305.287 16.308C304.821 16.308 304.387 16.4247 303.985 16.658C303.593 16.882 303.276 17.2133 303.033 17.652C302.8 18.0813 302.683 18.5807 302.683 19.15C302.683 19.7287 302.8 20.2373 303.033 20.676C303.276 21.1053 303.593 21.4367 303.985 21.67C304.387 21.894 304.821 22.006 305.287 22.006C305.763 22.006 306.197 21.894 306.589 21.67C306.991 21.4367 307.308 21.1053 307.541 20.676C307.775 20.2373 307.891 19.724 307.891 19.136ZM312.144 12.64V23H310.87V12.64H312.144ZM321.316 18.87C321.316 19.1127 321.302 19.3693 321.274 19.64H315.142C315.188 20.396 315.445 20.9887 315.912 21.418C316.388 21.838 316.962 22.048 317.634 22.048C318.184 22.048 318.642 21.922 319.006 21.67C319.379 21.4087 319.64 21.0633 319.79 20.634H321.162C320.956 21.3713 320.546 21.9733 319.93 22.44C319.314 22.8973 318.548 23.126 317.634 23.126C316.906 23.126 316.252 22.9627 315.674 22.636C315.104 22.3093 314.656 21.8473 314.33 21.25C314.003 20.6433 313.84 19.9433 313.84 19.15C313.84 18.3567 313.998 17.6613 314.316 17.064C314.633 16.4667 315.076 16.0093 315.646 15.692C316.224 15.3653 316.887 15.202 317.634 15.202C318.362 15.202 319.006 15.3607 319.566 15.678C320.126 15.9953 320.555 16.434 320.854 16.994C321.162 17.5447 321.316 18.17 321.316 18.87ZM320 18.604C320 18.1187 319.892 17.7033 319.678 17.358C319.463 17.0033 319.169 16.7373 318.796 16.56C318.432 16.3733 318.026 16.28 317.578 16.28C316.934 16.28 316.383 16.4853 315.926 16.896C315.478 17.3067 315.221 17.876 315.156 18.604H320Z" fill="#3D3A3A"/>
</svg>
