<svg width="327" height="37" viewBox="0 0 327 37" fill="none" xmlns="http://www.w3.org/2000/svg">
<rect x="0.0143127" y="0.5" width="72" height="36" rx="18" fill="#F7F7F7"/>
<path d="M27.2303 23L24.9063 19.01H23.3663V23H22.0923V13.242H25.2423C25.9796 13.242 26.6003 13.368 27.1043 13.62C27.6176 13.872 28.0003 14.2127 28.2523 14.642C28.5043 15.0713 28.6303 15.5613 28.6303 16.112C28.6303 16.784 28.4343 17.3767 28.0423 17.89C27.6596 18.4033 27.081 18.744 26.3063 18.912L28.7563 23H27.2303ZM23.3663 17.988H25.2423C25.933 17.988 26.451 17.82 26.7963 17.484C27.1416 17.1387 27.3143 16.6813 27.3143 16.112C27.3143 15.5333 27.1416 15.0853 26.7963 14.768C26.4603 14.4507 25.9423 14.292 25.2423 14.292H23.3663V17.988ZM31.2679 14.082C31.0252 14.082 30.8199 13.998 30.6519 13.83C30.4839 13.662 30.3999 13.4567 30.3999 13.214C30.3999 12.9713 30.4839 12.766 30.6519 12.598C30.8199 12.43 31.0252 12.346 31.2679 12.346C31.5012 12.346 31.6972 12.43 31.8559 12.598C32.0239 12.766 32.1079 12.9713 32.1079 13.214C32.1079 13.4567 32.0239 13.662 31.8559 13.83C31.6972 13.998 31.5012 14.082 31.2679 14.082ZM31.8839 15.328V23H30.6099V15.328H31.8839ZM33.5792 19.15C33.5792 18.3567 33.7379 17.666 34.0552 17.078C34.3725 16.4807 34.8112 16.0187 35.3712 15.692C35.9405 15.3653 36.5892 15.202 37.3172 15.202C38.2599 15.202 39.0345 15.4307 39.6412 15.888C40.2572 16.3453 40.6632 16.98 40.8592 17.792H39.4872C39.3565 17.3253 39.0999 16.9567 38.7172 16.686C38.3439 16.4153 37.8772 16.28 37.3172 16.28C36.5892 16.28 36.0012 16.532 35.5532 17.036C35.1052 17.5307 34.8812 18.2353 34.8812 19.15C34.8812 20.074 35.1052 20.788 35.5532 21.292C36.0012 21.796 36.5892 22.048 37.3172 22.048C37.8772 22.048 38.3439 21.9173 38.7172 21.656C39.0905 21.3947 39.3472 21.0213 39.4872 20.536H40.8592C40.6539 21.32 40.2432 21.95 39.6272 22.426C39.0112 22.8927 38.2412 23.126 37.3172 23.126C36.5892 23.126 35.9405 22.9627 35.3712 22.636C34.8112 22.3093 34.3725 21.8473 34.0552 21.25C33.7379 20.6527 33.5792 19.9527 33.5792 19.15ZM49.5591 18.87C49.5591 19.1127 49.5451 19.3693 49.5171 19.64H43.3851C43.4318 20.396 43.6884 20.9887 44.1551 21.418C44.6311 21.838 45.2051 22.048 45.8771 22.048C46.4278 22.048 46.8851 21.922 47.2491 21.67C47.6224 21.4087 47.8838 21.0633 48.0331 20.634H49.4051C49.1998 21.3713 48.7891 21.9733 48.1731 22.44C47.5571 22.8973 46.7918 23.126 45.8771 23.126C45.1491 23.126 44.4958 22.9627 43.9171 22.636C43.3478 22.3093 42.8998 21.8473 42.5731 21.25C42.2464 20.6433 42.0831 19.9433 42.0831 19.15C42.0831 18.3567 42.2418 17.6613 42.5591 17.064C42.8764 16.4667 43.3198 16.0093 43.8891 15.692C44.4678 15.3653 45.1304 15.202 45.8771 15.202C46.6051 15.202 47.2491 15.3607 47.8091 15.678C48.3691 15.9953 48.7984 16.434 49.0971 16.994C49.4051 17.5447 49.5591 18.17 49.5591 18.87ZM48.2431 18.604C48.2431 18.1187 48.1358 17.7033 47.9211 17.358C47.7064 17.0033 47.4124 16.7373 47.0391 16.56C46.6751 16.3733 46.2691 16.28 45.8211 16.28C45.1771 16.28 44.6264 16.4853 44.1691 16.896C43.7211 17.3067 43.4644 17.876 43.3991 18.604H48.2431Z" fill="#3D3A3A"/>
<rect x="82.0143" y="0.5" width="67" height="36" rx="18" fill="#F7F7F7"/>
<path d="M105.978 17.974C106.333 18.03 106.655 18.1747 106.944 18.408C107.243 18.6413 107.476 18.9307 107.644 19.276C107.822 19.6213 107.91 19.99 107.91 20.382C107.91 20.8767 107.784 21.3247 107.532 21.726C107.28 22.118 106.912 22.4307 106.426 22.664C105.95 22.888 105.386 23 104.732 23H101.092V13.242H104.592C105.255 13.242 105.82 13.354 106.286 13.578C106.753 13.7927 107.103 14.0867 107.336 14.46C107.57 14.8333 107.686 15.2533 107.686 15.72C107.686 16.2987 107.528 16.7793 107.21 17.162C106.902 17.5353 106.492 17.806 105.978 17.974ZM102.366 17.456H104.508C105.106 17.456 105.568 17.316 105.894 17.036C106.221 16.756 106.384 16.3687 106.384 15.874C106.384 15.3793 106.221 14.992 105.894 14.712C105.568 14.432 105.096 14.292 104.48 14.292H102.366V17.456ZM104.62 21.95C105.255 21.95 105.75 21.8007 106.104 21.502C106.459 21.2033 106.636 20.788 106.636 20.256C106.636 19.7147 106.45 19.29 106.076 18.982C105.703 18.6647 105.204 18.506 104.578 18.506H102.366V21.95H104.62ZM116.678 18.87C116.678 19.1127 116.664 19.3693 116.636 19.64H110.504C110.551 20.396 110.808 20.9887 111.274 21.418C111.75 21.838 112.324 22.048 112.996 22.048C113.547 22.048 114.004 21.922 114.368 21.67C114.742 21.4087 115.003 21.0633 115.152 20.634H116.524C116.319 21.3713 115.908 21.9733 115.292 22.44C114.676 22.8973 113.911 23.126 112.996 23.126C112.268 23.126 111.615 22.9627 111.036 22.636C110.467 22.3093 110.019 21.8473 109.692 21.25C109.366 20.6433 109.202 19.9433 109.202 19.15C109.202 18.3567 109.361 17.6613 109.678 17.064C109.996 16.4667 110.439 16.0093 111.008 15.692C111.587 15.3653 112.25 15.202 112.996 15.202C113.724 15.202 114.368 15.3607 114.928 15.678C115.488 15.9953 115.918 16.434 116.216 16.994C116.524 17.5447 116.678 18.17 116.678 18.87ZM115.362 18.604C115.362 18.1187 115.255 17.7033 115.04 17.358C114.826 17.0033 114.532 16.7373 114.158 16.56C113.794 16.3733 113.388 16.28 112.94 16.28C112.296 16.28 111.746 16.4853 111.288 16.896C110.84 17.3067 110.584 17.876 110.518 18.604H115.362ZM125.36 18.87C125.36 19.1127 125.346 19.3693 125.318 19.64H119.186C119.233 20.396 119.489 20.9887 119.956 21.418C120.432 21.838 121.006 22.048 121.678 22.048C122.229 22.048 122.686 21.922 123.05 21.67C123.423 21.4087 123.685 21.0633 123.834 20.634H125.206C125.001 21.3713 124.59 21.9733 123.974 22.44C123.358 22.8973 122.593 23.126 121.678 23.126C120.95 23.126 120.297 22.9627 119.718 22.636C119.149 22.3093 118.701 21.8473 118.374 21.25C118.047 20.6433 117.884 19.9433 117.884 19.15C117.884 18.3567 118.043 17.6613 118.36 17.064C118.677 16.4667 119.121 16.0093 119.69 15.692C120.269 15.3653 120.931 15.202 121.678 15.202C122.406 15.202 123.05 15.3607 123.61 15.678C124.17 15.9953 124.599 16.434 124.898 16.994C125.206 17.5447 125.36 18.17 125.36 18.87ZM124.044 18.604C124.044 18.1187 123.937 17.7033 123.722 17.358C123.507 17.0033 123.213 16.7373 122.84 16.56C122.476 16.3733 122.07 16.28 121.622 16.28C120.978 16.28 120.427 16.4853 119.97 16.896C119.522 17.3067 119.265 17.876 119.2 18.604H124.044ZM130.164 16.378H128.554V23H127.28V16.378H126.286V15.328H127.28V14.782C127.28 13.9233 127.499 13.298 127.938 12.906C128.386 12.5047 129.1 12.304 130.08 12.304V13.368C129.52 13.368 129.123 13.48 128.89 13.704C128.666 13.9187 128.554 14.278 128.554 14.782V15.328H130.164V16.378Z" fill="#3D3A3A"/>
<rect x="159.014" y="0.5" width="75" height="36" rx="18" fill="#F7F7F7"/>
<path d="M168.616 18.114C168.616 17.162 168.831 16.308 169.26 15.552C169.69 14.7867 170.273 14.1893 171.01 13.76C171.757 13.3307 172.583 13.116 173.488 13.116C174.552 13.116 175.481 13.3727 176.274 13.886C177.068 14.3993 177.646 15.1273 178.01 16.07H176.484C176.214 15.482 175.822 15.0293 175.308 14.712C174.804 14.3947 174.198 14.236 173.488 14.236C172.807 14.236 172.196 14.3947 171.654 14.712C171.113 15.0293 170.688 15.482 170.38 16.07C170.072 16.6487 169.918 17.33 169.918 18.114C169.918 18.8887 170.072 19.57 170.38 20.158C170.688 20.7367 171.113 21.1847 171.654 21.502C172.196 21.8193 172.807 21.978 173.488 21.978C174.198 21.978 174.804 21.824 175.308 21.516C175.822 21.1987 176.214 20.746 176.484 20.158H178.01C177.646 21.0913 177.068 21.8147 176.274 22.328C175.481 22.832 174.552 23.084 173.488 23.084C172.583 23.084 171.757 22.874 171.01 22.454C170.273 22.0247 169.69 21.432 169.26 20.676C168.831 19.92 168.616 19.066 168.616 18.114ZM183.715 15.188C184.293 15.188 184.816 15.314 185.283 15.566C185.749 15.8087 186.113 16.1773 186.375 16.672C186.645 17.1667 186.781 17.7687 186.781 18.478V23H185.521V18.66C185.521 17.8947 185.329 17.3113 184.947 16.91C184.564 16.4993 184.041 16.294 183.379 16.294C182.707 16.294 182.17 16.504 181.769 16.924C181.377 17.344 181.181 17.9553 181.181 18.758V23H179.907V12.64H181.181V16.42C181.433 16.028 181.778 15.7247 182.217 15.51C182.665 15.2953 183.164 15.188 183.715 15.188ZM189.52 14.082C189.277 14.082 189.072 13.998 188.904 13.83C188.736 13.662 188.652 13.4567 188.652 13.214C188.652 12.9713 188.736 12.766 188.904 12.598C189.072 12.43 189.277 12.346 189.52 12.346C189.753 12.346 189.949 12.43 190.108 12.598C190.276 12.766 190.36 12.9713 190.36 13.214C190.36 13.4567 190.276 13.662 190.108 13.83C189.949 13.998 189.753 14.082 189.52 14.082ZM190.136 15.328V23H188.862V15.328H190.136ZM191.831 19.15C191.831 18.3567 191.99 17.666 192.307 17.078C192.624 16.4807 193.063 16.0187 193.623 15.692C194.192 15.3653 194.841 15.202 195.569 15.202C196.512 15.202 197.286 15.4307 197.893 15.888C198.509 16.3453 198.915 16.98 199.111 17.792H197.739C197.608 17.3253 197.352 16.9567 196.969 16.686C196.596 16.4153 196.129 16.28 195.569 16.28C194.841 16.28 194.253 16.532 193.805 17.036C193.357 17.5307 193.133 18.2353 193.133 19.15C193.133 20.074 193.357 20.788 193.805 21.292C194.253 21.796 194.841 22.048 195.569 22.048C196.129 22.048 196.596 21.9173 196.969 21.656C197.342 21.3947 197.599 21.0213 197.739 20.536H199.111C198.906 21.32 198.495 21.95 197.879 22.426C197.263 22.8927 196.493 23.126 195.569 23.126C194.841 23.126 194.192 22.9627 193.623 22.636C193.063 22.3093 192.624 21.8473 192.307 21.25C191.99 20.6527 191.831 19.9527 191.831 19.15ZM205.095 23L202.085 19.612V23H200.811V12.64H202.085V18.73L205.039 15.328H206.817L203.205 19.15L206.831 23H205.095ZM215.016 18.87C215.016 19.1127 215.002 19.3693 214.974 19.64H208.842C208.889 20.396 209.145 20.9887 209.612 21.418C210.088 21.838 210.662 22.048 211.334 22.048C211.885 22.048 212.342 21.922 212.706 21.67C213.079 21.4087 213.341 21.0633 213.49 20.634H214.862C214.657 21.3713 214.246 21.9733 213.63 22.44C213.014 22.8973 212.249 23.126 211.334 23.126C210.606 23.126 209.953 22.9627 209.374 22.636C208.805 22.3093 208.357 21.8473 208.03 21.25C207.703 20.6433 207.54 19.9433 207.54 19.15C207.54 18.3567 207.699 17.6613 208.016 17.064C208.333 16.4667 208.777 16.0093 209.346 15.692C209.925 15.3653 210.587 15.202 211.334 15.202C212.062 15.202 212.706 15.3607 213.266 15.678C213.826 15.9953 214.255 16.434 214.554 16.994C214.862 17.5447 215.016 18.17 215.016 18.87ZM213.7 18.604C213.7 18.1187 213.593 17.7033 213.378 17.358C213.163 17.0033 212.869 16.7373 212.496 16.56C212.132 16.3733 211.726 16.28 211.278 16.28C210.634 16.28 210.083 16.4853 209.626 16.896C209.178 17.3067 208.921 17.876 208.856 18.604H213.7ZM220.436 15.188C221.369 15.188 222.125 15.4727 222.704 16.042C223.282 16.602 223.572 17.414 223.572 18.478V23H222.312V18.66C222.312 17.8947 222.12 17.3113 221.738 16.91C221.355 16.4993 220.832 16.294 220.17 16.294C219.498 16.294 218.961 16.504 218.56 16.924C218.168 17.344 217.972 17.9553 217.972 18.758V23H216.698V15.328H217.972V16.42C218.224 16.028 218.564 15.7247 218.994 15.51C219.432 15.2953 219.913 15.188 220.436 15.188Z" fill="#3D3A3A"/>
<rect x="244.014" y="0.5" width="82" height="36" rx="18" fill="#F7F7F7"/>
<path d="M249.686 23.098C249.042 23.098 248.464 22.986 247.95 22.762C247.446 22.5287 247.05 22.2113 246.76 21.81C246.471 21.3993 246.322 20.928 246.312 20.396H247.67C247.717 20.8533 247.904 21.2407 248.23 21.558C248.566 21.866 249.052 22.02 249.686 22.02C250.293 22.02 250.769 21.8707 251.114 21.572C251.469 21.264 251.646 20.872 251.646 20.396C251.646 20.0227 251.544 19.7193 251.338 19.486C251.133 19.2527 250.876 19.0753 250.568 18.954C250.26 18.8327 249.845 18.702 249.322 18.562C248.678 18.394 248.16 18.226 247.768 18.058C247.386 17.89 247.054 17.6287 246.774 17.274C246.504 16.91 246.368 16.4247 246.368 15.818C246.368 15.286 246.504 14.8147 246.774 14.404C247.045 13.9933 247.423 13.676 247.908 13.452C248.403 13.228 248.968 13.116 249.602 13.116C250.517 13.116 251.264 13.3447 251.842 13.802C252.43 14.2593 252.762 14.866 252.836 15.622H251.436C251.39 15.2487 251.194 14.922 250.848 14.642C250.503 14.3527 250.046 14.208 249.476 14.208C248.944 14.208 248.51 14.348 248.174 14.628C247.838 14.8987 247.67 15.2813 247.67 15.776C247.67 16.1307 247.768 16.42 247.964 16.644C248.17 16.868 248.417 17.0407 248.706 17.162C249.005 17.274 249.42 17.4047 249.952 17.554C250.596 17.7313 251.114 17.9087 251.506 18.086C251.898 18.254 252.234 18.52 252.514 18.884C252.794 19.2387 252.934 19.724 252.934 20.34C252.934 20.816 252.808 21.264 252.556 21.684C252.304 22.104 251.931 22.4447 251.436 22.706C250.942 22.9673 250.358 23.098 249.686 23.098ZM255.467 14.082C255.224 14.082 255.019 13.998 254.851 13.83C254.683 13.662 254.599 13.4567 254.599 13.214C254.599 12.9713 254.683 12.766 254.851 12.598C255.019 12.43 255.224 12.346 255.467 12.346C255.7 12.346 255.896 12.43 256.055 12.598C256.223 12.766 256.307 12.9713 256.307 13.214C256.307 13.4567 256.223 13.662 256.055 13.83C255.896 13.998 255.7 14.082 255.467 14.082ZM256.083 15.328V23H254.809V15.328H256.083ZM257.778 19.136C257.778 18.352 257.937 17.666 258.254 17.078C258.572 16.4807 259.006 16.0187 259.556 15.692C260.116 15.3653 260.742 15.202 261.432 15.202C262.03 15.202 262.585 15.342 263.098 15.622C263.612 15.8927 264.004 16.252 264.274 16.7V12.64H265.562V23H264.274V21.558C264.022 22.0153 263.649 22.3933 263.154 22.692C262.66 22.9813 262.081 23.126 261.418 23.126C260.737 23.126 260.116 22.958 259.556 22.622C259.006 22.286 258.572 21.8147 258.254 21.208C257.937 20.6013 257.778 19.9107 257.778 19.136ZM264.274 19.15C264.274 18.5713 264.158 18.0673 263.924 17.638C263.691 17.2087 263.374 16.882 262.972 16.658C262.58 16.4247 262.146 16.308 261.67 16.308C261.194 16.308 260.76 16.42 260.368 16.644C259.976 16.868 259.664 17.1947 259.43 17.624C259.197 18.0533 259.08 18.5573 259.08 19.136C259.08 19.724 259.197 20.2373 259.43 20.676C259.664 21.1053 259.976 21.4367 260.368 21.67C260.76 21.894 261.194 22.006 261.67 22.006C262.146 22.006 262.58 21.894 262.972 21.67C263.374 21.4367 263.691 21.1053 263.924 20.676C264.158 20.2373 264.274 19.7287 264.274 19.15ZM274.715 18.87C274.715 19.1127 274.701 19.3693 274.673 19.64H268.541C268.588 20.396 268.845 20.9887 269.311 21.418C269.787 21.838 270.361 22.048 271.033 22.048C271.584 22.048 272.041 21.922 272.405 21.67C272.779 21.4087 273.04 21.0633 273.189 20.634H274.561C274.356 21.3713 273.945 21.9733 273.329 22.44C272.713 22.8973 271.948 23.126 271.033 23.126C270.305 23.126 269.652 22.9627 269.073 22.636C268.504 22.3093 268.056 21.8473 267.729 21.25C267.403 20.6433 267.239 19.9433 267.239 19.15C267.239 18.3567 267.398 17.6613 267.715 17.064C268.033 16.4667 268.476 16.0093 269.045 15.692C269.624 15.3653 270.287 15.202 271.033 15.202C271.761 15.202 272.405 15.3607 272.965 15.678C273.525 15.9953 273.955 16.434 274.253 16.994C274.561 17.5447 274.715 18.17 274.715 18.87ZM273.399 18.604C273.399 18.1187 273.292 17.7033 273.077 17.358C272.863 17.0033 272.569 16.7373 272.195 16.56C271.831 16.3733 271.425 16.28 270.977 16.28C270.333 16.28 269.783 16.4853 269.325 16.896C268.877 17.3067 268.621 17.876 268.555 18.604H273.399ZM279.653 19.136C279.653 18.352 279.812 17.666 280.129 17.078C280.447 16.4807 280.881 16.0187 281.431 15.692C281.991 15.3653 282.617 15.202 283.307 15.202C283.905 15.202 284.46 15.342 284.973 15.622C285.487 15.8927 285.879 16.252 286.149 16.7V12.64H287.437V23H286.149V21.558C285.897 22.0153 285.524 22.3933 285.029 22.692C284.535 22.9813 283.956 23.126 283.293 23.126C282.612 23.126 281.991 22.958 281.431 22.622C280.881 22.286 280.447 21.8147 280.129 21.208C279.812 20.6013 279.653 19.9107 279.653 19.136ZM286.149 19.15C286.149 18.5713 286.033 18.0673 285.799 17.638C285.566 17.2087 285.249 16.882 284.847 16.658C284.455 16.4247 284.021 16.308 283.545 16.308C283.069 16.308 282.635 16.42 282.243 16.644C281.851 16.868 281.539 17.1947 281.305 17.624C281.072 18.0533 280.955 18.5573 280.955 19.136C280.955 19.724 281.072 20.2373 281.305 20.676C281.539 21.1053 281.851 21.4367 282.243 21.67C282.635 21.894 283.069 22.006 283.545 22.006C284.021 22.006 284.455 21.894 284.847 21.67C285.249 21.4367 285.566 21.1053 285.799 20.676C286.033 20.2373 286.149 19.7287 286.149 19.15ZM290.248 14.082C290.006 14.082 289.8 13.998 289.632 13.83C289.464 13.662 289.38 13.4567 289.38 13.214C289.38 12.9713 289.464 12.766 289.632 12.598C289.8 12.43 290.006 12.346 290.248 12.346C290.482 12.346 290.678 12.43 290.836 12.598C291.004 12.766 291.088 12.9713 291.088 13.214C291.088 13.4567 291.004 13.662 290.836 13.83C290.678 13.998 290.482 14.082 290.248 14.082ZM290.864 15.328V23H289.59V15.328H290.864ZM295.752 23.126C295.164 23.126 294.636 23.028 294.17 22.832C293.703 22.6267 293.334 22.3467 293.064 21.992C292.793 21.628 292.644 21.2127 292.616 20.746H293.932C293.969 21.1287 294.146 21.4413 294.464 21.684C294.79 21.9267 295.215 22.048 295.738 22.048C296.223 22.048 296.606 21.9407 296.886 21.726C297.166 21.5113 297.306 21.2407 297.306 20.914C297.306 20.578 297.156 20.3307 296.858 20.172C296.559 20.004 296.097 19.8407 295.472 19.682C294.902 19.5327 294.436 19.3833 294.072 19.234C293.717 19.0753 293.409 18.8467 293.148 18.548C292.896 18.24 292.77 17.8387 292.77 17.344C292.77 16.952 292.886 16.5927 293.12 16.266C293.353 15.9393 293.684 15.6827 294.114 15.496C294.543 15.3 295.033 15.202 295.584 15.202C296.433 15.202 297.119 15.4167 297.642 15.846C298.164 16.2753 298.444 16.8633 298.482 17.61H297.208C297.18 17.2087 297.016 16.8867 296.718 16.644C296.428 16.4013 296.036 16.28 295.542 16.28C295.084 16.28 294.72 16.378 294.45 16.574C294.179 16.77 294.044 17.0267 294.044 17.344C294.044 17.596 294.123 17.806 294.282 17.974C294.45 18.1327 294.655 18.2633 294.898 18.366C295.15 18.4593 295.495 18.5667 295.934 18.688C296.484 18.8373 296.932 18.9867 297.278 19.136C297.623 19.276 297.917 19.4907 298.16 19.78C298.412 20.0693 298.542 20.4473 298.552 20.914C298.552 21.334 298.435 21.712 298.202 22.048C297.968 22.384 297.637 22.65 297.208 22.846C296.788 23.0327 296.302 23.126 295.752 23.126ZM304.158 15.188C304.737 15.188 305.259 15.314 305.726 15.566C306.193 15.8087 306.557 16.1773 306.818 16.672C307.089 17.1667 307.224 17.7687 307.224 18.478V23H305.964V18.66C305.964 17.8947 305.773 17.3113 305.39 16.91C305.007 16.4993 304.485 16.294 303.822 16.294C303.15 16.294 302.613 16.504 302.212 16.924C301.82 17.344 301.624 17.9553 301.624 18.758V23H300.35V12.64H301.624V16.42C301.876 16.028 302.221 15.7247 302.66 15.51C303.108 15.2953 303.607 15.188 304.158 15.188ZM316.305 18.87C316.305 19.1127 316.291 19.3693 316.263 19.64H310.131C310.178 20.396 310.435 20.9887 310.901 21.418C311.377 21.838 311.951 22.048 312.623 22.048C313.174 22.048 313.631 21.922 313.995 21.67C314.369 21.4087 314.63 21.0633 314.779 20.634H316.151C315.946 21.3713 315.535 21.9733 314.919 22.44C314.303 22.8973 313.538 23.126 312.623 23.126C311.895 23.126 311.242 22.9627 310.663 22.636C310.094 22.3093 309.646 21.8473 309.319 21.25C308.993 20.6433 308.829 19.9433 308.829 19.15C308.829 18.3567 308.988 17.6613 309.305 17.064C309.623 16.4667 310.066 16.0093 310.635 15.692C311.214 15.3653 311.877 15.202 312.623 15.202C313.351 15.202 313.995 15.3607 314.555 15.678C315.115 15.9953 315.545 16.434 315.843 16.994C316.151 17.5447 316.305 18.17 316.305 18.87ZM314.989 18.604C314.989 18.1187 314.882 17.7033 314.667 17.358C314.453 17.0033 314.159 16.7373 313.785 16.56C313.421 16.3733 313.015 16.28 312.567 16.28C311.923 16.28 311.373 16.4853 310.915 16.896C310.467 17.3067 310.211 17.876 310.145 18.604H314.989ZM320.703 23.126C320.115 23.126 319.588 23.028 319.121 22.832C318.654 22.6267 318.286 22.3467 318.015 21.992C317.744 21.628 317.595 21.2127 317.567 20.746H318.883C318.92 21.1287 319.098 21.4413 319.415 21.684C319.742 21.9267 320.166 22.048 320.689 22.048C321.174 22.048 321.557 21.9407 321.837 21.726C322.117 21.5113 322.257 21.2407 322.257 20.914C322.257 20.578 322.108 20.3307 321.809 20.172C321.51 20.004 321.048 19.8407 320.423 19.682C319.854 19.5327 319.387 19.3833 319.023 19.234C318.668 19.0753 318.36 18.8467 318.099 18.548C317.847 18.24 317.721 17.8387 317.721 17.344C317.721 16.952 317.838 16.5927 318.071 16.266C318.304 15.9393 318.636 15.6827 319.065 15.496C319.494 15.3 319.984 15.202 320.535 15.202C321.384 15.202 322.07 15.4167 322.593 15.846C323.116 16.2753 323.396 16.8633 323.433 17.61H322.159C322.131 17.2087 321.968 16.8867 321.669 16.644C321.38 16.4013 320.988 16.28 320.493 16.28C320.036 16.28 319.672 16.378 319.401 16.574C319.13 16.77 318.995 17.0267 318.995 17.344C318.995 17.596 319.074 17.806 319.233 17.974C319.401 18.1327 319.606 18.2633 319.849 18.366C320.101 18.4593 320.446 18.5667 320.885 18.688C321.436 18.8373 321.884 18.9867 322.229 19.136C322.574 19.276 322.868 19.4907 323.111 19.78C323.363 20.0693 323.494 20.4473 323.503 20.914C323.503 21.334 323.386 21.712 323.153 22.048C322.92 22.384 322.588 22.65 322.159 22.846C321.739 23.0327 321.254 23.126 320.703 23.126Z" fill="#3D3A3A"/>
</svg>
