<svg width="41" height="41" viewBox="0 0 41 41" fill="none" xmlns="http://www.w3.org/2000/svg">
<rect x="0.430176" y="0.279785" width="39.8604" height="39.8604" rx="6.64339" fill="#F7F7F7"/>
<path d="M20.2905 20.3522C20.5978 20.3522 20.9021 20.2917 21.186 20.1741C21.4699 20.0565 21.7279 19.8842 21.9452 19.6669C22.1624 19.4496 22.3348 19.1916 22.4524 18.9077C22.57 18.6238 22.6305 18.3195 22.6305 18.0122C22.6305 17.7049 22.57 17.4007 22.4524 17.1168C22.3348 16.8329 22.1624 16.5749 21.9452 16.3576C21.7279 16.1403 21.4699 15.968 21.186 15.8504C20.9021 15.7328 20.5978 15.6722 20.2905 15.6722C19.6699 15.6722 19.0747 15.9188 18.6359 16.3576C18.1971 16.7964 17.9505 17.3916 17.9505 18.0122C17.9505 18.6328 18.1971 19.228 18.6359 19.6669C19.0747 20.1057 19.6699 20.3522 20.2905 20.3522Z" stroke="#2B2B2B" stroke-width="1.5"/>
<path d="M14.0055 16.6473C15.483 10.1523 25.1055 10.1598 26.5755 16.6548C27.438 20.4648 25.068 23.6898 22.9905 25.6848C22.2646 26.3849 21.2953 26.7762 20.2868 26.7762C19.2782 26.7762 18.309 26.3849 17.583 25.6848C15.513 23.6898 13.143 20.4573 14.0055 16.6473Z" stroke="#2B2B2B" stroke-width="1.5"/>
</svg>
